<svg version="1.1" xmlns="http://www.w3.org/2000/svg" xmlns:xlink="http://www.w3.org/1999/xlink" width="118.17647" height="50.32033" viewBox="0,0,118.17647,50.32033"><g transform="translate(-182.0813,-190.78619)"><g stroke-miterlimit="10"><g><path d="M287.75777,203.28619c-5.2368,10.84523 -14.16851,19.98107 -26.00552,25.32033c-24.6421,11.11518 -53.28438,1.90158 -67.09594,-20.51719" fill="none" stroke="#0285ff" stroke-width="25"/><path d="M299.04333,198.54645c2.81708,6.24541 0.03788,13.592 -6.20753,16.40909c-6.24541,2.81708 -13.59199,0.03786 -16.40907,-6.20753c-2.81708,-6.24541 -0.03786,-13.59199 6.20753,-16.40909c6.24541,-2.81708 13.59199,-0.03786 16.40907,6.20753z" fill="#0285ff" stroke="none" stroke-width="0"/><path d="M205.79814,202.61033c2.81709,6.2454 0.03786,13.59199 -6.20753,16.40909c-6.24541,2.81708 -13.59199,0.03786 -16.40909,-6.20753c-2.81708,-6.24539 -0.03786,-13.59199 6.20753,-16.40907c6.24541,-2.81708 13.592,-0.03788 16.40909,6.20753z" fill="#0285ff" stroke="none" stroke-width="0"/></g></g></g></svg>