<svg version="1.1" xmlns="http://www.w3.org/2000/svg" xmlns:xlink="http://www.w3.org/1999/xlink" width="25" height="54.39887" viewBox="0,0,25,54.39887"><g transform="translate(-227.5,-152.80059)"><g stroke-miterlimit="10"><path d="M240,165.30059v29.39887" fill="none" stroke="#d9d9d9" stroke-width="25" stroke-linecap="round"/><g><path d="M242.23719,165.48704c0.01507,-0.00024 0.03015,-0.00033 0.04528,-0.00027c1.2308,0.00535 2.22432,1.02447 2.21907,2.27628c-0.00004,0.00992 -0.00014,0.01982 -0.00032,0.02971l0.01816,4.2501c0,0.01532 -0.00017,0.03066 -0.00046,0.04604c-0.0247,1.25158 -1.04231,2.24581 -2.27289,2.22067c-0.00975,-0.0002 -0.01948,-0.00046 -0.0292,-0.00078l-4.36113,0.00072c-0.01507,0.00006 -0.03015,-0.00003 -0.04528,-0.00028c-1.23066,-0.02016 -2.21225,-1.05116 -2.19244,-2.30283c0.00017,-0.00991 0.00038,-0.01981 0.00066,-0.0297l0.0313,-4.25003c0.00018,-0.01532 0.00051,-0.03066 0.001,-0.04604c0.03926,-1.25119 1.06837,-2.23311 2.29857,-2.19317c0.00975,0.00032 0.01948,0.0007 0.0292,0.00114z" fill="#ff6666" stroke="#ff6666" stroke-width="1.5" stroke-linecap="butt"/><path d="M237.57055,165.38781l0.00382,-0.57139c0.0001,-0.00924 0.00028,-0.0185 0.00055,-0.02777c0.0215,-0.75475 0.5852,-1.34706 1.25905,-1.32297c0.00534,0.00019 0.01067,0.00043 0.01599,0.00069l2.3326,-0.00094c0.00826,-0.00015 0.01652,-0.00019 0.0248,-0.00016c0.67417,0.00323 1.21838,0.61798 1.2155,1.37311c-0.00002,0.00598 -0.00008,0.01196 -0.00017,0.01792l0.00205,0.52993" fill="none" stroke="#ff6666" stroke-width="1.5" stroke-linecap="butt"/><path d="M240.10895,171.72358v-1.70921" fill="none" stroke="#ffffff" stroke-width="1.5" stroke-linecap="round"/><path d="M238.93018,169.27764c0,-0.66729 0.54094,-1.20824 1.20823,-1.20824c0.66729,0 1.20824,0.54095 1.20824,1.20824c0,0.66729 -0.54095,1.20823 -1.20824,1.20823c-0.66729,0 -1.20823,-0.54094 -1.20823,-1.20823z" fill="#ffffff" stroke="none" stroke-width="0" stroke-linecap="butt"/></g><g><path d="M238.10853,191.21176v-6.17551" fill="none" stroke="#000000" stroke-width="3" stroke-linecap="round"/><path d="M238.25213,184.74903l4.41702,3.92624" fill="none" stroke="#000000" stroke-width="3" stroke-linecap="round"/><path d="M242.27341,188.91391l-4.16488,2.87234" fill="none" stroke="#000000" stroke-width="3" stroke-linecap="round"/><path d="M237.9465,188.16481c0,-1.04497 0.84712,-1.89211 1.89211,-1.89211c1.04497,0 1.89211,0.84712 1.89211,1.89211c0,1.04497 -0.84712,1.89211 -1.89211,1.89211c-1.04497,0 -1.89211,-0.84712 -1.89211,-1.89211z" fill="#000000" stroke="none" stroke-width="0" stroke-linecap="butt"/></g></g></g></svg>