<svg version="1.1" xmlns="http://www.w3.org/2000/svg" xmlns:xlink="http://www.w3.org/1999/xlink" width="21.62654" height="21.62654" viewBox="0,0,21.62654,21.62654"><g transform="translate(-229.18673,-169.18673)"><g data-paper-data="{&quot;isPaintingLayer&quot;:true}" fill-rule="nonzero" stroke-linecap="butt" stroke-linejoin="miter" stroke-miterlimit="10" stroke-dasharray="" stroke-dashoffset="0" style="mix-blend-mode: normal"><path d="M229.18673,180c0,-5.972 4.84127,-10.81327 10.81327,-10.81327c5.972,0 10.81327,4.84127 10.81327,10.81327c0,5.972 -4.84127,10.81327 -10.81327,10.81327c-5.972,0 -10.81327,-4.84127 -10.81327,-10.81327z" fill="#d9d9d9" stroke="none" stroke-width="0"/><path d="M234.86351,176.1551c0,-0.13686 0.02566,-0.25661 0.07698,-0.37636c0.05132,-0.11975 0.11975,-0.2224 0.20529,-0.30793c0.08554,-0.08554 0.18818,-0.15397 0.30793,-0.20529c0.11975,-0.05132 0.23951,-0.07698 0.37636,-0.07698h8.33988c0.13686,0 0.25661,0.02566 0.37636,0.07698c0.11975,0.05132 0.2224,0.11975 0.30793,0.20529c0.08554,0.08554 0.15397,0.18818 0.20529,0.30793c0.05132,0.11975 0.07698,0.23951 0.07698,0.37636c0,0.27372 -0.10264,0.50467 -0.29938,0.69285l-3.25041,3.09645c-0.04277,0.04277 -0.08554,0.09409 -0.12831,0.15397c-0.04277,0.05987 -0.06843,0.1112 -0.09409,0.16252c-0.05132,0.11975 -0.07698,0.24806 -0.07698,0.38492v3.84917c0,0.08554 -0.03422,0.16252 -0.09409,0.2224c-0.05987,0.05987 -0.13686,0.09409 -0.2224,0.09409c-0.05987,0 -0.11975,-0.01711 -0.17963,-0.05132l-1.92459,-1.28306c-0.09409,-0.05987 -0.14541,-0.15397 -0.14541,-0.26516v-2.56612c0,-0.13686 -0.02566,-0.25661 -0.07698,-0.38492c-0.02566,-0.05987 -0.05987,-0.11975 -0.09409,-0.17107c-0.03422,-0.05132 -0.07698,-0.10264 -0.12831,-0.14541l-3.25041,-3.09645c-0.21384,-0.18818 -0.30793,-0.41913 -0.30793,-0.69285zM244.48643,176.1551c0,-0.08554 -0.03422,-0.16252 -0.09409,-0.2224c-0.05987,-0.05987 -0.13686,-0.09409 -0.2224,-0.09409h-8.33988c-0.08554,0 -0.16252,0.03422 -0.2224,0.09409c-0.05987,0.05987 -0.09409,0.13686 -0.09409,0.2224c0,0.09409 0.03422,0.17963 0.10264,0.23951l3.25041,3.09645c0.15397,0.15397 0.28227,0.32504 0.36781,0.53033c0.08554,0.20529 0.12831,0.41058 0.12831,0.63298v2.39504l1.28306,0.85537v-3.25041c0,-0.21384 0.04277,-0.42769 0.12831,-0.63298c0.08554,-0.20529 0.20529,-0.38492 0.36781,-0.53033l3.25041,-3.09645c0.05987,-0.06843 0.09409,-0.14541 0.09409,-0.23951z" fill="#000000" stroke="#000000" stroke-width="0.6"/></g></g></svg>