<svg version="1.1" xmlns="http://www.w3.org/2000/svg" xmlns:xlink="http://www.w3.org/1999/xlink" width="25" height="54.39887" viewBox="0,0,25,54.39887"><g transform="translate(-227.5,-152.80059)"><g data-paper-data="{&quot;isPaintingLayer&quot;:true}" fill-rule="nonzero" stroke-linejoin="miter" stroke-miterlimit="10" stroke-dasharray="" stroke-dashoffset="0" style="mix-blend-mode: normal"><path d="M240,165.30059v29.39887" fill="none" stroke="#d9d9d9" stroke-width="25" stroke-linecap="round"/><g><path d="M242.18758,165.50799c0.01507,-0.00024 0.03016,-0.00033 0.04529,-0.00027c1.231,0.00535 2.22468,1.02464 2.21944,2.27666c-0.00004,0.00992 -0.00014,0.01982 -0.00032,0.02972l0.01816,4.2508c0,0.01532 -0.00017,0.03067 -0.00046,0.04605c-0.02471,1.25178 -1.04248,2.24618 -2.27326,2.22104c-0.00975,-0.0002 -0.01948,-0.00046 -0.02921,-0.00078l-4.36185,0.00072c-0.01507,0.00006 -0.03016,-0.00003 -0.04529,-0.00028c-1.23086,-0.02016 -2.21261,-1.05133 -2.1928,-2.30321c0.00017,-0.00991 0.00038,-0.01981 0.00066,-0.02971l0.03131,-4.25073c0.00018,-0.01532 0.00051,-0.03067 0.001,-0.04605c0.03926,-1.2514 1.06854,-2.23348 2.29895,-2.19353c0.00975,0.00032 0.01948,0.0007 0.0292,0.00114z" fill="none" stroke="#000000" stroke-width="1.5" stroke-linecap="butt"/><path d="M240.05899,171.74556v-1.70949" fill="none" stroke="#000000" stroke-width="1.5" stroke-linecap="round"/><path d="M238.88003,169.29922c0,-0.6674 0.54103,-1.20844 1.20843,-1.20844c0.6674,0 1.20844,0.54104 1.20844,1.20844c0,0.6674 -0.54104,1.20843 -1.20844,1.20843c-0.6674,0 -1.20843,-0.54103 -1.20843,-1.20843z" fill="#000000" stroke="none" stroke-width="0" stroke-linecap="butt"/><path d="M237.90687,165.39489l-0.22797,-0.50407c-0.00365,-0.00816 -0.00724,-0.01638 -0.01075,-0.02464c-0.28612,-0.67192 -0.01179,-1.40155 0.61272,-1.62966c0.00495,-0.00181 0.00991,-0.00357 0.01487,-0.00531l2.12764,-0.86383c0.00747,-0.00318 0.01499,-0.00628 0.02256,-0.00932c0.61635,-0.24659 1.36185,0.09288 1.66511,0.75824c0.00241,0.00527 0.00477,0.01055 0.0071,0.01583l0.21654,0.46543" fill="none" stroke="#000000" stroke-width="1.5" stroke-linecap="butt"/><path d="M241.60919,163.33657c0.08059,-0.40211 0.47229,-0.65611 0.87488,-0.56731c0.4026,0.08879 0.66363,0.48675 0.58304,0.88886c-0.08059,0.40211 -0.47229,0.6561 -0.87488,0.56731c-0.4026,-0.08879 -0.66363,-0.48675 -0.58304,-0.88886z" fill="#000000" stroke="none" stroke-width="0" stroke-linecap="butt"/></g><g><path d="M238.10853,191.21176v-6.17551" fill="none" stroke="#000000" stroke-width="3" stroke-linecap="round"/><path d="M238.25213,184.74903l4.41702,3.92624" fill="none" stroke="#000000" stroke-width="3" stroke-linecap="round"/><path d="M242.27341,188.91391l-4.16488,2.87234" fill="none" stroke="#000000" stroke-width="3" stroke-linecap="round"/><path d="M237.9465,188.16481c0,-1.04497 0.84712,-1.89211 1.89211,-1.89211c1.04497,0 1.89211,0.84712 1.89211,1.89211c0,1.04497 -0.84712,1.89211 -1.89211,1.89211c-1.04497,0 -1.89211,-0.84712 -1.89211,-1.89211z" fill="#000000" stroke="none" stroke-width="0" stroke-linecap="butt"/></g></g></g></svg>