<svg version="1.1" xmlns="http://www.w3.org/2000/svg" xmlns:xlink="http://www.w3.org/1999/xlink" width="156.96649" height="157.53093" viewBox="0,0,156.96649,157.53093"><defs><linearGradient x1="315.67019" y1="240.57146" x2="164.58188" y2="119.63024" gradientUnits="userSpaceOnUse" id="color-1"><stop offset="0" stop-color="#1b174e"/><stop offset="1" stop-color="#670054"/></linearGradient><linearGradient x1="162.40292" y1="193.80115" x2="300.22429" y2="193.80115" gradientUnits="userSpaceOnUse" id="color-2"><stop offset="0" stop-color="#4095ff"/><stop offset="1" stop-color="#62d0e0"/></linearGradient><linearGradient x1="283.45094" y1="201.6307" x2="162.11226" y2="201.6307" gradientUnits="userSpaceOnUse" id="color-3"><stop offset="0" stop-color="#5d1f7c"/><stop offset="1" stop-color="#3090bf"/></linearGradient><linearGradient x1="184.03567" y1="233.8516" x2="162.26597" y2="233.8516" gradientUnits="userSpaceOnUse" id="color-4"><stop offset="0" stop-color="#3581b6"/><stop offset="1" stop-color="#308fbf"/></linearGradient><linearGradient x1="249.53057" y1="214.52074" x2="176.14573" y2="214.52074" gradientUnits="userSpaceOnUse" id="color-5"><stop offset="0" stop-color="#0036a3"/><stop offset="1" stop-color="#3487ba"/></linearGradient><linearGradient x1="194.72251" y1="219.81988" x2="297.74728" y2="219.81988" gradientUnits="userSpaceOnUse" id="color-6"><stop offset="0" stop-color="#e200c4"/><stop offset="1" stop-color="#ffbdc0"/></linearGradient><linearGradient x1="192.23896" y1="175.23285" x2="241.77604" y2="172.40124" gradientUnits="userSpaceOnUse" id="color-7"><stop offset="0" stop-color="#e307c4"/><stop offset="1" stop-color="#ffb0b0"/></linearGradient></defs><g transform="translate(-161.51676,-101.40082)"><g data-paper-data="{&quot;isPaintingLayer&quot;:true}" fill-rule="nonzero" stroke-linejoin="miter" stroke-miterlimit="10" stroke-dasharray="" stroke-dashoffset="0" style="mix-blend-mode: normal"><path d="" fill="#ffffff" stroke="none" stroke-width="0" stroke-linecap="butt"/><path d="" fill="#ffffff" stroke="none" stroke-width="0" stroke-linecap="butt"/><path d="" fill="#ffffff" stroke="none" stroke-width="0" stroke-linecap="butt"/><path d="" fill="#ffffff" stroke="none" stroke-width="0" stroke-linecap="butt"/><path d="" fill="#ffffff" stroke="none" stroke-width="0" stroke-linecap="butt"/><g><path d="M194.82976,258.59917c-1.73535,-0.00747 -3.43877,-0.14975 -5.10035,-0.4169c-0.92161,-0.24435 -1.97048,-0.55552 -2.89823,-0.60197c-0.18428,-0.04711 -0.36794,-0.09577 -0.55095,-0.14598c-0.47394,-0.17778 -0.92873,-0.34607 -1.3423,-0.47015c-0.19803,-0.05939 -0.3953,-0.12136 -0.59142,-0.18676l-0.09452,-0.03151c0,0 -0.08464,-0.02822 -0.16999,-0.00072c-0.03957,-0.02893 -0.0879,-0.04661 -0.14027,-0.04831c-0.09267,-0.03312 -0.18514,-0.06663 -0.27743,-0.10056l-0.05635,-0.02809c-1.1685,-0.51903 -2.47301,-1.17089 -3.68438,-1.62036c-0.12976,-0.06718 -0.25899,-0.13521 -0.38773,-0.20407c-0.02339,-0.05157 -0.05622,-0.08441 -0.05622,-0.08441l-0.18013,-0.12932c-0.56807,-0.14101 -0.86915,-0.51149 -1.35404,-0.79358c0,0 -0.10002,-0.05715 -0.20346,-0.02657c-1.19501,-0.74004 -2.33887,-1.55475 -3.42507,-2.43763c0.01675,-0.14863 -0.12654,-0.2346 -0.12654,-0.2346c-0.37774,-0.2266 -0.70518,-0.51044 -1.05062,-0.76914c-0.11239,-0.1022 -0.22507,-0.20411 -0.33779,-0.30607c-0.20494,-0.18837 -0.40748,-0.37932 -0.60756,-0.5728c0.01185,-0.11603 -0.07814,-0.20602 -0.07814,-0.20602l-0.18458,-0.18457c-0.33216,-0.32508 -0.65468,-0.66357 -0.97744,-1.00367c-0.00373,-0.00957 -0.00644,-0.01497 -0.00644,-0.01497l-0.1395,-0.25009c-0.57682,-0.56448 -1.3094,-1.68112 -2.00127,-2.16745c-0.08322,-0.11018 -0.16576,-0.2209 -0.24762,-0.33215c-0.47585,-0.79037 -1.01926,-1.68003 -1.6133,-2.40869c-0.83552,-1.37521 -1.57266,-2.81678 -2.20169,-4.31495c-0.40396,-1.22738 -0.72243,-2.48422 -1.28463,-3.65566c-0.00272,-0.00947 -0.00542,-0.01895 -0.00812,-0.02843c-0.00711,-0.04499 -0.01388,-0.08994 -0.02029,-0.13484c0,0 -0.00945,-0.06612 -0.05265,-0.12543c-0.04702,-0.17048 -0.0927,-0.34151 -0.13701,-0.5131c0.00002,-0.00202 0.00004,-0.00403 0.00007,-0.00605c0,0 0,-0.06902 -0.03612,-0.13483c-0.02946,-0.11621 -0.0583,-0.23266 -0.08652,-0.34937c-0.0316,-0.2323 -0.05961,-0.46168 -0.08451,-0.6858c-0.10613,-0.3727 -0.20667,-0.74861 -0.29958,-1.12701c-0.19777,-1.08461 -0.34217,-2.18785 -0.43034,-3.30688c-0.00273,-0.24392 -0.00366,-0.4879 -0.00366,-0.73177c0,0 0,-0.091 -0.05468,-0.16365c-0.00984,-0.19079 -0.01804,-0.38202 -0.0246,-0.57367c0,-1.77117 0,-3.54232 0,-5.31348c0,-1.67659 0,-3.35319 0,-5.02979c0,0 0,-0.12404 -0.08702,-0.19809l-0.00954,-1.26877c0.00251,-0.12644 0.00396,-0.25275 0.00428,-0.37893c0,0 0,-0.02434 -0.00756,-0.05788l-0.60519,-80.46353c0.04647,-2.16938 0.30274,-4.28525 0.74909,-6.32857c0.23671,-0.75857 0.43447,-1.52378 0.584,-2.27632c0.34311,-1.16145 0.74868,-2.29564 1.21276,-3.39875c0.49295,-0.85254 0.94021,-1.7117 1.24693,-2.62895c5.58725,-10.53865 16.74499,-17.63517 29.47993,-17.44028h0.48397l89.73546,-0.78645c18.01753,-0.01705 32.66674,14.51953 32.78873,32.53667v0.49405l0.68562,91.99397c-0.29843,10.97091 -5.95987,20.54185 -14.41264,26.25994c-2.86676,1.068 -8.96541,3.10165 -10.75305,4.26477c-0.13668,0.08893 -0.29127,0.22767 -0.45924,0.40709c-0.16655,0.08392 -0.33043,0.17235 -0.49148,0.26514c-2.34951,0.48329 -4.78876,0.71434 -7.28736,0.66419h-0.48397z" fill="url(#color-1)" stroke="none" stroke-width="1" stroke-linecap="butt"/><path d="M185.5256,257.68928c0.00902,0.00319 0.01806,0.00638 0.0271,0.00959c-0.00265,0.00299 -0.00525,0.00608 -0.00778,0.00929c-0.00633,-0.0063 -0.01278,-0.01259 -0.01932,-0.01887z" fill="#ffffff" stroke="none" stroke-width="0" stroke-linecap="butt"/><path d="M300.22426,253.13253c0,0.54275 -0.00347,1.0847 -0.0104,1.62581c-0.77524,0.35285 -1.4975,0.80178 -2.15159,1.33158c-0.3833,0.04935 -0.75981,0.12041 -1.12824,0.21189c-1.83404,0.0754 -3.54064,0.64476 -4.99028,1.57859c-0.41707,0 -0.83413,0 -1.2512,0c-3.77656,0 -7.58565,0.33521 -11.42344,0.33521c-3.82501,0 -7.65004,0 -11.47506,0c-3.82501,0 -7.65004,0 -11.47506,0c-2.77959,0 -5.47759,0.36441 -8.19356,0.67041c-2.23622,0 -4.47244,0 -6.70866,0c-2.41241,0 -4.659,-0.3349 -7.04653,-0.33517c-1.2899,-0.00015 -3.07615,0.32145 -4.25023,-0.21399c-3.76155,-0.47438 -7.75417,-0.12125 -11.54364,-0.12125c-2.57797,0 -5.15593,0 -7.73391,0c-1.78794,-0.77519 -4.38576,-0.64925 -6.75809,-0.49054c-0.02053,-0.00443 -0.03385,-0.00538 -0.03385,-0.00538l-0.21664,-0.0156c-1.95419,-0.14033 -3.96812,-0.94493 -5.79626,-1.02456c-3.56725,-0.36109 -6.69545,-3.73616 -10.0376,-4.8842c-3.41689,-1.17072 -7.1961,-2.98895 -10.00944,-5.28419c-2.64005,-1.33688 -7.1881,-4.41357 -8.63187,-7.14612c-2.32665,-1.97246 -5.55689,-6.30998 -5.63822,-9.4237c-0.40204,-3.73172 -0.64717,-7.42545 -0.64717,-11.32223c0,-3.82501 0,-7.65004 0,-11.47505c0,-3.85837 -0.33521,-7.6272 -0.33521,-11.38238c-0.00001,-3.83288 -0.33521,-7.56192 -0.33521,-11.4243c0,-3.82501 0,-7.65004 0,-11.47506c0,-3.82501 0,-7.65004 0,-11.47506c0,-3.82501 0,-7.65004 0,-11.47505c0,-3.82501 0,-7.65004 0,-11.47506c0,-3.00236 0,-6.00474 0,-9.0071c4.40368,-0.47176 8.87611,-0.71375 13.40506,-0.71375c68.71322,0 124.41631,55.70307 124.41631,124.4163z" fill="url(#color-2)" stroke="none" stroke-width="0" stroke-linecap="butt"/><path d="M179.20835,253.24182c-0.66796,1.06875 -1.73672,0.40078 -1.73672,0.40078l-0.79435,-0.49652c-0.81661,-0.52887 -1.56795,-1.17166 -2.22438,-1.88976c0,0 -0.84312,-0.9368 0.09368,-1.77992c0.9368,-0.84312 1.77991,0.09368 1.77991,0.09368c0.49326,0.55925 1.07082,1.05564 1.70408,1.44941l0.77702,0.48559c0,0 1.06875,0.66797 0.40078,1.73673z" fill="#3387ba" stroke="none" stroke-width="0.5" stroke-linecap="butt"/><path d="M283.45091,253.86634c0,0.95972 -0.01234,1.91657 -0.03688,2.87038c-0.69751,0.30402 -1.27241,0.58665 -1.64357,0.82814c-0.15137,0.09848 -0.32683,0.26398 -0.51898,0.48154c-2.06411,0 -4.12823,0 -6.19234,0c-3.32491,0 -6.67844,0.29512 -10.05725,0.29512c-3.36756,0 -6.73514,0 -10.10271,0c-3.36756,0 -6.73513,0 -10.1027,0c-2.44717,0 -4.82251,0.32082 -7.21366,0.59023c-1.96878,0 -3.93756,0 -5.90634,0c-2.1239,0 -4.10181,-0.29485 -6.2038,-0.29508c-1.13563,-0.00013 -2.70826,0.28301 -3.74192,-0.18839c-3.31169,-0.41764 -6.82681,-0.10675 -10.16308,-0.10675c-2.26966,0 -4.53932,0 -6.80898,0c-1.57411,-0.68248 -3.86124,-0.5716 -5.94985,-0.43187c-0.01808,-0.00389 -0.02981,-0.00474 -0.02981,-0.00474l-0.19073,-0.01373c-1.72048,-0.12355 -3.49355,-0.83192 -5.10305,-0.90202c-3.14062,-0.3179 -5.89471,-3.28933 -8.83715,-4.30008c-3.00824,-1.03071 -6.33549,-2.63149 -8.81237,-4.65223c-2.32432,-1.177 -6.32844,-3.88573 -7.59954,-6.29148c-2.04839,-1.73657 -4.89232,-5.55533 -4.96392,-8.29667c-0.35396,-3.28543 -0.56977,-6.53741 -0.56977,-9.96815c0,-3.36756 0,-6.73513 0,-10.1027c0,-3.39694 -0.29512,-6.71503 -0.29512,-10.02111c-0.00001,-3.37449 -0.29512,-6.65755 -0.29512,-10.05802c0,-3.36756 0,-6.73513 0,-10.1027c0,-3.36756 0,-6.73514 0,-10.10271c0,-3.36756 0,-6.73513 0,-10.1027c0,-3.36756 0,-6.73513 0,-10.1027c0,-2.6433 0,-5.2866 0,-7.9299c3.87703,-0.41534 7.81458,-0.62839 11.80189,-0.62839c60.4955,0 109.53679,49.04128 109.53679,109.53678z" fill="url(#color-3)" stroke="none" stroke-width="0" stroke-linecap="butt"/><path d="M163.53059,215.77148c0.65324,3.5834 2.11825,7.13983 3.52293,9.67368c0.8396,1.51452 4.71704,4.89423 4.99349,6.45588c1.16742,6.59466 5.99528,14.39248 11.98866,20.03068h-10.62248c0.00477,-0.12651 -0.11651,-0.19927 -0.11651,-0.19927c-0.34449,-0.20666 -0.64311,-0.46552 -0.95816,-0.70145c-0.2878,-0.26168 -0.57766,-0.52133 -0.86447,-0.78562c0.02144,-0.11339 -0.06896,-0.20379 -0.06896,-0.20379l-0.16833,-0.16833c-0.30292,-0.29647 -0.59707,-0.60517 -0.89142,-0.91534c-0.0034,-0.00873 -0.00587,-0.01365 -0.00587,-0.01365l-0.12723,-0.22808c-0.54635,-0.53466 -1.24592,-1.6125 -1.89799,-2.02541c-0.56901,-0.94479 -1.25503,-2.10891 -2.01942,-2.89792c0.02938,-0.10064 -0.03384,-0.19548 -0.03384,-0.19548l-0.09594,-0.14235c-0.0848,-0.10556 -0.16927,-0.21876 -0.25285,-0.33776c0.00383,-0.0555 -0.011,-0.09999 -0.011,-0.09999l-0.09341,-0.27586c-0.06571,-0.11067 -0.12816,-0.22296 -0.18922,-0.33598c-0.01039,-0.03687 -0.02508,-0.06134 -0.02508,-0.06134l-0.0629,-0.10335c-0.12958,-0.24457 -0.25682,-0.49041 -0.40032,-0.72836c-0.636,-1.48496 -0.92163,-3.09153 -1.62472,-4.55184c-0.00741,-0.04629 -0.01441,-0.09254 -0.02101,-0.13873c0,0 -0.02168,-0.15169 -0.15348,-0.18968c-0.01405,-0.13262 -0.02095,-0.26536 -0.01942,-0.39816c0,0 0,-0.10815 -0.07417,-0.17608c-0.04476,-0.30256 -0.0826,-0.60157 -0.11475,-0.89096c-0.23426,-0.82269 -0.43864,-1.66246 -0.58682,-2.51035c-0.02548,-0.28493 -0.0401,-0.56968 -0.0401,-0.85402c0,0 0,-0.05709 -0.02845,-0.11436c-0.01074,-0.41054 -0.01364,-0.82157 -0.01364,-1.23232c0,0 0.00001,-0.10633 -0.0723,-0.17436c0,-1.78131 0,-3.56261 0,-5.34392c0,-1.52903 0,-3.05809 0,-4.58713c0,0 0,-0.1184 -0.08497,-0.18526c0.00054,-0.09255 0.00081,-0.1851 0.00081,-0.27766c0,0 0,-0.06085 -0.0313,-0.11993c0.01674,-0.32529 0.02764,-0.6499 0.03057,-0.97357z" fill="url(#color-4)" stroke="none" stroke-width="0" stroke-linecap="butt"/><path d="M178.80637,242.55212c0.1196,0.08364 0.24423,0.16224 0.37426,0.23538c0.31686,0.17823 0.65283,0.31064 0.99917,0.41863c0.82471,0.35106 1.71122,0.5851 2.63866,0.6813c4.61065,1.5952 10.22835,8.86214 13.22632,12.35842c0.58255,0.67936 1.12515,1.38539 1.63891,2.11012h-9.30966l-0.0702,-0.02292c-0.96421,-0.24097 -2.13763,-0.62663 -3.13211,-0.63884c-0.55472,-0.20738 -1.08998,-0.41415 -1.56551,-0.55681c-0.1806,-0.05417 -0.36051,-0.11068 -0.53937,-0.17032l-0.08621,-0.02874c0,0 -0.07719,-0.02573 -0.15503,-0.00065c-0.038,-0.02779 -0.08484,-0.04418 -0.13553,-0.04418c-0.02218,0 -0.04365,0.00315 -0.06395,0.00901c-0.02729,-0.02371 -0.05098,-0.03555 -0.05098,-0.03555l-0.18187,-0.09066c-1.11252,-0.49417 -2.36019,-1.12032 -3.50529,-1.5307c-0.06684,-0.03864 -0.13396,-0.07739 -0.20146,-0.11619c-0.02101,-0.05669 -0.05826,-0.09396 -0.05826,-0.09396l-0.16427,-0.11793c-0.51808,-0.1286 -0.79266,-0.46648 -1.23487,-0.72374c0,0 -0.12255,-0.07003 -0.23045,-0.00433c-1.01352,-1.96738 -1.13584,-4.29371 -0.30235,-6.37564z" fill="url(#color-5)" stroke="none" stroke-width="0" stroke-linecap="butt"/><path d="M263.82247,102.00172c6.02394,54.96298 53.51196,53.64387 53.51196,53.64387c-52.76446,-2.78772 -53.51196,-53.64387 -53.51196,-53.64387z" fill="none" stroke-opacity="0.5" stroke="#b9b9b9" stroke-width="2.5" stroke-linecap="butt"/><path d="M250.20766,102.65915c7.67729,70.04817 68.19891,68.36702 68.19891,68.36702c-67.24626,-3.55284 -68.19891,-68.36702 -68.19891,-68.36702z" fill="none" stroke-opacity="0.5" stroke="#b9b9b9" stroke-width="2.5" stroke-linecap="butt"/><path d="M297.74728,219.56423l-103.02477,0.51128" fill="none" stroke="url(#color-6)" stroke-width="17.5" stroke-linecap="round"/><path d="M239.19663,127.27628l-44.37827,93.08152" fill="none" stroke="url(#color-7)" stroke-width="17.5" stroke-linecap="round"/><g fill="none" stroke="#ffffff" stroke-width="2"><path d="M282.34869,119.49178c-0.00471,-0.07307 -0.00712,-0.14677 -0.00712,-0.221c0,-1.86607 1.51273,-3.37881 3.37881,-3.37881c0.29825,0 0.58745,0.03866 0.86291,0.11121" stroke-linecap="butt"/><path d="M286.4417,115.96788l0.68335,0.22777" stroke-linecap="round"/><path d="M282.34158,131.00174v-11.54112" stroke-linecap="round"/><path d="M280.06373,121.66252h4.70758" stroke-linecap="round"/><path d="M297.34383,123.9952c0.78292,0.85712 1.26049,1.99796 1.26049,3.25034c0,1.28073 -0.49944,2.44485 -1.31418,3.30818" stroke-linecap="butt"/><path d="M288.49056,130.37947c-0.75536,-0.85108 -1.2141,-1.97133 -1.2141,-3.19879c0,-1.19771 0.43675,-2.29341 1.15968,-3.13646" stroke-linecap="butt"/><path d="M288.40406,130.30135l0.51885,0.58371" stroke-linecap="round"/><path d="M288.3392,124.14006l0.51883,-0.64857" stroke-linecap="round"/><path d="M296.90015,123.42665l0.45397,0.51885" stroke-linecap="round"/><path d="M297.48381,130.30135l-0.71341,0.71341" stroke-linecap="round"/><path d="M291.26345,125.14367l3.75932,3.95047" stroke-linecap="round"/><path d="M291.19972,129.09411l3.63193,-3.75932" stroke-linecap="round"/></g></g></g></g></svg>