<svg version="1.1" xmlns="http://www.w3.org/2000/svg" xmlns:xlink="http://www.w3.org/1999/xlink" width="482.15534" height="177.42823" viewBox="0,0,482.15534,177.42823"><g transform="translate(0.41307,-183.10038)"><g stroke-miterlimit="10"><path d="M0.01793,360.52862v-129.46716h481.59261v129.46716z" fill-opacity="0.74902" fill="#ffffff" stroke="none" stroke-width="0" stroke-linecap="butt"/><path d="M-0.41307,231.63926v-48.53887h482.15534v48.53887z" fill-opacity="0.74902" fill="#f0f0f0" stroke="none" stroke-width="0" stroke-linecap="butt"/><path d="M425.96084,197.48225c0,-6.2134 5.03696,-11.25035 11.25036,-11.25035c6.2134,0 11.25036,5.03695 11.25036,11.25035c0,6.2134 -5.03695,11.25036 -11.25036,11.25036c-6.2134,0 -11.25036,-5.03696 -11.25036,-11.25036z" fill="#e0e0e0" stroke="none" stroke-width="0" stroke-linecap="butt"/><g fill="none" stroke="#000000" stroke-width="2" stroke-linecap="round"><path d="M437.55943,199.51951l-3.39119,-3.55361"/><path d="M437.7375,199.52368l3.37554,-3.39535"/></g><path d="M398.91822,197.68661c0,-6.2134 5.03696,-11.25036 11.25036,-11.25036c6.2134,0 11.25036,5.03696 11.25036,11.25036c0,6.2134 -5.03695,11.25035 -11.25035,11.25035c-6.2134,0 -11.25036,-5.03695 -11.25036,-11.25035z" fill="#e0e0e0" stroke="none" stroke-width="0" stroke-linecap="butt"/><path d="M405.77811,201.93243c-0.20328,0 -0.39613,-0.0417 -0.58377,-0.12509c-0.18764,-0.08339 -0.34922,-0.19807 -0.48995,-0.33358c-0.14073,-0.13552 -0.25019,-0.30231 -0.33358,-0.48995c-0.08339,-0.18764 -0.1251,-0.38049 -0.1251,-0.58378v-5.5354c0,-0.20328 0.0417,-0.39613 0.1251,-0.58377c0.08339,-0.18764 0.19807,-0.34922 0.33358,-0.48995c0.13552,-0.14073 0.30231,-0.25019 0.48995,-0.33358c0.18764,-0.08339 0.38049,-0.1251 0.58377,-0.1251h9.44459c0.20328,0 0.39614,0.0417 0.58378,0.1251c0.18764,0.08339 0.34922,0.19807 0.48995,0.33358c0.14073,0.13552 0.25019,0.30231 0.33358,0.48995c0.08339,0.18764 0.1251,0.38049 0.1251,0.58377v5.5354c0,0.20328 -0.0417,0.39614 -0.1251,0.58378c-0.08339,0.18764 -0.19807,0.34922 -0.33358,0.48995c-0.13552,0.14073 -0.30231,0.25019 -0.48995,0.33358c-0.18764,0.08339 -0.38049,0.12509 -0.58378,0.12509zM415.19141,201.15059c0.10946,0 0.21371,-0.02085 0.30752,-0.06255c0.09382,-0.0417 0.17721,-0.09903 0.24498,-0.16679c0.07297,-0.07297 0.12509,-0.15116 0.16679,-0.24498c0.0417,-0.09382 0.06255,-0.19807 0.06255,-0.30752v-5.47286c0,-0.10424 -0.02085,-0.20849 -0.06255,-0.30231c-0.0417,-0.09382 -0.09903,-0.17721 -0.16679,-0.25018c-0.07297,-0.07297 -0.15637,-0.1251 -0.25019,-0.1668c-0.09382,-0.0417 -0.19807,-0.06255 -0.30231,-0.06255h-9.38204c-0.10946,0 -0.21371,0.02085 -0.30753,0.06255c-0.09382,0.0417 -0.17721,0.09904 -0.24497,0.1668c-0.07297,0.07297 -0.12509,0.15115 -0.16679,0.24497c-0.0417,0.09382 -0.06255,0.19807 -0.06255,0.30752v5.47286c0,0.10945 0.02085,0.2137 0.06255,0.30752c0.0417,0.09382 0.09382,0.17722 0.16679,0.24498c0.06776,0.06776 0.15115,0.12509 0.24497,0.16679c0.09382,0.0417 0.19807,0.06255 0.30753,0.06255zM406.2003,195.8758c0,-0.16158 0.05734,-0.30231 0.17201,-0.41698c0.11467,-0.11467 0.25019,-0.17201 0.41698,-0.17201c0.16158,0 0.30231,0.05734 0.41698,0.17201c0.11467,0.11467 0.17201,0.25019 0.17201,0.41698c0,0.16158 -0.05734,0.30231 -0.17201,0.41698c-0.11467,0.11467 -0.25019,0.172 -0.41698,0.172c-0.16158,0 -0.30231,-0.05733 -0.41698,-0.172c-0.11467,-0.11467 -0.17201,-0.2554 -0.17201,-0.41698zM406.98214,200.36876c-0.10424,0 -0.19806,-0.03648 -0.27625,-0.11467c-0.07819,-0.07818 -0.11467,-0.1668 -0.11467,-0.27625c0,-0.10424 0.03648,-0.19807 0.11467,-0.27625c0.07819,-0.07818 0.16679,-0.11467 0.27625,-0.11467h7.03653c0.10424,0 0.19806,0.03648 0.27625,0.11467c0.07819,0.07818 0.11467,0.1668 0.11467,0.27625c0,0.10424 -0.03648,0.19807 -0.11467,0.27625c-0.07819,0.07818 -0.16679,0.11467 -0.27625,0.11467zM407.76397,198.22131c0,-0.16158 0.05733,-0.30231 0.172,-0.41698c0.11467,-0.11467 0.25019,-0.17201 0.41698,-0.17201c0.16158,0 0.30231,0.05734 0.41698,0.17201c0.11467,0.11467 0.172,0.25019 0.172,0.41698c0,0.16158 -0.05733,0.30231 -0.172,0.41698c-0.11467,0.11467 -0.25019,0.17201 -0.41698,0.17201c-0.16158,0 -0.30231,-0.05734 -0.41698,-0.17201c-0.11467,-0.11467 -0.172,-0.2554 -0.172,-0.41698zM408.54581,195.8758c0,-0.16158 0.05734,-0.30231 0.17201,-0.41698c0.11467,-0.11467 0.25019,-0.17201 0.41698,-0.17201c0.16158,0 0.30231,0.05734 0.41698,0.17201c0.11467,0.11467 0.17201,0.25019 0.17201,0.41698c0,0.16158 -0.05734,0.30231 -0.17201,0.41698c-0.11467,0.11467 -0.25019,0.172 -0.41698,0.172c-0.16158,0 -0.30231,-0.05733 -0.41698,-0.172c-0.11467,-0.11467 -0.17201,-0.2554 -0.17201,-0.41698zM410.10948,198.22131c0,-0.16158 0.05734,-0.30231 0.17201,-0.41698c0.11467,-0.11467 0.25019,-0.17201 0.41698,-0.17201c0.16158,0 0.30231,0.05734 0.41698,0.17201c0.11467,0.11467 0.172,0.25019 0.172,0.41698c0,0.16158 -0.05733,0.30231 -0.172,0.41698c-0.11467,0.11467 -0.25019,0.17201 -0.41698,0.17201c-0.16158,0 -0.30231,-0.05734 -0.41698,-0.17201c-0.11467,-0.11467 -0.17201,-0.2554 -0.17201,-0.41698zM410.89133,195.8758c0,-0.16158 0.05734,-0.30231 0.17201,-0.41698c0.11467,-0.11467 0.25019,-0.17201 0.41698,-0.17201c0.16158,0 0.30231,0.05734 0.41698,0.17201c0.11467,0.11467 0.17201,0.25019 0.17201,0.41698c0,0.16158 -0.05734,0.30231 -0.17201,0.41698c-0.11467,0.11467 -0.25019,0.172 -0.41698,0.172c-0.16158,0 -0.30231,-0.05733 -0.41698,-0.172c-0.11467,-0.11467 -0.17201,-0.2554 -0.17201,-0.41698zM412.455,198.22131c0,-0.16158 0.05734,-0.30231 0.17201,-0.41698c0.11467,-0.11467 0.25019,-0.17201 0.41698,-0.17201c0.16158,0 0.30231,0.05734 0.41698,0.17201c0.11467,0.11467 0.17201,0.25019 0.17201,0.41698c0,0.16158 -0.05734,0.30231 -0.17201,0.41698c-0.11467,0.11467 -0.25019,0.17201 -0.41698,0.17201c-0.16158,0 -0.30231,-0.05734 -0.41698,-0.17201c-0.11467,-0.11467 -0.17201,-0.2554 -0.17201,-0.41698zM413.23684,195.8758c0,-0.16158 0.05734,-0.30231 0.17201,-0.41698c0.11467,-0.11467 0.25019,-0.17201 0.41698,-0.17201c0.16158,0 0.30231,0.05734 0.41698,0.17201c0.11467,0.11467 0.17201,0.25019 0.17201,0.41698c0,0.16158 -0.05734,0.30231 -0.17201,0.41698c-0.11467,0.11467 -0.25019,0.172 -0.41698,0.172c-0.16158,0 -0.30231,-0.05733 -0.41698,-0.172c-0.11467,-0.11467 -0.17201,-0.2554 -0.17201,-0.41698z" fill="#000000" stroke="#000000" stroke-width="0.25" stroke-linecap="butt"/><g fill="#e0e0e0" stroke="none" stroke-width="0" stroke-linecap="butt"><path d="M31.27882,329.18728c0,-9.02952 7.31988,-16.34938 16.3494,-16.34938c9.02951,0 16.34939,7.31986 16.34939,16.34938c0,9.02952 -7.31986,16.34939 -16.34939,16.34939c-9.02951,0 -16.3494,-7.31988 -16.3494,-16.34939z"/><path d="M31.47643,293.50244c0,-9.02952 7.31988,-16.34938 16.3494,-16.34938c9.02952,0 16.34939,7.31986 16.34939,16.34938c0,9.02952 -7.31986,16.34939 -16.34939,16.34939c-9.02952,0 -16.3494,-7.31987 -16.3494,-16.34939z"/><path d="M31.54282,257.52901c0,-9.02952 7.31988,-16.34938 16.34939,-16.34938c9.02952,0 16.34939,7.31986 16.34939,16.34938c0,9.02952 -7.31986,16.34939 -16.34939,16.34939c-9.02952,0 -16.34939,-7.31987 -16.34939,-16.34939z"/></g><g fill="#e0e0e0" stroke="none" stroke-width="0" stroke-linecap="butt"><path d="M67.06145,329.41855c0,-9.02952 7.31987,-16.34938 16.34939,-16.34938c9.02952,0 16.34939,7.31986 16.34939,16.34938c0,9.02952 -7.31986,16.34939 -16.34939,16.34939c-9.02952,0 -16.34939,-7.31987 -16.34939,-16.34939z"/><path d="M67.25911,293.73371c0,-9.02952 7.31987,-16.34938 16.3494,-16.34938c9.02952,0 16.3494,7.31986 16.3494,16.34938c0,9.02952 -7.31987,16.3494 -16.3494,16.3494c-9.02952,0 -16.3494,-7.31988 -16.3494,-16.3494z"/><path d="M67.32547,257.76027c0,-9.02952 7.31987,-16.34938 16.3494,-16.34938c9.02952,0 16.3494,7.31986 16.3494,16.34938c0,9.02952 -7.31987,16.34939 -16.3494,16.34939c-9.02952,0 -16.3494,-7.31987 -16.3494,-16.34939z"/></g><g fill="#e0e0e0" stroke="none" stroke-width="0" stroke-linecap="butt"><path d="M102.74837,329.25167c0,-9.02952 7.31987,-16.34938 16.34939,-16.34938c9.02952,0 16.34939,7.31986 16.34939,16.34938c0,9.02952 -7.31986,16.34939 -16.34939,16.34939c-9.02952,0 -16.34939,-7.31987 -16.34939,-16.34939z"/><path d="M102.94598,293.56685c0,-9.02952 7.31987,-16.34938 16.34939,-16.34938c9.02952,0 16.3494,7.31986 16.3494,16.34938c0,9.02952 -7.31987,16.3494 -16.3494,16.3494c-9.02952,0 -16.34939,-7.31988 -16.34939,-16.3494z"/><path d="M103.01237,257.5934c0,-9.02952 7.31987,-16.34938 16.34939,-16.34938c9.02952,0 16.3494,7.31986 16.3494,16.34938c0,9.02952 -7.31987,16.34939 -16.3494,16.34939c-9.02952,0 -16.34939,-7.31987 -16.34939,-16.34939z"/></g><g fill="#e0e0e0" stroke="none" stroke-width="0" stroke-linecap="butt"><path d="M138.53099,329.56845c0,-9.02952 7.31987,-16.34938 16.34939,-16.34938c9.02952,0 16.34939,7.31986 16.34939,16.34938c0,9.02952 -7.31986,16.34939 -16.34939,16.34939c-9.02952,0 -16.34939,-7.31987 -16.34939,-16.34939z"/><path d="M138.72861,293.88364c0,-9.02952 7.31988,-16.34938 16.3494,-16.34938c9.02952,0 16.34939,7.31986 16.34939,16.34938c0,9.02952 -7.31986,16.34939 -16.34939,16.34939c-9.02952,0 -16.3494,-7.31987 -16.3494,-16.34939z"/><path d="M138.79496,257.91017c0,-9.02952 7.31988,-16.34937 16.3494,-16.34937c9.02952,0 16.34939,7.31985 16.34939,16.34937c0,9.02952 -7.31986,16.3494 -16.34939,16.3494c-9.02952,0 -16.3494,-7.31988 -16.3494,-16.3494z"/></g><g fill="#e0e0e0" stroke="none" stroke-width="0" stroke-linecap="butt"><path d="M175.07228,329.2673c0,-9.02952 7.31987,-16.34938 16.34939,-16.34938c9.02952,0 16.34939,7.31986 16.34939,16.34938c0,9.02952 -7.31986,16.3494 -16.34939,16.3494c-9.02952,0 -16.34939,-7.31988 -16.34939,-16.3494z"/><path d="M175.26989,293.58246c0,-9.02952 7.31987,-16.34938 16.34939,-16.34938c9.02952,0 16.34939,7.31986 16.34939,16.34938c0,9.02952 -7.31986,16.34939 -16.34939,16.34939c-9.02952,0 -16.34939,-7.31987 -16.34939,-16.34939z"/><path d="M175.3363,257.60902c0,-9.02952 7.31987,-16.34938 16.34939,-16.34938c9.02952,0 16.3494,7.31986 16.3494,16.34938c0,9.02952 -7.31987,16.34939 -16.3494,16.34939c-9.02952,0 -16.34939,-7.31987 -16.34939,-16.34939z"/></g><g fill="#e0e0e0" stroke="none" stroke-width="0" stroke-linecap="butt"><path d="M210.85495,329.49857c0,-9.02952 7.31987,-16.34938 16.34939,-16.34938c9.02952,0 16.34939,7.31986 16.34939,16.34938c0,9.02952 -7.31986,16.34939 -16.34939,16.34939c-9.02952,0 -16.34939,-7.31987 -16.34939,-16.34939z"/><path d="M211.05257,293.81372c0,-9.02952 7.31988,-16.34938 16.3494,-16.34938c9.02952,0 16.34939,7.31986 16.34939,16.34938c0,9.02952 -7.31986,16.34939 -16.34939,16.34939c-9.02952,0 -16.3494,-7.31987 -16.3494,-16.34939z"/><path d="M211.11893,257.84029c0,-9.02952 7.31988,-16.34938 16.3494,-16.34938c9.02952,0 16.34939,7.31986 16.34939,16.34938c0,9.02952 -7.31986,16.3494 -16.34939,16.3494c-9.02952,0 -16.3494,-7.31988 -16.3494,-16.3494z"/></g><g fill="#e0e0e0" stroke="none" stroke-width="0" stroke-linecap="butt"><path d="M248.71834,330.26478c0,-9.02952 7.31987,-16.34938 16.34939,-16.34938c9.02952,0 16.3494,7.31986 16.3494,16.34938c0,9.02952 -7.31986,16.34939 -16.3494,16.34939c-9.02952,0 -16.34939,-7.31987 -16.34939,-16.34939z"/><path d="M248.91595,294.57996c0,-9.02952 7.31987,-16.34938 16.34939,-16.34938c9.02952,0 16.3494,7.31986 16.3494,16.34938c0,9.02952 -7.31986,16.3494 -16.3494,16.3494c-9.02952,0 -16.34939,-7.31988 -16.34939,-16.3494z"/><path d="M248.98236,258.60652c0,-9.02952 7.31988,-16.34938 16.3494,-16.34938c9.02952,0 16.3494,7.31986 16.3494,16.34938c0,9.02952 -7.31986,16.3494 -16.3494,16.3494c-9.02952,0 -16.3494,-7.31988 -16.3494,-16.3494z"/></g><path d="M284.501,330.58158c0,-9.02952 7.31987,-16.34938 16.34939,-16.34938c9.02952,0 16.34939,7.31986 16.34939,16.34938c0,9.02952 -7.31986,16.3494 -16.34939,16.3494c-9.02952,0 -16.34939,-7.31988 -16.34939,-16.3494z" fill="#e0e0e0" stroke="none" stroke-width="0" stroke-linecap="butt"/><path d="M284.69863,294.89674c0,-9.02952 7.31988,-16.34938 16.3494,-16.34938c9.02952,0 16.34939,7.31986 16.34939,16.34938c0,9.02952 -7.31986,16.34939 -16.34939,16.34939c-9.02952,0 -16.3494,-7.31987 -16.3494,-16.34939z" fill="#e0e0e0" stroke="none" stroke-width="0" stroke-linecap="butt"/><path d="M284.76499,258.92331c0,-9.02952 7.31987,-16.34938 16.34939,-16.34938c9.02952,0 16.3494,7.31986 16.3494,16.34938c0,9.02952 -7.31986,16.34939 -16.3494,16.34939c-9.02952,0 -16.34939,-7.31987 -16.34939,-16.34939z" fill="#e0e0e0" stroke="none" stroke-width="0" stroke-linecap="butt"/><path d="M345.06332,330.58065c0,-9.02952 7.31987,-16.34937 16.34939,-16.34937c9.02952,0 16.34939,7.31985 16.34939,16.34937c0,9.02952 -7.31986,16.3494 -16.34939,16.3494c-9.02952,0 -16.34939,-7.31988 -16.34939,-16.3494z" fill="#b9b9b9" stroke="none" stroke-width="0" stroke-linecap="butt"/><path d="M345.26093,294.89584c0,-9.02952 7.31988,-16.34938 16.3494,-16.34938c9.02952,0 16.34939,7.31986 16.34939,16.34938c0,9.02952 -7.31986,16.34939 -16.34939,16.34939c-9.02952,0 -16.3494,-7.31987 -16.3494,-16.34939z" fill="#b9b9b9" stroke="none" stroke-width="0" stroke-linecap="butt"/><path d="M345.32732,258.92241c0,-9.02952 7.31988,-16.34938 16.3494,-16.34938c9.02952,0 16.3494,7.31986 16.3494,16.34938c0,9.02952 -7.31986,16.34939 -16.3494,16.34939c-9.02952,0 -16.3494,-7.31987 -16.3494,-16.34939z" fill="#b9b9b9" stroke="none" stroke-width="0" stroke-linecap="butt"/><path d="M380.75019,330.4138c0,-9.02952 7.31988,-16.34938 16.3494,-16.34938c9.02952,0 16.34939,7.31986 16.34939,16.34938c0,9.02952 -7.31986,16.34939 -16.34939,16.34939c-9.02952,0 -16.3494,-7.31987 -16.3494,-16.34939z" fill="#ff0000" stroke="none" stroke-width="0" stroke-linecap="butt"/><path d="M380.9478,294.72897c0,-9.02952 7.31988,-16.34938 16.3494,-16.34938c9.02952,0 16.34939,7.31986 16.34939,16.34938c0,9.02952 -7.31986,16.34939 -16.34939,16.34939c-9.02952,0 -16.3494,-7.31987 -16.3494,-16.34939z" fill="#ff7575" stroke="none" stroke-width="0" stroke-linecap="butt"/><path d="M381.01419,258.75553c0,-9.02952 7.31988,-16.34938 16.3494,-16.34938c9.02952,0 16.3494,7.31986 16.3494,16.34938c0,9.02952 -7.31986,16.34939 -16.3494,16.34939c-9.02952,0 -16.3494,-7.31987 -16.3494,-16.34939z" fill="#b9b9b9" stroke="none" stroke-width="0" stroke-linecap="butt"/><path d="M416.53286,330.73059c0,-9.02952 7.31986,-16.34938 16.34938,-16.34938c9.02952,0 16.3494,7.31986 16.3494,16.34938c0,9.02952 -7.31986,16.34939 -16.3494,16.34939c-9.02952,0 -16.34938,-7.31987 -16.34938,-16.34939z" fill="#ff0000" stroke="none" stroke-width="0" stroke-linecap="butt"/><path d="M416.73045,295.04574c0,-9.02952 7.31987,-16.34938 16.34939,-16.34938c9.02952,0 16.3494,7.31986 16.3494,16.34938c0,9.02952 -7.31986,16.34939 -16.3494,16.34939c-9.02952,0 -16.34939,-7.31987 -16.34939,-16.34939z" fill="#ff7575" stroke="none" stroke-width="0" stroke-linecap="butt"/><path d="M416.79684,259.07231c0,-9.02952 7.31987,-16.34938 16.34939,-16.34938c9.02952,0 16.3494,7.31986 16.3494,16.34938c0,9.02952 -7.31986,16.3494 -16.3494,16.3494c-9.02952,0 -16.34939,-7.31988 -16.34939,-16.3494z" fill="#b9b9b9" stroke="none" stroke-width="0" stroke-linecap="butt"/><path d="M33.30269,197.52429c0,-6.2134 5.03695,-11.25036 11.25036,-11.25036c6.2134,0 11.25036,5.03696 11.25036,11.25036c0,6.2134 -5.03695,11.25036 -11.25035,11.25036c-6.2134,0 -11.25035,-5.03696 -11.25035,-11.25036z" fill="#e0e0e0" stroke="none" stroke-width="0" stroke-linecap="butt"/><path d="M59.69008,197.62062c0,-6.2134 5.03695,-11.25035 11.25036,-11.25035c6.2134,0 11.25036,5.03695 11.25036,11.25035c0,6.2134 -5.03696,11.25036 -11.25036,11.25036c-6.2134,0 -11.25035,-5.03696 -11.25035,-11.25036z" fill="#a8a8a8" stroke="none" stroke-width="0" stroke-linecap="butt"/><path d="M87.03157,197.51302c0,-6.2134 5.03696,-11.25036 11.25036,-11.25036c6.2134,0 11.25036,5.03696 11.25036,11.25036c0,6.2134 -5.03695,11.25035 -11.25035,11.25035c-6.2134,0 -11.25036,-5.03695 -11.25036,-11.25035z" fill="#e0e0e0" stroke="none" stroke-width="0" stroke-linecap="butt"/><text transform="translate(41.33112,200.27178) scale(0.26443,0.26443)" font-size="40" xml:space="preserve" fill="#000000" stroke="none" stroke-width="1" stroke-linecap="butt" font-family="Sans Serif" font-weight="normal" text-anchor="start"><tspan x="0" dy="0">1</tspan></text><path d="M140.93957,197.71112c0,-6.2134 5.03696,-11.25036 11.25036,-11.25036c6.2134,0 11.25036,5.03696 11.25036,11.25036c0,6.2134 -5.03695,11.25035 -11.25035,11.25035c-6.2134,0 -11.25036,-5.03695 -11.25036,-11.25035z" fill="#e0e0e0" stroke="none" stroke-width="0" stroke-linecap="butt"/><text transform="translate(68.20731,200.5784) scale(0.26443,0.26443)" font-size="40" xml:space="preserve" fill="#000000" stroke="none" stroke-width="1" stroke-linecap="butt" font-family="Sans Serif" font-weight="normal" text-anchor="start"><tspan x="0" dy="0">2</tspan></text><text transform="translate(95.82086,200.67169) scale(0.26443,0.26443)" font-size="40" xml:space="preserve" fill="#000000" stroke="none" stroke-width="1" stroke-linecap="butt" font-family="Sans Serif" font-weight="normal" text-anchor="start"><tspan x="0" dy="0">3</tspan></text><g fill="none" stroke="#000000" stroke-width="1.25"><path d="M148.32863,194.92859c-0.00276,-0.04281 -0.00417,-0.08599 -0.00417,-0.12948c0,-1.09332 0.8863,-1.97962 1.97962,-1.97962c0.17474,0 0.34418,0.02265 0.50557,0.06516" stroke-linecap="butt"/><path d="M150.72672,192.86396l0.40037,0.13345" stroke-linecap="round"/><path d="M148.32451,194.91033v6.76186" stroke-linecap="round"/><path d="M149.74804,196.20041h-2.75814" stroke-linecap="round"/><path d="M157.11418,197.56711c0.45871,0.50218 0.73851,1.17059 0.73851,1.90435c0,0.75037 -0.29262,1.43242 -0.76997,1.93824" stroke-linecap="butt"/><path d="M151.92712,201.30761c-0.44256,-0.49864 -0.71133,-1.15499 -0.71133,-1.87415c0,-0.70173 0.25589,-1.34369 0.67945,-1.83763" stroke-linecap="butt"/><path d="M152.18044,201.60383l-0.30399,-0.34199" stroke-linecap="round"/><path d="M151.83848,197.65198l0.30398,-0.37999" stroke-linecap="round"/><path d="M157.12022,197.53799l-0.26598,-0.30399" stroke-linecap="round"/><path d="M156.77822,201.67982l0.41798,-0.41798" stroke-linecap="round"/><path d="M153.55177,198.23999l2.20256,2.31455" stroke-linecap="round"/><path d="M155.6423,198.35197l-2.12792,2.20256" stroke-linecap="round"/></g><path d="M113.98413,197.74072c0,-6.2134 5.03696,-11.25036 11.25036,-11.25036c6.2134,0 11.25036,5.03696 11.25036,11.25036c0,6.2134 -5.03695,11.25035 -11.25035,11.25035c-6.2134,0 -11.25036,-5.03695 -11.25036,-11.25035z" fill="#e0e0e0" stroke="none" stroke-width="0" stroke-linecap="butt"/><text transform="translate(122.77342,200.89939) scale(0.26443,0.26443)" font-size="40" xml:space="preserve" fill="#000000" stroke="none" stroke-width="1" stroke-linecap="butt" font-family="Sans Serif" font-weight="normal" text-anchor="start"><tspan x="0" dy="0">4</tspan></text><path d="M390.03402,330.36955c0,-0.11145 0,-0.33434 0.11145,-0.44579c0.11145,-0.11145 0.11145,-0.22289 0.2229,-0.44579l3.12049,-3.45483c0.22289,-0.22289 0.44579,-0.33434 0.66868,-0.55723c0.22289,-0.22289 0.55723,-0.22289 0.89157,-0.22289h6.01808c0.22289,0 0.55723,0 0.78012,0.11145c0.22289,0.11145 0.44579,0.22289 0.66868,0.44579c0.22289,0.22289 0.33434,0.44579 0.44579,0.66868c0.11145,0.22289 0.11145,0.55723 0.11145,0.78012v5.90664c0,0.22289 0,0.55723 -0.11145,0.78012c-0.11145,0.22289 -0.22289,0.44579 -0.44579,0.66868c-0.22289,0.22289 -0.44579,0.33434 -0.66868,0.44579c-0.22289,0.11145 -0.55723,0.11145 -0.78012,0.11145h-6.01808c-0.33434,0 -0.55723,-0.11145 -0.89157,-0.22289c-0.33434,-0.11145 -0.55723,-0.33434 -0.66868,-0.55723l-3.12049,-3.45482c-0.11145,-0.11145 -0.2229,-0.22289 -0.2229,-0.44579c-0.11145,0.22289 -0.11145,0 -0.11145,-0.11145zM401.06718,334.49305c0.22289,0 0.33434,0 0.44579,-0.11145c0.11145,-0.11145 0.33434,-0.11145 0.44579,-0.22289c0.11145,-0.11145 0.22289,-0.22289 0.22289,-0.44579c0,-0.22289 0.11145,-0.33434 0.11145,-0.44579v-5.90664c0,-0.22289 0,-0.33434 -0.11145,-0.44579c-0.11145,-0.11145 -0.11145,-0.33434 -0.22289,-0.44579c-0.11145,-0.11145 -0.22289,-0.22289 -0.44579,-0.22289c-0.22289,0 -0.33434,-0.11145 -0.44579,-0.11145h-5.90664c-0.22289,0 -0.33434,0 -0.55723,0.11145c-0.22289,0.11145 -0.33434,0.22289 -0.44579,0.33434l-3.12049,3.45483c-0.11145,0.11145 -0.11145,0.22289 -0.11145,0.33434c0,0.11145 0,0.22289 0.11145,0.33434l3.12049,3.45483c0.11145,0.11145 0.22289,0.22289 0.44579,0.33434c0.22289,0.11145 0.33434,0.11145 0.55723,0.11145h5.90664zM398.05814,330.92678l-1.78314,1.78313c-0.11145,0.11145 -0.22289,0.11145 -0.33434,0.11145c-0.11145,0 -0.22289,0 -0.33434,-0.11145c-0.11145,-0.11145 -0.11145,-0.22289 -0.11145,-0.33434c0,-0.11145 0,-0.22289 0.11145,-0.33433l1.78314,-1.78314l-1.78314,-1.78314c-0.11145,-0.11145 -0.11145,-0.22289 -0.11145,-0.33434c0,-0.11145 0,-0.22289 0.11145,-0.33434c0.11145,-0.11145 0.22289,-0.11145 0.33434,-0.11145c0.11145,0 0.22289,0 0.33434,0.11145l1.78314,1.78314l1.78314,-1.78314c0.11145,-0.11145 0.22289,-0.11145 0.33434,-0.11145c0.11145,0 0.22289,0 0.33433,0.11145c0.11145,0.11145 0.11145,0.22289 0.11145,0.33434c0,0.11145 0,0.22289 -0.11145,0.33434l-1.78313,1.78314l1.78313,1.78314c0.11145,0.11145 0.11145,0.22289 0.11145,0.33433c0,0.11145 0,0.22289 -0.11145,0.33434c-0.11145,0.11145 -0.22289,0.11145 -0.33433,0.11145c-0.11145,0 -0.22289,0 -0.33434,-0.11145z" fill="#ffffff" stroke="#ffffff" stroke-width="0.5" stroke-linecap="butt"/><path d="M438.99069,324.99969v4.34272c0,0.34285 -0.11428,0.57141 -0.22856,0.79998c-0.11428,0.22856 -0.22856,0.45713 -0.45713,0.68569c-0.22856,0.22856 -0.45713,0.34285 -0.68569,0.45713c-0.22856,0.11428 -0.57141,0.11428 -0.79998,0.11428h-8.3426l2.74277,2.74277c0.11428,0.11428 0.11428,0.22856 0.11428,0.34285c0,0.11428 0,0.22856 -0.11428,0.34285c-0.11428,0.11428 -0.22856,0.11428 -0.34285,0.11428c-0.11428,0 -0.22856,0 -0.34285,-0.11428l-3.42847,-3.42847c-0.11428,-0.11428 -0.11428,-0.22856 -0.11428,-0.34285c0,-0.11428 0,-0.22856 0.11428,-0.34285l3.42847,-3.42847c0.11428,-0.11428 0.22856,-0.11428 0.34285,-0.11428c0.11428,0 0.22856,0 0.34285,0.11428c0.11428,0.11428 0.11428,0.22856 0.11428,0.34285c0,0.11428 0,0.22856 -0.11428,0.34285l-2.74277,2.74277h8.3426c0.22856,0 0.34285,0 0.45713,-0.11428c0.11428,-0.11428 0.34285,-0.11428 0.45713,-0.22856c0.11428,-0.11428 0.22856,-0.22856 0.22856,-0.45713c0,-0.22856 0.11428,-0.34285 0.11428,-0.45713v-4.34272c0,-0.11428 0,-0.22856 0.11428,-0.34285c0.11428,-0.11428 0.22856,-0.11428 0.34285,-0.11428c0.11428,0 0.22856,0 0.34285,0.11428c0.11428,0.11428 0.11428,0.11428 0.11428,0.22856z" fill="#ffffff" stroke="#ffffff" stroke-width="0.5" stroke-linecap="butt"/><g fill="none" stroke="#ffffff" stroke-width="2" stroke-linecap="round"><g><path d="M395.63439,290.68664l-3.96109,3.96109"/><path d="M391.6733,294.85086l3.96109,3.75796"/></g><path d="M393.33193,294.82267h9.26708"/></g><g fill="none" stroke="#ffffff" stroke-width="2" stroke-linecap="round"><g><path d="M439.24473,295.2052l-3.9432,3.9789"/><path d="M435.26582,291.26202l3.97799,3.74007"/></g><path d="M428.31831,295.07951l9.26699,-0.04176"/></g><text transform="translate(359.02726,262.0457) scale(0.26839,0.26839)" font-size="40" xml:space="preserve" fill="#000000" stroke="none" stroke-width="1" stroke-linecap="butt" font-family="Sans Serif" font-weight="normal" text-anchor="start"><tspan x="0" dy="0">Γ</tspan></text><text transform="translate(393.37561,261.18272) scale(0.22427,0.22427)" font-size="40" xml:space="preserve" fill="#000000" stroke="none" stroke-width="1" stroke-linecap="butt" font-family="Sans Serif" font-weight="normal" text-anchor="start"><tspan x="0" dy="0">ln</tspan></text><text transform="translate(426.91224,261.57075) scale(0.22427,0.22427)" font-size="40" xml:space="preserve" fill="#000000" stroke="none" stroke-width="1" stroke-linecap="butt" font-family="Sans Serif" font-weight="normal" text-anchor="start"><tspan x="0" dy="0">log</tspan></text><g fill="none" stroke="#000000" stroke-width="1" stroke-linecap="round"><path d="M353.29736,297.16614l2.09995,2.02359"/><path d="M358.26087,289.07178l-2.29085,10.11793"/><path d="M358.64268,289.07178h8.20889"/></g><g fill="none" stroke="#000000" stroke-width="1" stroke-linecap="round"><path d="M355.43379,336.07076l-2.09995,-2.02358"/><path d="M358.29736,325.95282l-2.29086,10.11793"/><path d="M358.67917,325.95282h8.20889"/></g><path d="M353.76107,325.35721h1.31011" fill="none" stroke="#000000" stroke-width="0.5" stroke-linecap="round"/><path d="M354.04766,326.62636l1.26918,-1.18729" fill="none" stroke="#000000" stroke-width="0.5" stroke-linecap="round"/><path d="M354.14226,326.66764c0.00939,-0.00023 0.01879,-0.00035 0.02823,-0.00035c0.63311,0 1.14634,0.51323 1.14634,1.14636c0,0.62682 -0.50306,1.13613 -1.12748,1.1462" fill="none" stroke="#000000" stroke-width="0.5" stroke-linecap="butt"/><path d="M353.72014,328.75532l0.36847,0.16376" fill="none" stroke="#000000" stroke-width="0.5" stroke-linecap="round"/><text transform="translate(359.92002,298.85887) scale(0.22427,0.22427)" font-size="40" xml:space="preserve" fill="#000000" stroke="none" stroke-width="1" stroke-linecap="butt" font-family="Sans Serif" font-weight="normal" text-anchor="start"><tspan x="0" dy="0">x</tspan></text><text transform="translate(359.58514,335.64586) scale(0.22427,0.22427)" font-size="40" xml:space="preserve" fill="#000000" stroke="none" stroke-width="1" stroke-linecap="butt" font-family="Sans Serif" font-weight="normal" text-anchor="start"><tspan x="0" dy="0">x</tspan></text><text transform="translate(41.57753,259.84153) scale(0.22427,0.22427)" font-size="40" xml:space="preserve" fill="#000000" stroke="none" stroke-width="1" stroke-linecap="butt" font-family="Sans Serif" font-weight="normal" text-anchor="start"><tspan x="0" dy="0">sin</tspan></text><text transform="translate(40.23632,296.54751) scale(0.22427,0.22427)" font-size="40" xml:space="preserve" fill="#000000" stroke="none" stroke-width="1" stroke-linecap="butt" font-family="Sans Serif" font-weight="normal" text-anchor="start"><tspan x="0" dy="0">cos</tspan></text><text transform="translate(40.16337,332.40801) scale(0.22427,0.22427)" font-size="40" xml:space="preserve" fill="#000000" stroke="none" stroke-width="1" stroke-linecap="butt" font-family="Sans Serif" font-weight="normal" text-anchor="start"><tspan x="0" dy="0">tan</tspan></text><text transform="translate(77.01528,259.76856) scale(0.22427,0.22427)" font-size="40" xml:space="preserve" fill="#000000" stroke="none" stroke-width="1" stroke-linecap="butt" font-family="Sans Serif" font-weight="normal" text-anchor="start"><tspan x="0" dy="0">cot</tspan></text><text transform="translate(76.94232,296.47455) scale(0.22427,0.22427)" font-size="40" xml:space="preserve" fill="#000000" stroke="none" stroke-width="1" stroke-linecap="butt" font-family="Sans Serif" font-weight="normal" text-anchor="start"><tspan x="0" dy="0">sec</tspan></text><text transform="translate(76.86936,332.33505) scale(0.22427,0.22427)" font-size="40" xml:space="preserve" fill="#000000" stroke="none" stroke-width="1" stroke-linecap="butt" font-family="Sans Serif" font-weight="normal" text-anchor="start"><tspan x="0" dy="0">csc</tspan></text><text transform="translate(110.76204,259.69561) scale(0.22427,0.22427)" font-size="40" xml:space="preserve" fill="#000000" stroke="none" stroke-width="1" stroke-linecap="butt" font-family="Sans Serif" font-weight="normal" text-anchor="start"><tspan x="0" dy="0">asin</tspan></text><text transform="translate(109.42084,296.4016) scale(0.22427,0.22427)" font-size="40" xml:space="preserve" fill="#000000" stroke="none" stroke-width="1" stroke-linecap="butt" font-family="Sans Serif" font-weight="normal" text-anchor="start"><tspan x="0" dy="0">acos</tspan></text><text transform="translate(109.34788,331.83934) scale(0.22427,0.22427)" font-size="40" xml:space="preserve" fill="#000000" stroke="none" stroke-width="1" stroke-linecap="butt" font-family="Sans Serif" font-weight="normal" text-anchor="start"><tspan x="0" dy="0">atan</tspan></text><text transform="translate(146.62254,259.62265) scale(0.22427,0.22427)" font-size="40" xml:space="preserve" fill="#000000" stroke="none" stroke-width="1" stroke-linecap="butt" font-family="Sans Serif" font-weight="normal" text-anchor="start"><tspan x="0" dy="0">acot</tspan></text><text transform="translate(145.28134,296.75139) scale(0.22427,0.22427)" font-size="40" xml:space="preserve" fill="#000000" stroke="none" stroke-width="1" stroke-linecap="butt" font-family="Sans Serif" font-weight="normal" text-anchor="start"><tspan x="0" dy="0">asec</tspan></text><text transform="translate(145.20837,332.18913) scale(0.22427,0.22427)" font-size="40" xml:space="preserve" fill="#000000" stroke="none" stroke-width="1" stroke-linecap="butt" font-family="Sans Serif" font-weight="normal" text-anchor="start"><tspan x="0" dy="0">acsc</tspan></text><text transform="translate(183.32853,259.97244) scale(0.22427,0.22427)" font-size="40" xml:space="preserve" fill="#000000" stroke="none" stroke-width="1" stroke-linecap="butt" font-family="Sans Serif" font-weight="normal" text-anchor="start"><tspan x="0" dy="0">sinh</tspan></text><text transform="translate(181.98733,297.10117) scale(0.22427,0.22427)" font-size="40" xml:space="preserve" fill="#000000" stroke="none" stroke-width="1" stroke-linecap="butt" font-family="Sans Serif" font-weight="normal" text-anchor="start"><tspan x="0" dy="0">cosh</tspan></text><text transform="translate(182.33712,332.53891) scale(0.22427,0.22427)" font-size="40" xml:space="preserve" fill="#000000" stroke="none" stroke-width="1" stroke-linecap="butt" font-family="Sans Serif" font-weight="normal" text-anchor="start"><tspan x="0" dy="0">tanh</tspan></text><text transform="translate(219.18902,260.32223) scale(0.22427,0.22427)" font-size="40" xml:space="preserve" fill="#000000" stroke="none" stroke-width="1" stroke-linecap="butt" font-family="Sans Serif" font-weight="normal" text-anchor="start"><tspan x="0" dy="0">coth</tspan></text><text transform="translate(217.84782,297.45097) scale(0.22427,0.22427)" font-size="40" xml:space="preserve" fill="#000000" stroke="none" stroke-width="1" stroke-linecap="butt" font-family="Sans Serif" font-weight="normal" text-anchor="start"><tspan x="0" dy="0">sech</tspan></text><text transform="translate(218.19761,332.88872) scale(0.22427,0.22427)" font-size="40" xml:space="preserve" fill="#000000" stroke="none" stroke-width="1" stroke-linecap="butt" font-family="Sans Serif" font-weight="normal" text-anchor="start"><tspan x="0" dy="0">csch</tspan></text><text transform="translate(253.85424,260.74496) scale(0.22427,0.22427)" font-size="40" xml:space="preserve" fill="#000000" stroke="none" stroke-width="1" stroke-linecap="butt" font-family="Sans Serif" font-weight="normal" text-anchor="start"><tspan x="0" dy="0">asinh</tspan></text><text transform="translate(252.93579,297.45097) scale(0.22427,0.22427)" font-size="40" xml:space="preserve" fill="#000000" stroke="none" stroke-width="1" stroke-linecap="butt" font-family="Sans Serif" font-weight="normal" text-anchor="start"><tspan x="0" dy="0">acosh</tspan></text><text transform="translate(252.44008,332.88872) scale(0.22427,0.22427)" font-size="40" xml:space="preserve" fill="#000000" stroke="none" stroke-width="1" stroke-linecap="butt" font-family="Sans Serif" font-weight="normal" text-anchor="start"><tspan x="0" dy="0">atanh</tspan></text><text transform="translate(289.14608,260.5261) scale(0.22427,0.22427)" font-size="40" xml:space="preserve" fill="#000000" stroke="none" stroke-width="1" stroke-linecap="butt" font-family="Sans Serif" font-weight="normal" text-anchor="start"><tspan x="0" dy="0">acoth</tspan></text><text transform="translate(289.07312,297.23209) scale(0.22427,0.22427)" font-size="40" xml:space="preserve" fill="#000000" stroke="none" stroke-width="1" stroke-linecap="butt" font-family="Sans Serif" font-weight="normal" text-anchor="start"><tspan x="0" dy="0">asech</tspan></text><text transform="translate(289.00016,333.09259) scale(0.22427,0.22427)" font-size="40" xml:space="preserve" fill="#000000" stroke="none" stroke-width="1" stroke-linecap="butt" font-family="Sans Serif" font-weight="normal" text-anchor="start"><tspan x="0" dy="0">acsch</tspan></text></g></g></svg>