<svg version="1.1" xmlns="http://www.w3.org/2000/svg" xmlns:xlink="http://www.w3.org/1999/xlink" width="82.30862" height="103.29797" viewBox="0,0,82.30862,103.29797"><g transform="translate(-174.34297,-142.42981)"><g stroke-miterlimit="10"><g><path d="M244.15159,233.15899c-12.00636,0.94365 -24.39878,-2.16551 -34.97661,-9.69758c-22.02076,-15.68014 -28.50035,-45.06185 -16.09956,-68.29073" fill="none" stroke="#0285ff" stroke-width="25"/><path d="M253.93367,240.51697c-3.97405,5.58103 -11.71996,6.88377 -17.30101,2.90972c-5.58103,-3.97405 -6.88375,-11.71997 -2.90972,-17.301c3.97405,-5.58103 11.71997,-6.88375 17.30102,-2.90972c5.58105,3.97405 6.88375,11.71997 2.90971,17.301z" fill="#0285ff" stroke="none" stroke-width="0"/><path d="M203.42354,162.0319c-3.97404,5.58104 -11.71997,6.88375 -17.30101,2.90972c-5.58105,-3.97405 -6.88375,-11.71997 -2.90972,-17.30102c3.97403,-5.58103 11.71997,-6.88375 17.301,-2.90972c5.58105,3.97405 6.88377,11.71996 2.90972,17.30101z" fill="#0285ff" stroke="none" stroke-width="0"/></g></g></g></svg>