<svg version="1.1" xmlns="http://www.w3.org/2000/svg" xmlns:xlink="http://www.w3.org/1999/xlink" width="49.79112" height="21.80701" viewBox="0,0,49.79112,21.80701"><g transform="translate(-319.63718,-168.49889)"><g data-paper-data="{&quot;isPaintingLayer&quot;:true}" fill-rule="nonzero" stroke-linejoin="miter" stroke-miterlimit="10" stroke-dasharray="" stroke-dashoffset="0" style="mix-blend-mode: normal"><path d="M319.63718,179.31216c0,-5.972 4.84127,-10.81327 10.81327,-10.81327c5.972,0 10.81327,4.84127 10.81327,10.81327c0,5.972 -4.84127,10.81327 -10.81327,10.81327c-5.972,0 -10.81327,-4.84127 -10.81327,-10.81327z" fill="#d9d9d9" stroke="none" stroke-width="0" stroke-linecap="butt"/><g fill="none" stroke="#000000" stroke-width="2" stroke-linecap="round"><path d="M332.18713,175.83881l-3.47335,3.47335"/><path d="M328.71378,179.49028l3.47335,3.29523"/></g><path d="M347.80176,179.49263c0,-5.972 4.84127,-10.81327 10.81327,-10.81327c5.972,0 10.81327,4.84127 10.81327,10.81327c0,5.972 -4.84127,10.81327 -10.81327,10.81327c-5.972,0 -10.81327,-4.84127 -10.81327,-10.81327z" fill="#d9d9d9" stroke="none" stroke-width="0" stroke-linecap="butt"/><g fill="none" stroke="#000000" stroke-width="2" stroke-linecap="round"><path d="M360.80311,179.29922l-3.38677,3.55783"/><path d="M360.79873,179.12115l-3.55344,-3.2087"/></g></g></g></svg>