<svg version="1.1" xmlns="http://www.w3.org/2000/svg" xmlns:xlink="http://www.w3.org/1999/xlink" width="87.70819" height="22.91421" viewBox="0,0,87.70819,22.91421"><g transform="translate(-209.69644,-144.19261)"><g data-paper-data="{&quot;isPaintingLayer&quot;:true}" fill-rule="nonzero" stroke-linejoin="miter" stroke-miterlimit="10" stroke-dasharray="" stroke-dashoffset="0" style="mix-blend-mode: normal"><path d="M214.69645,149.2274v12.79306" fill="none" stroke="#d9d9d9" stroke-width="10" stroke-linecap="round"/><path d="M214.38818,167.10682v-22.91421h77.98549v22.91421z" fill="#d9d9d9" stroke="none" stroke-width="0" stroke-linecap="butt"/><path d="M292.40464,162.04011v-12.79306" fill="none" stroke="#d9d9d9" stroke-width="10" stroke-linecap="round"/><path d="M216.11563,150.45871v9.8761" fill="none" stroke="#808080" stroke-width="6" stroke-linecap="round"/><path d="M230.62949,156.30986c-0.15576,0 -0.30235,0.03665 -0.43062,0.10078c-0.12827,0.06413 -0.2657,0.13743 -0.39397,0.21073c-0.12827,0.0733 -0.2657,0.14659 -0.39398,0.21073c-0.12827,0.06413 -0.28402,0.10078 -0.44894,0.10078c-0.22906,0 -0.43979,-0.05497 -0.63219,-0.16492c-0.1924,-0.10994 -0.37564,-0.22906 -0.54057,-0.36649c-0.21989,-0.1924 -0.38481,-0.40313 -0.47643,-0.65051c-0.09162,-0.24738 -0.16492,-0.51308 -0.16492,-0.79711c0,-0.28403 0.03665,-0.57722 0.11911,-0.85208c0.08246,-0.27487 0.17408,-0.54973 0.29319,-0.81543c0.25654,-0.56805 0.57722,-1.08113 0.97119,-1.55756c0.17408,-0.21073 0.35732,-0.42146 0.55889,-0.61387c0.20157,-0.1924 0.4123,-0.36648 0.65051,-0.51308c0.4123,-0.2657 0.84292,-0.45811 1.29187,-0.59554c0.44894,-0.13743 0.91621,-0.20157 1.41097,-0.20157c0.45811,0 0.90705,0.06414 1.33768,0.18325c0.43062,0.11911 0.86124,0.28403 1.26438,0.50392c0.49476,0.2657 0.93454,0.57722 1.31934,0.93454c0.38481,0.35732 0.70549,0.7513 0.97119,1.19108c0.2657,0.43979 0.46727,0.90705 0.6047,1.41097c0.13743,0.50392 0.20157,1.03532 0.20157,1.59421c0,0.4123 -0.03665,0.82459 -0.10995,1.24605c-0.0733,0.42146 -0.1924,0.82459 -0.34816,1.21857c-0.15576,0.39398 -0.34816,0.76046 -0.58638,1.11778c-0.23821,0.35732 -0.52225,0.65967 -0.84292,0.91621c-0.2657,0.21989 -0.55889,0.39398 -0.8704,0.52225c-0.31151,0.12827 -0.64134,0.1924 -0.99867,0.1924c-0.31151,0 -0.63219,-0.05497 -0.9437,-0.16492c-0.31151,-0.10994 -0.57722,-0.24738 -0.80627,-0.4123c-0.22906,-0.16492 -0.4123,-0.35732 -0.56805,-0.57722c-0.15576,-0.21989 -0.2657,-0.46727 -0.34816,-0.74213c-0.08246,-0.27487 -0.12826,-0.56806 -0.14659,-0.88873c-0.00916,-0.10994 -0.00916,-0.21989 -0.01832,-0.32983c-0.00916,-0.10994 -0.00916,-0.21989 -0.01832,-0.32983c0,-0.06413 -0.00916,-0.12827 -0.01832,-0.21073c-0.00916,-0.08246 -0.01832,-0.15576 -0.03665,-0.22906c-0.01832,-0.0733 -0.03665,-0.15575 -0.06413,-0.21989c-0.02749,-0.06413 -0.05497,-0.12827 -0.09162,-0.18325c-0.03665,-0.04581 -0.0733,-0.08245 -0.13743,-0.10994c-0.06413,-0.02749 -0.11911,-0.05497 -0.1924,-0.0733c-0.0733,-0.01832 -0.13743,-0.02748 -0.20157,-0.03665c-0.06413,-0.00916 -0.10995,-0.01832 -0.16492,-0.01832zM233.07579,152.37929c0,-0.17408 -0.05497,-0.31151 -0.17408,-0.43062c-0.11911,-0.11911 -0.25654,-0.17408 -0.43062,-0.17408c-0.08246,0 -0.15576,0.01832 -0.22906,0.04581c-0.0733,0.02749 -0.13743,0.0733 -0.1924,0.12827c-0.05497,0.05497 -0.10078,0.11911 -0.12827,0.1924c-0.02749,0.0733 -0.04581,0.15576 -0.04581,0.22906c0,0.0733 0.01832,0.15575 0.04581,0.22905c0.02749,0.0733 0.0733,0.13743 0.12827,0.1924c0.05497,0.05497 0.11911,0.10078 0.1924,0.12827c0.0733,0.02749 0.15576,0.04581 0.22906,0.04581c0.0733,0 0.15576,-0.01832 0.22906,-0.04581c0.0733,-0.02749 0.13743,-0.0733 0.1924,-0.12827c0.05497,-0.05497 0.10078,-0.11911 0.12827,-0.1924c0.02749,-0.0733 0.05497,-0.13743 0.05497,-0.21989zM234.96319,158.05066c0,-0.17408 -0.05497,-0.31151 -0.17408,-0.43062c-0.11911,-0.11911 -0.25654,-0.17408 -0.43062,-0.17408c-0.08246,0 -0.15575,0.01832 -0.22905,0.04581c-0.0733,0.02749 -0.13743,0.0733 -0.1924,0.12827c-0.05497,0.05497 -0.10078,0.11911 -0.12827,0.1924c-0.02749,0.0733 -0.04581,0.15576 -0.04581,0.22906c0,0.0733 0.01832,0.15575 0.04581,0.22905c0.02749,0.0733 0.0733,0.13743 0.12827,0.1924c0.05497,0.05497 0.11911,0.10078 0.1924,0.12827c0.0733,0.02749 0.15575,0.04581 0.22905,0.04581c0.0733,0 0.15576,-0.01832 0.22906,-0.04581c0.0733,-0.02749 0.13743,-0.0733 0.1924,-0.12827c0.05497,-0.05497 0.10078,-0.11911 0.12827,-0.1924c0.02749,-0.0733 0.05497,-0.13743 0.05497,-0.21989zM235.13727,153.06649c0,-0.17408 -0.05497,-0.31151 -0.17408,-0.43062c-0.11911,-0.11911 -0.25654,-0.17408 -0.43062,-0.17408c-0.08246,0 -0.15576,0.01832 -0.22906,0.04581c-0.0733,0.02749 -0.13743,0.0733 -0.1924,0.12827c-0.05497,0.05497 -0.10078,0.11911 -0.12827,0.1924c-0.02749,0.0733 -0.04581,0.15576 -0.04581,0.22906c0,0.0733 0.01832,0.15576 0.04581,0.22906c0.02749,0.0733 0.0733,0.13743 0.12827,0.1924c0.05497,0.05497 0.11911,0.10078 0.1924,0.12827c0.0733,0.02749 0.15576,0.04581 0.22906,0.04581c0.0733,0 0.15576,-0.01832 0.22906,-0.04581c0.0733,-0.02749 0.13743,-0.0733 0.1924,-0.12827c0.05497,-0.05497 0.10078,-0.11911 0.12827,-0.1924c0.02749,-0.0733 0.05497,-0.13743 0.05497,-0.21989zM236.33752,154.61485c0,-0.17408 -0.05497,-0.31151 -0.17408,-0.43062c-0.11911,-0.11911 -0.25654,-0.17408 -0.43062,-0.17408c-0.08246,0 -0.15576,0.01832 -0.22906,0.04581c-0.0733,0.02749 -0.13743,0.07329 -0.1924,0.12826c-0.05497,0.05497 -0.10078,0.11911 -0.12827,0.1924c-0.02749,0.0733 -0.04581,0.15576 -0.04581,0.22906c0,0.0733 0.01832,0.15576 0.04581,0.22906c0.02749,0.0733 0.0733,0.13743 0.12827,0.1924c0.05497,0.05497 0.11911,0.10078 0.1924,0.12827c0.0733,0.02749 0.15576,0.04581 0.22906,0.04581c0.0733,0 0.15575,-0.01832 0.22905,-0.04581c0.0733,-0.02749 0.13743,-0.0733 0.1924,-0.12827c0.05497,-0.05497 0.10078,-0.11911 0.12827,-0.1924c0.02749,-0.0733 0.05497,-0.13743 0.05497,-0.21989zM236.33752,156.67636c0,-0.17408 -0.05497,-0.31151 -0.17408,-0.43062c-0.11911,-0.11911 -0.25654,-0.17408 -0.43062,-0.17408c-0.08246,0 -0.15576,0.01832 -0.22906,0.04581c-0.0733,0.02749 -0.13743,0.0733 -0.1924,0.12827c-0.05497,0.05497 -0.10078,0.11911 -0.12827,0.1924c-0.02749,0.0733 -0.04581,0.15576 -0.04581,0.22906c0,0.0733 0.01832,0.15575 0.04581,0.22905c0.02749,0.0733 0.0733,0.13743 0.12827,0.1924c0.05497,0.05497 0.11911,0.10078 0.1924,0.12827c0.0733,0.02749 0.15576,0.04581 0.22906,0.04581c0.0733,0 0.15575,-0.01832 0.22905,-0.04581c0.0733,-0.02749 0.13743,-0.0733 0.1924,-0.12827c0.05497,-0.05497 0.10078,-0.11911 0.12827,-0.1924c0.02749,-0.0733 0.05497,-0.13743 0.05497,-0.21989z" fill="#000000" stroke="none" stroke-width="1" stroke-linecap="butt"/><g><path d="M245.633,155.37129c0,-2.57052 2.08382,-4.65434 4.65434,-4.65434c2.57051,0 4.65434,2.08382 4.65434,4.65434c0,2.57052 -2.08382,4.65434 -4.65434,4.65434c-2.57051,0 -4.65434,-2.08382 -4.65434,-4.65434z" fill="none" stroke="#000000" stroke-width="1.5" stroke-linecap="butt"/><path d="M253.70624,152.43356l-7.0767,5.44907" fill="none" stroke="#000000" stroke-width="1.5" stroke-linecap="round"/><path d="M245.73999,154.98118c0,-0.12564 0.03097,-0.24404 0.0857,-0.34799l0.34259,-0.68518c1.16592,-2.54411 3.35618,-3.28541 5.89212,-2.36547c0.18837,-0.05744 0.6664,-0.13929 0.9115,0.39995c0.30954,0.68098 -0.37144,0.99052 -0.37144,0.99052c-0.4274,0.1922 -0.85931,0.42427 -1.29045,0.68458c0.15375,0.38505 -0.14285,0.74096 -0.14285,0.74096l-0.36553,0.43831c-0.85337,0.97527 -1.60357,1.70887 -2.77604,2.29949c0,0 -0.60361,0.3018 -0.95084,-0.24125c-0.07949,0.06926 -0.15807,0.13794 -0.23568,0.2059l-0.03441,0.03675c0,0 -0.52894,0.52894 -1.05787,0c-0.52894,-0.52894 0,-1.05787 0,-1.05787l0.10712,-0.10478c0.11415,-0.0998 0.23015,-0.20078 0.34786,-0.30262c-0.27109,-0.11238 -0.46177,-0.37957 -0.46177,-0.6913z" fill="#000000" stroke="none" stroke-width="0.5" stroke-linecap="butt"/></g><path d="M268.62485,150.34396c0.23111,-0.02813 0.46712,-0.01605 0.67909,0.04993c0.21198,0.06598 0.41756,0.16333 0.58785,0.30577c0.17029,0.14243 0.32171,0.29737 0.43782,0.49738c0.11612,0.20001 0.18321,0.41618 0.21133,0.64729c0.02812,0.23111 0.01483,0.45707 -0.05116,0.66905c-0.06599,0.21197 -0.16333,0.41756 -0.31459,0.59912l-4.55163,5.83603c-0.13239,0.16907 -0.29098,0.29033 -0.49588,0.36626l-2.2515,0.85522c-0.0201,0.00244 -0.02892,0.01372 -0.03897,0.01494c-0.01005,0.00122 -0.03015,0.00367 -0.05024,0.00611c-0.10048,0.01223 -0.19582,-0.01697 -0.27471,-0.07874c-0.0789,-0.06178 -0.13009,-0.14733 -0.14232,-0.24781c-0.00245,-0.02009 -0.00489,-0.04019 -0.00611,-0.05024c-0.00122,-0.01005 -0.00367,-0.03015 0.00516,-0.04141l0.31163,-2.38329c0.00909,-0.09288 0.03706,-0.19826 0.07629,-0.2948c0.03924,-0.09655 0.08975,-0.18427 0.15153,-0.26317l4.55163,-5.83603c0.14121,-0.18034 0.30741,-0.32293 0.50742,-0.43905c0.20001,-0.11612 0.43629,-0.18565 0.65736,-0.21256zM268.71655,151.09759c-0.12058,0.01467 -0.24877,0.05067 -0.35318,0.11436c-0.10442,0.06369 -0.20639,0.14748 -0.28583,0.24892l-4.55041,5.84608c-0.04412,0.05636 -0.06694,0.12031 -0.07969,0.18305l-0.22544,1.75077l1.66693,-0.63112c0.06789,-0.02865 0.11447,-0.06492 0.16864,-0.1225l4.55284,-5.82598c0.07943,-0.10144 0.13754,-0.21048 0.17311,-0.33717c0.03557,-0.12669 0.04099,-0.24973 0.02632,-0.3703c-0.0159,-0.13063 -0.05066,-0.24876 -0.11558,-0.36324c-0.06492,-0.11447 -0.14748,-0.20639 -0.23765,-0.277c-0.09017,-0.07061 -0.20927,-0.12749 -0.32714,-0.17433c-0.11787,-0.04684 -0.28231,-0.05742 -0.41294,-0.04153z" fill="#000000" stroke="#000000" stroke-width="0.6" stroke-linecap="butt"/><path d="M287.08723,151.85762c0,0.07591 -0.01687,0.12653 -0.04218,0.17713c-0.02531,0.05061 -0.06748,0.07591 -0.10965,0.09278c-0.04217,0.01687 -0.10122,0.03375 -0.15184,0.04218c-0.05061,0.00843 -0.10966,0.00843 -0.17713,0.00843c-0.03374,0 -0.06748,0 -0.10121,0c-0.03374,0 -0.05905,0 -0.09279,0l-0.8182,7.10235c-0.01687,0.16027 -0.06748,0.30366 -0.13496,0.43863c-0.06748,0.13496 -0.1687,0.25306 -0.27836,0.35428c-0.10965,0.10122 -0.24462,0.17713 -0.38801,0.23618c-0.14339,0.05904 -0.29523,0.08435 -0.4555,0.08435h-4.00667c-0.16027,0 -0.3121,-0.02531 -0.45549,-0.08435c-0.14339,-0.05904 -0.26992,-0.13496 -0.38802,-0.23618c-0.11809,-0.10122 -0.20243,-0.21931 -0.27836,-0.35428c-0.07592,-0.13496 -0.1181,-0.2868 -0.13496,-0.43863l-0.81821,-7.10235c-0.03374,0 -0.06748,0 -0.10122,0c-0.03374,0 -0.06748,0 -0.10122,0c-0.05904,0 -0.10965,0 -0.1687,-0.00843c-0.05904,-0.00843 -0.10965,-0.02531 -0.15184,-0.04218c-0.04217,-0.01687 -0.08436,-0.05904 -0.10966,-0.10121c-0.02531,-0.04217 -0.04218,-0.10122 -0.04218,-0.1687c0,-0.08435 0.03375,-0.16027 0.09279,-0.21931c0.05904,-0.05904 0.13495,-0.09279 0.21931,-0.09279h2.87637c0.03374,-0.17713 0.10122,-0.34584 0.19401,-0.50611c0.09279,-0.16027 0.21931,-0.28679 0.35428,-0.40488c0.13496,-0.1181 0.29523,-0.20244 0.46393,-0.26149c0.1687,-0.05904 0.34584,-0.09279 0.5314,-0.09279c0.18558,0 0.36271,0.03374 0.53141,0.09279c0.1687,0.05904 0.32896,0.15184 0.46392,0.26149c0.13496,0.10965 0.26149,0.24462 0.35428,0.40488c0.09279,0.16027 0.16027,0.32053 0.19401,0.50611h2.87637c0.08436,0 0.16027,0.03374 0.21931,0.09279c0.05904,0.05904 0.13496,0.13496 0.13496,0.21931zM285.77979,152.17816h-6.88304l0.80977,7.03487c0.01687,0.1687 0.08436,0.29523 0.20244,0.40488c0.11809,0.10965 0.26149,0.15183 0.42175,0.15183h4.00667c0.07592,0 0.15184,-0.01687 0.22775,-0.04217c0.07592,-0.02531 0.13496,-0.06748 0.19401,-0.1181c0.05904,-0.05061 0.10122,-0.10966 0.13496,-0.17713c0.03374,-0.06748 0.05904,-0.14339 0.06748,-0.21931zM281.07301,157.55131v-3.16316c0,-0.08435 0.03374,-0.16027 0.09279,-0.21931c0.05904,-0.05904 0.13496,-0.09279 0.21931,-0.09279c0.08436,0 0.16027,0.03374 0.21931,0.09279c0.05904,0.05904 0.09279,0.13496 0.09279,0.21931v3.16316c0,0.08435 -0.03374,0.16027 -0.09279,0.21931c-0.05904,0.05904 -0.13496,0.09279 -0.21931,0.09279c-0.08436,0 -0.16027,-0.03375 -0.21931,-0.09279c-0.05904,-0.05904 -0.09279,-0.13496 -0.09279,-0.21931zM281.44415,151.54552h1.78824c-0.03374,-0.09278 -0.07592,-0.18557 -0.13496,-0.26149c-0.05904,-0.07591 -0.12652,-0.14339 -0.21088,-0.20244c-0.08436,-0.05904 -0.1687,-0.10122 -0.25306,-0.12653c-0.08436,-0.02531 -0.18557,-0.04217 -0.29523,-0.04217c-0.10965,0 -0.20244,0.01687 -0.29523,0.04217c-0.09279,0.02531 -0.17713,0.07591 -0.25306,0.12653c-0.07592,0.05061 -0.15184,0.12652 -0.21088,0.20244c-0.05904,0.07591 -0.10122,0.16027 -0.13496,0.26149zM282.9709,157.55131v-3.16316c0,-0.08435 0.03374,-0.16027 0.09279,-0.21931c0.05904,-0.05904 0.13496,-0.09279 0.21931,-0.09279c0.08436,0 0.16027,0.03374 0.21931,0.09279c0.05904,0.05904 0.09279,0.13496 0.09279,0.21931v3.16316c0,0.08435 -0.03375,0.16027 -0.09279,0.21931c-0.05904,0.05904 -0.13495,0.09279 -0.21931,0.09279c-0.08436,0 -0.16027,-0.03375 -0.21931,-0.09279c-0.05904,-0.05904 -0.09279,-0.13496 -0.09279,-0.21931z" fill="#000000" stroke="#000000" stroke-width="0.5" stroke-linecap="butt"/></g></g></svg>