<svg version="1.1" xmlns="http://www.w3.org/2000/svg" xmlns:xlink="http://www.w3.org/1999/xlink" width="482.15534" height="177.42823" viewBox="0,0,482.15534,177.42823"><g transform="translate(0.41311,-183.10037)"><g stroke-miterlimit="10"><path d="M0.01789,360.5286v-129.46716h481.59261v129.46716z" fill-opacity="0.74902" fill="#ffffff" stroke="none" stroke-width="0" stroke-linecap="butt"/><path d="M-0.41311,231.63924v-48.53887h482.15534v48.53887z" fill-opacity="0.74902" fill="#f0f0f0" stroke="none" stroke-width="0" stroke-linecap="butt"/><path d="M425.96082,197.48223c0,-6.2134 5.03696,-11.25035 11.25036,-11.25035c6.2134,0 11.25036,5.03695 11.25036,11.25035c0,6.2134 -5.03695,11.25036 -11.25036,11.25036c-6.2134,0 -11.25036,-5.03696 -11.25036,-11.25036z" fill="#e0e0e0" stroke="none" stroke-width="0" stroke-linecap="butt"/><g fill="none" stroke="#000000" stroke-width="2" stroke-linecap="round"><path d="M437.55941,199.51949l-3.39119,-3.55361"/><path d="M437.73748,199.52366l3.37554,-3.39535"/></g><path d="M398.9182,197.68659c0,-6.2134 5.03696,-11.25036 11.25036,-11.25036c6.2134,0 11.25036,5.03696 11.25036,11.25036c0,6.2134 -5.03695,11.25035 -11.25035,11.25035c-6.2134,0 -11.25036,-5.03695 -11.25036,-11.25035z" fill="#e0e0e0" stroke="none" stroke-width="0" stroke-linecap="butt"/><path d="M405.77809,201.93241c-0.20328,0 -0.39613,-0.0417 -0.58377,-0.12509c-0.18764,-0.08339 -0.34922,-0.19807 -0.48995,-0.33358c-0.14073,-0.13552 -0.25019,-0.30231 -0.33358,-0.48995c-0.08339,-0.18764 -0.1251,-0.38049 -0.1251,-0.58378v-5.5354c0,-0.20328 0.0417,-0.39613 0.1251,-0.58377c0.08339,-0.18764 0.19807,-0.34922 0.33358,-0.48995c0.13552,-0.14073 0.30231,-0.25019 0.48995,-0.33358c0.18764,-0.08339 0.38049,-0.1251 0.58377,-0.1251h9.44459c0.20328,0 0.39614,0.0417 0.58378,0.1251c0.18764,0.08339 0.34922,0.19807 0.48995,0.33358c0.14073,0.13552 0.25019,0.30231 0.33358,0.48995c0.08339,0.18764 0.1251,0.38049 0.1251,0.58377v5.5354c0,0.20328 -0.0417,0.39614 -0.1251,0.58378c-0.08339,0.18764 -0.19807,0.34922 -0.33358,0.48995c-0.13552,0.14073 -0.30231,0.25019 -0.48995,0.33358c-0.18764,0.08339 -0.38049,0.12509 -0.58378,0.12509zM415.19139,201.15057c0.10946,0 0.21371,-0.02085 0.30752,-0.06255c0.09382,-0.0417 0.17721,-0.09903 0.24498,-0.16679c0.07297,-0.07297 0.12509,-0.15116 0.16679,-0.24498c0.0417,-0.09382 0.06255,-0.19807 0.06255,-0.30752v-5.47286c0,-0.10424 -0.02085,-0.20849 -0.06255,-0.30231c-0.0417,-0.09382 -0.09903,-0.17721 -0.16679,-0.25018c-0.07297,-0.07297 -0.15637,-0.1251 -0.25019,-0.1668c-0.09382,-0.0417 -0.19807,-0.06255 -0.30231,-0.06255h-9.38204c-0.10946,0 -0.21371,0.02085 -0.30753,0.06255c-0.09382,0.0417 -0.17721,0.09904 -0.24497,0.1668c-0.07297,0.07297 -0.12509,0.15115 -0.16679,0.24497c-0.0417,0.09382 -0.06255,0.19807 -0.06255,0.30752v5.47286c0,0.10945 0.02085,0.2137 0.06255,0.30752c0.0417,0.09382 0.09382,0.17722 0.16679,0.24498c0.06776,0.06776 0.15115,0.12509 0.24497,0.16679c0.09382,0.0417 0.19807,0.06255 0.30753,0.06255zM406.20028,195.87578c0,-0.16158 0.05734,-0.30231 0.17201,-0.41698c0.11467,-0.11467 0.25019,-0.17201 0.41698,-0.17201c0.16158,0 0.30231,0.05734 0.41698,0.17201c0.11467,0.11467 0.17201,0.25019 0.17201,0.41698c0,0.16158 -0.05734,0.30231 -0.17201,0.41698c-0.11467,0.11467 -0.25019,0.172 -0.41698,0.172c-0.16158,0 -0.30231,-0.05733 -0.41698,-0.172c-0.11467,-0.11467 -0.17201,-0.2554 -0.17201,-0.41698zM406.98212,200.36874c-0.10424,0 -0.19806,-0.03648 -0.27625,-0.11467c-0.07819,-0.07818 -0.11467,-0.1668 -0.11467,-0.27625c0,-0.10424 0.03648,-0.19807 0.11467,-0.27625c0.07819,-0.07818 0.16679,-0.11467 0.27625,-0.11467h7.03653c0.10424,0 0.19806,0.03648 0.27625,0.11467c0.07819,0.07818 0.11467,0.1668 0.11467,0.27625c0,0.10424 -0.03648,0.19807 -0.11467,0.27625c-0.07819,0.07818 -0.16679,0.11467 -0.27625,0.11467zM407.76396,198.22129c0,-0.16158 0.05733,-0.30231 0.172,-0.41698c0.11467,-0.11467 0.25019,-0.17201 0.41698,-0.17201c0.16158,0 0.30231,0.05734 0.41698,0.17201c0.11467,0.11467 0.172,0.25019 0.172,0.41698c0,0.16158 -0.05733,0.30231 -0.172,0.41698c-0.11467,0.11467 -0.25019,0.17201 -0.41698,0.17201c-0.16158,0 -0.30231,-0.05734 -0.41698,-0.17201c-0.11467,-0.11467 -0.172,-0.2554 -0.172,-0.41698zM408.54579,195.87578c0,-0.16158 0.05734,-0.30231 0.17201,-0.41698c0.11467,-0.11467 0.25019,-0.17201 0.41698,-0.17201c0.16158,0 0.30231,0.05734 0.41698,0.17201c0.11467,0.11467 0.17201,0.25019 0.17201,0.41698c0,0.16158 -0.05734,0.30231 -0.17201,0.41698c-0.11467,0.11467 -0.25019,0.172 -0.41698,0.172c-0.16158,0 -0.30231,-0.05733 -0.41698,-0.172c-0.11467,-0.11467 -0.17201,-0.2554 -0.17201,-0.41698zM410.10946,198.22129c0,-0.16158 0.05734,-0.30231 0.17201,-0.41698c0.11467,-0.11467 0.25019,-0.17201 0.41698,-0.17201c0.16158,0 0.30231,0.05734 0.41698,0.17201c0.11467,0.11467 0.172,0.25019 0.172,0.41698c0,0.16158 -0.05733,0.30231 -0.172,0.41698c-0.11467,0.11467 -0.25019,0.17201 -0.41698,0.17201c-0.16158,0 -0.30231,-0.05734 -0.41698,-0.17201c-0.11467,-0.11467 -0.17201,-0.2554 -0.17201,-0.41698zM410.89131,195.87578c0,-0.16158 0.05734,-0.30231 0.17201,-0.41698c0.11467,-0.11467 0.25019,-0.17201 0.41698,-0.17201c0.16158,0 0.30231,0.05734 0.41698,0.17201c0.11467,0.11467 0.17201,0.25019 0.17201,0.41698c0,0.16158 -0.05734,0.30231 -0.17201,0.41698c-0.11467,0.11467 -0.25019,0.172 -0.41698,0.172c-0.16158,0 -0.30231,-0.05733 -0.41698,-0.172c-0.11467,-0.11467 -0.17201,-0.2554 -0.17201,-0.41698zM412.45498,198.22129c0,-0.16158 0.05734,-0.30231 0.17201,-0.41698c0.11467,-0.11467 0.25019,-0.17201 0.41698,-0.17201c0.16158,0 0.30231,0.05734 0.41698,0.17201c0.11467,0.11467 0.17201,0.25019 0.17201,0.41698c0,0.16158 -0.05734,0.30231 -0.17201,0.41698c-0.11467,0.11467 -0.25019,0.17201 -0.41698,0.17201c-0.16158,0 -0.30231,-0.05734 -0.41698,-0.17201c-0.11467,-0.11467 -0.17201,-0.2554 -0.17201,-0.41698zM413.23682,195.87578c0,-0.16158 0.05734,-0.30231 0.17201,-0.41698c0.11467,-0.11467 0.25019,-0.17201 0.41698,-0.17201c0.16158,0 0.30231,0.05734 0.41698,0.17201c0.11467,0.11467 0.17201,0.25019 0.17201,0.41698c0,0.16158 -0.05734,0.30231 -0.17201,0.41698c-0.11467,0.11467 -0.25019,0.172 -0.41698,0.172c-0.16158,0 -0.30231,-0.05733 -0.41698,-0.172c-0.11467,-0.11467 -0.17201,-0.2554 -0.17201,-0.41698z" fill="#000000" stroke="#000000" stroke-width="0.25" stroke-linecap="butt"/><g fill="#e0e0e0" stroke="none" stroke-width="0" stroke-linecap="butt"><path d="M31.27879,329.18726c0,-9.02952 7.31988,-16.34938 16.3494,-16.34938c9.02951,0 16.34939,7.31986 16.34939,16.34938c0,9.02952 -7.31986,16.34939 -16.34939,16.34939c-9.02951,0 -16.3494,-7.31988 -16.3494,-16.34939z"/><path d="M31.47639,293.50243c0,-9.02952 7.31988,-16.34938 16.3494,-16.34938c9.02952,0 16.34939,7.31986 16.34939,16.34938c0,9.02952 -7.31986,16.34939 -16.34939,16.34939c-9.02952,0 -16.3494,-7.31987 -16.3494,-16.34939z"/><path d="M31.54279,257.52899c0,-9.02952 7.31988,-16.34938 16.34939,-16.34938c9.02952,0 16.34939,7.31986 16.34939,16.34938c0,9.02952 -7.31986,16.34939 -16.34939,16.34939c-9.02952,0 -16.34939,-7.31987 -16.34939,-16.34939z"/></g><g fill="#e0e0e0" stroke="none" stroke-width="0" stroke-linecap="butt"><path d="M67.06145,329.41854c0,-9.02952 7.31987,-16.34938 16.34939,-16.34938c9.02952,0 16.34939,7.31986 16.34939,16.34938c0,9.02952 -7.31986,16.34939 -16.34939,16.34939c-9.02952,0 -16.34939,-7.31987 -16.34939,-16.34939z"/><path d="M67.25909,293.7337c0,-9.02952 7.31987,-16.34938 16.3494,-16.34938c9.02952,0 16.3494,7.31986 16.3494,16.34938c0,9.02952 -7.31987,16.3494 -16.3494,16.3494c-9.02952,0 -16.3494,-7.31988 -16.3494,-16.3494z"/><path d="M67.32548,257.76027c0,-9.02952 7.31987,-16.34938 16.3494,-16.34938c9.02952,0 16.3494,7.31986 16.3494,16.34938c0,9.02952 -7.31987,16.34939 -16.3494,16.34939c-9.02952,0 -16.3494,-7.31987 -16.3494,-16.34939z"/></g><g fill="#e0e0e0" stroke="none" stroke-width="0" stroke-linecap="butt"><path d="M102.74835,329.25166c0,-9.02952 7.31987,-16.34938 16.34939,-16.34938c9.02952,0 16.34939,7.31986 16.34939,16.34938c0,9.02952 -7.31986,16.34939 -16.34939,16.34939c-9.02952,0 -16.34939,-7.31987 -16.34939,-16.34939z"/><path d="M102.94596,293.56683c0,-9.02952 7.31987,-16.34938 16.34939,-16.34938c9.02952,0 16.3494,7.31986 16.3494,16.34938c0,9.02952 -7.31987,16.3494 -16.3494,16.3494c-9.02952,0 -16.34939,-7.31988 -16.34939,-16.3494z"/><path d="M103.01235,257.59339c0,-9.02952 7.31987,-16.34938 16.34939,-16.34938c9.02952,0 16.3494,7.31986 16.3494,16.34938c0,9.02952 -7.31987,16.34939 -16.3494,16.34939c-9.02952,0 -16.34939,-7.31987 -16.34939,-16.34939z"/></g><g fill="#e0e0e0" stroke="none" stroke-width="0" stroke-linecap="butt"><path d="M138.53097,329.56845c0,-9.02952 7.31987,-16.34938 16.34939,-16.34938c9.02952,0 16.34939,7.31986 16.34939,16.34938c0,9.02952 -7.31986,16.34939 -16.34939,16.34939c-9.02952,0 -16.34939,-7.31987 -16.34939,-16.34939z"/><path d="M138.72858,293.88362c0,-9.02952 7.31988,-16.34938 16.3494,-16.34938c9.02952,0 16.34939,7.31986 16.34939,16.34938c0,9.02952 -7.31986,16.34939 -16.34939,16.34939c-9.02952,0 -16.3494,-7.31987 -16.3494,-16.34939z"/><path d="M138.79495,257.91017c0,-9.02952 7.31988,-16.34937 16.3494,-16.34937c9.02952,0 16.34939,7.31985 16.34939,16.34937c0,9.02952 -7.31986,16.3494 -16.34939,16.3494c-9.02952,0 -16.3494,-7.31988 -16.3494,-16.3494z"/></g><g fill="#e0e0e0" stroke="none" stroke-width="0" stroke-linecap="butt"><path d="M175.07224,329.26728c0,-9.02952 7.31987,-16.34938 16.34939,-16.34938c9.02952,0 16.34939,7.31986 16.34939,16.34938c0,9.02952 -7.31986,16.3494 -16.34939,16.3494c-9.02952,0 -16.34939,-7.31988 -16.34939,-16.3494z"/><path d="M175.26985,293.58244c0,-9.02952 7.31987,-16.34938 16.34939,-16.34938c9.02952,0 16.34939,7.31986 16.34939,16.34938c0,9.02952 -7.31986,16.34939 -16.34939,16.34939c-9.02952,0 -16.34939,-7.31987 -16.34939,-16.34939z"/><path d="M175.33628,257.60901c0,-9.02952 7.31987,-16.34938 16.34939,-16.34938c9.02952,0 16.3494,7.31986 16.3494,16.34938c0,9.02952 -7.31987,16.34939 -16.3494,16.34939c-9.02952,0 -16.34939,-7.31987 -16.34939,-16.34939z"/></g><g fill="#e0e0e0" stroke="none" stroke-width="0" stroke-linecap="butt"><path d="M210.85491,329.49856c0,-9.02952 7.31987,-16.34938 16.34939,-16.34938c9.02952,0 16.34939,7.31986 16.34939,16.34938c0,9.02952 -7.31986,16.34939 -16.34939,16.34939c-9.02952,0 -16.34939,-7.31987 -16.34939,-16.34939z"/><path d="M211.05253,293.81372c0,-9.02952 7.31988,-16.34938 16.3494,-16.34938c9.02952,0 16.34939,7.31986 16.34939,16.34938c0,9.02952 -7.31986,16.34939 -16.34939,16.34939c-9.02952,0 -16.3494,-7.31987 -16.3494,-16.34939z"/><path d="M211.11889,257.84028c0,-9.02952 7.31988,-16.34938 16.3494,-16.34938c9.02952,0 16.34939,7.31986 16.34939,16.34938c0,9.02952 -7.31986,16.3494 -16.34939,16.3494c-9.02952,0 -16.3494,-7.31988 -16.3494,-16.3494z"/></g><g fill="#b9b9b9" stroke="none" stroke-width="0" stroke-linecap="butt"><path d="M273.68854,329.87461c0,-9.02952 7.31987,-16.34938 16.34939,-16.34938c9.02952,0 16.3494,7.31986 16.3494,16.34938c0,9.02952 -7.31986,16.34939 -16.3494,16.34939c-9.02952,0 -16.34939,-7.31987 -16.34939,-16.34939z"/><path d="M273.88616,294.18978c0,-9.02952 7.31987,-16.34938 16.34939,-16.34938c9.02952,0 16.3494,7.31986 16.3494,16.34938c0,9.02952 -7.31986,16.3494 -16.3494,16.3494c-9.02952,0 -16.34939,-7.31988 -16.34939,-16.3494z"/><path d="M273.95258,258.21634c0,-9.02952 7.31988,-16.34938 16.3494,-16.34938c9.02952,0 16.3494,7.31986 16.3494,16.34938c0,9.02952 -7.31986,16.3494 -16.3494,16.3494c-9.02952,0 -16.3494,-7.31988 -16.3494,-16.3494z"/></g><path d="M309.47122,330.1914c0,-9.02952 7.31987,-16.34938 16.34939,-16.34938c9.02952,0 16.34939,7.31986 16.34939,16.34938c0,9.02952 -7.31986,16.3494 -16.34939,16.3494c-9.02952,0 -16.34939,-7.31988 -16.34939,-16.3494z" fill="#b9b9b9" stroke="none" stroke-width="0" stroke-linecap="butt"/><path d="M309.66885,294.50657c0,-9.02952 7.31988,-16.34938 16.3494,-16.34938c9.02952,0 16.34939,7.31986 16.34939,16.34938c0,9.02952 -7.31986,16.34939 -16.34939,16.34939c-9.02952,0 -16.3494,-7.31987 -16.3494,-16.34939z" fill="#b9b9b9" stroke="none" stroke-width="0" stroke-linecap="butt"/><path d="M309.73519,258.53313c0,-9.02952 7.31987,-16.34938 16.34939,-16.34938c9.02952,0 16.3494,7.31986 16.3494,16.34938c0,9.02952 -7.31986,16.34939 -16.3494,16.34939c-9.02952,0 -16.34939,-7.31987 -16.34939,-16.34939z" fill="#b9b9b9" stroke="none" stroke-width="0" stroke-linecap="butt"/><path d="M345.0633,330.58065c0,-9.02952 7.31987,-16.34937 16.34939,-16.34937c9.02952,0 16.34939,7.31985 16.34939,16.34937c0,9.02952 -7.31986,16.3494 -16.34939,16.3494c-9.02952,0 -16.34939,-7.31988 -16.34939,-16.3494z" fill="#b9b9b9" stroke="none" stroke-width="0" stroke-linecap="butt"/><path d="M345.26091,294.89582c0,-9.02952 7.31988,-16.34938 16.3494,-16.34938c9.02952,0 16.34939,7.31986 16.34939,16.34938c0,9.02952 -7.31986,16.34939 -16.34939,16.34939c-9.02952,0 -16.3494,-7.31987 -16.3494,-16.34939z" fill="#b9b9b9" stroke="none" stroke-width="0" stroke-linecap="butt"/><path d="M345.32728,258.92239c0,-9.02952 7.31988,-16.34938 16.3494,-16.34938c9.02952,0 16.3494,7.31986 16.3494,16.34938c0,9.02952 -7.31986,16.34939 -16.3494,16.34939c-9.02952,0 -16.3494,-7.31987 -16.3494,-16.34939z" fill="#b9b9b9" stroke="none" stroke-width="0" stroke-linecap="butt"/><path d="M380.75017,330.41378c0,-9.02952 7.31988,-16.34938 16.3494,-16.34938c9.02952,0 16.34939,7.31986 16.34939,16.34938c0,9.02952 -7.31986,16.34939 -16.34939,16.34939c-9.02952,0 -16.3494,-7.31987 -16.3494,-16.34939z" fill="#ff0000" stroke="none" stroke-width="0" stroke-linecap="butt"/><path d="M380.94778,294.72895c0,-9.02952 7.31988,-16.34938 16.3494,-16.34938c9.02952,0 16.34939,7.31986 16.34939,16.34938c0,9.02952 -7.31986,16.34939 -16.34939,16.34939c-9.02952,0 -16.3494,-7.31987 -16.3494,-16.34939z" fill="#ff7575" stroke="none" stroke-width="0" stroke-linecap="butt"/><path d="M381.01415,258.75551c0,-9.02952 7.31988,-16.34938 16.3494,-16.34938c9.02952,0 16.3494,7.31986 16.3494,16.34938c0,9.02952 -7.31986,16.34939 -16.3494,16.34939c-9.02952,0 -16.3494,-7.31987 -16.3494,-16.34939z" fill="#b9b9b9" stroke="none" stroke-width="0" stroke-linecap="butt"/><path d="M416.53284,330.73057c0,-9.02952 7.31986,-16.34938 16.34938,-16.34938c9.02952,0 16.3494,7.31986 16.3494,16.34938c0,9.02952 -7.31986,16.34939 -16.3494,16.34939c-9.02952,0 -16.34938,-7.31987 -16.34938,-16.34939z" fill="#ff0000" stroke="none" stroke-width="0" stroke-linecap="butt"/><path d="M416.73043,295.04573c0,-9.02952 7.31987,-16.34938 16.34939,-16.34938c9.02952,0 16.3494,7.31986 16.3494,16.34938c0,9.02952 -7.31986,16.34939 -16.3494,16.34939c-9.02952,0 -16.34939,-7.31987 -16.34939,-16.34939z" fill="#ff7575" stroke="none" stroke-width="0" stroke-linecap="butt"/><path d="M416.79683,259.0723c0,-9.02952 7.31987,-16.34938 16.34939,-16.34938c9.02952,0 16.3494,7.31986 16.3494,16.34938c0,9.02952 -7.31986,16.3494 -16.3494,16.3494c-9.02952,0 -16.34939,-7.31988 -16.34939,-16.3494z" fill="#b9b9b9" stroke="none" stroke-width="0" stroke-linecap="butt"/><path d="M33.30269,197.52427c0,-6.2134 5.03695,-11.25036 11.25036,-11.25036c6.2134,0 11.25036,5.03696 11.25036,11.25036c0,6.2134 -5.03695,11.25036 -11.25035,11.25036c-6.2134,0 -11.25035,-5.03696 -11.25035,-11.25036z" fill="#a8a8a8" stroke="none" stroke-width="0" stroke-linecap="butt"/><path d="M59.69006,197.6206c0,-6.2134 5.03695,-11.25035 11.25036,-11.25035c6.2134,0 11.25036,5.03695 11.25036,11.25035c0,6.2134 -5.03696,11.25036 -11.25036,11.25036c-6.2134,0 -11.25035,-5.03696 -11.25035,-11.25036z" fill="#e0e0e0" stroke="none" stroke-width="0" stroke-linecap="butt"/><path d="M87.03155,197.513c0,-6.2134 5.03696,-11.25036 11.25036,-11.25036c6.2134,0 11.25036,5.03696 11.25036,11.25036c0,6.2134 -5.03695,11.25035 -11.25035,11.25035c-6.2134,0 -11.25036,-5.03695 -11.25036,-11.25035z" fill="#e0e0e0" stroke="none" stroke-width="0" stroke-linecap="butt"/><text transform="translate(41.33112,200.27176) scale(0.26443,0.26443)" font-size="40" xml:space="preserve" fill="#000000" stroke="none" stroke-width="1" stroke-linecap="butt" font-family="Sans Serif" font-weight="normal" text-anchor="start"><tspan x="0" dy="0">1</tspan></text><path d="M140.93955,197.7111c0,-6.2134 5.03696,-11.25036 11.25036,-11.25036c6.2134,0 11.25036,5.03696 11.25036,11.25036c0,6.2134 -5.03695,11.25035 -11.25035,11.25035c-6.2134,0 -11.25036,-5.03695 -11.25036,-11.25035z" fill="#e0e0e0" stroke="none" stroke-width="0" stroke-linecap="butt"/><text transform="translate(68.20729,200.57838) scale(0.26443,0.26443)" font-size="40" xml:space="preserve" fill="#000000" stroke="none" stroke-width="1" stroke-linecap="butt" font-family="Sans Serif" font-weight="normal" text-anchor="start"><tspan x="0" dy="0">2</tspan></text><text transform="translate(95.82084,200.67167) scale(0.26443,0.26443)" font-size="40" xml:space="preserve" fill="#000000" stroke="none" stroke-width="1" stroke-linecap="butt" font-family="Sans Serif" font-weight="normal" text-anchor="start"><tspan x="0" dy="0">3</tspan></text><g fill="none" stroke="#000000" stroke-width="1.25"><path d="M148.32861,194.92857c-0.00276,-0.04281 -0.00417,-0.08599 -0.00417,-0.12948c0,-1.09332 0.8863,-1.97962 1.97962,-1.97962c0.17474,0 0.34418,0.02265 0.50557,0.06516" stroke-linecap="butt"/><path d="M150.72669,192.86394l0.40037,0.13345" stroke-linecap="round"/><path d="M148.32447,194.91031v6.76186" stroke-linecap="round"/><path d="M149.74801,196.20039h-2.75814" stroke-linecap="round"/><path d="M157.11416,197.56709c0.45871,0.50218 0.73851,1.17059 0.73851,1.90435c0,0.75037 -0.29262,1.43242 -0.76997,1.93824" stroke-linecap="butt"/><path d="M151.92709,201.30759c-0.44256,-0.49864 -0.71133,-1.15499 -0.71133,-1.87415c0,-0.70173 0.25589,-1.34369 0.67945,-1.83763" stroke-linecap="butt"/><path d="M152.1804,201.60381l-0.30399,-0.34199" stroke-linecap="round"/><path d="M151.83844,197.65196l0.30398,-0.37999" stroke-linecap="round"/><path d="M156.85421,197.23398l0.26598,0.30399" stroke-linecap="round"/><path d="M156.77819,201.6798l0.41798,-0.41798" stroke-linecap="round"/><path d="M153.55173,198.23997l2.20256,2.31455" stroke-linecap="round"/><path d="M153.51437,200.55451l2.12792,-2.20256" stroke-linecap="round"/></g><path d="M113.98411,197.7407c0,-6.2134 5.03696,-11.25036 11.25036,-11.25036c6.2134,0 11.25036,5.03696 11.25036,11.25036c0,6.2134 -5.03695,11.25035 -11.25035,11.25035c-6.2134,0 -11.25036,-5.03695 -11.25036,-11.25035z" fill="#e0e0e0" stroke="none" stroke-width="0" stroke-linecap="butt"/><text transform="translate(122.7734,200.89937) scale(0.26443,0.26443)" font-size="40" xml:space="preserve" fill="#000000" stroke="none" stroke-width="1" stroke-linecap="butt" font-family="Sans Serif" font-weight="normal" text-anchor="start"><tspan x="0" dy="0">4</tspan></text><text transform="translate(287.03048,261.58785) scale(0.26443,0.26443)" font-size="40" xml:space="preserve" fill="#000000" stroke="none" stroke-width="1" stroke-linecap="butt" font-family="Sans Serif" font-weight="normal" text-anchor="start"><tspan x="0" dy="0">7</tspan></text><path d="M390.034,330.36953c0,-0.11145 0,-0.33434 0.11145,-0.44579c0.11145,-0.11145 0.11145,-0.22289 0.2229,-0.44579l3.12049,-3.45483c0.22289,-0.22289 0.44579,-0.33434 0.66868,-0.55723c0.22289,-0.22289 0.55723,-0.22289 0.89157,-0.22289h6.01808c0.22289,0 0.55723,0 0.78012,0.11145c0.22289,0.11145 0.44579,0.22289 0.66868,0.44579c0.22289,0.22289 0.33434,0.44579 0.44579,0.66868c0.11145,0.22289 0.11145,0.55723 0.11145,0.78012v5.90664c0,0.22289 0,0.55723 -0.11145,0.78012c-0.11145,0.22289 -0.22289,0.44579 -0.44579,0.66868c-0.22289,0.22289 -0.44579,0.33434 -0.66868,0.44579c-0.22289,0.11145 -0.55723,0.11145 -0.78012,0.11145h-6.01808c-0.33434,0 -0.55723,-0.11145 -0.89157,-0.22289c-0.33434,-0.11145 -0.55723,-0.33434 -0.66868,-0.55723l-3.12049,-3.45482c-0.11145,-0.11145 -0.2229,-0.22289 -0.2229,-0.44579c-0.11145,0.22289 -0.11145,0 -0.11145,-0.11145zM401.06716,334.49303c0.22289,0 0.33434,0 0.44579,-0.11145c0.11145,-0.11145 0.33434,-0.11145 0.44579,-0.22289c0.11145,-0.11145 0.22289,-0.22289 0.22289,-0.44579c0,-0.22289 0.11145,-0.33434 0.11145,-0.44579v-5.90664c0,-0.22289 0,-0.33434 -0.11145,-0.44579c-0.11145,-0.11145 -0.11145,-0.33434 -0.22289,-0.44579c-0.11145,-0.11145 -0.22289,-0.22289 -0.44579,-0.22289c-0.22289,0 -0.33434,-0.11145 -0.44579,-0.11145h-5.90664c-0.22289,0 -0.33434,0 -0.55723,0.11145c-0.22289,0.11145 -0.33434,0.22289 -0.44579,0.33434l-3.12049,3.45483c-0.11145,0.11145 -0.11145,0.22289 -0.11145,0.33434c0,0.11145 0,0.22289 0.11145,0.33434l3.12049,3.45483c0.11145,0.11145 0.22289,0.22289 0.44579,0.33434c0.22289,0.11145 0.33434,0.11145 0.55723,0.11145h5.90664zM398.05812,330.92676l-1.78314,1.78313c-0.11145,0.11145 -0.22289,0.11145 -0.33434,0.11145c-0.11145,0 -0.22289,0 -0.33434,-0.11145c-0.11145,-0.11145 -0.11145,-0.22289 -0.11145,-0.33434c0,-0.11145 0,-0.22289 0.11145,-0.33433l1.78314,-1.78314l-1.78314,-1.78314c-0.11145,-0.11145 -0.11145,-0.22289 -0.11145,-0.33434c0,-0.11145 0,-0.22289 0.11145,-0.33434c0.11145,-0.11145 0.22289,-0.11145 0.33434,-0.11145c0.11145,0 0.22289,0 0.33434,0.11145l1.78314,1.78314l1.78314,-1.78314c0.11145,-0.11145 0.22289,-0.11145 0.33434,-0.11145c0.11145,0 0.22289,0 0.33433,0.11145c0.11145,0.11145 0.11145,0.22289 0.11145,0.33434c0,0.11145 0,0.22289 -0.11145,0.33434l-1.78313,1.78314l1.78313,1.78314c0.11145,0.11145 0.11145,0.22289 0.11145,0.33433c0,0.11145 0,0.22289 -0.11145,0.33434c-0.11145,0.11145 -0.22289,0.11145 -0.33433,0.11145c-0.11145,0 -0.22289,0 -0.33434,-0.11145z" fill="#ffffff" stroke="#ffffff" stroke-width="0.5" stroke-linecap="butt"/><path d="M438.99068,324.99968v4.34272c0,0.34285 -0.11428,0.57141 -0.22856,0.79998c-0.11428,0.22856 -0.22856,0.45713 -0.45713,0.68569c-0.22856,0.22856 -0.45713,0.34285 -0.68569,0.45713c-0.22856,0.11428 -0.57141,0.11428 -0.79998,0.11428h-8.3426l2.74277,2.74277c0.11428,0.11428 0.11428,0.22856 0.11428,0.34285c0,0.11428 0,0.22856 -0.11428,0.34285c-0.11428,0.11428 -0.22856,0.11428 -0.34285,0.11428c-0.11428,0 -0.22856,0 -0.34285,-0.11428l-3.42847,-3.42847c-0.11428,-0.11428 -0.11428,-0.22856 -0.11428,-0.34285c0,-0.11428 0,-0.22856 0.11428,-0.34285l3.42847,-3.42847c0.11428,-0.11428 0.22856,-0.11428 0.34285,-0.11428c0.11428,0 0.22856,0 0.34285,0.11428c0.11428,0.11428 0.11428,0.22856 0.11428,0.34285c0,0.11428 0,0.22856 -0.11428,0.34285l-2.74277,2.74277h8.3426c0.22856,0 0.34285,0 0.45713,-0.11428c0.11428,-0.11428 0.34285,-0.11428 0.45713,-0.22856c0.11428,-0.11428 0.22856,-0.22856 0.22856,-0.45713c0,-0.22856 0.11428,-0.34285 0.11428,-0.45713v-4.34272c0,-0.11428 0,-0.22856 0.11428,-0.34285c0.11428,-0.11428 0.22856,-0.11428 0.34285,-0.11428c0.11428,0 0.22856,0 0.34285,0.11428c0.11428,0.11428 0.11428,0.11428 0.11428,0.22856z" fill="#ffffff" stroke="#ffffff" stroke-width="0.5" stroke-linecap="butt"/><g fill="none" stroke="#ffffff" stroke-width="2" stroke-linecap="round"><g><path d="M391.67328,294.64771l3.96109,-3.96109"/><path d="M391.67328,294.85084l3.96109,3.75796"/></g><path d="M393.33191,294.82265h9.26708"/></g><g fill="none" stroke="#ffffff" stroke-width="2" stroke-linecap="round"><g><path d="M435.30151,299.1841l3.9432,-3.9789"/><path d="M435.2658,291.262l3.97799,3.74007"/></g><path d="M437.58528,295.03773l-9.26699,0.04176"/></g><text transform="translate(322.58939,261.63235) scale(0.26443,0.26443)" font-size="40" xml:space="preserve" fill="#000000" stroke="none" stroke-width="1" stroke-linecap="butt" font-family="Sans Serif" font-weight="normal" text-anchor="start"><tspan x="0" dy="0">8</tspan></text><text transform="translate(358.97423,261.95216) scale(0.26443,0.26443)" font-size="40" xml:space="preserve" fill="#000000" stroke="none" stroke-width="1" stroke-linecap="butt" font-family="Sans Serif" font-weight="normal" text-anchor="start"><tspan x="0" dy="0">9</tspan></text><text transform="translate(286.71118,297.23616) scale(0.26443,0.26443)" font-size="40" xml:space="preserve" fill="#000000" stroke="none" stroke-width="1" stroke-linecap="butt" font-family="Sans Serif" font-weight="normal" text-anchor="start"><tspan x="0" dy="0">4</tspan></text><text transform="translate(322.88247,297.87282) scale(0.26443,0.26443)" font-size="40" xml:space="preserve" fill="#000000" stroke="none" stroke-width="1" stroke-linecap="butt" font-family="Sans Serif" font-weight="normal" text-anchor="start"><tspan x="0" dy="0">5</tspan></text><text transform="translate(358.03174,298.01828) scale(0.26443,0.26443)" font-size="40" xml:space="preserve" fill="#000000" stroke="none" stroke-width="1" stroke-linecap="butt" font-family="Sans Serif" font-weight="normal" text-anchor="start"><tspan x="0" dy="0">6</tspan></text><text transform="translate(286.85662,332.89643) scale(0.26443,0.26443)" font-size="40" xml:space="preserve" fill="#000000" stroke="none" stroke-width="1" stroke-linecap="butt" font-family="Sans Serif" font-weight="normal" text-anchor="start"><tspan x="0" dy="0">1</tspan></text><text transform="translate(322.51689,333.04189) scale(0.26443,0.26443)" font-size="40" xml:space="preserve" fill="#000000" stroke="none" stroke-width="1" stroke-linecap="butt" font-family="Sans Serif" font-weight="normal" text-anchor="start"><tspan x="0" dy="0">2</tspan></text><text transform="translate(358.68819,333.18734) scale(0.26443,0.26443)" font-size="40" xml:space="preserve" fill="#000000" stroke="none" stroke-width="1" stroke-linecap="butt" font-family="Sans Serif" font-weight="normal" text-anchor="start"><tspan x="0" dy="0">3</tspan></text><text transform="translate(394.27293,262.01981) scale(0.26443,0.26443)" font-size="40" xml:space="preserve" fill="#000000" stroke="none" stroke-width="1" stroke-linecap="butt" font-family="Sans Serif" font-weight="normal" text-anchor="start"><tspan x="0" dy="0">0</tspan></text><text transform="translate(432.15526,262.08746) scale(0.26443,0.26443)" font-size="40" xml:space="preserve" fill="#000000" stroke="none" stroke-width="1" stroke-linecap="butt" font-family="Sans Serif" font-weight="normal" text-anchor="start"><tspan x="0" dy="0">.</tspan></text><text transform="translate(43.70579,262.32607) scale(0.35274,0.35274)" font-size="40" xml:space="preserve" fill="#000000" stroke="none" stroke-width="1" stroke-linecap="butt" font-family="Sans Serif" font-weight="normal" text-anchor="start"><tspan x="0" dy="0">+</tspan></text><text transform="translate(187.10274,262.81539) scale(0.26443,0.26443)" font-size="40" xml:space="preserve" fill="#000000" stroke="none" stroke-width="1" stroke-linecap="butt" font-family="Sans Serif" font-weight="normal" text-anchor="start"><tspan x="0" dy="0">a</tspan></text><text transform="translate(192.10274,257.10567) scale(0.15757,0.15757)" font-size="40" xml:space="preserve" fill="#000000" stroke="none" stroke-width="1" stroke-linecap="butt" font-family="Sans Serif" font-weight="normal" text-anchor="start"><tspan x="0" dy="0">b</tspan></text><text transform="translate(219.06354,261.00549) scale(0.26443,0.26443)" font-size="40" xml:space="preserve" fill="#000000" stroke="none" stroke-width="1" stroke-linecap="butt" font-family="Sans Serif" font-weight="normal" text-anchor="start"><tspan x="0" dy="0">|x|</tspan></text><text transform="translate(80.24361,261.49843) scale(0.59228,0.35274)" font-size="40" xml:space="preserve" fill="#000000" stroke="none" stroke-width="1" stroke-linecap="butt" font-family="Sans Serif" font-weight="normal" text-anchor="start"><tspan x="0" dy="0">-</tspan></text><text transform="translate(115.20946,262.86964) scale(0.35274,0.35274)" font-size="40" xml:space="preserve" fill="#000000" stroke="none" stroke-width="1" stroke-linecap="butt" font-family="Sans Serif" font-weight="normal" text-anchor="start"><tspan x="0" dy="0">×</tspan></text><text transform="translate(151.40444,263.41321) scale(0.35274,0.35274)" font-size="40" xml:space="preserve" fill="#000000" stroke="none" stroke-width="1" stroke-linecap="butt" font-family="Sans Serif" font-weight="normal" text-anchor="start"><tspan x="0" dy="0">÷</tspan></text><text transform="translate(44.527,296.52813) scale(0.26443,0.26443)" font-size="40" xml:space="preserve" fill="#000000" stroke="none" stroke-width="1" stroke-linecap="butt" font-family="Sans Serif" font-weight="normal" text-anchor="start"><tspan x="0" dy="0">x</tspan></text><text transform="translate(80.33318,296.24707) scale(0.26443,0.26443)" font-size="40" xml:space="preserve" fill="#000000" stroke="none" stroke-width="1" stroke-linecap="butt" font-family="Sans Serif" font-weight="normal" text-anchor="start"><tspan x="0" dy="0">y</tspan></text><text transform="translate(117.01955,297.43297) scale(0.26443,0.26443)" font-size="40" xml:space="preserve" fill="#000000" stroke="none" stroke-width="1" stroke-linecap="butt" font-family="Sans Serif" font-weight="normal" text-anchor="start"><tspan x="0" dy="0">t</tspan></text><text transform="translate(152.23895,298.61887) scale(0.26443,0.26443)" font-size="40" xml:space="preserve" fill="#000000" stroke="none" stroke-width="1" stroke-linecap="butt" font-family="Sans Serif" font-weight="normal" text-anchor="start"><tspan x="0" dy="0">θ</tspan></text><text transform="translate(188.0451,297.16424) scale(0.26443,0.26443)" font-size="40" xml:space="preserve" fill="#000000" stroke="none" stroke-width="1" stroke-linecap="butt" font-family="Sans Serif" font-weight="normal" text-anchor="start"><tspan x="0" dy="0">π</tspan></text><text transform="translate(224.14467,297.17657) scale(0.26443,0.26443)" font-size="40" xml:space="preserve" fill="#000000" stroke="none" stroke-width="1" stroke-linecap="butt" font-family="Sans Serif" font-weight="normal" text-anchor="start"><tspan x="0" dy="0">e</tspan></text><text transform="translate(44.2158,332.91254) scale(0.26443,0.26443)" font-size="40" xml:space="preserve" fill="#000000" stroke="none" stroke-width="1" stroke-linecap="butt" font-family="Sans Serif" font-weight="normal" text-anchor="start"><tspan x="0" dy="0">&lt;</tspan></text><text transform="translate(80.35879,333.32559) scale(0.26443,0.26443)" font-size="40" xml:space="preserve" fill="#000000" stroke="none" stroke-width="1" stroke-linecap="butt" font-family="Sans Serif" font-weight="normal" text-anchor="start"><tspan x="0" dy="0">&gt;</tspan></text><text transform="translate(115.77753,333.73864) scale(0.26443,0.26443)" font-size="40" xml:space="preserve" fill="#000000" stroke="none" stroke-width="1" stroke-linecap="butt" font-family="Sans Serif" font-weight="normal" text-anchor="start"><tspan x="0" dy="0">=</tspan></text><text transform="translate(153.36901,333.18601) scale(0.26443,0.26443)" font-size="40" xml:space="preserve" fill="#000000" stroke="none" stroke-width="1" stroke-linecap="butt" font-family="Sans Serif" font-weight="normal" text-anchor="start"><tspan x="0" dy="0">,</tspan></text><text transform="translate(189.02917,332.63338) scale(0.26443,0.26443)" font-size="40" xml:space="preserve" fill="#000000" stroke="none" stroke-width="1" stroke-linecap="butt" font-family="Sans Serif" font-weight="normal" text-anchor="start"><tspan x="0" dy="0">(</tspan></text><text transform="translate(225.89645,332.80501) scale(0.26443,0.26443)" font-size="40" xml:space="preserve" fill="#000000" stroke="none" stroke-width="1" stroke-linecap="butt" font-family="Sans Serif" font-weight="normal" text-anchor="start"><tspan x="0" dy="0">)</tspan></text></g></g></svg>