<svg version="1.1" xmlns="http://www.w3.org/2000/svg" xmlns:xlink="http://www.w3.org/1999/xlink" width="118.27895" height="49.26418" viewBox="0,0,118.27895,49.26418"><g transform="translate(-180.4013,-118.04541)"><g stroke-miterlimit="10"><g><path d="M192.9013,154.80958c5.66472,-10.62799 14.95329,-19.40075 26.99363,-24.26418c25.06537,-10.12462 53.31784,0.22277 66.22528,23.17399" fill="none" stroke="#0285ff" stroke-width="25"/><path d="M181.43587,159.09595c-2.56603,-6.35268 0.50365,-13.58271 6.85634,-16.14875c6.35268,-2.56602 13.58271,0.50367 16.14874,6.85633c2.56603,6.35268 -0.50367,13.58272 -6.85634,16.14876c-6.35269,2.56604 -13.58271,-0.50367 -16.14874,-6.85633z" fill="#0285ff" stroke="none" stroke-width="0"/><path d="M274.76893,158.75016c-2.56603,-6.35267 0.50366,-13.58271 6.85634,-16.14876c6.35268,-2.56603 13.58272,0.50366 16.14877,6.85633c2.56603,6.35266 -0.50368,13.58272 -6.85634,16.14875c-6.35268,2.56603 -13.58271,-0.50365 -16.14875,-6.85633z" fill="#0285ff" stroke="none" stroke-width="0"/></g></g></g></svg>