<svg version="1.1" xmlns="http://www.w3.org/2000/svg" xmlns:xlink="http://www.w3.org/1999/xlink" width="32.58994" height="22" viewBox="0,0,32.58994,22"><g transform="translate(-218.28974,-169.01376)"><g data-paper-data="{&quot;isPaintingLayer&quot;:true}" fill-rule="nonzero" stroke-linejoin="miter" stroke-miterlimit="10" stroke-dasharray="" stroke-dashoffset="0" style="mix-blend-mode: normal"><path d="M239.87968,180.01376h-10.58994" fill="none" stroke="#adadad" stroke-width="22" stroke-linecap="round"/><path d="M229.18673,180c0,-5.972 4.84127,-10.81327 10.81327,-10.81327c5.972,0 10.81327,4.84127 10.81327,10.81327c0,5.972 -4.84127,10.81327 -10.81327,10.81327c-5.972,0 -10.81327,-4.84127 -10.81327,-10.81327z" fill="#adadad" stroke="none" stroke-width="0" stroke-linecap="butt"/><path d="M234.86351,176.1551c0,-0.13686 0.02566,-0.25661 0.07698,-0.37636c0.05132,-0.11975 0.11975,-0.2224 0.20529,-0.30793c0.08554,-0.08554 0.18818,-0.15397 0.30793,-0.20529c0.11975,-0.05132 0.23951,-0.07698 0.37636,-0.07698h8.33988c0.13686,0 0.25661,0.02566 0.37636,0.07698c0.11975,0.05132 0.2224,0.11975 0.30793,0.20529c0.08554,0.08554 0.15397,0.18818 0.20529,0.30793c0.05132,0.11975 0.07698,0.23951 0.07698,0.37636c0,0.27372 -0.10264,0.50467 -0.29938,0.69285l-3.25041,3.09645c-0.04277,0.04277 -0.08554,0.09409 -0.12831,0.15397c-0.04277,0.05987 -0.06843,0.1112 -0.09409,0.16252c-0.05132,0.11975 -0.07698,0.24806 -0.07698,0.38492v3.84917c0,0.08554 -0.03422,0.16252 -0.09409,0.2224c-0.05987,0.05987 -0.13686,0.09409 -0.2224,0.09409c-0.05987,0 -0.11975,-0.01711 -0.17963,-0.05132l-1.92459,-1.28306c-0.09409,-0.05987 -0.14541,-0.15397 -0.14541,-0.26516v-2.56612c0,-0.13686 -0.02566,-0.25661 -0.07698,-0.38492c-0.02566,-0.05987 -0.05987,-0.11975 -0.09409,-0.17107c-0.03422,-0.05132 -0.07698,-0.10264 -0.12831,-0.14541l-3.25041,-3.09645c-0.21384,-0.18818 -0.30793,-0.41913 -0.30793,-0.69285zM244.48643,176.1551c0,-0.08554 -0.03422,-0.16252 -0.09409,-0.2224c-0.05987,-0.05987 -0.13686,-0.09409 -0.2224,-0.09409h-8.33988c-0.08554,0 -0.16252,0.03422 -0.2224,0.09409c-0.05987,0.05987 -0.09409,0.13686 -0.09409,0.2224c0,0.09409 0.03422,0.17963 0.10264,0.23951l3.25041,3.09645c0.15397,0.15397 0.28227,0.32504 0.36781,0.53033c0.08554,0.20529 0.12831,0.41058 0.12831,0.63298v2.39504l1.28306,0.85537v-3.25041c0,-0.21384 0.04277,-0.42769 0.12831,-0.63298c0.08554,-0.20529 0.20529,-0.38492 0.36781,-0.53033l3.25041,-3.09645c0.05987,-0.06843 0.09409,-0.14541 0.09409,-0.23951z" fill="#000000" stroke="#000000" stroke-width="0.6" stroke-linecap="butt"/><g fill="none" stroke="#000000" stroke-width="1"><path d="M225.63077,178.11156c-0.00183,-0.02838 -0.00276,-0.05701 -0.00276,-0.08585c0,-0.72491 0.58765,-1.31256 1.31256,-1.31256c0.11586,0 0.2282,0.01502 0.33521,0.0432" stroke-linecap="butt"/><path d="M227.22077,176.74263l0.26546,0.08848" stroke-linecap="round"/><path d="M225.62801,178.09945v4.48335" stroke-linecap="round"/><path d="M224.74314,178.95482h1.82874" stroke-linecap="round"/><path d="M231.4559,179.86099c0.30414,0.33296 0.48966,0.77614 0.48966,1.26265c0,0.49752 -0.19402,0.94974 -0.51052,1.28512" stroke-linecap="butt"/><path d="M228.01669,182.34107c-0.29343,-0.33062 -0.47164,-0.7658 -0.47164,-1.24263c0,-0.46527 0.16966,-0.89091 0.4505,-1.21841" stroke-linecap="butt"/><path d="M227.98308,182.31072l0.20156,0.22675" stroke-linecap="round"/><path d="M228.15944,179.66531l-0.20155,0.25195" stroke-linecap="round"/><path d="M231.45989,179.84168l-0.17635,-0.20156" stroke-linecap="round"/><path d="M231.23313,182.58786l0.27714,-0.27714" stroke-linecap="round"/><path d="M229.09387,180.30713l1.46037,1.53463" stroke-linecap="round"/><path d="M230.48,180.38138l-1.41089,1.46037" stroke-linecap="round"/></g></g></g></svg>