<svg version="1.1" xmlns="http://www.w3.org/2000/svg" xmlns:xlink="http://www.w3.org/1999/xlink" width="540.46277" height="443.93003" viewBox="0,0,540.46277,443.93003"><defs><linearGradient x1="659.25847" y1="215.47172" x2="339.58425" y2="542.55918" gradientUnits="userSpaceOnUse" id="color-1"><stop offset="0" stop-color="#736b6b"/><stop offset="1" stop-color="#6d5c66"/></linearGradient><linearGradient x1="-118.73379" y1="4.70541" x2="104.69718" y2="4.70541" gradientUnits="userSpaceOnUse" id="color-2"><stop offset="0" stop-color="#2c2f3c"/><stop offset="1" stop-color="#3c4650"/></linearGradient><linearGradient x1="-75.45552" y1="43.01616" x2="324.01662" y2="445.79738" gradientUnits="userSpaceOnUse" id="color-3"><stop offset="0" stop-color="#3c4d52" stop-opacity="0.44314"/><stop offset="1" stop-color="#535663" stop-opacity="0.59608"/></linearGradient><linearGradient x1="176.59547" y1="366.87398" x2="762.70373" y2="366.87398" gradientUnits="userSpaceOnUse" id="color-4"><stop offset="0" stop-color="#775a57" stop-opacity="0.78039"/><stop offset="1" stop-color="#7d6979" stop-opacity="0.59608"/></linearGradient><linearGradient x1="-31.81513" y1="65.73816" x2="511.81514" y2="294.26186" gradientUnits="userSpaceOnUse" id="color-5"><stop offset="0" stop-color="#58575f" stop-opacity="0.09804"/><stop offset="1" stop-color="#4e5254"/></linearGradient></defs><g transform="translate(32.01831,50.98088)"><g stroke-miterlimit="10"><path d="M-3.75346,364.14206v-368.28412h487.50692v368.28412z" fill="#000000" stroke="none" stroke-width="0" stroke-linecap="butt"/><path d="M271.34337,362.36765c3.76907,-51.9956 25.2431,-102.987 64.53425,-143.18931c40.77733,-41.72296 93.61219,-64.52685 147.56684,-68.28631" fill="none" stroke="url(#color-1)" stroke-width="50" stroke-linecap="butt"/><path d="M104.63731,1.01306c0.03981,1.2259 0.05987,2.45678 0.05987,3.69236c0,61.69876 -50.01672,111.71548 -111.71548,111.71548c-0.41993,0 -0.83931,-0.00232 -1.25815,-0.00694" fill="none" stroke="url(#color-2)" stroke-width="50" stroke-linecap="butt"/><path d="M210.16424,-25.98087c42.30936,13.39948 82.08746,36.95526 115.50693,70.65157c87.01869,87.73951 104.93196,218.02157 54.01851,323.27846" fill="none" stroke="url(#color-3)" stroke-width="50" stroke-linecap="butt"/><path d="M176.59822,368.15635c-0.00183,-0.42724 -0.00275,-0.8547 -0.00275,-1.28237c0,-161.84932 131.2048,-293.05413 293.05413,-293.05413c5.80192,0 11.56446,0.16861 17.28299,0.50118" fill="none" stroke="url(#color-4)" stroke-width="30" stroke-linecap="butt"/><path d="M-1.44739,365.53878l-0.90037,-369.89995l483.79516,-1.1776l0.90037,369.89995z" fill="url(#color-5)" stroke="none" stroke-width="0" stroke-linecap="butt"/><path d="M225.28031,205.61332c-0.5655,-0.00243 -1.1206,-0.0488 -1.66207,-0.13586c-0.30033,-0.07963 -0.64212,-0.18104 -0.94446,-0.19616c-0.06005,-0.01535 -0.11989,-0.0312 -0.17954,-0.04758c-0.15445,-0.05793 -0.30265,-0.11278 -0.43741,-0.15321c-0.06453,-0.01936 -0.12881,-0.03955 -0.19272,-0.06086l-0.0308,-0.01027c0,0 -0.02758,-0.0092 -0.05539,-0.00024c-0.0129,-0.00943 -0.02865,-0.01518 -0.04572,-0.01574c-0.03019,-0.01079 -0.06033,-0.02172 -0.09041,-0.03276l-0.01836,-0.00916c-0.38079,-0.16913 -0.80589,-0.38156 -1.20064,-0.52804c-0.04228,-0.02189 -0.0844,-0.04406 -0.12636,-0.06649c-0.00763,-0.0168 -0.01832,-0.02751 -0.01832,-0.02751l-0.0587,-0.04214c-0.18511,-0.04596 -0.28323,-0.16668 -0.44125,-0.25861c0,0 -0.03259,-0.01862 -0.0663,-0.00866c-0.38942,-0.24115 -0.76217,-0.50665 -1.11614,-0.79436c0.00545,-0.04843 -0.04123,-0.07645 -0.04123,-0.07645c-0.12309,-0.07384 -0.22981,-0.16634 -0.34237,-0.25064c-0.03663,-0.0333 -0.07334,-0.06651 -0.11008,-0.09974c-0.06678,-0.06138 -0.13279,-0.12362 -0.19799,-0.18666c0.00386,-0.03781 -0.02546,-0.06713 -0.02546,-0.06713l-0.06015,-0.06015c-0.10823,-0.10593 -0.21335,-0.21624 -0.31853,-0.32706c-0.00122,-0.00312 -0.0021,-0.00487 -0.0021,-0.00487l-0.04546,-0.08149c-0.18797,-0.18395 -0.42669,-0.54784 -0.65216,-0.70632c-0.02713,-0.0359 -0.05401,-0.07199 -0.0807,-0.10823c-0.15506,-0.25756 -0.33215,-0.54748 -0.52574,-0.78493c-0.27227,-0.44815 -0.51249,-0.91792 -0.71747,-1.40613c-0.13164,-0.39998 -0.23542,-0.80954 -0.41862,-1.19128c-0.00088,-0.00308 -0.00176,-0.00618 -0.00264,-0.00926c-0.00231,-0.01466 -0.00452,-0.02931 -0.00662,-0.04394c0,0 -0.00308,-0.02154 -0.01716,-0.04087c-0.01532,-0.05556 -0.03021,-0.11129 -0.04465,-0.1672c0,-0.00065 0.00001,-0.00131 0.00003,-0.00197c0,0 0,-0.0225 -0.01177,-0.04394c-0.0096,-0.03786 -0.019,-0.07581 -0.02819,-0.11384c-0.0103,-0.0757 -0.01943,-0.15044 -0.02754,-0.22349c-0.03458,-0.12146 -0.06735,-0.24395 -0.09763,-0.36727c-0.06445,-0.35345 -0.1115,-0.71296 -0.14023,-1.07762c-0.00089,-0.07949 -0.00119,-0.15899 -0.00119,-0.23847c0,0 0,-0.02965 -0.01782,-0.05333c-0.00321,-0.06218 -0.00588,-0.1245 -0.00801,-0.18694c0,-0.57718 0,-1.15434 0,-1.73152c0,-0.54636 0,-1.09272 0,-1.63907c0,0 0,-0.04042 -0.02836,-0.06455l-0.00311,-0.41345c0.00082,-0.0412 0.00129,-0.08236 0.00139,-0.12349c0,0 0,-0.00792 -0.00246,-0.01886l-0.19721,-26.22084c0.01514,-0.70694 0.09865,-1.39644 0.24411,-2.0623c0.07713,-0.2472 0.14158,-0.49655 0.19031,-0.74179c0.11181,-0.37849 0.24398,-0.74809 0.3952,-1.10756c0.16064,-0.27782 0.30638,-0.55779 0.40634,-0.8567c1.82073,-3.43426 5.45674,-5.74682 9.6067,-5.6833h0.15772l29.24231,-0.25628c5.87141,-0.00555 10.64519,4.73152 10.68494,10.6028v0.161l0.22343,29.9783c-0.09726,3.57512 -1.94216,6.69402 -4.69668,8.55739c-0.93419,0.34804 -2.92157,1.01074 -3.50412,1.38977c-0.04454,0.02899 -0.09491,0.07419 -0.14965,0.13266c-0.05428,0.02735 -0.10768,0.05617 -0.16016,0.08641c-0.76564,0.15749 -1.56052,0.23279 -2.37475,0.21644h-0.15772z" fill="none" stroke="#ffffff" stroke-width="4" stroke-linecap="butt"/><path d="M222.24835,205.31682c0.00294,0.00104 0.00588,0.00207 0.00883,0.00312c-0.00087,0.00098 -0.0017,0.00199 -0.00254,0.00303c-0.00206,-0.00206 -0.00416,-0.0041 -0.00629,-0.00615z" fill="#ffffff" stroke="none" stroke-width="0" stroke-linecap="butt"/><path d="M256.52907,193.83311l-30.77519,0.15273" fill="none" stroke="#ffffff" stroke-width="5" stroke-linecap="round"/><path d="M239.73823,162.81881l-14.46166,30.3327" fill="none" stroke="#ffffff" stroke-width="5" stroke-linecap="round"/><path d="M215.41463,163.525c20.17138,3.39253 35.72425,20.39413 36.89181,41.23795" fill="none" stroke="#ffffff" stroke-width="4" stroke-linecap="butt"/></g></g></svg>