<svg version="1.1" xmlns="http://www.w3.org/2000/svg" xmlns:xlink="http://www.w3.org/1999/xlink" width="482.15534" height="177.42823" viewBox="0,0,482.15534,177.42823"><g transform="translate(0.41311,-183.10037)"><g stroke-miterlimit="10"><path d="M0.01789,360.5286v-129.46716h481.59261v129.46716z" fill-opacity="0.74902" fill="#ffffff" stroke="none" stroke-width="0" stroke-linecap="butt"/><path d="M-0.41311,231.63924v-48.53887h482.15534v48.53887z" fill-opacity="0.74902" fill="#f0f0f0" stroke="none" stroke-width="0" stroke-linecap="butt"/><path d="M425.96085,197.48223c0,-6.2134 5.03696,-11.25035 11.25036,-11.25035c6.2134,0 11.25036,5.03695 11.25036,11.25035c0,6.2134 -5.03695,11.25036 -11.25036,11.25036c-6.2134,0 -11.25036,-5.03696 -11.25036,-11.25036z" fill="#e0e0e0" stroke="none" stroke-width="0" stroke-linecap="butt"/><g fill="none" stroke="#000000" stroke-width="2" stroke-linecap="round"><path d="M437.55944,199.51949l-3.39119,-3.55361"/><path d="M441.11305,196.12831l-3.37554,3.39535"/></g><path d="M398.91823,197.68659c0,-6.2134 5.03696,-11.25036 11.25036,-11.25036c6.2134,0 11.25036,5.03696 11.25036,11.25036c0,6.2134 -5.03695,11.25035 -11.25035,11.25035c-6.2134,0 -11.25036,-5.03695 -11.25036,-11.25035z" fill="#e0e0e0" stroke="none" stroke-width="0" stroke-linecap="butt"/><path d="M405.77812,201.93241c-0.20328,0 -0.39613,-0.0417 -0.58377,-0.12509c-0.18764,-0.08339 -0.34922,-0.19807 -0.48995,-0.33358c-0.14073,-0.13552 -0.25019,-0.30231 -0.33358,-0.48995c-0.08339,-0.18764 -0.1251,-0.38049 -0.1251,-0.58378v-5.5354c0,-0.20328 0.0417,-0.39613 0.1251,-0.58377c0.08339,-0.18764 0.19807,-0.34922 0.33358,-0.48995c0.13552,-0.14073 0.30231,-0.25019 0.48995,-0.33358c0.18764,-0.08339 0.38049,-0.1251 0.58377,-0.1251h9.44459c0.20328,0 0.39614,0.0417 0.58378,0.1251c0.18764,0.08339 0.34922,0.19807 0.48995,0.33358c0.14073,0.13552 0.25019,0.30231 0.33358,0.48995c0.08339,0.18764 0.1251,0.38049 0.1251,0.58377v5.5354c0,0.20328 -0.0417,0.39614 -0.1251,0.58378c-0.08339,0.18764 -0.19807,0.34922 -0.33358,0.48995c-0.13552,0.14073 -0.30231,0.25019 -0.48995,0.33358c-0.18764,0.08339 -0.38049,0.12509 -0.58378,0.12509zM415.19142,201.15057c0.10946,0 0.21371,-0.02085 0.30752,-0.06255c0.09382,-0.0417 0.17721,-0.09903 0.24498,-0.16679c0.07297,-0.07297 0.12509,-0.15116 0.16679,-0.24498c0.0417,-0.09382 0.06255,-0.19807 0.06255,-0.30752v-5.47286c0,-0.10424 -0.02085,-0.20849 -0.06255,-0.30231c-0.0417,-0.09382 -0.09903,-0.17721 -0.16679,-0.25018c-0.07297,-0.07297 -0.15637,-0.1251 -0.25019,-0.1668c-0.09382,-0.0417 -0.19807,-0.06255 -0.30231,-0.06255h-9.38204c-0.10946,0 -0.21371,0.02085 -0.30753,0.06255c-0.09382,0.0417 -0.17721,0.09904 -0.24497,0.1668c-0.07297,0.07297 -0.12509,0.15115 -0.16679,0.24497c-0.0417,0.09382 -0.06255,0.19807 -0.06255,0.30752v5.47286c0,0.10945 0.02085,0.2137 0.06255,0.30752c0.0417,0.09382 0.09382,0.17722 0.16679,0.24498c0.06776,0.06776 0.15115,0.12509 0.24497,0.16679c0.09382,0.0417 0.19807,0.06255 0.30753,0.06255zM406.20031,195.87578c0,-0.16158 0.05734,-0.30231 0.17201,-0.41698c0.11467,-0.11467 0.25019,-0.17201 0.41698,-0.17201c0.16158,0 0.30231,0.05734 0.41698,0.17201c0.11467,0.11467 0.17201,0.25019 0.17201,0.41698c0,0.16158 -0.05734,0.30231 -0.17201,0.41698c-0.11467,0.11467 -0.25019,0.172 -0.41698,0.172c-0.16158,0 -0.30231,-0.05733 -0.41698,-0.172c-0.11467,-0.11467 -0.17201,-0.2554 -0.17201,-0.41698zM406.98215,200.36874c-0.10424,0 -0.19806,-0.03648 -0.27625,-0.11467c-0.07819,-0.07818 -0.11467,-0.1668 -0.11467,-0.27625c0,-0.10424 0.03648,-0.19807 0.11467,-0.27625c0.07819,-0.07818 0.16679,-0.11467 0.27625,-0.11467h7.03653c0.10424,0 0.19806,0.03648 0.27625,0.11467c0.07819,0.07818 0.11467,0.1668 0.11467,0.27625c0,0.10424 -0.03648,0.19807 -0.11467,0.27625c-0.07819,0.07818 -0.16679,0.11467 -0.27625,0.11467zM407.76397,198.22129c0,-0.16158 0.05733,-0.30231 0.172,-0.41698c0.11467,-0.11467 0.25019,-0.17201 0.41698,-0.17201c0.16158,0 0.30231,0.05734 0.41698,0.17201c0.11467,0.11467 0.172,0.25019 0.172,0.41698c0,0.16158 -0.05733,0.30231 -0.172,0.41698c-0.11467,0.11467 -0.25019,0.17201 -0.41698,0.17201c-0.16158,0 -0.30231,-0.05734 -0.41698,-0.17201c-0.11467,-0.11467 -0.172,-0.2554 -0.172,-0.41698zM408.54582,195.87578c0,-0.16158 0.05734,-0.30231 0.17201,-0.41698c0.11467,-0.11467 0.25019,-0.17201 0.41698,-0.17201c0.16158,0 0.30231,0.05734 0.41698,0.17201c0.11467,0.11467 0.17201,0.25019 0.17201,0.41698c0,0.16158 -0.05734,0.30231 -0.17201,0.41698c-0.11467,0.11467 -0.25019,0.172 -0.41698,0.172c-0.16158,0 -0.30231,-0.05733 -0.41698,-0.172c-0.11467,-0.11467 -0.17201,-0.2554 -0.17201,-0.41698zM410.10949,198.22129c0,-0.16158 0.05734,-0.30231 0.17201,-0.41698c0.11467,-0.11467 0.25019,-0.17201 0.41698,-0.17201c0.16158,0 0.30231,0.05734 0.41698,0.17201c0.11467,0.11467 0.172,0.25019 0.172,0.41698c0,0.16158 -0.05733,0.30231 -0.172,0.41698c-0.11467,0.11467 -0.25019,0.17201 -0.41698,0.17201c-0.16158,0 -0.30231,-0.05734 -0.41698,-0.17201c-0.11467,-0.11467 -0.17201,-0.2554 -0.17201,-0.41698zM410.89134,195.87578c0,-0.16158 0.05734,-0.30231 0.17201,-0.41698c0.11467,-0.11467 0.25019,-0.17201 0.41698,-0.17201c0.16158,0 0.30231,0.05734 0.41698,0.17201c0.11467,0.11467 0.17201,0.25019 0.17201,0.41698c0,0.16158 -0.05734,0.30231 -0.17201,0.41698c-0.11467,0.11467 -0.25019,0.172 -0.41698,0.172c-0.16158,0 -0.30231,-0.05733 -0.41698,-0.172c-0.11467,-0.11467 -0.17201,-0.2554 -0.17201,-0.41698zM412.45501,198.22129c0,-0.16158 0.05734,-0.30231 0.17201,-0.41698c0.11467,-0.11467 0.25019,-0.17201 0.41698,-0.17201c0.16158,0 0.30231,0.05734 0.41698,0.17201c0.11467,0.11467 0.17201,0.25019 0.17201,0.41698c0,0.16158 -0.05734,0.30231 -0.17201,0.41698c-0.11467,0.11467 -0.25019,0.17201 -0.41698,0.17201c-0.16158,0 -0.30231,-0.05734 -0.41698,-0.17201c-0.11467,-0.11467 -0.17201,-0.2554 -0.17201,-0.41698zM413.23685,195.87578c0,-0.16158 0.05734,-0.30231 0.17201,-0.41698c0.11467,-0.11467 0.25019,-0.17201 0.41698,-0.17201c0.16158,0 0.30231,0.05734 0.41698,0.17201c0.11467,0.11467 0.17201,0.25019 0.17201,0.41698c0,0.16158 -0.05734,0.30231 -0.17201,0.41698c-0.11467,0.11467 -0.25019,0.172 -0.41698,0.172c-0.16158,0 -0.30231,-0.05733 -0.41698,-0.172c-0.11467,-0.11467 -0.17201,-0.2554 -0.17201,-0.41698z" fill="#000000" stroke="#000000" stroke-width="0.25" stroke-linecap="butt"/><g fill="#e0e0e0" stroke="none" stroke-width="0" stroke-linecap="butt"><path d="M31.27882,329.18726c0,-9.02952 7.31988,-16.34938 16.3494,-16.34938c9.02951,0 16.34939,7.31986 16.34939,16.34938c0,9.02952 -7.31986,16.34939 -16.34939,16.34939c-9.02951,0 -16.3494,-7.31988 -16.3494,-16.34939z"/><path d="M31.47639,293.50243c0,-9.02952 7.31988,-16.34938 16.3494,-16.34938c9.02952,0 16.34939,7.31986 16.34939,16.34938c0,9.02952 -7.31986,16.34939 -16.34939,16.34939c-9.02952,0 -16.3494,-7.31987 -16.3494,-16.34939z"/><path d="M31.54281,257.52899c0,-9.02952 7.31988,-16.34938 16.34939,-16.34938c9.02952,0 16.34939,7.31986 16.34939,16.34938c0,9.02952 -7.31986,16.34939 -16.34939,16.34939c-9.02952,0 -16.34939,-7.31987 -16.34939,-16.34939z"/></g><g fill="#e0e0e0" stroke="none" stroke-width="0" stroke-linecap="butt"><path d="M67.06145,329.41854c0,-9.02952 7.31987,-16.34938 16.34939,-16.34938c9.02952,0 16.34939,7.31986 16.34939,16.34938c0,9.02952 -7.31986,16.34939 -16.34939,16.34939c-9.02952,0 -16.34939,-7.31987 -16.34939,-16.34939z"/><path d="M67.25912,293.7337c0,-9.02952 7.31987,-16.34938 16.3494,-16.34938c9.02952,0 16.3494,7.31986 16.3494,16.34938c0,9.02952 -7.31987,16.3494 -16.3494,16.3494c-9.02952,0 -16.3494,-7.31988 -16.3494,-16.3494z"/><path d="M67.32551,257.76027c0,-9.02952 7.31987,-16.34938 16.3494,-16.34938c9.02952,0 16.3494,7.31986 16.3494,16.34938c0,9.02952 -7.31987,16.34939 -16.3494,16.34939c-9.02952,0 -16.3494,-7.31987 -16.3494,-16.34939z"/></g><g fill="#e0e0e0" stroke="none" stroke-width="0" stroke-linecap="butt"><path d="M102.74838,329.25166c0,-9.02952 7.31987,-16.34938 16.34939,-16.34938c9.02952,0 16.34939,7.31986 16.34939,16.34938c0,9.02952 -7.31986,16.34939 -16.34939,16.34939c-9.02952,0 -16.34939,-7.31987 -16.34939,-16.34939z"/><path d="M102.94599,293.56683c0,-9.02952 7.31987,-16.34938 16.34939,-16.34938c9.02952,0 16.3494,7.31986 16.3494,16.34938c0,9.02952 -7.31987,16.3494 -16.3494,16.3494c-9.02952,0 -16.34939,-7.31988 -16.34939,-16.3494z"/><path d="M103.01238,257.59339c0,-9.02952 7.31987,-16.34938 16.34939,-16.34938c9.02952,0 16.3494,7.31986 16.3494,16.34938c0,9.02952 -7.31987,16.34939 -16.3494,16.34939c-9.02952,0 -16.34939,-7.31987 -16.34939,-16.34939z"/></g><g fill="#e0e0e0" stroke="none" stroke-width="0" stroke-linecap="butt"><path d="M138.53097,329.56845c0,-9.02952 7.31987,-16.34938 16.34939,-16.34938c9.02952,0 16.34939,7.31986 16.34939,16.34938c0,9.02952 -7.31986,16.34939 -16.34939,16.34939c-9.02952,0 -16.34939,-7.31987 -16.34939,-16.34939z"/><path d="M138.72858,293.88362c0,-9.02952 7.31988,-16.34938 16.3494,-16.34938c9.02952,0 16.34939,7.31986 16.34939,16.34938c0,9.02952 -7.31986,16.34939 -16.34939,16.34939c-9.02952,0 -16.3494,-7.31987 -16.3494,-16.34939z"/><path d="M138.79495,257.91017c0,-9.02952 7.31988,-16.34937 16.3494,-16.34937c9.02952,0 16.34939,7.31985 16.34939,16.34937c0,9.02952 -7.31986,16.3494 -16.34939,16.3494c-9.02952,0 -16.3494,-7.31988 -16.3494,-16.3494z"/></g><g fill="#e0e0e0" stroke="none" stroke-width="0" stroke-linecap="butt"><path d="M175.07224,329.26728c0,-9.02952 7.31987,-16.34938 16.34939,-16.34938c9.02952,0 16.34939,7.31986 16.34939,16.34938c0,9.02952 -7.31986,16.3494 -16.34939,16.3494c-9.02952,0 -16.34939,-7.31988 -16.34939,-16.3494z"/><path d="M175.26985,293.58244c0,-9.02952 7.31987,-16.34938 16.34939,-16.34938c9.02952,0 16.34939,7.31986 16.34939,16.34938c0,9.02952 -7.31986,16.34939 -16.34939,16.34939c-9.02952,0 -16.34939,-7.31987 -16.34939,-16.34939z"/><path d="M175.33628,257.60901c0,-9.02952 7.31987,-16.34938 16.34939,-16.34938c9.02952,0 16.3494,7.31986 16.3494,16.34938c0,9.02952 -7.31987,16.34939 -16.3494,16.34939c-9.02952,0 -16.34939,-7.31987 -16.34939,-16.34939z"/></g><g fill="#b9b9b9" stroke="none" stroke-width="0" stroke-linecap="butt"><path d="M273.68854,329.87461c0,-9.02952 7.31987,-16.34938 16.34939,-16.34938c9.02952,0 16.3494,7.31986 16.3494,16.34938c0,9.02952 -7.31986,16.34939 -16.3494,16.34939c-9.02952,0 -16.34939,-7.31987 -16.34939,-16.34939z"/><path d="M273.88617,294.18978c0,-9.02952 7.31987,-16.34938 16.34939,-16.34938c9.02952,0 16.3494,7.31986 16.3494,16.34938c0,9.02952 -7.31986,16.3494 -16.3494,16.3494c-9.02952,0 -16.34939,-7.31988 -16.34939,-16.3494z"/><path d="M273.95259,258.21634c0,-9.02952 7.31988,-16.34938 16.3494,-16.34938c9.02952,0 16.3494,7.31986 16.3494,16.34938c0,9.02952 -7.31986,16.3494 -16.3494,16.3494c-9.02952,0 -16.3494,-7.31988 -16.3494,-16.3494z"/></g><path d="M309.47123,330.1914c0,-9.02952 7.31987,-16.34938 16.34939,-16.34938c9.02952,0 16.34939,7.31986 16.34939,16.34938c0,9.02952 -7.31986,16.3494 -16.34939,16.3494c-9.02952,0 -16.34939,-7.31988 -16.34939,-16.3494z" fill="#b9b9b9" stroke="none" stroke-width="0" stroke-linecap="butt"/><path d="M309.66888,294.50657c0,-9.02952 7.31988,-16.34938 16.3494,-16.34938c9.02952,0 16.34939,7.31986 16.34939,16.34938c0,9.02952 -7.31986,16.34939 -16.34939,16.34939c-9.02952,0 -16.3494,-7.31987 -16.3494,-16.34939z" fill="#b9b9b9" stroke="none" stroke-width="0" stroke-linecap="butt"/><path d="M309.73519,258.53313c0,-9.02952 7.31987,-16.34938 16.34939,-16.34938c9.02952,0 16.3494,7.31986 16.3494,16.34938c0,9.02952 -7.31986,16.34939 -16.3494,16.34939c-9.02952,0 -16.34939,-7.31987 -16.34939,-16.34939z" fill="#b9b9b9" stroke="none" stroke-width="0" stroke-linecap="butt"/><path d="M345.06333,330.58065c0,-9.02952 7.31987,-16.34937 16.34939,-16.34937c9.02952,0 16.34939,7.31985 16.34939,16.34937c0,9.02952 -7.31986,16.3494 -16.34939,16.3494c-9.02952,0 -16.34939,-7.31988 -16.34939,-16.3494z" fill="#b9b9b9" stroke="none" stroke-width="0" stroke-linecap="butt"/><path d="M345.26094,294.89582c0,-9.02952 7.31988,-16.34938 16.3494,-16.34938c9.02952,0 16.34939,7.31986 16.34939,16.34938c0,9.02952 -7.31986,16.34939 -16.34939,16.34939c-9.02952,0 -16.3494,-7.31987 -16.3494,-16.34939z" fill="#b9b9b9" stroke="none" stroke-width="0" stroke-linecap="butt"/><path d="M345.32728,258.92239c0,-9.02952 7.31988,-16.34938 16.3494,-16.34938c9.02952,0 16.3494,7.31986 16.3494,16.34938c0,9.02952 -7.31986,16.34939 -16.3494,16.34939c-9.02952,0 -16.3494,-7.31987 -16.3494,-16.34939z" fill="#b9b9b9" stroke="none" stroke-width="0" stroke-linecap="butt"/><path d="M380.75019,330.41378c0,-9.02952 7.31988,-16.34938 16.3494,-16.34938c9.02952,0 16.34939,7.31986 16.34939,16.34938c0,9.02952 -7.31986,16.34939 -16.34939,16.34939c-9.02952,0 -16.3494,-7.31987 -16.3494,-16.34939z" fill="#ff0000" stroke="none" stroke-width="0" stroke-linecap="butt"/><path d="M380.94781,294.72895c0,-9.02952 7.31988,-16.34938 16.3494,-16.34938c9.02952,0 16.34939,7.31986 16.34939,16.34938c0,9.02952 -7.31986,16.34939 -16.34939,16.34939c-9.02952,0 -16.3494,-7.31987 -16.3494,-16.34939z" fill="#ff7575" stroke="none" stroke-width="0" stroke-linecap="butt"/><path d="M381.01415,258.75551c0,-9.02952 7.31988,-16.34938 16.3494,-16.34938c9.02952,0 16.3494,7.31986 16.3494,16.34938c0,9.02952 -7.31986,16.34939 -16.3494,16.34939c-9.02952,0 -16.3494,-7.31987 -16.3494,-16.34939z" fill="#b9b9b9" stroke="none" stroke-width="0" stroke-linecap="butt"/><path d="M416.53287,330.73057c0,-9.02952 7.31986,-16.34938 16.34938,-16.34938c9.02952,0 16.3494,7.31986 16.3494,16.34938c0,9.02952 -7.31986,16.34939 -16.3494,16.34939c-9.02952,0 -16.34938,-7.31987 -16.34938,-16.34939z" fill="#ff0000" stroke="none" stroke-width="0" stroke-linecap="butt"/><path d="M416.73046,295.04573c0,-9.02952 7.31987,-16.34938 16.34939,-16.34938c9.02952,0 16.3494,7.31986 16.3494,16.34938c0,9.02952 -7.31986,16.34939 -16.3494,16.34939c-9.02952,0 -16.34939,-7.31987 -16.34939,-16.34939z" fill="#ff7575" stroke="none" stroke-width="0" stroke-linecap="butt"/><path d="M416.79684,259.0723c0,-9.02952 7.31987,-16.34938 16.34939,-16.34938c9.02952,0 16.3494,7.31986 16.3494,16.34938c0,9.02952 -7.31986,16.3494 -16.3494,16.3494c-9.02952,0 -16.34939,-7.31988 -16.34939,-16.3494z" fill="#b9b9b9" stroke="none" stroke-width="0" stroke-linecap="butt"/><path d="M33.30272,197.52427c0,-6.2134 5.03695,-11.25036 11.25036,-11.25036c6.2134,0 11.25036,5.03696 11.25036,11.25036c0,6.2134 -5.03695,11.25036 -11.25035,11.25036c-6.2134,0 -11.25035,-5.03696 -11.25035,-11.25036z" fill="#e0e0e0" stroke="none" stroke-width="0" stroke-linecap="butt"/><path d="M59.69009,197.6206c0,-6.2134 5.03695,-11.25035 11.25036,-11.25035c6.2134,0 11.25036,5.03695 11.25036,11.25035c0,6.2134 -5.03696,11.25036 -11.25036,11.25036c-6.2134,0 -11.25035,-5.03696 -11.25035,-11.25036z" fill="#e0e0e0" stroke="none" stroke-width="0" stroke-linecap="butt"/><path d="M87.03158,197.513c0,-6.2134 5.03696,-11.25036 11.25036,-11.25036c6.2134,0 11.25036,5.03696 11.25036,11.25036c0,6.2134 -5.03695,11.25035 -11.25035,11.25035c-6.2134,0 -11.25036,-5.03695 -11.25036,-11.25035z" fill="#a8a8a8" stroke="none" stroke-width="0" stroke-linecap="butt"/><text transform="translate(41.33115,200.27176) scale(0.26443,0.26443)" font-size="40" xml:space="preserve" fill="#000000" stroke="none" stroke-width="1" stroke-linecap="butt" font-family="Sans Serif" font-weight="normal" text-anchor="start"><tspan x="0" dy="0">1</tspan></text><path d="M140.93955,197.7111c0,-6.2134 5.03696,-11.25036 11.25036,-11.25036c6.2134,0 11.25036,5.03696 11.25036,11.25036c0,6.2134 -5.03695,11.25035 -11.25035,11.25035c-6.2134,0 -11.25036,-5.03695 -11.25036,-11.25035z" fill="#e0e0e0" stroke="none" stroke-width="0" stroke-linecap="butt"/><text transform="translate(68.20732,200.57838) scale(0.26443,0.26443)" font-size="40" xml:space="preserve" fill="#000000" stroke="none" stroke-width="1" stroke-linecap="butt" font-family="Sans Serif" font-weight="normal" text-anchor="start"><tspan x="0" dy="0">2</tspan></text><text transform="translate(95.82087,200.67167) scale(0.26443,0.26443)" font-size="40" xml:space="preserve" fill="#000000" stroke="none" stroke-width="1" stroke-linecap="butt" font-family="Sans Serif" font-weight="normal" text-anchor="start"><tspan x="0" dy="0">3</tspan></text><g fill="none" stroke="#000000" stroke-width="1.25"><path d="M148.32861,194.92857c-0.00276,-0.04281 -0.00417,-0.08599 -0.00417,-0.12948c0,-1.09332 0.8863,-1.97962 1.97962,-1.97962c0.17474,0 0.34418,0.02265 0.50557,0.06516" stroke-linecap="butt"/><path d="M151.12706,192.99739l-0.40037,-0.13345" stroke-linecap="round"/><path d="M148.32447,194.91031v6.76186" stroke-linecap="round"/><path d="M146.98987,196.20039h2.75814" stroke-linecap="round"/><path d="M157.11416,197.56709c0.45871,0.50218 0.73851,1.17059 0.73851,1.90435c0,0.75037 -0.29262,1.43242 -0.76997,1.93824" stroke-linecap="butt"/><path d="M151.92709,201.30759c-0.44256,-0.49864 -0.71133,-1.15499 -0.71133,-1.87415c0,-0.70173 0.25589,-1.34369 0.67945,-1.83763" stroke-linecap="butt"/><path d="M152.1804,201.60381l-0.30399,-0.34199" stroke-linecap="round"/><path d="M151.83844,197.65196l0.30398,-0.37999" stroke-linecap="round"/><path d="M156.85421,197.23398l0.26598,0.30399" stroke-linecap="round"/><path d="M156.77819,201.6798l0.41798,-0.41798" stroke-linecap="round"/><path d="M153.55173,198.23997l2.20256,2.31455" stroke-linecap="round"/><path d="M153.51439,200.55451l2.12792,-2.20256" stroke-linecap="round"/></g><path d="M113.98414,197.7407c0,-6.2134 5.03696,-11.25036 11.25036,-11.25036c6.2134,0 11.25036,5.03696 11.25036,11.25036c0,6.2134 -5.03695,11.25035 -11.25035,11.25035c-6.2134,0 -11.25036,-5.03695 -11.25036,-11.25035z" fill="#e0e0e0" stroke="none" stroke-width="0" stroke-linecap="butt"/><text transform="translate(122.77343,200.89937) scale(0.26443,0.26443)" font-size="40" xml:space="preserve" fill="#000000" stroke="none" stroke-width="1" stroke-linecap="butt" font-family="Sans Serif" font-weight="normal" text-anchor="start"><tspan x="0" dy="0">4</tspan></text><path d="M390.03403,330.36953c0,-0.11145 0,-0.33434 0.11145,-0.44579c0.11145,-0.11145 0.11145,-0.22289 0.2229,-0.44579l3.12049,-3.45483c0.22289,-0.22289 0.44579,-0.33434 0.66868,-0.55723c0.22289,-0.22289 0.55723,-0.22289 0.89157,-0.22289h6.01808c0.22289,0 0.55723,0 0.78012,0.11145c0.22289,0.11145 0.44579,0.22289 0.66868,0.44579c0.22289,0.22289 0.33434,0.44579 0.44579,0.66868c0.11145,0.22289 0.11145,0.55723 0.11145,0.78012v5.90664c0,0.22289 0,0.55723 -0.11145,0.78012c-0.11145,0.22289 -0.22289,0.44579 -0.44579,0.66868c-0.22289,0.22289 -0.44579,0.33434 -0.66868,0.44579c-0.22289,0.11145 -0.55723,0.11145 -0.78012,0.11145h-6.01808c-0.33434,0 -0.55723,-0.11145 -0.89157,-0.22289c-0.33434,-0.11145 -0.55723,-0.33434 -0.66868,-0.55723l-3.12049,-3.45482c-0.11145,-0.11145 -0.2229,-0.22289 -0.2229,-0.44579c-0.11145,0.22289 -0.11145,0 -0.11145,-0.11145zM401.06719,334.49303c0.22289,0 0.33434,0 0.44579,-0.11145c0.11145,-0.11145 0.33434,-0.11145 0.44579,-0.22289c0.11145,-0.11145 0.22289,-0.22289 0.22289,-0.44579c0,-0.22289 0.11145,-0.33434 0.11145,-0.44579v-5.90664c0,-0.22289 0,-0.33434 -0.11145,-0.44579c-0.11145,-0.11145 -0.11145,-0.33434 -0.22289,-0.44579c-0.11145,-0.11145 -0.22289,-0.22289 -0.44579,-0.22289c-0.22289,0 -0.33434,-0.11145 -0.44579,-0.11145h-5.90664c-0.22289,0 -0.33434,0 -0.55723,0.11145c-0.22289,0.11145 -0.33434,0.22289 -0.44579,0.33434l-3.12049,3.45483c-0.11145,0.11145 -0.11145,0.22289 -0.11145,0.33434c0,0.11145 0,0.22289 0.11145,0.33434l3.12049,3.45483c0.11145,0.11145 0.22289,0.22289 0.44579,0.33434c0.22289,0.11145 0.33434,0.11145 0.55723,0.11145h5.90664zM398.05815,330.92676l-1.78314,1.78313c-0.11145,0.11145 -0.22289,0.11145 -0.33434,0.11145c-0.11145,0 -0.22289,0 -0.33434,-0.11145c-0.11145,-0.11145 -0.11145,-0.22289 -0.11145,-0.33434c0,-0.11145 0,-0.22289 0.11145,-0.33433l1.78314,-1.78314l-1.78314,-1.78314c-0.11145,-0.11145 -0.11145,-0.22289 -0.11145,-0.33434c0,-0.11145 0,-0.22289 0.11145,-0.33434c0.11145,-0.11145 0.22289,-0.11145 0.33434,-0.11145c0.11145,0 0.22289,0 0.33434,0.11145l1.78314,1.78314l1.78314,-1.78314c0.11145,-0.11145 0.22289,-0.11145 0.33434,-0.11145c0.11145,0 0.22289,0 0.33433,0.11145c0.11145,0.11145 0.11145,0.22289 0.11145,0.33434c0,0.11145 0,0.22289 -0.11145,0.33434l-1.78313,1.78314l1.78313,1.78314c0.11145,0.11145 0.11145,0.22289 0.11145,0.33433c0,0.11145 0,0.22289 -0.11145,0.33434c-0.11145,0.11145 -0.22289,0.11145 -0.33433,0.11145c-0.11145,0 -0.22289,0 -0.33434,-0.11145z" fill="#ffffff" stroke="#ffffff" stroke-width="0.5" stroke-linecap="butt"/><path d="M438.99069,324.99968v4.34272c0,0.34285 -0.11428,0.57141 -0.22856,0.79998c-0.11428,0.22856 -0.22856,0.45713 -0.45713,0.68569c-0.22856,0.22856 -0.45713,0.34285 -0.68569,0.45713c-0.22856,0.11428 -0.57141,0.11428 -0.79998,0.11428h-8.3426l2.74277,2.74277c0.11428,0.11428 0.11428,0.22856 0.11428,0.34285c0,0.11428 0,0.22856 -0.11428,0.34285c-0.11428,0.11428 -0.22856,0.11428 -0.34285,0.11428c-0.11428,0 -0.22856,0 -0.34285,-0.11428l-3.42847,-3.42847c-0.11428,-0.11428 -0.11428,-0.22856 -0.11428,-0.34285c0,-0.11428 0,-0.22856 0.11428,-0.34285l3.42847,-3.42847c0.11428,-0.11428 0.22856,-0.11428 0.34285,-0.11428c0.11428,0 0.22856,0 0.34285,0.11428c0.11428,0.11428 0.11428,0.22856 0.11428,0.34285c0,0.11428 0,0.22856 -0.11428,0.34285l-2.74277,2.74277h8.3426c0.22856,0 0.34285,0 0.45713,-0.11428c0.11428,-0.11428 0.34285,-0.11428 0.45713,-0.22856c0.11428,-0.11428 0.22856,-0.22856 0.22856,-0.45713c0,-0.22856 0.11428,-0.34285 0.11428,-0.45713v-4.34272c0,-0.11428 0,-0.22856 0.11428,-0.34285c0.11428,-0.11428 0.22856,-0.11428 0.34285,-0.11428c0.11428,0 0.22856,0 0.34285,0.11428c0.11428,0.11428 0.11428,0.11428 0.11428,0.22856z" fill="#ffffff" stroke="#ffffff" stroke-width="0.5" stroke-linecap="butt"/><g fill="none" stroke="#ffffff" stroke-width="2" stroke-linecap="round"><g><path d="M391.67331,294.64771l3.96109,-3.96109"/><path d="M391.67331,294.85084l3.96109,3.75796"/></g><path d="M393.33194,294.82265h9.26708"/></g><g fill="none" stroke="#ffffff" stroke-width="2" stroke-linecap="round"><g><path d="M439.24474,295.2052l-3.9432,3.9789"/><path d="M435.26583,291.262l3.97799,3.74007"/></g><path d="M437.58531,295.03773l-9.26699,0.04176"/></g><text transform="translate(283.38442,260.776) scale(0.26443,0.26443)" font-size="40" xml:space="preserve" fill="#000000" stroke="none" stroke-width="1" stroke-linecap="butt" font-family="Sans Serif" font-weight="normal" text-anchor="start"><tspan x="0" dy="0">[x]</tspan></text><text transform="translate(280.91819,333.85602) scale(0.26443,0.26443)" font-size="40" xml:space="preserve" fill="#000000" stroke="none" stroke-width="1" stroke-linecap="butt" font-family="Sans Serif" font-weight="normal" text-anchor="start"><tspan x="0" dy="0">⌈x⌉</tspan></text><text transform="translate(281.34637,297.24695) scale(0.26443,0.26443)" font-size="40" xml:space="preserve" fill="#000000" stroke="none" stroke-width="1" stroke-linecap="butt" font-family="Sans Serif" font-weight="normal" text-anchor="start"><tspan x="0" dy="0">⌊x⌋</tspan></text><text transform="translate(315.47619,260.4102) scale(0.19766,0.19766)" font-size="40" xml:space="preserve" fill="#000000" stroke="none" stroke-width="1" stroke-linecap="butt" font-family="Sans Serif" font-weight="normal" text-anchor="start"><tspan x="0" dy="0">x∈[ , ]</tspan></text><text transform="translate(315.52662,297.02361) scale(0.19766,0.19766)" font-size="40" xml:space="preserve" fill="#000000" stroke="none" stroke-width="1" stroke-linecap="butt" font-family="Sans Serif" font-weight="normal" text-anchor="start"><tspan x="0" dy="0">y∈[ , ]</tspan></text><text transform="translate(318.77033,333.47735) scale(0.19766,0.19766)" font-size="40" xml:space="preserve" fill="#000000" stroke="none" stroke-width="1" stroke-linecap="butt" font-family="Sans Serif" font-weight="normal" text-anchor="start"><tspan x="0" dy="0">x≥?</tspan></text><text transform="translate(354.42576,261.3598) scale(0.19766,0.19766)" font-size="40" xml:space="preserve" fill="#000000" stroke="none" stroke-width="1" stroke-linecap="butt" font-family="Sans Serif" font-weight="normal" text-anchor="start"><tspan x="0" dy="0">x≤?</tspan></text><text transform="translate(354.63584,297.33455) scale(0.19766,0.19766)" font-size="40" xml:space="preserve" fill="#000000" stroke="none" stroke-width="1" stroke-linecap="butt" font-family="Sans Serif" font-weight="normal" text-anchor="start"><tspan x="0" dy="0">y≥?</tspan></text><text transform="translate(354.52661,333.14964) scale(0.19766,0.19766)" font-size="40" xml:space="preserve" fill="#000000" stroke="none" stroke-width="1" stroke-linecap="butt" font-family="Sans Serif" font-weight="normal" text-anchor="start"><tspan x="0" dy="0">y≤?</tspan></text><text transform="translate(394.57772,257.22323) scale(0.19766,0.19766)" font-size="40" xml:space="preserve" fill="#000000" stroke="none" stroke-width="1" stroke-linecap="butt" font-family="Sans Serif" font-weight="normal" text-anchor="start"><tspan x="0" dy="0">d</tspan></text><text transform="translate(392.38326,265.97034) scale(0.19766,0.19766)" font-size="40" xml:space="preserve" fill="#000000" stroke="none" stroke-width="1" stroke-linecap="butt" font-family="Sans Serif" font-weight="normal" text-anchor="start"><tspan x="0" dy="0">dx</tspan></text><path d="M391.79881,258.87452h10.79169" fill="none" stroke="#000000" stroke-width="0.75" stroke-linecap="round"/><text transform="translate(429.10498,262.73892) scale(0.23697,0.23697)" font-size="40" xml:space="preserve" fill="#000000" stroke="none" stroke-width="1" stroke-linecap="butt" font-family="Sans Serif" font-weight="normal" text-anchor="start"><tspan x="0" dy="0">e</tspan></text><text transform="translate(434.10497,257.55568) scale(0.14145,0.14145)" font-size="40" xml:space="preserve" fill="#000000" stroke="none" stroke-width="1" stroke-linecap="butt" font-family="Sans Serif" font-weight="normal" text-anchor="start"><tspan x="0" dy="0">x</tspan></text><text transform="translate(40.41475,259.84154) scale(0.22427,0.22427)" font-size="40" xml:space="preserve" fill="#000000" stroke="none" stroke-width="1" stroke-linecap="butt" font-family="Sans Serif" font-weight="normal" text-anchor="start"><tspan x="0" dy="0">sgn</tspan></text><text transform="translate(40.76356,295.94636) scale(0.22427,0.22427)" font-size="40" xml:space="preserve" fill="#000000" stroke="none" stroke-width="1" stroke-linecap="butt" font-family="Sans Serif" font-weight="normal" text-anchor="start"><tspan x="0" dy="0">erf</tspan></text><text transform="translate(80.06606,260.82985) scale(0.22427,0.22427)" font-size="40" xml:space="preserve" fill="#000000" stroke="none" stroke-width="1" stroke-linecap="butt" font-family="Sans Serif" font-weight="normal" text-anchor="start"><tspan x="0" dy="0">Φ</tspan></text><text transform="translate(41.46118,332.1093) scale(0.22427,0.22427)" font-size="40" xml:space="preserve" fill="#000000" stroke="none" stroke-width="1" stroke-linecap="butt" font-family="Sans Serif" font-weight="normal" text-anchor="start"><tspan x="0" dy="0">ltw</tspan></text><text transform="translate(80.70559,296.64398) scale(0.22427,0.22427)" font-size="40" xml:space="preserve" fill="#000000" stroke="none" stroke-width="1" stroke-linecap="butt" font-family="Sans Serif" font-weight="normal" text-anchor="start"><tspan x="0" dy="0">Ζ</tspan></text><text transform="translate(79.6009,332.16741) scale(0.22427,0.22427)" font-size="40" xml:space="preserve" fill="#000000" stroke="none" stroke-width="1" stroke-linecap="butt" font-family="Sans Serif" font-weight="normal" text-anchor="start"><tspan x="0" dy="0">Li</tspan></text><text transform="translate(115.41503,260.42279) scale(0.22427,0.22427)" font-size="40" xml:space="preserve" fill="#000000" stroke="none" stroke-width="1" stroke-linecap="butt" font-family="Sans Serif" font-weight="normal" text-anchor="start"><tspan x="0" dy="0">Si</tspan></text><text transform="translate(114.60104,296.23692) scale(0.22427,0.22427)" font-size="40" xml:space="preserve" fill="#000000" stroke="none" stroke-width="1" stroke-linecap="butt" font-family="Sans Serif" font-weight="normal" text-anchor="start"><tspan x="0" dy="0">Ci</tspan></text><text transform="translate(114.65916,331.76034) scale(0.22427,0.22427)" font-size="40" xml:space="preserve" fill="#000000" stroke="none" stroke-width="1" stroke-linecap="butt" font-family="Sans Serif" font-weight="normal" text-anchor="start"><tspan x="0" dy="0">Ei</tspan></text><text transform="translate(147.15935,261.0623) scale(0.22427,0.22427)" font-size="40" xml:space="preserve" fill="#000000" stroke="none" stroke-width="1" stroke-linecap="butt" font-family="Sans Serif" font-weight="normal" text-anchor="start"><tspan x="0" dy="0">Eint</tspan></text><text transform="translate(146.92676,296.58573) scale(0.22427,0.22427)" font-size="40" xml:space="preserve" fill="#000000" stroke="none" stroke-width="1" stroke-linecap="butt" font-family="Sans Serif" font-weight="normal" text-anchor="start"><tspan x="0" dy="0">Kint</tspan></text><text transform="translate(147.85696,332.39986) scale(0.22427,0.22427)" font-size="40" xml:space="preserve" fill="#000000" stroke="none" stroke-width="1" stroke-linecap="butt" font-family="Sans Serif" font-weight="normal" text-anchor="start"><tspan x="0" dy="0">Shi</tspan></text><text transform="translate(185.1246,260.94594) scale(0.22427,0.22427)" font-size="40" xml:space="preserve" fill="#000000" stroke="none" stroke-width="1" stroke-linecap="butt" font-family="Sans Serif" font-weight="normal" text-anchor="start"><tspan x="0" dy="0">Chi</tspan></text><text transform="translate(179.95013,296.76006) scale(0.22427,0.22427)" font-size="40" xml:space="preserve" fill="#000000" stroke="none" stroke-width="1" stroke-linecap="butt" font-family="Sans Serif" font-weight="normal" text-anchor="start"><tspan x="0" dy="0">sfnint</tspan></text><text transform="translate(179.13615,332.57419) scale(0.22427,0.22427)" font-size="40" xml:space="preserve" fill="#000000" stroke="none" stroke-width="1" stroke-linecap="butt" font-family="Sans Serif" font-weight="normal" text-anchor="start"><tspan x="0" dy="0">cfnint</tspan></text></g></g></svg>