<svg version="1.1" xmlns="http://www.w3.org/2000/svg" xmlns:xlink="http://www.w3.org/1999/xlink" width="482.15534" height="177.42823" viewBox="0,0,482.15534,177.42823"><g transform="translate(0.41308,-183.10037)"><g stroke-miterlimit="10"><path d="M0.0179,360.5286v-129.46716h481.59261v129.46716z" fill-opacity="0.74902" fill="#ffffff" stroke="none" stroke-width="0" stroke-linecap="butt"/><path d="M-0.41308,231.63924v-48.53887h482.15534v48.53887z" fill-opacity="0.74902" fill="#f0f0f0" stroke="none" stroke-width="0" stroke-linecap="butt"/><path d="M425.96087,197.48223c0,-6.2134 5.03696,-11.25035 11.25036,-11.25035c6.2134,0 11.25036,5.03695 11.25036,11.25035c0,6.2134 -5.03695,11.25036 -11.25036,11.25036c-6.2134,0 -11.25036,-5.03696 -11.25036,-11.25036z" fill="#e0e0e0" stroke="none" stroke-width="0" stroke-linecap="butt"/><g fill="none" stroke="#000000" stroke-width="2" stroke-linecap="round"><path d="M437.55945,199.51949l-3.39119,-3.55361"/><path d="M437.73753,199.52366l3.37554,-3.39535"/></g><path d="M398.91824,197.68659c0,-6.2134 5.03696,-11.25036 11.25036,-11.25036c6.2134,0 11.25036,5.03696 11.25036,11.25036c0,6.2134 -5.03695,11.25035 -11.25035,11.25035c-6.2134,0 -11.25036,-5.03695 -11.25036,-11.25035z" fill="#e0e0e0" stroke="none" stroke-width="0" stroke-linecap="butt"/><path d="M405.77814,201.93241c-0.20328,0 -0.39613,-0.0417 -0.58377,-0.12509c-0.18764,-0.08339 -0.34922,-0.19807 -0.48995,-0.33358c-0.14073,-0.13552 -0.25019,-0.30231 -0.33358,-0.48995c-0.08339,-0.18764 -0.1251,-0.38049 -0.1251,-0.58378v-5.5354c0,-0.20328 0.0417,-0.39613 0.1251,-0.58377c0.08339,-0.18764 0.19807,-0.34922 0.33358,-0.48995c0.13552,-0.14073 0.30231,-0.25019 0.48995,-0.33358c0.18764,-0.08339 0.38049,-0.1251 0.58377,-0.1251h9.44459c0.20328,0 0.39614,0.0417 0.58378,0.1251c0.18764,0.08339 0.34922,0.19807 0.48995,0.33358c0.14073,0.13552 0.25019,0.30231 0.33358,0.48995c0.08339,0.18764 0.1251,0.38049 0.1251,0.58377v5.5354c0,0.20328 -0.0417,0.39614 -0.1251,0.58378c-0.08339,0.18764 -0.19807,0.34922 -0.33358,0.48995c-0.13552,0.14073 -0.30231,0.25019 -0.48995,0.33358c-0.18764,0.08339 -0.38049,0.12509 -0.58378,0.12509zM415.19143,201.15057c0.10946,0 0.21371,-0.02085 0.30752,-0.06255c0.09382,-0.0417 0.17721,-0.09903 0.24498,-0.16679c0.07297,-0.07297 0.12509,-0.15116 0.16679,-0.24498c0.0417,-0.09382 0.06255,-0.19807 0.06255,-0.30752v-5.47286c0,-0.10424 -0.02085,-0.20849 -0.06255,-0.30231c-0.0417,-0.09382 -0.09903,-0.17721 -0.16679,-0.25018c-0.07297,-0.07297 -0.15637,-0.1251 -0.25019,-0.1668c-0.09382,-0.0417 -0.19807,-0.06255 -0.30231,-0.06255h-9.38204c-0.10946,0 -0.21371,0.02085 -0.30753,0.06255c-0.09382,0.0417 -0.17721,0.09904 -0.24497,0.1668c-0.07297,0.07297 -0.12509,0.15115 -0.16679,0.24497c-0.0417,0.09382 -0.06255,0.19807 -0.06255,0.30752v5.47286c0,0.10945 0.02085,0.2137 0.06255,0.30752c0.0417,0.09382 0.09382,0.17722 0.16679,0.24498c0.06776,0.06776 0.15115,0.12509 0.24497,0.16679c0.09382,0.0417 0.19807,0.06255 0.30753,0.06255zM406.20033,195.87578c0,-0.16158 0.05734,-0.30231 0.17201,-0.41698c0.11467,-0.11467 0.25019,-0.17201 0.41698,-0.17201c0.16158,0 0.30231,0.05734 0.41698,0.17201c0.11467,0.11467 0.17201,0.25019 0.17201,0.41698c0,0.16158 -0.05734,0.30231 -0.17201,0.41698c-0.11467,0.11467 -0.25019,0.172 -0.41698,0.172c-0.16158,0 -0.30231,-0.05733 -0.41698,-0.172c-0.11467,-0.11467 -0.17201,-0.2554 -0.17201,-0.41698zM406.98217,200.36874c-0.10424,0 -0.19806,-0.03648 -0.27625,-0.11467c-0.07819,-0.07818 -0.11467,-0.1668 -0.11467,-0.27625c0,-0.10424 0.03648,-0.19807 0.11467,-0.27625c0.07819,-0.07818 0.16679,-0.11467 0.27625,-0.11467h7.03653c0.10424,0 0.19806,0.03648 0.27625,0.11467c0.07819,0.07818 0.11467,0.1668 0.11467,0.27625c0,0.10424 -0.03648,0.19807 -0.11467,0.27625c-0.07819,0.07818 -0.16679,0.11467 -0.27625,0.11467zM407.76401,198.22129c0,-0.16158 0.05733,-0.30231 0.172,-0.41698c0.11467,-0.11467 0.25019,-0.17201 0.41698,-0.17201c0.16158,0 0.30231,0.05734 0.41698,0.17201c0.11467,0.11467 0.172,0.25019 0.172,0.41698c0,0.16158 -0.05733,0.30231 -0.172,0.41698c-0.11467,0.11467 -0.25019,0.17201 -0.41698,0.17201c-0.16158,0 -0.30231,-0.05734 -0.41698,-0.17201c-0.11467,-0.11467 -0.172,-0.2554 -0.172,-0.41698zM408.54584,195.87578c0,-0.16158 0.05734,-0.30231 0.17201,-0.41698c0.11467,-0.11467 0.25019,-0.17201 0.41698,-0.17201c0.16158,0 0.30231,0.05734 0.41698,0.17201c0.11467,0.11467 0.17201,0.25019 0.17201,0.41698c0,0.16158 -0.05734,0.30231 -0.17201,0.41698c-0.11467,0.11467 -0.25019,0.172 -0.41698,0.172c-0.16158,0 -0.30231,-0.05733 -0.41698,-0.172c-0.11467,-0.11467 -0.17201,-0.2554 -0.17201,-0.41698zM410.10951,198.22129c0,-0.16158 0.05734,-0.30231 0.17201,-0.41698c0.11467,-0.11467 0.25019,-0.17201 0.41698,-0.17201c0.16158,0 0.30231,0.05734 0.41698,0.17201c0.11467,0.11467 0.172,0.25019 0.172,0.41698c0,0.16158 -0.05733,0.30231 -0.172,0.41698c-0.11467,0.11467 -0.25019,0.17201 -0.41698,0.17201c-0.16158,0 -0.30231,-0.05734 -0.41698,-0.17201c-0.11467,-0.11467 -0.17201,-0.2554 -0.17201,-0.41698zM410.89136,195.87578c0,-0.16158 0.05734,-0.30231 0.17201,-0.41698c0.11467,-0.11467 0.25019,-0.17201 0.41698,-0.17201c0.16158,0 0.30231,0.05734 0.41698,0.17201c0.11467,0.11467 0.17201,0.25019 0.17201,0.41698c0,0.16158 -0.05734,0.30231 -0.17201,0.41698c-0.11467,0.11467 -0.25019,0.172 -0.41698,0.172c-0.16158,0 -0.30231,-0.05733 -0.41698,-0.172c-0.11467,-0.11467 -0.17201,-0.2554 -0.17201,-0.41698zM412.45503,198.22129c0,-0.16158 0.05734,-0.30231 0.17201,-0.41698c0.11467,-0.11467 0.25019,-0.17201 0.41698,-0.17201c0.16158,0 0.30231,0.05734 0.41698,0.17201c0.11467,0.11467 0.17201,0.25019 0.17201,0.41698c0,0.16158 -0.05734,0.30231 -0.17201,0.41698c-0.11467,0.11467 -0.25019,0.17201 -0.41698,0.17201c-0.16158,0 -0.30231,-0.05734 -0.41698,-0.17201c-0.11467,-0.11467 -0.17201,-0.2554 -0.17201,-0.41698zM413.23687,195.87578c0,-0.16158 0.05734,-0.30231 0.17201,-0.41698c0.11467,-0.11467 0.25019,-0.17201 0.41698,-0.17201c0.16158,0 0.30231,0.05734 0.41698,0.17201c0.11467,0.11467 0.17201,0.25019 0.17201,0.41698c0,0.16158 -0.05734,0.30231 -0.17201,0.41698c-0.11467,0.11467 -0.25019,0.172 -0.41698,0.172c-0.16158,0 -0.30231,-0.05733 -0.41698,-0.172c-0.11467,-0.11467 -0.17201,-0.2554 -0.17201,-0.41698z" fill="#000000" stroke="#000000" stroke-width="0.25" stroke-linecap="butt"/><path d="M33.30274,197.52427c0,-6.2134 5.03695,-11.25036 11.25036,-11.25036c6.2134,0 11.25036,5.03696 11.25036,11.25036c0,6.2134 -5.03695,11.25036 -11.25035,11.25036c-6.2134,0 -11.25035,-5.03696 -11.25035,-11.25036z" fill="#e0e0e0" stroke="none" stroke-width="0" stroke-linecap="butt"/><path d="M59.69011,197.6206c0,-6.2134 5.03695,-11.25035 11.25036,-11.25035c6.2134,0 11.25036,5.03695 11.25036,11.25035c0,6.2134 -5.03696,11.25036 -11.25036,11.25036c-6.2134,0 -11.25035,-5.03696 -11.25035,-11.25036z" fill="#e0e0e0" stroke="none" stroke-width="0" stroke-linecap="butt"/><path d="M87.0316,197.513c0,-6.2134 5.03696,-11.25036 11.25036,-11.25036c6.2134,0 11.25036,5.03696 11.25036,11.25036c0,6.2134 -5.03695,11.25035 -11.25035,11.25035c-6.2134,0 -11.25036,-5.03695 -11.25036,-11.25035z" fill="#e0e0e0" stroke="none" stroke-width="0" stroke-linecap="butt"/><text transform="translate(41.33117,200.27176) scale(0.26443,0.26443)" font-size="40" xml:space="preserve" fill="#000000" stroke="none" stroke-width="1" stroke-linecap="butt" font-family="Sans Serif" font-weight="normal" text-anchor="start"><tspan x="0" dy="0">1</tspan></text><path d="M140.93957,197.7111c0,-6.2134 5.03696,-11.25036 11.25036,-11.25036c6.2134,0 11.25036,5.03696 11.25036,11.25036c0,6.2134 -5.03695,11.25035 -11.25035,11.25035c-6.2134,0 -11.25036,-5.03695 -11.25036,-11.25035z" fill="#e0e0e0" stroke="none" stroke-width="0" stroke-linecap="butt"/><text transform="translate(68.20734,200.57838) scale(0.26443,0.26443)" font-size="40" xml:space="preserve" fill="#000000" stroke="none" stroke-width="1" stroke-linecap="butt" font-family="Sans Serif" font-weight="normal" text-anchor="start"><tspan x="0" dy="0">2</tspan></text><text transform="translate(95.82089,200.67167) scale(0.26443,0.26443)" font-size="40" xml:space="preserve" fill="#000000" stroke="none" stroke-width="1" stroke-linecap="butt" font-family="Sans Serif" font-weight="normal" text-anchor="start"><tspan x="0" dy="0">3</tspan></text><g fill="none" stroke="#000000" stroke-width="1.25"><path d="M148.32862,194.92857c-0.00276,-0.04281 -0.00417,-0.08599 -0.00417,-0.12948c0,-1.09332 0.8863,-1.97962 1.97962,-1.97962c0.17474,0 0.34418,0.02265 0.50557,0.06516" stroke-linecap="butt"/><path d="M150.72672,192.86394l0.40037,0.13345" stroke-linecap="round"/><path d="M148.3245,194.91031v6.76186" stroke-linecap="round"/><path d="M146.98989,196.20039h2.75814" stroke-linecap="round"/><path d="M157.11417,197.56709c0.45871,0.50218 0.73851,1.17059 0.73851,1.90435c0,0.75037 -0.29262,1.43242 -0.76997,1.93824" stroke-linecap="butt"/><path d="M151.92712,201.30759c-0.44256,-0.49864 -0.71133,-1.15499 -0.71133,-1.87415c0,-0.70173 0.25589,-1.34369 0.67945,-1.83763" stroke-linecap="butt"/><path d="M152.18043,201.60381l-0.30399,-0.34199" stroke-linecap="round"/><path d="M151.83846,197.65196l0.30398,-0.37999" stroke-linecap="round"/><path d="M157.12022,197.53797l-0.26598,-0.30399" stroke-linecap="round"/><path d="M157.19619,201.26182l-0.41798,0.41798" stroke-linecap="round"/><path d="M153.55176,198.23997l2.20256,2.31455" stroke-linecap="round"/><path d="M155.64234,198.35195l-2.12792,2.20256" stroke-linecap="round"/></g><path d="M113.98416,197.7407c0,-6.2134 5.03696,-11.25036 11.25036,-11.25036c6.2134,0 11.25036,5.03696 11.25036,11.25036c0,6.2134 -5.03695,11.25035 -11.25035,11.25035c-6.2134,0 -11.25036,-5.03695 -11.25036,-11.25035z" fill="#a8a8a8" stroke="none" stroke-width="0" stroke-linecap="butt"/><text transform="translate(122.77345,200.89937) scale(0.26443,0.26443)" font-size="40" xml:space="preserve" fill="#000000" stroke="none" stroke-width="1" stroke-linecap="butt" font-family="Sans Serif" font-weight="normal" text-anchor="start"><tspan x="0" dy="0">4</tspan></text><path d="M66.76246,250.85838c0,-7.44241 6.03327,-13.47569 13.4757,-13.47569c7.44242,0 13.47569,6.03327 13.47569,13.47569c0,7.44241 -6.03326,13.4757 -13.47569,13.4757c-7.44242,0 -13.4757,-6.03327 -13.4757,-13.4757z" fill="#e0e0e0" stroke="none" stroke-width="0" stroke-linecap="butt"/><path d="M95.8303,250.82827c0,-7.44241 6.03327,-13.47569 13.4757,-13.47569c7.44241,0 13.47569,6.03327 13.47569,13.47569c0,7.44241 -6.03326,13.47569 -13.47569,13.47569c-7.44241,0 -13.4757,-6.03327 -13.4757,-13.47569z" fill="#e0e0e0" stroke="none" stroke-width="0" stroke-linecap="butt"/><path d="M124.68974,250.82827c0,-7.44241 6.03327,-13.47569 13.47569,-13.47569c7.44241,0 13.47569,6.03327 13.47569,13.47569c0,7.44241 -6.03327,13.47569 -13.47569,13.47569c-7.44241,0 -13.47569,-6.03327 -13.47569,-13.47569z" fill="#e0e0e0" stroke="none" stroke-width="0" stroke-linecap="butt"/><path d="M153.75757,250.79816c0,-7.44241 6.03327,-13.47569 13.47569,-13.47569c7.44241,0 13.47569,6.03327 13.47569,13.47569c0,7.44241 -6.03327,13.47569 -13.47569,13.47569c-7.44241,0 -13.47569,-6.03327 -13.47569,-13.47569z" fill="#e0e0e0" stroke="none" stroke-width="0" stroke-linecap="butt"/><path d="M181.93158,250.82827c0,-7.44241 6.03327,-13.47569 13.47569,-13.47569c7.44241,0 13.47569,6.03327 13.47569,13.47569c0,7.44241 -6.03327,13.47569 -13.47569,13.47569c-7.44241,0 -13.47569,-6.03327 -13.47569,-13.47569z" fill="#e0e0e0" stroke="none" stroke-width="0" stroke-linecap="butt"/><path d="M210.99942,250.79816c0,-7.44241 6.03327,-13.47569 13.47569,-13.47569c7.44241,0 13.47569,6.03327 13.47569,13.47569c0,7.44241 -6.03327,13.47569 -13.47569,13.47569c-7.44241,0 -13.47569,-6.03327 -13.47569,-13.47569z" fill="#e0e0e0" stroke="none" stroke-width="0" stroke-linecap="butt"/><path d="M239.85884,250.79816c0,-7.44241 6.03327,-13.47569 13.47569,-13.47569c7.44242,0 13.47569,6.03327 13.47569,13.47569c0,7.44241 -6.03326,13.47569 -13.47569,13.47569c-7.44242,0 -13.47569,-6.03327 -13.47569,-13.47569z" fill="#e0e0e0" stroke="none" stroke-width="0" stroke-linecap="butt"/><path d="M268.92669,250.76806c0,-7.44241 6.03327,-13.47569 13.47569,-13.47569c7.44242,0 13.47569,6.03327 13.47569,13.47569c0,7.44241 -6.03326,13.4757 -13.47569,13.4757c-7.44242,0 -13.47569,-6.03327 -13.47569,-13.4757z" fill="#e0e0e0" stroke="none" stroke-width="0" stroke-linecap="butt"/><path d="M297.3392,250.79817c0,-7.44241 6.03327,-13.47569 13.47569,-13.47569c7.44242,0 13.47569,6.03327 13.47569,13.47569c0,7.44241 -6.03326,13.47569 -13.47569,13.47569c-7.44242,0 -13.47569,-6.03327 -13.47569,-13.47569z" fill="#e0e0e0" stroke="none" stroke-width="0" stroke-linecap="butt"/><path d="M326.40706,250.76806c0,-7.44241 6.03327,-13.47569 13.47569,-13.47569c7.44242,0 13.47569,6.03327 13.47569,13.47569c0,7.44241 -6.03326,13.47569 -13.47569,13.47569c-7.44242,0 -13.47569,-6.03327 -13.47569,-13.47569z" fill="#e0e0e0" stroke="none" stroke-width="0" stroke-linecap="butt"/><path d="M355.2665,250.76806c0,-7.44241 6.03327,-13.47569 13.47569,-13.47569c7.44242,0 13.47569,6.03327 13.47569,13.47569c0,7.44241 -6.03326,13.47569 -13.47569,13.47569c-7.44242,0 -13.47569,-6.03327 -13.47569,-13.47569z" fill="#e0e0e0" stroke="none" stroke-width="0" stroke-linecap="butt"/><path d="M384.33433,250.73795c0,-7.44241 6.03327,-13.47569 13.4757,-13.47569c7.44242,0 13.47569,6.03326 13.47569,13.47569c0,7.44241 -6.03326,13.4757 -13.47569,13.4757c-7.44242,0 -13.4757,-6.03327 -13.4757,-13.4757z" fill="#e0e0e0" stroke="none" stroke-width="0" stroke-linecap="butt"/><path d="M80.94625,279.72102c0,-7.44241 6.03327,-13.47569 13.4757,-13.47569c7.44241,0 13.47569,6.03327 13.47569,13.47569c0,7.44241 -6.03327,13.47569 -13.47569,13.47569c-7.44242,0 -13.4757,-6.03327 -13.4757,-13.47569z" fill="#e0e0e0" stroke="none" stroke-width="0" stroke-linecap="butt"/><path d="M110.01406,279.69091c0,-7.44241 6.03327,-13.47569 13.4757,-13.47569c7.44241,0 13.47569,6.03327 13.47569,13.47569c0,7.44241 -6.03327,13.47569 -13.47569,13.47569c-7.44241,0 -13.4757,-6.03327 -13.4757,-13.47569z" fill="#e0e0e0" stroke="none" stroke-width="0" stroke-linecap="butt"/><path d="M138.8735,279.69091c0,-7.44241 6.03327,-13.47569 13.4757,-13.47569c7.44241,0 13.47569,6.03327 13.47569,13.47569c0,7.44241 -6.03326,13.47569 -13.47569,13.47569c-7.44241,0 -13.4757,-6.03327 -13.4757,-13.47569z" fill="#e0e0e0" stroke="none" stroke-width="0" stroke-linecap="butt"/><path d="M167.94136,279.6608c0,-7.44241 6.03327,-13.47569 13.47569,-13.47569c7.44241,0 13.47569,6.03327 13.47569,13.47569c0,7.44241 -6.03327,13.4757 -13.47569,13.4757c-7.44241,0 -13.47569,-6.03327 -13.47569,-13.4757z" fill="#e0e0e0" stroke="none" stroke-width="0" stroke-linecap="butt"/><path d="M196.11537,279.69091c0,-7.44241 6.03327,-13.47569 13.47569,-13.47569c7.44241,0 13.47569,6.03327 13.47569,13.47569c0,7.44241 -6.03327,13.47569 -13.47569,13.47569c-7.44241,0 -13.47569,-6.03327 -13.47569,-13.47569z" fill="#e0e0e0" stroke="none" stroke-width="0" stroke-linecap="butt"/><path d="M225.18321,279.6608c0,-7.44241 6.03327,-13.47569 13.4757,-13.47569c7.44242,0 13.47569,6.03327 13.47569,13.47569c0,7.44241 -6.03326,13.4757 -13.47569,13.4757c-7.44241,0 -13.4757,-6.03327 -13.4757,-13.4757z" fill="#e0e0e0" stroke="none" stroke-width="0" stroke-linecap="butt"/><path d="M254.04263,279.6608c0,-7.44241 6.03327,-13.47569 13.47569,-13.47569c7.44242,0 13.47569,6.03327 13.47569,13.47569c0,7.44241 -6.03326,13.4757 -13.47569,13.4757c-7.44242,0 -13.47569,-6.03327 -13.47569,-13.4757z" fill="#e0e0e0" stroke="none" stroke-width="0" stroke-linecap="butt"/><path d="M283.11046,279.63069c0,-7.44241 6.03327,-13.47569 13.47569,-13.47569c7.44242,0 13.47569,6.03327 13.47569,13.47569c0,7.44241 -6.03326,13.47569 -13.47569,13.47569c-7.44242,0 -13.47569,-6.03327 -13.47569,-13.47569z" fill="#e0e0e0" stroke="none" stroke-width="0" stroke-linecap="butt"/><path d="M311.523,279.6608c0,-7.44241 6.03327,-13.47569 13.47569,-13.47569c7.44242,0 13.47569,6.03327 13.47569,13.47569c0,7.44241 -6.03326,13.47569 -13.47569,13.47569c-7.44242,0 -13.47569,-6.03327 -13.47569,-13.47569z" fill="#e0e0e0" stroke="none" stroke-width="0" stroke-linecap="butt"/><path d="M340.59084,279.6307c0,-7.44241 6.03327,-13.47569 13.47569,-13.47569c7.44242,0 13.47569,6.03326 13.47569,13.47569c0,7.44241 -6.03326,13.4757 -13.47569,13.4757c-7.44242,0 -13.47569,-6.03327 -13.47569,-13.4757z" fill="#e0e0e0" stroke="none" stroke-width="0" stroke-linecap="butt"/><path d="M369.45029,279.6307c0,-7.44241 6.03327,-13.47569 13.47569,-13.47569c7.44242,0 13.47569,6.03326 13.47569,13.47569c0,7.44241 -6.03326,13.4757 -13.47569,13.4757c-7.44242,0 -13.47569,-6.03327 -13.47569,-13.4757z" fill="#e0e0e0" stroke="none" stroke-width="0" stroke-linecap="butt"/><path d="M398.51812,279.60058c0,-7.44241 6.03327,-13.47569 13.47569,-13.47569c7.44242,0 13.47569,6.03327 13.47569,13.47569c0,7.44241 -6.03326,13.47569 -13.47569,13.47569c-7.44242,0 -13.47569,-6.03327 -13.47569,-13.47569z" fill="#e0e0e0" stroke="none" stroke-width="0" stroke-linecap="butt"/><path d="M88.10826,308.64011c0,-7.44241 6.03327,-13.47569 13.4757,-13.47569c7.44241,0 13.47569,6.03327 13.47569,13.47569c0,7.44242 -6.03327,13.47569 -13.47569,13.47569c-7.44242,0 -13.4757,-6.03327 -13.4757,-13.47569z" fill="#e0e0e0" stroke="none" stroke-width="0" stroke-linecap="butt"/><path d="M117.17607,308.61c0,-7.44241 6.03327,-13.47569 13.4757,-13.47569c7.44241,0 13.47569,6.03327 13.47569,13.47569c0,7.44242 -6.03327,13.47569 -13.47569,13.47569c-7.44241,0 -13.4757,-6.03327 -13.4757,-13.47569z" fill="#e0e0e0" stroke="none" stroke-width="0" stroke-linecap="butt"/><path d="M146.03553,308.61c0,-7.44241 6.03327,-13.47569 13.4757,-13.47569c7.44241,0 13.47569,6.03327 13.47569,13.47569c0,7.44242 -6.03326,13.47569 -13.47569,13.47569c-7.44241,0 -13.4757,-6.03327 -13.4757,-13.47569z" fill="#e0e0e0" stroke="none" stroke-width="0" stroke-linecap="butt"/><path d="M175.10337,308.57989c0,-7.44241 6.03327,-13.47569 13.47569,-13.47569c7.44241,0 13.47569,6.03326 13.47569,13.47569c0,7.44242 -6.03327,13.4757 -13.47569,13.4757c-7.44241,0 -13.47569,-6.03327 -13.47569,-13.4757z" fill="#e0e0e0" stroke="none" stroke-width="0" stroke-linecap="butt"/><path d="M203.72588,308.61c0,-7.44241 6.03327,-13.47569 13.47569,-13.47569c7.44241,0 13.47569,6.03327 13.47569,13.47569c0,7.44242 -6.03327,13.47569 -13.47569,13.47569c-7.44241,0 -13.47569,-6.03327 -13.47569,-13.47569z" fill="#e0e0e0" stroke="none" stroke-width="0" stroke-linecap="butt"/><path d="M232.34522,308.57989c0,-7.44241 6.03327,-13.47569 13.4757,-13.47569c7.44242,0 13.47569,6.03326 13.47569,13.47569c0,7.44242 -6.03326,13.4757 -13.47569,13.4757c-7.44242,0 -13.4757,-6.03327 -13.4757,-13.4757z" fill="#e0e0e0" stroke="none" stroke-width="0" stroke-linecap="butt"/><path d="M261.20462,308.57989c0,-7.44241 6.03327,-13.47569 13.47569,-13.47569c7.44242,0 13.47569,6.03326 13.47569,13.47569c0,7.44242 -6.03326,13.4757 -13.47569,13.4757c-7.44242,0 -13.47569,-6.03327 -13.47569,-13.4757z" fill="#e0e0e0" stroke="none" stroke-width="0" stroke-linecap="butt"/><path d="M290.27248,308.54979c0,-7.44241 6.03327,-13.47569 13.47569,-13.47569c7.44242,0 13.47569,6.03327 13.47569,13.47569c0,7.44242 -6.03326,13.47569 -13.47569,13.47569c-7.44242,0 -13.47569,-6.03327 -13.47569,-13.47569z" fill="#e0e0e0" stroke="none" stroke-width="0" stroke-linecap="butt"/><path d="M318.68499,308.5799c0,-7.44241 6.03327,-13.47569 13.47569,-13.47569c7.44242,0 13.47569,6.03327 13.47569,13.47569c0,7.44242 -6.03326,13.47569 -13.47569,13.47569c-7.44242,0 -13.47569,-6.03327 -13.47569,-13.47569z" fill="#e0e0e0" stroke="none" stroke-width="0" stroke-linecap="butt"/><path d="M347.75285,308.54979c0,-7.44241 6.03327,-13.47569 13.47569,-13.47569c7.44242,0 13.47569,6.03327 13.47569,13.47569c0,7.44242 -6.03326,13.47569 -13.47569,13.47569c-7.44242,0 -13.47569,-6.03327 -13.47569,-13.47569z" fill="#e0e0e0" stroke="none" stroke-width="0" stroke-linecap="butt"/><path d="M376.61227,308.54979c0,-7.44241 6.03327,-13.47569 13.47569,-13.47569c7.44242,0 13.47569,6.03327 13.47569,13.47569c0,7.44242 -6.03326,13.47569 -13.47569,13.47569c-7.44242,0 -13.47569,-6.03327 -13.47569,-13.47569z" fill="#e0e0e0" stroke="none" stroke-width="0" stroke-linecap="butt"/><path d="M103.16253,337.55921c0,-7.44242 6.03327,-13.47569 13.4757,-13.47569c7.44241,0 13.47569,6.03326 13.47569,13.47569c0,7.44242 -6.03326,13.47569 -13.47569,13.47569c-7.44241,0 -13.4757,-6.03327 -13.4757,-13.47569z" fill="#e0e0e0" stroke="none" stroke-width="0" stroke-linecap="butt"/><path d="M132.23037,337.52909c0,-7.44242 6.03327,-13.47569 13.47569,-13.47569c7.44241,0 13.47569,6.03326 13.47569,13.47569c0,7.44242 -6.03327,13.47569 -13.47569,13.47569c-7.44241,0 -13.47569,-6.03327 -13.47569,-13.47569z" fill="#e0e0e0" stroke="none" stroke-width="0" stroke-linecap="butt"/><path d="M161.08981,337.52909c0,-7.44242 6.03327,-13.47569 13.47569,-13.47569c7.44241,0 13.47569,6.03326 13.47569,13.47569c0,7.44242 -6.03327,13.47569 -13.47569,13.47569c-7.44241,0 -13.47569,-6.03327 -13.47569,-13.47569z" fill="#e0e0e0" stroke="none" stroke-width="0" stroke-linecap="butt"/><path d="M190.15765,337.49897c0,-7.44242 6.03327,-13.47569 13.47569,-13.47569c7.44241,0 13.47569,6.03326 13.47569,13.47569c0,7.44242 -6.03327,13.4757 -13.47569,13.4757c-7.44241,0 -13.47569,-6.03327 -13.47569,-13.4757z" fill="#e0e0e0" stroke="none" stroke-width="0" stroke-linecap="butt"/><path d="M218.33167,337.52909c0,-7.44242 6.03327,-13.47569 13.47569,-13.47569c7.44241,0 13.47569,6.03326 13.47569,13.47569c0,7.44242 -6.03326,13.47569 -13.47569,13.47569c-7.44241,0 -13.47569,-6.03327 -13.47569,-13.47569z" fill="#e0e0e0" stroke="none" stroke-width="0" stroke-linecap="butt"/><path d="M247.39951,337.49897c0,-7.44242 6.03327,-13.47569 13.47569,-13.47569c7.44242,0 13.47569,6.03326 13.47569,13.47569c0,7.44242 -6.03326,13.4757 -13.47569,13.4757c-7.44242,0 -13.47569,-6.03327 -13.47569,-13.4757z" fill="#e0e0e0" stroke="none" stroke-width="0" stroke-linecap="butt"/><path d="M276.25892,337.49897c0,-7.44242 6.03327,-13.47569 13.47569,-13.47569c7.44242,0 13.47569,6.03326 13.47569,13.47569c0,7.44242 -6.03326,13.4757 -13.47569,13.4757c-7.44242,0 -13.47569,-6.03327 -13.47569,-13.4757z" fill="#e0e0e0" stroke="none" stroke-width="0" stroke-linecap="butt"/><path d="M305.32677,337.46887c0,-7.44242 6.03327,-13.47569 13.47569,-13.47569c7.44242,0 13.47569,6.03326 13.47569,13.47569c0,7.44242 -6.03326,13.47569 -13.47569,13.47569c-7.44242,0 -13.47569,-6.03327 -13.47569,-13.47569z" fill="#e0e0e0" stroke="none" stroke-width="0" stroke-linecap="butt"/><path d="M333.73929,337.49899c0,-7.44242 6.03327,-13.47569 13.47569,-13.47569c7.44242,0 13.47569,6.03326 13.47569,13.47569c0,7.44242 -6.03326,13.47569 -13.47569,13.47569c-7.44242,0 -13.47569,-6.03327 -13.47569,-13.47569z" fill="#e0e0e0" stroke="none" stroke-width="0" stroke-linecap="butt"/><text transform="translate(88.86497,283.92355) scale(0.35534,0.35534)" font-size="40" xml:space="preserve" fill="#000000" stroke="none" stroke-width="1" stroke-linecap="butt" font-family="Sans Serif" font-weight="normal" text-anchor="start"><tspan x="0" dy="0">Q</tspan></text><text transform="translate(116.73307,285.14001) scale(0.35535,0.35535)" font-size="40" xml:space="preserve" fill="#000000" stroke="none" stroke-width="1" stroke-linecap="butt" font-family="Sans Serif" font-weight="normal" text-anchor="start"><tspan x="0" dy="0">W</tspan></text><text transform="translate(147.99127,284.24541) scale(0.35535,0.35535)" font-size="40" xml:space="preserve" fill="#000000" stroke="none" stroke-width="1" stroke-linecap="butt" font-family="Sans Serif" font-weight="normal" text-anchor="start"><tspan x="0" dy="0">E</tspan></text><text transform="translate(177.60112,283.97367) scale(0.35535,0.35535)" font-size="40" xml:space="preserve" fill="#000000" stroke="none" stroke-width="1" stroke-linecap="butt" font-family="Sans Serif" font-weight="normal" text-anchor="start"><tspan x="0" dy="0">R</tspan></text><text transform="translate(205.71688,284.44898) scale(0.35535,0.35535)" font-size="40" xml:space="preserve" fill="#000000" stroke="none" stroke-width="1" stroke-linecap="butt" font-family="Sans Serif" font-weight="normal" text-anchor="start"><tspan x="0" dy="0">T</tspan></text><text transform="translate(234.5797,283.67922) scale(0.35535,0.35535)" font-size="40" xml:space="preserve" fill="#000000" stroke="none" stroke-width="1" stroke-linecap="butt" font-family="Sans Serif" font-weight="normal" text-anchor="start"><tspan x="0" dy="0">Y</tspan></text><text transform="translate(262.69543,284.15453) scale(0.35535,0.35535)" font-size="40" xml:space="preserve" fill="#000000" stroke="none" stroke-width="1" stroke-linecap="butt" font-family="Sans Serif" font-weight="normal" text-anchor="start"><tspan x="0" dy="0">U</tspan></text><text transform="translate(294.29742,283.8828) scale(0.35535,0.35535)" font-size="40" xml:space="preserve" fill="#000000" stroke="none" stroke-width="1" stroke-linecap="butt" font-family="Sans Serif" font-weight="normal" text-anchor="start"><tspan x="0" dy="0">I</tspan></text><text transform="translate(320.17206,284.35812) scale(0.35535,0.35535)" font-size="40" xml:space="preserve" fill="#000000" stroke="none" stroke-width="1" stroke-linecap="butt" font-family="Sans Serif" font-weight="normal" text-anchor="start"><tspan x="0" dy="0">O</tspan></text><text transform="translate(349.53289,284.5844) scale(0.35535,0.35535)" font-size="40" xml:space="preserve" fill="#000000" stroke="none" stroke-width="1" stroke-linecap="butt" font-family="Sans Serif" font-weight="normal" text-anchor="start"><tspan x="0" dy="0">P</tspan></text><text transform="translate(74.93933,254.40382) scale(0.35535,0.35535)" font-size="40" xml:space="preserve" fill="#000000" stroke="none" stroke-width="1" stroke-linecap="butt" font-family="Sans Serif" font-weight="normal" text-anchor="start"><tspan x="0" dy="0">1</tspan></text><text transform="translate(105.12265,254.73563) scale(0.35535,0.35535)" font-size="40" xml:space="preserve" fill="#000000" stroke="none" stroke-width="1" stroke-linecap="butt" font-family="Sans Serif" font-weight="normal" text-anchor="start"><tspan x="0" dy="0">2</tspan></text><text transform="translate(134.63766,254.62189) scale(0.35535,0.35535)" font-size="40" xml:space="preserve" fill="#000000" stroke="none" stroke-width="1" stroke-linecap="butt" font-family="Sans Serif" font-weight="normal" text-anchor="start"><tspan x="0" dy="0">3</tspan></text><text transform="translate(162.81603,254.50814) scale(0.35535,0.35535)" font-size="40" xml:space="preserve" fill="#000000" stroke="none" stroke-width="1" stroke-linecap="butt" font-family="Sans Serif" font-weight="normal" text-anchor="start"><tspan x="0" dy="0">4</tspan></text><text transform="translate(191.21717,255.28549) scale(0.35535,0.35535)" font-size="40" xml:space="preserve" fill="#000000" stroke="none" stroke-width="1" stroke-linecap="butt" font-family="Sans Serif" font-weight="normal" text-anchor="start"><tspan x="0" dy="0">5</tspan></text><text transform="translate(220.95495,254.7262) scale(0.35535,0.35535)" font-size="40" xml:space="preserve" fill="#000000" stroke="none" stroke-width="1" stroke-linecap="butt" font-family="Sans Serif" font-weight="normal" text-anchor="start"><tspan x="0" dy="0">6</tspan></text><text transform="translate(249.57886,255.28077) scale(0.35535,0.35535)" font-size="40" xml:space="preserve" fill="#000000" stroke="none" stroke-width="1" stroke-linecap="butt" font-family="Sans Serif" font-weight="normal" text-anchor="start"><tspan x="0" dy="0">7</tspan></text><text transform="translate(307.38595,254.94426) scale(0.35535,0.35535)" font-size="40" xml:space="preserve" fill="#000000" stroke="none" stroke-width="1" stroke-linecap="butt" font-family="Sans Serif" font-weight="normal" text-anchor="start"><tspan x="0" dy="0">9</tspan></text><text transform="translate(278.75734,254.83052) scale(0.35535,0.35535)" font-size="40" xml:space="preserve" fill="#000000" stroke="none" stroke-width="1" stroke-linecap="butt" font-family="Sans Serif" font-weight="normal" text-anchor="start"><tspan x="0" dy="0">8</tspan></text><text transform="translate(335.78712,255.27606) scale(0.35535,0.35535)" font-size="40" xml:space="preserve" fill="#000000" stroke="none" stroke-width="1" stroke-linecap="butt" font-family="Sans Serif" font-weight="normal" text-anchor="start"><tspan x="0" dy="0">0</tspan></text><text transform="translate(96.73823,312.89674) scale(0.35534,0.35534)" font-size="40" xml:space="preserve" fill="#000000" stroke="none" stroke-width="1" stroke-linecap="butt" font-family="Sans Serif" font-weight="normal" text-anchor="start"><tspan x="0" dy="0">A</tspan></text><text transform="translate(126.81037,313.07733) scale(0.35534,0.35534)" font-size="40" xml:space="preserve" fill="#000000" stroke="none" stroke-width="1" stroke-linecap="butt" font-family="Sans Serif" font-weight="normal" text-anchor="start"><tspan x="0" dy="0">S</tspan></text><text transform="translate(155.64979,313.26727) scale(0.35534,0.35534)" font-size="40" xml:space="preserve" fill="#000000" stroke="none" stroke-width="1" stroke-linecap="butt" font-family="Sans Serif" font-weight="normal" text-anchor="start"><tspan x="0" dy="0">D</tspan></text><text transform="translate(184.12964,313.65328) scale(0.35534,0.35534)" font-size="40" xml:space="preserve" fill="#000000" stroke="none" stroke-width="1" stroke-linecap="butt" font-family="Sans Serif" font-weight="normal" text-anchor="start"><tspan x="0" dy="0">F</tspan></text><text transform="translate(240.24443,313.58036) scale(0.35534,0.35534)" font-size="40" xml:space="preserve" fill="#000000" stroke="none" stroke-width="1" stroke-linecap="butt" font-family="Sans Serif" font-weight="normal" text-anchor="start"><tspan x="0" dy="0">H</tspan></text><text transform="translate(272.7377,313.33266) scale(0.35534,0.35534)" font-size="40" xml:space="preserve" fill="#000000" stroke="none" stroke-width="1" stroke-linecap="butt" font-family="Sans Serif" font-weight="normal" text-anchor="start"><tspan x="0" dy="0">J</tspan></text><text transform="translate(299.71601,313.18772) scale(0.35534,0.35534)" font-size="40" xml:space="preserve" fill="#000000" stroke="none" stroke-width="1" stroke-linecap="butt" font-family="Sans Serif" font-weight="normal" text-anchor="start"><tspan x="0" dy="0">K</tspan></text><text transform="translate(327.58511,313.25974) scale(0.35534,0.35534)" font-size="40" xml:space="preserve" fill="#000000" stroke="none" stroke-width="1" stroke-linecap="butt" font-family="Sans Serif" font-weight="normal" text-anchor="start"><tspan x="0" dy="0">L</tspan></text><text transform="translate(112.42062,342.2792) scale(0.35534,0.35534)" font-size="40" xml:space="preserve" fill="#000000" stroke="none" stroke-width="1" stroke-linecap="butt" font-family="Sans Serif" font-weight="normal" text-anchor="start"><tspan x="0" dy="0">Z</tspan></text><text transform="translate(141.41717,342.71785) scale(0.35534,0.35534)" font-size="40" xml:space="preserve" fill="#000000" stroke="none" stroke-width="1" stroke-linecap="butt" font-family="Sans Serif" font-weight="normal" text-anchor="start"><tspan x="0" dy="0">X</tspan></text><text transform="translate(169.83484,342.1917) scale(0.35534,0.35534)" font-size="40" xml:space="preserve" fill="#000000" stroke="none" stroke-width="1" stroke-linecap="butt" font-family="Sans Serif" font-weight="normal" text-anchor="start"><tspan x="0" dy="0">C</tspan></text><text transform="translate(199.79619,342.63033) scale(0.35534,0.35534)" font-size="40" xml:space="preserve" fill="#000000" stroke="none" stroke-width="1" stroke-linecap="butt" font-family="Sans Serif" font-weight="normal" text-anchor="start"><tspan x="0" dy="0">V</tspan></text><text transform="translate(227.24907,342.49009) scale(0.35534,0.35534)" font-size="40" xml:space="preserve" fill="#000000" stroke="none" stroke-width="1" stroke-linecap="butt" font-family="Sans Serif" font-weight="normal" text-anchor="start"><tspan x="0" dy="0">B</tspan></text><text transform="translate(256.43857,342.54282) scale(0.35534,0.35534)" font-size="40" xml:space="preserve" fill="#000000" stroke="none" stroke-width="1" stroke-linecap="butt" font-family="Sans Serif" font-weight="normal" text-anchor="start"><tspan x="0" dy="0">N</tspan></text><text transform="translate(283.1196,342.59555) scale(0.35534,0.35534)" font-size="40" xml:space="preserve" fill="#000000" stroke="none" stroke-width="1" stroke-linecap="butt" font-family="Sans Serif" font-weight="normal" text-anchor="start"><tspan x="0" dy="0">M</tspan></text><text transform="translate(316.72176,342.13363) scale(0.35534,0.35534)" font-size="40" xml:space="preserve" fill="#000000" stroke="none" stroke-width="1" stroke-linecap="butt" font-family="Sans Serif" font-weight="normal" text-anchor="start"><tspan x="0" dy="0">,</tspan></text><text transform="translate(364.32844,254.83193) scale(0.35535,0.35535)" font-size="40" xml:space="preserve" fill="#000000" stroke="none" stroke-width="1" stroke-linecap="butt" font-family="Sans Serif" font-weight="normal" text-anchor="start"><tspan x="0" dy="0">+</tspan></text><text transform="translate(395.17833,254.64433) scale(0.35535,0.35535)" font-size="40" xml:space="preserve" fill="#000000" stroke="none" stroke-width="1" stroke-linecap="butt" font-family="Sans Serif" font-weight="normal" text-anchor="start"><tspan x="0" dy="0">-</tspan></text><text transform="translate(379.08721,287.28979) scale(0.35535,0.35535)" font-size="40" xml:space="preserve" fill="#000000" stroke="none" stroke-width="1" stroke-linecap="butt" font-family="Sans Serif" font-weight="normal" text-anchor="start"><tspan x="0" dy="0">*</tspan></text><text transform="translate(409.16757,284.28058) scale(0.35535,0.35535)" font-size="40" xml:space="preserve" fill="#000000" stroke="none" stroke-width="1" stroke-linecap="butt" font-family="Sans Serif" font-weight="normal" text-anchor="start"><tspan x="0" dy="0">/</tspan></text><text transform="translate(359.2972,312.36404) scale(0.35535,0.35535)" font-size="40" xml:space="preserve" fill="#000000" stroke="none" stroke-width="1" stroke-linecap="butt" font-family="Sans Serif" font-weight="normal" text-anchor="start"><tspan x="0" dy="0">(</tspan></text><text transform="translate(388.86921,312.98353) scale(0.35535,0.35535)" font-size="40" xml:space="preserve" fill="#000000" stroke="none" stroke-width="1" stroke-linecap="butt" font-family="Sans Serif" font-weight="normal" text-anchor="start"><tspan x="0" dy="0">)</tspan></text><path d="M413.7601,250.51637c0,-7.44241 6.03327,-13.47569 13.4757,-13.47569c7.44242,0 13.47569,6.03326 13.47569,13.47569c0,7.44241 -6.03326,13.4757 -13.47569,13.4757c-7.44242,0 -13.4757,-6.03327 -13.4757,-13.4757z" fill="#e0e0e0" stroke="none" stroke-width="0" stroke-linecap="butt"/><text transform="translate(423.13226,256.31513) scale(0.35535,0.35535)" font-size="40" xml:space="preserve" fill="#000000" stroke="none" stroke-width="1" stroke-linecap="butt" font-family="Sans Serif" font-weight="normal" text-anchor="start"><tspan x="0" dy="0">^</tspan></text><path d="M58.02321,309.05284c0,-7.44241 6.03327,-13.47569 13.4757,-13.47569c7.44241,0 13.47569,6.03327 13.47569,13.47569c0,7.44242 -6.03327,13.47569 -13.47569,13.47569c-7.44241,0 -13.4757,-6.03327 -13.4757,-13.47569z" fill="#e0e0e0" stroke="none" stroke-width="0" stroke-linecap="butt"/><path d="M73.0775,337.97193c0,-7.44242 6.03327,-13.47569 13.47569,-13.47569c7.44241,0 13.47569,6.03326 13.47569,13.47569c0,7.44242 -6.03327,13.47569 -13.47569,13.47569c-7.44241,0 -13.47569,-6.03327 -13.47569,-13.47569z" fill="#e0e0e0" stroke="none" stroke-width="0" stroke-linecap="butt"/><text transform="translate(64.81646,311.39799) scale(0.20611,0.20611)" font-size="40" xml:space="preserve" fill="#000000" stroke="none" stroke-width="1" stroke-linecap="butt" font-family="Sans Serif" font-weight="normal" text-anchor="start"><tspan x="0" dy="0">abs</tspan></text><text transform="translate(78.98135,340.46717) scale(0.20611,0.20611)" font-size="40" xml:space="preserve" fill="#000000" stroke="none" stroke-width="1" stroke-linecap="butt" font-family="Sans Serif" font-weight="normal" text-anchor="start"><tspan x="0" dy="0">sqrt</tspan></text><path d="M36.85432,251.55915c0,-7.44242 6.03327,-13.47569 13.4757,-13.47569c7.44241,0 13.47569,6.03326 13.47569,13.47569c0,7.44242 -6.03326,13.47569 -13.47569,13.47569c-7.44241,0 -13.4757,-6.03327 -13.4757,-13.47569z" fill="#e0e0e0" stroke="none" stroke-width="0" stroke-linecap="butt"/><path d="M51.29604,280.60073c0,-7.44242 6.03327,-13.47569 13.47569,-13.47569c7.44241,0 13.47569,6.03326 13.47569,13.47569c0,7.44242 -6.03327,13.47569 -13.47569,13.47569c-7.44241,0 -13.47569,-6.03327 -13.47569,-13.47569z" fill="#e0e0e0" stroke="none" stroke-width="0" stroke-linecap="butt"/><text transform="translate(44.57979,254.19769) scale(0.20611,0.20611)" font-size="40" xml:space="preserve" fill="#000000" stroke="none" stroke-width="1" stroke-linecap="butt" font-family="Sans Serif" font-weight="normal" text-anchor="start"><tspan x="0" dy="0">log</tspan></text><text transform="translate(61.01306,283.27754) scale(0.20611,0.20611)" font-size="40" xml:space="preserve" fill="#000000" stroke="none" stroke-width="1" stroke-linecap="butt" font-family="Sans Serif" font-weight="normal" text-anchor="start"><tspan x="0" dy="0">ln</tspan></text><path d="M363.31963,337.31428c0,-7.44242 6.03327,-13.47569 13.47569,-13.47569c7.44242,0 13.47569,6.03326 13.47569,13.47569c0,7.44242 -6.03326,13.47569 -13.47569,13.47569c-7.44242,0 -13.47569,-6.03327 -13.47569,-13.47569z" fill="#ff0000" stroke="none" stroke-width="0" stroke-linecap="butt"/><path d="M392.38747,337.28418c0,-7.44242 6.03327,-13.47569 13.47569,-13.47569c7.44242,0 13.47569,6.03326 13.47569,13.47569c0,7.44242 -6.03326,13.47569 -13.47569,13.47569c-7.44242,0 -13.47569,-6.03327 -13.47569,-13.47569z" fill="#ff0000" stroke="none" stroke-width="0" stroke-linecap="butt"/><path d="M370.03172,337.87393c0,-0.15404 0.03301,-0.2971 0.08803,-0.44014c0.05501,-0.14305 0.13205,-0.27508 0.24207,-0.38512l3.12499,-3.4441c0.19807,-0.22007 0.41814,-0.38513 0.69322,-0.49516c0.27508,-0.11004 0.55018,-0.17605 0.83627,-0.17605h5.91988c0.27508,0 0.52816,0.05501 0.77025,0.16505c0.24207,0.11004 0.46214,0.25308 0.6382,0.44014c0.17605,0.18705 0.33011,0.39613 0.44013,0.6382c0.11004,0.24207 0.16505,0.50616 0.16505,0.77024v5.86486c0,0.27508 -0.05501,0.52816 -0.16505,0.77025c-0.11004,0.24207 -0.25308,0.46214 -0.44013,0.6382c-0.18705,0.17605 -0.39613,0.33011 -0.6382,0.44014c-0.24207,0.11004 -0.50616,0.16505 -0.77025,0.16505h-5.91988c-0.2971,0 -0.57219,-0.05501 -0.83627,-0.17605c-0.26409,-0.12104 -0.49516,-0.28609 -0.69322,-0.49516l-3.12499,-3.4441c-0.09904,-0.11004 -0.18705,-0.24207 -0.24207,-0.38512c-0.05501,-0.14305 -0.08803,-0.30811 -0.08803,-0.45115zM380.88117,342.00024c0.16505,0 0.33011,-0.03302 0.47315,-0.09903c0.14305,-0.06601 0.28609,-0.15405 0.39613,-0.26409c0.11004,-0.11004 0.19807,-0.24207 0.26409,-0.39613c0.06601,-0.15404 0.09903,-0.3081 0.09903,-0.47315v-5.77683c0,-0.16505 -0.03302,-0.33011 -0.09903,-0.47315c-0.06601,-0.14305 -0.15405,-0.28609 -0.26409,-0.39613c-0.11004,-0.11004 -0.24207,-0.19807 -0.39613,-0.26409c-0.15404,-0.06601 -0.3081,-0.09904 -0.47315,-0.09904h-5.87587c-0.17605,0 -0.3411,0.03302 -0.49516,0.11004c-0.15404,0.07702 -0.2971,0.17605 -0.41814,0.29709l-3.12499,3.4441c-0.07702,0.07702 -0.11004,0.17605 -0.11004,0.27508c0,0.09904 0.03301,0.18706 0.11004,0.27509l3.12499,3.4441c0.12104,0.13205 0.25308,0.23108 0.41814,0.29709c0.16505,0.06601 0.33011,0.11004 0.50616,0.11004h5.86486zM377.99825,338.45711l-1.77155,1.77157c-0.07702,0.07702 -0.17605,0.12104 -0.28609,0.12104c-0.11004,0 -0.20907,-0.04402 -0.28609,-0.12104c-0.07702,-0.07702 -0.12103,-0.17605 -0.12103,-0.28609c0,-0.11004 0.04402,-0.20907 0.12103,-0.28609l1.77157,-1.77157l-1.77157,-1.77157c-0.09904,-0.09904 -0.13204,-0.19806 -0.13204,-0.3081c0,-0.11004 0.04402,-0.20907 0.12104,-0.28609c0.07702,-0.07702 0.17605,-0.12104 0.28609,-0.12104c0.11004,0 0.20907,0.04402 0.28609,0.12104l1.77157,1.77157l1.77157,-1.77157c0.07702,-0.07702 0.17605,-0.12104 0.28609,-0.12104c0.11004,0 0.20907,0.04402 0.28609,0.12104c0.07702,0.07702 0.12104,0.17605 0.12104,0.28609c0,0.11004 -0.04402,0.20907 -0.12104,0.28608l-1.77157,1.77157l1.77157,1.77157c0.07702,0.07702 0.12104,0.17605 0.12104,0.28609c0,0.11004 -0.04402,0.20907 -0.12104,0.28609c-0.07702,0.07702 -0.17605,0.12104 -0.28609,0.12104c-0.11004,0 -0.20907,-0.04402 -0.28609,-0.12104z" fill="#ffffff" stroke="none" stroke-width="1" stroke-linecap="butt"/><text transform="translate(345.39032,343.09636) scale(0.35534,0.35534)" font-size="40" xml:space="preserve" fill="#000000" stroke="none" stroke-width="1" stroke-linecap="butt" font-family="Sans Serif" font-weight="normal" text-anchor="start"><tspan x="0" dy="0">.</tspan></text><text transform="translate(212.00318,312.82277) scale(0.35535,0.35535)" font-size="40" xml:space="preserve" fill="#000000" stroke="none" stroke-width="1" stroke-linecap="butt" font-family="Sans Serif" font-weight="normal" text-anchor="start"><tspan x="0" dy="0">G</tspan></text><path d="M410.42879,333.61236v3.43477c0,0.27117 -0.09039,0.45194 -0.18077,0.63272c-0.09039,0.18077 -0.18077,0.36156 -0.36156,0.54233c-0.18077,0.18077 -0.36156,0.27117 -0.54233,0.36156c-0.18077,0.09039 -0.45194,0.09039 -0.63272,0.09039h-6.59838l2.16933,2.16933c0.09039,0.09039 0.09039,0.18077 0.09039,0.27117c0,0.09039 0,0.18077 -0.09039,0.27117c-0.09039,0.09039 -0.18077,0.09039 -0.27117,0.09039c-0.09039,0 -0.18077,0 -0.27117,-0.09039l-2.71167,-2.71167c-0.09039,-0.09039 -0.09039,-0.18077 -0.09039,-0.27117c0,-0.09039 0,-0.18077 0.09039,-0.27117l2.71167,-2.71167c0.09039,-0.09039 0.18077,-0.09039 0.27117,-0.09039c0.09039,0 0.18077,0 0.27117,0.09039c0.09039,0.09039 0.09039,0.18077 0.09039,0.27117c0,0.09039 0,0.18077 -0.09039,0.27117l-2.16933,2.16933h6.59838c0.18077,0 0.27117,0 0.36156,-0.09039c0.09039,-0.09039 0.27117,-0.09039 0.36156,-0.18077c0.09039,-0.09039 0.18077,-0.18077 0.18077,-0.36156c0,-0.18077 0.09039,-0.27117 0.09039,-0.36156v-3.43477c0,-0.09039 0,-0.18077 0.09039,-0.27117c0.09039,-0.09039 0.18077,-0.09039 0.27117,-0.09039c0.09039,0 0.18077,0 0.27117,0.09039c0.09039,0.09039 0.09039,0.09039 0.09039,0.18077z" fill="#ffffff" stroke="#ffffff" stroke-width="0.5" stroke-linecap="butt"/></g></g></svg>