<svg version="1.1" xmlns="http://www.w3.org/2000/svg" xmlns:xlink="http://www.w3.org/1999/xlink" width="21.62654" height="21.62654" viewBox="0,0,21.62654,21.62654"><g transform="translate(-229.18673,-169.18673)"><g data-paper-data="{&quot;isPaintingLayer&quot;:true}" fill-rule="nonzero" stroke="none" stroke-width="0" stroke-linecap="butt" stroke-linejoin="miter" stroke-miterlimit="10" stroke-dasharray="" stroke-dashoffset="0" style="mix-blend-mode: normal"><path d="M229.18673,180c0,-5.972 4.84127,-10.81327 10.81327,-10.81327c5.972,0 10.81327,4.84127 10.81327,10.81327c0,5.972 -4.84127,10.81327 -10.81327,10.81327c-5.972,0 -10.81327,-4.84127 -10.81327,-10.81327z" fill="#d9d9d9"/><path d="M238.42231,180c0,-0.87133 0.70636,-1.57769 1.57769,-1.57769c0.87133,0 1.57769,0.70636 1.57769,1.57769c0,0.87133 -0.70636,1.57769 -1.57769,1.57769c-0.87133,0 -1.57769,-0.70636 -1.57769,-1.57769z" fill="#000000"/><path d="M242.88165,180.01874c0,-0.87133 0.70636,-1.57769 1.57769,-1.57769c0.87133,0 1.57769,0.70636 1.57769,1.57769c0,0.87133 -0.70636,1.57769 -1.57769,1.57769c-0.87133,0 -1.57769,-0.70636 -1.57769,-1.57769z" fill="#000000"/><path d="M234.04749,179.97811c0,-0.87133 0.70636,-1.57769 1.57769,-1.57769c0.87133,0 1.57769,0.70636 1.57769,1.57769c0,0.87133 -0.70636,1.57769 -1.57769,1.57769c-0.87133,0 -1.57769,-0.70636 -1.57769,-1.57769z" fill="#000000"/></g></g></svg>