<svg version="1.1" xmlns="http://www.w3.org/2000/svg" xmlns:xlink="http://www.w3.org/1999/xlink" width="94.80546" height="34.8972" viewBox="0,0,94.80546,34.8972"><defs><linearGradient x1="232.59983" y1="183.06556" x2="248.29695" y2="176.62416" gradientUnits="userSpaceOnUse" id="color-1"><stop offset="0" stop-color="#ffca8e"/><stop offset="1" stop-color="#ebc02e"/></linearGradient><linearGradient x1="251.90541" y1="182.84671" x2="267.90766" y2="177.20587" gradientUnits="userSpaceOnUse" id="color-2"><stop offset="0" stop-color="#ace9f0"/><stop offset="1" stop-color="#bfd1db"/></linearGradient><linearGradient x1="270.51054" y1="181.39581" x2="287.32656" y2="179.13469" gradientUnits="userSpaceOnUse" id="color-3"><stop offset="0" stop-color="#ebc6e5"/><stop offset="1" stop-color="#c7c5eb"/></linearGradient></defs><g transform="translate(-192.59777,-153.85272)"><g stroke-miterlimit="10"><path d="M232.59983,183.06556c-1.77874,-4.33464 0.29322,-9.29051 4.62787,-11.06925c4.33464,-1.77874 9.29052,0.29322 11.06926,4.62785c1.77874,4.33464 -0.29322,9.29052 -4.62786,11.06926c-4.33464,1.77874 -9.29052,-0.29323 -11.06926,-4.62786z" fill="url(#color-1)" stroke="none" stroke-width="0" stroke-linecap="butt"/><path d="M251.90541,182.84671c-1.55768,-4.4189 0.7618,-9.26386 5.18071,-10.82154c4.4189,-1.55768 9.26387,0.7618 10.82155,5.18069c1.55768,4.4189 -0.7618,9.26387 -5.1807,10.82155c-4.4189,1.55768 -9.26388,-0.76181 -10.82155,-5.1807z" fill="url(#color-2)" stroke="none" stroke-width="0" stroke-linecap="butt"/><path d="M270.51054,181.3958c-0.62439,-4.64362 2.63384,-8.91417 7.27746,-9.53856c4.64362,-0.62439 8.91418,2.63384 9.53857,7.27745c0.62439,4.64362 -2.63384,8.91418 -7.27745,9.53857c-4.64362,0.62439 -8.91418,-2.63385 -9.53857,-7.27745z" fill="url(#color-3)" stroke="none" stroke-width="0" stroke-linecap="butt"/><path d="M192.59777,179.73474c0,-4.68541 3.79827,-8.48367 8.48368,-8.48367c4.68541,0 8.48368,3.79827 8.48368,8.48367c0,4.68541 -3.79827,8.48368 -8.48368,8.48368c-4.68541,0 -8.48368,-3.79828 -8.48368,-8.48368z" fill="#ebebeb" stroke="none" stroke-width="0" stroke-linecap="butt"/><path d="M211.74798,179.86149c0,-4.68541 3.79827,-8.48367 8.48368,-8.48367c4.68541,0 8.48368,3.79827 8.48368,8.48367c0,4.68541 -3.79827,8.48368 -8.48368,8.48368c-4.68541,0 -8.48368,-3.79828 -8.48368,-8.48368z" fill="#242424" stroke="none" stroke-width="0" stroke-linecap="butt"/><text transform="translate(193.03555,165.12227) scale(0.25907,0.25907)" font-size="40" xml:space="preserve" fill="#000000" stroke="none" stroke-width="1" stroke-linecap="butt" font-family="Sans Serif" font-weight="normal" text-anchor="start"><tspan x="0" dy="0">应用主题</tspan></text><g fill="none" stroke="#ffffff" stroke-width="2" stroke-linecap="round"><path d="M237.30838,180.23468l1.73269,2.14038"/><path d="M244.03529,177.48275l-4.79038,4.79038"/></g></g></g></svg>