<svg version="1.1" xmlns="http://www.w3.org/2000/svg" xmlns:xlink="http://www.w3.org/1999/xlink" width="54.7411" height="22.91421" viewBox="0,0,54.7411,22.91421"><g transform="translate(-209.69648,-144.19261)"><g data-paper-data="{&quot;isPaintingLayer&quot;:true}" fill-rule="nonzero" stroke-linejoin="miter" stroke-miterlimit="10" stroke-dasharray="" stroke-dashoffset="0" style="mix-blend-mode: normal"><path d="M214.69649,149.22742v12.79306" fill="none" stroke="#d9d9d9" stroke-width="10" stroke-linecap="round"/><path d="M214.38822,167.10682v-22.91421h45.16758v22.91421z" fill="#d9d9d9" stroke="none" stroke-width="0" stroke-linecap="butt"/><path d="M259.43758,162.04011v-12.79306" fill="none" stroke="#d9d9d9" stroke-width="10" stroke-linecap="round"/><path d="M216.11566,160.33485v-9.8761" fill="none" stroke="#808080" stroke-width="6" stroke-linecap="round"/><path d="M253.82183,151.85763c0,0.07591 -0.01687,0.12653 -0.04218,0.17713c-0.02531,0.05061 -0.06748,0.07591 -0.10965,0.09278c-0.04217,0.01687 -0.10122,0.03375 -0.15184,0.04218c-0.05061,0.00843 -0.10966,0.00843 -0.17713,0.00843c-0.03374,0 -0.06748,0 -0.10121,0c-0.03374,0 -0.05905,0 -0.09279,0l-0.8182,7.10235c-0.01687,0.16027 -0.06748,0.30366 -0.13496,0.43863c-0.06748,0.13496 -0.1687,0.25306 -0.27836,0.35428c-0.10965,0.10122 -0.24462,0.17713 -0.38801,0.23618c-0.14339,0.05904 -0.29523,0.08435 -0.4555,0.08435h-4.00667c-0.16027,0 -0.3121,-0.02531 -0.45549,-0.08435c-0.14339,-0.05904 -0.26992,-0.13496 -0.38802,-0.23618c-0.11809,-0.10122 -0.20243,-0.21931 -0.27836,-0.35428c-0.07592,-0.13496 -0.1181,-0.2868 -0.13496,-0.43863l-0.81821,-7.10235c-0.03374,0 -0.06748,0 -0.10122,0c-0.03374,0 -0.06748,0 -0.10122,0c-0.05904,0 -0.10965,0 -0.1687,-0.00843c-0.05904,-0.00843 -0.10965,-0.02531 -0.15184,-0.04218c-0.04217,-0.01687 -0.08436,-0.05904 -0.10966,-0.10121c-0.02531,-0.04217 -0.04218,-0.10122 -0.04218,-0.1687c0,-0.08435 0.03375,-0.16027 0.09279,-0.21931c0.05904,-0.05904 0.13495,-0.09279 0.21931,-0.09279h2.87637c0.03374,-0.17713 0.10122,-0.34584 0.19401,-0.50611c0.09279,-0.16027 0.21931,-0.28679 0.35428,-0.40488c0.13496,-0.1181 0.29523,-0.20244 0.46393,-0.26149c0.1687,-0.05904 0.34584,-0.09279 0.5314,-0.09279c0.18558,0 0.36271,0.03374 0.53141,0.09279c0.1687,0.05904 0.32896,0.15184 0.46392,0.26149c0.13496,0.10965 0.26149,0.24462 0.35428,0.40488c0.09279,0.16027 0.16027,0.32053 0.19401,0.50611h2.87637c0.08436,0 0.16027,0.03374 0.21931,0.09279c0.05904,0.05904 0.13496,0.13496 0.13496,0.21931zM252.51437,152.17818h-6.88304l0.80977,7.03487c0.01687,0.1687 0.08436,0.29523 0.20244,0.40488c0.11809,0.10965 0.26149,0.15183 0.42175,0.15183h4.00667c0.07592,0 0.15184,-0.01687 0.22775,-0.04217c0.07592,-0.02531 0.13496,-0.06748 0.19401,-0.1181c0.05904,-0.05061 0.10122,-0.10966 0.13496,-0.17713c0.03374,-0.06748 0.05904,-0.14339 0.06748,-0.21931zM247.8076,157.55131v-3.16316c0,-0.08435 0.03374,-0.16027 0.09279,-0.21931c0.05904,-0.05904 0.13496,-0.09279 0.21931,-0.09279c0.08436,0 0.16027,0.03374 0.21931,0.09279c0.05904,0.05904 0.09279,0.13496 0.09279,0.21931v3.16316c0,0.08435 -0.03374,0.16027 -0.09279,0.21931c-0.05904,0.05904 -0.13496,0.09279 -0.21931,0.09279c-0.08436,0 -0.16027,-0.03375 -0.21931,-0.09279c-0.05904,-0.05904 -0.09279,-0.13496 -0.09279,-0.21931zM248.17875,151.54555h1.78824c-0.03374,-0.09278 -0.07592,-0.18557 -0.13496,-0.26149c-0.05904,-0.07591 -0.12652,-0.14339 -0.21088,-0.20244c-0.08436,-0.05904 -0.1687,-0.10122 -0.25306,-0.12653c-0.08436,-0.02531 -0.18557,-0.04217 -0.29523,-0.04217c-0.10965,0 -0.20244,0.01687 -0.29523,0.04217c-0.09279,0.02531 -0.17713,0.07591 -0.25306,0.12653c-0.07592,0.05061 -0.15184,0.12652 -0.21088,0.20244c-0.05904,0.07591 -0.10122,0.16027 -0.13496,0.26149zM249.7055,157.55131v-3.16316c0,-0.08435 0.03374,-0.16027 0.09279,-0.21931c0.05904,-0.05904 0.13496,-0.09279 0.21931,-0.09279c0.08436,0 0.16027,0.03374 0.21931,0.09279c0.05904,0.05904 0.09279,0.13496 0.09279,0.21931v3.16316c0,0.08435 -0.03375,0.16027 -0.09279,0.21931c-0.05904,0.05904 -0.13495,0.09279 -0.21931,0.09279c-0.08436,0 -0.16027,-0.03375 -0.21931,-0.09279c-0.05904,-0.05904 -0.09279,-0.13496 -0.09279,-0.21931z" fill="#000000" stroke="#000000" stroke-width="0.5" stroke-linecap="butt"/><path d="M232.28338,158.893c-0.10177,0.05922 -0.18359,0.13602 -0.25695,0.22737c-0.07337,0.09134 -0.14248,0.18995 -0.22311,0.28553c-0.08063,0.09556 -0.14248,0.18995 -0.22311,0.28553c-0.08063,0.09556 -0.16244,0.17237 -0.25695,0.22737c-0.08724,0.05076 -0.16839,0.07852 -0.26225,0.08447c-0.09385,0.00596 -0.18889,-0.00686 -0.27784,-0.04269c-0.06172,-0.02247 -0.13919,-0.05524 -0.22815,-0.09106c-0.08896,-0.03582 -0.19061,-0.09345 -0.28803,-0.1438c-0.09742,-0.05036 -0.21056,-0.11102 -0.31645,-0.17593c-0.10589,-0.0649 -0.21175,-0.12979 -0.30614,-0.19165c-0.09437,-0.06186 -0.17422,-0.13217 -0.24983,-0.19522c-0.07562,-0.06304 -0.12095,-0.12425 -0.15479,-0.18241c-0.05922,-0.10177 -0.08512,-0.2132 -0.08078,-0.32279c0.00436,-0.10958 0.02749,-0.22035 0.06211,-0.32808c0.03463,-0.10773 0.08379,-0.22392 0.13719,-0.33283c0.05339,-0.10892 0.10257,-0.2251 0.13719,-0.33283c0.03463,-0.10773 0.05776,-0.2185 0.06634,-0.32081c0.00859,-0.10231 -0.01309,-0.20647 -0.07231,-0.30824c-0.055,-0.09451 -0.13484,-0.16483 -0.23225,-0.21518c-0.09742,-0.05036 -0.20092,-0.07771 -0.31591,-0.10812c-0.115,-0.0304 -0.23608,-0.0378 -0.36138,-0.05246c-0.12531,-0.01467 -0.24335,-0.03357 -0.36138,-0.05246c-0.11804,-0.0189 -0.22273,-0.06502 -0.32014,-0.11539c-0.09742,-0.05036 -0.17726,-0.12067 -0.24071,-0.22973c-0.02961,-0.05089 -0.05315,-0.12478 -0.0706,-0.22166c-0.01745,-0.09689 -0.03913,-0.20105 -0.04628,-0.31366c-0.00715,-0.11261 -0.01124,-0.23675 -0.01535,-0.36086c-0.0041,-0.12413 -0.00094,-0.25246 0.00646,-0.37355c0.0074,-0.12108 0.01175,-0.23065 0.02034,-0.33296c0.00859,-0.10231 0.02261,-0.17858 0.03357,-0.24335c0.02009,-0.09927 0.06013,-0.18095 0.11168,-0.25961c0.05155,-0.07865 0.12305,-0.13972 0.20302,-0.18625c0.10177,-0.05922 0.20897,-0.0924 0.32464,-0.11104c0.11566,-0.01865 0.23554,-0.03001 0.35543,-0.04139c0.11989,-0.01138 0.23977,-0.02274 0.35543,-0.04139c0.11566,-0.01865 0.22285,-0.05182 0.32464,-0.11104c0.13086,-0.07614 0.21876,-0.17594 0.25946,-0.30667c0.04071,-0.13073 0.04691,-0.27058 -0.00319,-0.40685c-0.05129,-0.15505 -0.10985,-0.30587 -0.16115,-0.46091c-0.05129,-0.15505 -0.10985,-0.30587 -0.16115,-0.46091c-0.04588,-0.12901 -0.0542,-0.2604 -0.01654,-0.37963c0.03767,-0.11923 0.10984,-0.22934 0.20923,-0.3261c0.10363,-0.08949 0.20422,-0.16748 0.31631,-0.24243c0.11209,-0.07495 0.2284,-0.14263 0.33746,-0.20609c0.11632,-0.06768 0.24413,-0.13232 0.36468,-0.19274c0.12055,-0.06041 0.25259,-0.11779 0.3816,-0.16366c0.12901,-0.04588 0.2604,-0.0542 0.37963,-0.01654c0.11923,0.03767 0.2251,0.10257 0.32187,0.20196c0.10946,0.1212 0.21164,0.24664 0.31381,0.37208c0.10218,0.12544 0.20436,0.25088 0.31381,0.37208c0.09372,0.11089 0.2111,0.17883 0.35214,0.20381c0.14105,0.02497 0.27124,-0.00212 0.39482,-0.07403c0.10177,-0.05922 0.18359,-0.13602 0.25695,-0.22737c0.07337,-0.09134 0.14248,-0.18995 0.22311,-0.28553c0.08063,-0.09556 0.14248,-0.18995 0.22311,-0.28553c0.08063,-0.09556 0.16244,-0.17237 0.25695,-0.22737c0.08724,-0.05076 0.17566,-0.08275 0.26952,-0.0887c0.09385,-0.00596 0.18162,0.01109 0.27784,0.04269c0.06172,0.02247 0.13919,0.05524 0.22815,0.09106c0.08896,0.03582 0.19061,0.09345 0.28803,0.1438c0.09742,0.05036 0.21056,0.11102 0.31645,0.17593c0.10589,0.0649 0.21175,0.12979 0.30614,0.19165c0.09437,0.06186 0.17422,0.13217 0.24983,0.19522c0.07562,0.06304 0.12095,0.12425 0.15479,0.18241c0.05922,0.10177 0.08512,0.2132 0.08078,0.32279c-0.00436,0.10958 -0.02749,0.22035 -0.06211,0.32808c-0.03463,0.10773 -0.08379,0.22392 -0.13719,0.33283c-0.05339,0.10892 -0.10257,0.2251 -0.13719,0.33283c-0.03463,0.10773 -0.05776,0.2185 -0.06634,0.32081c-0.00859,0.10231 0.01309,0.20647 0.07231,0.30824c0.055,0.09451 0.13484,0.16483 0.23225,0.21518c0.09742,0.05036 0.20092,0.07771 0.31591,0.10812c0.115,0.0304 0.23608,0.0378 0.36138,0.05246c0.12531,0.01467 0.24335,0.03357 0.36138,0.05246c0.11804,0.0189 0.22273,0.06502 0.32014,0.11539c0.09742,0.05036 0.17726,0.12067 0.24071,0.22973c0.03384,0.05816 0.05737,0.13204 0.07483,0.22894c0.01745,0.09689 0.0349,0.19378 0.04628,0.31366c0.01138,0.11989 0.01124,0.23675 0.01535,0.36086c0.0041,0.12413 -0.00329,0.2452 -0.01069,0.36628c-0.0074,0.12108 -0.01598,0.22338 -0.02457,0.3257c-0.00859,0.10231 -0.01837,0.18585 -0.03357,0.24335c-0.02009,0.09927 -0.06013,0.18095 -0.10441,0.25538c-0.04428,0.07442 -0.11579,0.13549 -0.19575,0.18202c-0.09451,0.055 -0.2017,0.08817 -0.32464,0.11104c-0.12292,0.02287 -0.24281,0.03424 -0.3627,0.04562c-0.11989,0.01138 -0.24704,0.02697 -0.3627,0.04562c-0.11566,0.01865 -0.22285,0.05182 -0.31737,0.10681c-0.12358,0.07191 -0.20117,0.15599 -0.24426,0.24917c-0.04309,0.09319 -0.0559,0.18823 -0.04573,0.28934c0.01019,0.10112 0.03186,0.20528 0.07655,0.31552c0.04468,0.11023 0.0809,0.20593 0.11408,0.31314c0.02776,0.08116 0.05552,0.16232 0.08329,0.24347c0.02776,0.08116 0.05129,0.15505 0.08329,0.24347c0.0501,0.13627 0.0542,0.2604 0.02077,0.3869c-0.03344,0.1265 -0.10984,0.22934 -0.22073,0.32306c-0.10363,0.08949 -0.20422,0.16748 -0.31631,0.24243c-0.11209,0.07495 -0.2284,0.14263 -0.34472,0.21031c-0.11632,0.06768 -0.24413,0.13232 -0.36468,0.19274c-0.12055,0.06041 -0.25259,0.11779 -0.3816,0.16366c-0.12901,0.04588 -0.2604,0.0542 -0.37963,0.01654c-0.11923,-0.03767 -0.2251,-0.10257 -0.3261,-0.20923c-0.10946,-0.1212 -0.21164,-0.24664 -0.31381,-0.37208c-0.10218,-0.12544 -0.20436,-0.25088 -0.31381,-0.37208c-0.09372,-0.11089 -0.2111,-0.17883 -0.35214,-0.20381c-0.14105,-0.02497 -0.26396,-0.00211 -0.38755,0.0698zM235.36651,158.65601c-0.02353,-0.07389 -0.05857,-0.15082 -0.09902,-0.25378c-0.04046,-0.10297 -0.0809,-0.20593 -0.12136,-0.3089c-0.04046,-0.10297 -0.07363,-0.21016 -0.10258,-0.3101c-0.02895,-0.09993 -0.05672,-0.18108 -0.06451,-0.24467c-0.04271,-0.25736 -0.01337,-0.50797 0.08919,-0.73309c0.10257,-0.2251 0.26805,-0.40898 0.50069,-0.54434c0.07997,-0.04653 0.17566,-0.08275 0.29437,-0.1129c0.1187,-0.03013 0.2374,-0.06028 0.3676,-0.08738c0.13019,-0.0271 0.25313,-0.04998 0.37302,-0.06134c0.11989,-0.01138 0.23131,-0.03728 0.32093,-0.05051c0.0378,-0.23608 0.06409,-0.47519 0.06435,-0.70889c0.00025,-0.23369 -0.02249,-0.47347 -0.0525,-0.70902l-0.00423,-0.00727l-0.97577,-0.17179c-0.17554,-0.03409 -0.33773,-0.09542 -0.48776,-0.20275c-0.15003,-0.10733 -0.26372,-0.2358 -0.35255,-0.38847c-0.08883,-0.15267 -0.14132,-0.32648 -0.16049,-0.50995c-0.01917,-0.18347 0.00765,-0.35477 0.06475,-0.52424l0.32672,-0.91021l-0.00423,-0.00727c0,0 -0.01996,-0.01758 -0.04415,-0.04243c-0.02419,-0.02486 -0.04718,-0.03093 -0.05142,-0.0382c-0.16695,-0.1364 -0.35148,-0.25285 -0.53905,-0.35779c-0.18758,-0.10494 -0.38545,-0.19416 -0.5906,-0.27915l-0.00727,0.00423l-0.63047,0.7561c-0.09517,0.10403 -0.19879,0.19352 -0.3151,0.2612c-0.19628,0.11421 -0.39613,0.17212 -0.61107,0.17067c-0.18466,0.0004 -0.35293,-0.03793 -0.51935,-0.10652c-0.16642,-0.06859 -0.30191,-0.18439 -0.41982,-0.32013l-0.62763,-0.74416c-0.22471,0.0821 -0.43673,0.186 -0.64755,0.30867c-0.10177,0.05922 -0.20356,0.11844 -0.3011,0.18493c-0.09755,0.06649 -0.1951,0.13298 -0.28841,0.20675c0.05552,0.16232 0.11408,0.31314 0.17265,0.46396c0.05857,0.15082 0.10985,0.30587 0.16115,0.46091c0.04282,0.14051 0.06689,0.2822 0.07218,0.42509c0.00529,0.14289 -0.01968,0.28393 -0.06039,0.41466c-0.04071,0.13073 -0.11591,0.25234 -0.19958,0.35942c-0.08367,0.10706 -0.19456,0.20079 -0.32542,0.27694c-0.13086,0.07614 -0.25986,0.12201 -0.40157,0.14608l-0.00727,0.00423l-0.95434,0.16605l-0.00727,0.00423c-0.0378,0.23608 -0.05682,0.47096 -0.06435,0.70889c-0.00752,0.23792 0.011,0.47043 0.0525,0.70902l0.00423,0.00727l0.97577,0.17179c0.17554,0.03409 0.33773,0.09542 0.48776,0.20275c0.15003,0.10733 0.26372,0.2358 0.35255,0.38847c0.08883,0.15267 0.15586,0.31802 0.1708,0.49422c0.01494,0.1762 -0.00765,0.35477 -0.06475,0.52424l-0.32672,0.91021l0.00423,0.00727c0,0 0.01996,0.01758 0.04415,0.04243c0.02419,0.02486 0.04718,0.03093 0.05142,0.0382c0.16695,0.1364 0.35148,0.25285 0.53905,0.35779c0.18758,0.10494 0.38545,0.19416 0.5906,0.27915l0.00727,-0.00423l0.63047,-0.7561c0.09517,-0.10403 0.19879,-0.19352 0.3151,-0.2612c0.19628,-0.11421 0.39613,-0.17212 0.61107,-0.17067c0.18466,-0.0004 0.35293,0.03793 0.51935,0.10652c0.16642,0.06859 0.30191,0.18439 0.41982,0.32013l0.62763,0.74416c0.22471,-0.0821 0.43673,-0.186 0.64755,-0.30867c0.10177,-0.05922 0.20356,-0.11844 0.3011,-0.18493c0.09755,-0.06649 0.18359,-0.13602 0.26965,-0.20555zM230.93199,156.18584c-0.13113,-0.22537 -0.21442,-0.46884 -0.24139,-0.71588c-0.02697,-0.24704 -0.01217,-0.4892 0.04861,-0.7192c0.0608,-0.23 0.16759,-0.44783 0.31312,-0.64928c0.14552,-0.20145 0.33823,-0.37197 0.5636,-0.50311c0.22537,-0.13113 0.46884,-0.21442 0.71588,-0.24139c0.24704,-0.02697 0.4892,-0.01217 0.7192,0.04861c0.23,0.0608 0.44783,0.16759 0.64928,0.31312c0.20145,0.14552 0.37197,0.33823 0.50311,0.5636c0.13113,0.22537 0.21442,0.46884 0.24139,0.71588c0.02697,0.24704 0.01217,0.4892 -0.04861,0.7192c-0.0608,0.23 -0.16759,0.44783 -0.31312,0.64928c-0.14552,0.20145 -0.33823,0.37197 -0.5636,0.50311c-0.22537,0.13113 -0.46884,0.21442 -0.71588,0.24139c-0.24704,0.02697 -0.4892,0.01217 -0.7192,-0.04861c-0.23,-0.0608 -0.44783,-0.16759 -0.64928,-0.31312c-0.20145,-0.14552 -0.37197,-0.33823 -0.50311,-0.5636zM233.65818,154.59956c-0.08883,-0.15267 -0.19829,-0.27387 -0.33258,-0.37089c-0.1343,-0.09702 -0.28195,-0.1668 -0.43568,-0.21358c-0.15373,-0.04678 -0.31962,-0.04757 -0.48431,-0.02959c-0.1647,0.01798 -0.32702,0.07351 -0.47241,0.15811c-0.1454,0.0846 -0.27387,0.19829 -0.37089,0.33258c-0.09702,0.1343 -0.1668,0.28195 -0.21358,0.43568c-0.04678,0.15373 -0.04757,0.31962 -0.02959,0.48431c0.01798,0.1647 0.07351,0.32702 0.15811,0.47241c0.0846,0.1454 0.19829,0.27387 0.33258,0.37089c0.1343,0.09702 0.28195,0.1668 0.43568,0.21358c0.15373,0.04678 0.31962,0.04757 0.48431,0.02959c0.1647,-0.01798 0.32702,-0.07351 0.47241,-0.15811c0.1454,-0.0846 0.27387,-0.19829 0.37089,-0.33258c0.09702,-0.1343 0.1668,-0.28195 0.21358,-0.43568c0.04678,-0.15373 0.04757,-0.31962 0.02959,-0.48431c-0.01798,-0.1647 -0.07351,-0.32702 -0.15811,-0.47241z" fill="#000000" stroke="#000000" stroke-width="0.5" stroke-linecap="butt"/></g></g></svg>