<svg version="1.1" xmlns="http://www.w3.org/2000/svg" xmlns:xlink="http://www.w3.org/1999/xlink" width="80.59103" height="104.12505" viewBox="0,0,80.59103,104.12505"><g transform="translate(-223.99301,-141.6035)"><g stroke-miterlimit="10"><g><path d="M286.24791,154.1035c5.88344,10.50849 8.24795,23.06428 5.83613,35.82382c-5.02089,26.56259 -28.99114,44.74768 -55.27798,43.21071" fill="none" stroke="#0285ff" stroke-width="25"/><path d="M288.83477,142.13951c6.73214,1.27252 11.15804,7.76157 9.88553,14.49372c-1.27252,6.73214 -7.76158,11.15803 -14.49371,9.88552c-6.73214,-1.27252 -11.15803,-7.76158 -9.88553,-14.49372c1.27252,-6.73215 7.76158,-11.15803 14.49371,-9.88552z" fill="#0285ff" stroke="none" stroke-width="0"/><path d="M238.70482,220.86795c6.73214,1.27251 11.15803,7.76158 9.88553,14.49372c-1.27252,6.73215 -7.76158,11.15803 -14.49372,9.88553c-6.73213,-1.27251 -11.15803,-7.76158 -9.88552,-14.49371c1.27252,-6.73215 7.76157,-11.15804 14.49372,-9.88553z" fill="#0285ff" stroke="none" stroke-width="0"/></g></g></g></svg>