<svg version="1.1" xmlns="http://www.w3.org/2000/svg" xmlns:xlink="http://www.w3.org/1999/xlink" width="483.34921" height="361.16125" viewBox="0,0,483.34921,361.16125"><defs><linearGradient x1="186.72757" y1="58.57402" x2="296.61936" y2="100.82545" gradientUnits="userSpaceOnUse" id="color-1"><stop offset="0" stop-color="#17c2ae"/><stop offset="1" stop-color="#5d6cfa"/></linearGradient><linearGradient x1="309.9258" y1="58.66614" x2="419.81762" y2="100.91756" gradientUnits="userSpaceOnUse" id="color-2"><stop offset="0" stop-color="#1731c2"/><stop offset="1" stop-color="#c75cfa"/></linearGradient><linearGradient x1="186.99127" y1="130.67126" x2="296.88307" y2="172.92269" gradientUnits="userSpaceOnUse" id="color-3"><stop offset="0" stop-color="#c24e17"/><stop offset="1" stop-color="#facc5c"/></linearGradient><linearGradient x1="310.18953" y1="131.04775" x2="420.08132" y2="173.29918" gradientUnits="userSpaceOnUse" id="color-4"><stop offset="0" stop-color="#a1c217"/><stop offset="1" stop-color="#60c74a"/></linearGradient><linearGradient x1="186.66176" y1="204.11766" x2="296.55355" y2="246.36907" gradientUnits="userSpaceOnUse" id="color-5"><stop offset="0" stop-color="#17b5c2"/><stop offset="1" stop-color="#5ce6fa"/></linearGradient><linearGradient x1="309.86" y1="204.20976" x2="419.7518" y2="246.46119" gradientUnits="userSpaceOnUse" id="color-6"><stop offset="0" stop-color="#c21717"/><stop offset="1" stop-color="#fa5cb3"/></linearGradient><linearGradient x1="185.95554" y1="276.3703" x2="295.8473" y2="318.62174" gradientUnits="userSpaceOnUse" id="color-7"><stop offset="0" stop-color="#17c25b"/><stop offset="1" stop-color="#5cfaef"/></linearGradient></defs><g transform="translate(0.70269,0.27037)"><g stroke-miterlimit="10"><path d="M-0.70269,360.89089v-361.16125h483.34921v361.16125z" fill-opacity="0.89804" fill="#f3f8ff" stroke="none" stroke-width="0" stroke-linecap="butt"/><path d="M170.11225,189.66317c-0.06344,7.74537 -6.20542,14.15177 -14.02741,14.4599c-0.1304,0.00513 -0.26046,0.00855 -0.39017,0.01026l-130.17763,-0.07331c-7.7404,0.2849 -14.41649,-5.5628 -15.07602,-13.36302c-0.011,-0.13003 -0.02025,-0.25981 -0.02778,-0.38931l-0.11651,-2.44291c0.06706,-7.74535 6.21203,-14.14887 14.03416,-14.45334c0.13039,-0.00508 0.26046,-0.00843 0.39017,-0.01007l130.17759,0.1341c7.74052,-0.28128 14.41388,5.56954 15.06977,13.37007c0.01094,0.13003 0.02013,0.25982 0.0276,0.38932z" fill-opacity="0.89804" fill="#e1eaf7" stroke-opacity="0.89804" stroke="#e1eaf7" stroke-width="1.5" stroke-linecap="butt"/><path d="M9.4713,20.88334c0,-5.972 4.84127,-10.81327 10.81327,-10.81327c5.972,0 10.81327,4.84127 10.81327,10.81327c0,5.972 -4.84127,10.81327 -10.81327,10.81327c-5.972,0 -10.81327,-4.84127 -10.81327,-10.81327z" fill-opacity="0.89804" fill="#e1eaf7" stroke="none" stroke-width="0" stroke-linecap="butt"/><path d="M169.26903,127.77622c-0.06344,7.74538 -6.20542,14.15176 -14.02741,14.4599c-0.1304,0.00513 -0.26045,0.00855 -0.39016,0.01026l-130.17763,-0.07331c-7.7404,0.2849 -14.41648,-5.5628 -15.07601,-13.36303c-0.011,-0.13003 -0.02025,-0.25981 -0.02779,-0.3893l0.47493,-65.1392c0.06706,-7.74534 6.21203,-14.14887 14.03416,-14.45334c0.13039,-0.00507 0.26046,-0.00842 0.39017,-0.01007l130.17759,0.1341c7.74052,-0.28128 14.41388,5.56953 15.06977,13.37006c0.01094,0.13003 0.02013,0.25981 0.0276,0.38932z" fill-opacity="0.89804" fill="#e1eaf7" stroke-opacity="0.98824" stroke="#e3ecf8" stroke-width="1.5" stroke-linecap="butt"/><path d="M24.95422,20.5698c0,0.11006 -0.03931,0.19654 -0.11792,0.27516c-0.07862,0.07862 -0.1651,0.11793 -0.27516,0.11793h-7.70446l3.2626,3.2626c0.07862,0.07862 0.11793,0.1651 0.11793,0.27516c0,0.11006 -0.03931,0.19654 -0.11793,0.27516c-0.07862,0.07862 -0.1651,0.11793 -0.27516,0.11793c-0.11006,0 -0.2044,-0.03931 -0.28302,-0.11793l-3.90726,-3.90726c-0.03931,-0.03931 -0.07862,-0.08648 -0.10221,-0.13365c-0.02358,-0.04717 -0.03145,-0.10221 -0.03145,-0.1651c0,-0.0629 0.00786,-0.11793 0.03145,-0.1651c0.02358,-0.04717 0.05503,-0.09434 0.09434,-0.13365l3.91512,-3.91512c0.07862,-0.07862 0.17295,-0.11792 0.28302,-0.11792c0.11006,0 0.20441,0.03931 0.27516,0.11006c0.07075,0.07075 0.11006,0.16509 0.11006,0.27516c0,0.11006 -0.03931,0.20441 -0.11793,0.28302l-3.25474,3.25474h7.6966c0.05503,0 0.11007,0.00786 0.15724,0.03145c0.04717,0.02358 0.08648,0.04717 0.12578,0.08648c0.03931,0.03931 0.06289,0.07862 0.08648,0.12578c0.02358,0.04717 0.03145,0.11006 0.03145,0.1651z" fill="#000000" stroke="#000000" stroke-width="1" stroke-linecap="butt"/><path d="M30.30174,99.6782c-0.11937,0.06946 -0.21535,0.15955 -0.3014,0.2667c-0.08606,0.10714 -0.16713,0.22281 -0.2617,0.33492c-0.09458,0.11209 -0.16713,0.22281 -0.2617,0.33492c-0.09458,0.11209 -0.19054,0.20219 -0.3014,0.2667c-0.10233,0.05954 -0.19752,0.0921 -0.30761,0.09908c-0.11008,0.00699 -0.22156,-0.00805 -0.3259,-0.05007c-0.0724,-0.02636 -0.16327,-0.0648 -0.26761,-0.10681c-0.10435,-0.04202 -0.22358,-0.10961 -0.33785,-0.16867c-0.11427,-0.05907 -0.24698,-0.13022 -0.37119,-0.20636c-0.12421,-0.07613 -0.24838,-0.15224 -0.3591,-0.2248c-0.11069,-0.07256 -0.20436,-0.15503 -0.29304,-0.22899c-0.0887,-0.07394 -0.14187,-0.14574 -0.18157,-0.21396c-0.06946,-0.11937 -0.09984,-0.25008 -0.09475,-0.37863c0.00511,-0.12853 0.03225,-0.25847 0.07285,-0.38483c0.04062,-0.12636 0.09828,-0.26265 0.16092,-0.3904c0.06263,-0.12776 0.12031,-0.26404 0.16092,-0.3904c0.04062,-0.12636 0.06775,-0.2563 0.07782,-0.3763c0.01008,-0.12001 -0.01535,-0.24218 -0.08482,-0.36156c-0.06451,-0.11086 -0.15816,-0.19334 -0.27242,-0.2524c-0.11427,-0.05907 -0.23567,-0.09115 -0.37055,-0.12682c-0.13489,-0.03566 -0.27692,-0.04434 -0.42389,-0.06153c-0.14699,-0.01721 -0.28544,-0.03938 -0.42389,-0.06153c-0.13846,-0.02217 -0.26126,-0.07627 -0.37552,-0.13535c-0.11427,-0.05907 -0.20792,-0.14154 -0.28235,-0.26947c-0.03473,-0.05969 -0.06234,-0.14636 -0.08281,-0.26c-0.02047,-0.11365 -0.0459,-0.23583 -0.05429,-0.36792c-0.00839,-0.13209 -0.01318,-0.2777 -0.01801,-0.42328c-0.00481,-0.1456 -0.0011,-0.29613 0.00758,-0.43817c0.00868,-0.14202 0.01378,-0.27055 0.02386,-0.39055c0.01008,-0.12001 0.02652,-0.20947 0.03938,-0.28544c0.02357,-0.11644 0.07053,-0.21225 0.131,-0.30452c0.06047,-0.09225 0.14433,-0.16389 0.23814,-0.21847c0.11937,-0.06946 0.24512,-0.10838 0.3808,-0.13025c0.13567,-0.02188 0.27628,-0.0352 0.41691,-0.04855c0.14063,-0.01335 0.28124,-0.02667 0.41691,-0.04855c0.13567,-0.02188 0.2614,-0.06078 0.3808,-0.13025c0.1535,-0.08931 0.2566,-0.20637 0.30434,-0.35972c0.04775,-0.15334 0.05502,-0.31738 -0.00374,-0.47723c-0.06016,-0.18187 -0.12885,-0.35878 -0.18903,-0.54064c-0.06016,-0.18187 -0.12885,-0.35878 -0.18903,-0.54064c-0.05382,-0.15133 -0.06358,-0.30544 -0.0194,-0.4453c0.04419,-0.13985 0.12884,-0.26901 0.24542,-0.38251c0.12156,-0.10497 0.23955,-0.19645 0.37102,-0.28436c0.13148,-0.08791 0.26791,-0.1673 0.39583,-0.24174c0.13644,-0.07939 0.28636,-0.15521 0.42776,-0.22608c0.1414,-0.07086 0.29628,-0.13816 0.44761,-0.19197c0.15133,-0.05382 0.30544,-0.06358 0.4453,-0.0194c0.13985,0.04419 0.26404,0.12031 0.37755,0.23689c0.12839,0.14216 0.24825,0.2893 0.36809,0.43644c0.11985,0.14714 0.23971,0.29428 0.36809,0.43644c0.10993,0.13007 0.24762,0.20976 0.41305,0.23906c0.16545,0.02929 0.31816,-0.00249 0.46311,-0.08684c0.11937,-0.06946 0.21535,-0.15955 0.3014,-0.2667c0.08606,-0.10714 0.16713,-0.22281 0.2617,-0.33492c0.09458,-0.11209 0.16713,-0.22281 0.2617,-0.33492c0.09458,-0.11209 0.19054,-0.20219 0.3014,-0.2667c0.10233,-0.05954 0.20605,-0.09706 0.31614,-0.10404c0.11008,-0.00699 0.21304,0.01301 0.3259,0.05007c0.0724,0.02636 0.16327,0.0648 0.26761,0.10681c0.10435,0.04202 0.22358,0.10961 0.33785,0.16867c0.11427,0.05907 0.24698,0.13022 0.37119,0.20636c0.12421,0.07613 0.24838,0.15224 0.3591,0.2248c0.11069,0.07256 0.20436,0.15503 0.29304,0.22899c0.0887,0.07394 0.14187,0.14574 0.18157,0.21396c0.06946,0.11937 0.09984,0.25008 0.09475,0.37863c-0.00511,0.12853 -0.03225,0.25847 -0.07285,0.38483c-0.04062,0.12636 -0.09828,0.26265 -0.16092,0.3904c-0.06263,0.12776 -0.12031,0.26404 -0.16092,0.3904c-0.04062,0.12636 -0.06775,0.2563 -0.07782,0.3763c-0.01008,0.12001 0.01535,0.24218 0.08482,0.36156c0.06451,0.11086 0.15816,0.19334 0.27242,0.2524c0.11427,0.05907 0.23567,0.09115 0.37055,0.12682c0.13489,0.03566 0.27692,0.04434 0.42389,0.06153c0.14699,0.01721 0.28544,0.03938 0.42389,0.06153c0.13846,0.02217 0.26126,0.07627 0.37552,0.13535c0.11427,0.05907 0.20792,0.14154 0.28235,0.26947c0.03969,0.06822 0.06729,0.15488 0.08777,0.26854c0.02047,0.11365 0.04094,0.2273 0.05429,0.36792c0.01335,0.14063 0.01318,0.2777 0.01801,0.42328c0.00481,0.1456 -0.00386,0.28761 -0.01254,0.42964c-0.00868,0.14202 -0.01874,0.26202 -0.02882,0.38204c-0.01008,0.12001 -0.02155,0.218 -0.03938,0.28544c-0.02357,0.11644 -0.07053,0.21225 -0.12247,0.29955c-0.05194,0.08729 -0.13582,0.15893 -0.22961,0.21351c-0.11086,0.06451 -0.23659,0.10342 -0.3808,0.13025c-0.14418,0.02683 -0.28481,0.04016 -0.42544,0.05351c-0.14063,0.01335 -0.28977,0.03164 -0.42544,0.05351c-0.13567,0.02188 -0.2614,0.06078 -0.37227,0.12529c-0.14496,0.08435 -0.23597,0.18297 -0.28651,0.29227c-0.05054,0.10931 -0.06557,0.22079 -0.05364,0.33939c0.01195,0.11861 0.03737,0.24079 0.08979,0.3701c0.05241,0.1293 0.09489,0.24155 0.13381,0.36731c0.03256,0.0952 0.06512,0.1904 0.0977,0.28558c0.03256,0.0952 0.06016,0.18187 0.0977,0.28558c0.05877,0.15984 0.06358,0.30544 0.02436,0.45382c-0.03922,0.14838 -0.12884,0.26901 -0.25891,0.37894c-0.12156,0.10497 -0.23955,0.19645 -0.37102,0.28436c-0.13148,0.08791 -0.26791,0.1673 -0.40435,0.24669c-0.13644,0.07939 -0.28636,0.15521 -0.42776,0.22608c-0.1414,0.07086 -0.29628,0.13816 -0.44761,0.19197c-0.15133,0.05382 -0.30544,0.06358 -0.4453,0.0194c-0.13985,-0.04419 -0.26404,-0.12031 -0.38251,-0.24542c-0.12839,-0.14216 -0.24825,-0.2893 -0.36809,-0.43644c-0.11985,-0.14714 -0.23971,-0.29428 -0.36809,-0.43644c-0.10993,-0.13007 -0.24762,-0.20976 -0.41305,-0.23906c-0.16545,-0.02929 -0.30962,-0.00247 -0.45459,0.08187zM33.91818,99.40021c-0.0276,-0.08667 -0.0687,-0.17691 -0.11615,-0.29768c-0.04746,-0.12078 -0.09489,-0.24155 -0.14235,-0.36233c-0.04746,-0.12078 -0.08637,-0.24651 -0.12032,-0.36374c-0.03396,-0.11722 -0.06653,-0.2124 -0.07567,-0.28699c-0.0501,-0.30188 -0.01568,-0.59584 0.10462,-0.8599c0.12031,-0.26404 0.31442,-0.47972 0.5873,-0.6385c0.0938,-0.05458 0.20605,-0.09706 0.34529,-0.13243c0.13923,-0.03534 0.27846,-0.07071 0.43119,-0.10249c0.15271,-0.03179 0.29692,-0.05863 0.43754,-0.07195c0.14063,-0.01335 0.27132,-0.04373 0.37644,-0.05925c0.04434,-0.27692 0.07518,-0.55739 0.07548,-0.83151c0.00029,-0.27411 -0.02638,-0.55537 -0.06158,-0.83166l-0.00496,-0.00853l-1.14456,-0.20151c-0.2059,-0.03999 -0.39615,-0.11193 -0.57213,-0.23782c-0.17598,-0.1259 -0.30934,-0.27659 -0.41353,-0.45567c-0.1042,-0.17908 -0.16577,-0.38295 -0.18825,-0.59816c-0.02249,-0.21521 0.00897,-0.41614 0.07595,-0.61492l0.38323,-1.06765l-0.00496,-0.00853c0,0 -0.02341,-0.02062 -0.05179,-0.04977c-0.02837,-0.02916 -0.05534,-0.03628 -0.06031,-0.04481c-0.19583,-0.15999 -0.41228,-0.29659 -0.63229,-0.41968c-0.22003,-0.12309 -0.45212,-0.22775 -0.69276,-0.32744l-0.00853,0.00496l-0.73953,0.88689c-0.11163,0.12202 -0.23318,0.22699 -0.3696,0.30638c-0.23023,0.13397 -0.46465,0.20189 -0.71677,0.20019c-0.2166,0.00047 -0.41398,-0.04449 -0.60919,-0.12495c-0.19521,-0.08045 -0.35413,-0.21629 -0.49244,-0.3755l-0.7362,-0.87288c-0.26358,0.0963 -0.51227,0.21817 -0.75956,0.36206c-0.11937,0.06946 -0.23877,0.13893 -0.35318,0.21692c-0.11442,0.07799 -0.22885,0.15598 -0.3383,0.24251c0.06512,0.1904 0.13381,0.36731 0.20251,0.54421c0.0687,0.17691 0.12885,0.35878 0.18903,0.54064c0.05023,0.16481 0.07846,0.33101 0.08467,0.49862c0.00621,0.16761 -0.02308,0.33304 -0.07084,0.48639c-0.04775,0.15334 -0.13596,0.29599 -0.2341,0.42159c-0.09814,0.12558 -0.22821,0.23552 -0.38171,0.32484c-0.1535,0.08931 -0.30481,0.14311 -0.47103,0.17135l-0.00853,0.00496l-1.11942,0.19477l-0.00853,0.00496c-0.04434,0.27692 -0.06665,0.55242 -0.07548,0.83151c-0.00882,0.27907 0.0129,0.5518 0.06158,0.83166l0.00496,0.00853l1.14456,0.20151c0.2059,0.03999 0.39615,0.11193 0.57213,0.23782c0.17598,0.1259 0.30934,0.27659 0.41353,0.45567c0.1042,0.17908 0.18282,0.37303 0.20034,0.57971c0.01752,0.20668 -0.00897,0.41614 -0.07595,0.61492l-0.38323,1.06765l0.00496,0.00853c0,0 0.02341,0.02062 0.05179,0.04977c0.02837,0.02916 0.05534,0.03628 0.06031,0.04481c0.19583,0.15999 0.41228,0.29659 0.63229,0.41968c0.22003,0.12309 0.45212,0.22775 0.69276,0.32744l0.00853,-0.00496l0.73953,-0.88689c0.11163,-0.12202 0.23318,-0.22699 0.3696,-0.30638c0.23023,-0.13397 0.46465,-0.20189 0.71677,-0.20019c0.2166,-0.00047 0.41398,0.04449 0.60919,0.12495c0.19521,0.08045 0.35413,0.21629 0.49244,0.3755l0.7362,0.87288c0.26358,-0.0963 0.51227,-0.21817 0.75956,-0.36206c0.11937,-0.06946 0.23877,-0.13893 0.35318,-0.21692c0.11442,-0.07799 0.21535,-0.15955 0.31629,-0.24111zM28.7166,96.50277c-0.15381,-0.26435 -0.25151,-0.54994 -0.28314,-0.83971c-0.03164,-0.28977 -0.01428,-0.57382 0.05702,-0.8436c0.07132,-0.26978 0.19658,-0.52529 0.36728,-0.76159c0.17069,-0.2363 0.39674,-0.43631 0.66109,-0.59014c0.26435,-0.15381 0.54994,-0.25151 0.83971,-0.28314c0.28977,-0.03164 0.57382,-0.01428 0.8436,0.05702c0.26978,0.07132 0.52529,0.19658 0.76159,0.36728c0.2363,0.17069 0.43631,0.39674 0.59014,0.66109c0.15381,0.26435 0.25151,0.54994 0.28314,0.83971c0.03164,0.28977 0.01428,0.57382 -0.05702,0.8436c-0.07132,0.26978 -0.19658,0.52529 -0.36728,0.76159c-0.17069,0.2363 -0.39674,0.43631 -0.66109,0.59014c-0.26435,0.15381 -0.54994,0.25151 -0.83971,0.28314c-0.28977,0.03164 -0.57382,0.01428 -0.8436,-0.05702c-0.26978,-0.07132 -0.52529,-0.19658 -0.76159,-0.36728c-0.2363,-0.17069 -0.43631,-0.39674 -0.59014,-0.66109zM31.91435,94.6421c-0.1042,-0.17908 -0.23259,-0.32124 -0.39011,-0.43505c-0.15753,-0.1138 -0.33072,-0.19565 -0.51104,-0.25052c-0.18032,-0.05487 -0.37491,-0.0558 -0.56808,-0.03471c-0.19319,0.02109 -0.38359,0.08623 -0.55413,0.18546c-0.17055,0.09923 -0.32124,0.23259 -0.43505,0.39011c-0.1138,0.15753 -0.19565,0.33072 -0.25052,0.51104c-0.05487,0.18032 -0.0558,0.37491 -0.03471,0.56808c0.02109,0.19319 0.08623,0.38359 0.18546,0.55413c0.09923,0.17055 0.23259,0.32124 0.39011,0.43505c0.15753,0.1138 0.33072,0.19565 0.51104,0.25052c0.18032,0.05487 0.37491,0.0558 0.56808,0.03471c0.19319,-0.02109 0.38359,-0.08623 0.55413,-0.18546c0.17055,-0.09923 0.32124,-0.23259 0.43505,-0.39011c0.1138,-0.15753 0.19565,-0.33072 0.25052,-0.51104c0.05487,-0.18032 0.0558,-0.37491 0.03471,-0.56808c-0.02109,-0.19319 -0.08623,-0.38359 -0.18546,-0.55413z" fill="#000000" stroke="#000000" stroke-width="0.75" stroke-linecap="butt"/><g fill="none" stroke="#000000" stroke-width="1.5"><path d="M36.51362,123.35881l-0.00282,0.42334c-0.00014,0.01314 -0.00042,0.02632 -0.00082,0.03951c-0.03295,1.07392 -0.91563,1.9173 -1.97153,1.88374c-0.00836,-0.00027 -0.01672,-0.00059 -0.02506,-0.00096l-1.58422,0.00168l-4.52245,0.00354l-0.96831,0.00102c-0.01292,0.00021 -0.02588,0.0003 -0.03886,0.00026c-1.0564,-0.00385 -1.90974,-0.87797 -1.90597,-1.9524c0.00003,-0.00851 0.00012,-0.01701 0.00026,-0.02551l-0.00127,-0.25447l-0.02993,-2.90232l0.00312,-0.42334c0.00015,-0.01314 0.00044,-0.02632 0.00085,-0.03951c0.0337,-1.07388 0.91697,-1.91666 1.97283,-1.88238c0.00836,0.00027 0.01672,0.0006 0.02506,0.00098l1.58422,-0.00058l4.52246,-0.00041l0.96831,-0.00035c0.01292,-0.00021 0.02588,-0.00028 0.03886,-0.00023c1.05639,0.00459 1.90912,0.87929 1.90462,1.95371c-0.00003,0.00851 -0.00012,0.01701 -0.00027,0.02551l0.00108,0.25447z" stroke-linecap="butt"/><path d="M25.48322,120.85409l0.02267,-2.47143l0.0025,-0.39669c0.00012,-0.01232 0.00035,-0.02466 0.00069,-0.03703c0.02705,-1.00628 0.73596,-1.79599 1.5834,-1.76386c0.00671,0.00026 0.01342,0.00056 0.02011,0.00092l2.93349,-0.00125c0.01037,-0.00019 0.02077,-0.00026 0.03119,-0.00021c0.84786,0.0043 1.53225,0.82393 1.52863,1.83071c-0.00003,0.00799 -0.0001,0.01594 -0.00022,0.0239l0.00087,0.23845" stroke-linecap="butt"/><path d="M32.62987,122.96073h-2.94233" stroke-linecap="round"/></g><g fill="none" stroke="#000000" stroke-width="1.5"><path d="M26.48465,67.97796c-0.00287,-0.0444 -0.00433,-0.08916 -0.00433,-0.13427c0,-1.13382 0.91915,-2.05295 2.05297,-2.05295c0.18121,0 0.35692,0.02348 0.5243,0.06756" stroke-linecap="butt"/><path d="M29.38675,65.97522l-0.41521,-0.13839" stroke-linecap="round"/><path d="M26.48031,74.97137v-7.01235" stroke-linecap="round"/><path d="M25.09628,69.2969h2.86029" stroke-linecap="round"/><path d="M35.59564,70.71426c0.47571,0.52079 0.76587,1.21395 0.76587,1.97489c0,0.77818 -0.30347,1.4855 -0.7985,2.01003" stroke-linecap="butt"/><path d="M30.21639,74.59328c-0.45896,-0.5171 -0.73767,-1.19779 -0.73767,-1.94357c0,-0.72771 0.26539,-1.39346 0.70465,-1.9057" stroke-linecap="butt"/><path d="M30.16382,74.54581l0.31524,0.35465" stroke-linecap="round"/><path d="M30.43967,70.4082l-0.31524,0.39406" stroke-linecap="round"/><path d="M35.32603,70.36884l0.27585,0.31526" stroke-linecap="round"/><path d="M35.68067,74.54578l-0.43346,0.43347" stroke-linecap="round"/><path d="M34.18538,73.8123l-2.28416,-2.4003" stroke-linecap="round"/><path d="M34.06921,71.52814l-2.20673,2.28416" stroke-linecap="round"/></g><g><path d="M44.95668,30.04371c-0.20897,-0.0009 -0.41409,-0.01803 -0.61418,-0.0502c-0.11098,-0.02943 -0.23728,-0.06689 -0.349,-0.07249c-0.02219,-0.00567 -0.04431,-0.01153 -0.06635,-0.01758c-0.05707,-0.0214 -0.11183,-0.04167 -0.16163,-0.05661c-0.02384,-0.00716 -0.0476,-0.01461 -0.07121,-0.02249l-0.01138,-0.0038c0,0 -0.01019,-0.0034 -0.02047,-0.00009c-0.00476,-0.00349 -0.01058,-0.00561 -0.01689,-0.00581c-0.01116,-0.00399 -0.0223,-0.00802 -0.03341,-0.0121l-0.00678,-0.00339c-0.14071,-0.0625 -0.2978,-0.14099 -0.44367,-0.19512c-0.01562,-0.00808 -0.03119,-0.01628 -0.04669,-0.02457c-0.00282,-0.00621 -0.00677,-0.01016 -0.00677,-0.01016l-0.02169,-0.01557c-0.06841,-0.01698 -0.10466,-0.06159 -0.16305,-0.09556c0,0 -0.01205,-0.00688 -0.0245,-0.0032c-0.1439,-0.08911 -0.28164,-0.18721 -0.41244,-0.29353c0.00202,-0.0179 -0.01523,-0.02825 -0.01523,-0.02825c-0.04549,-0.02729 -0.08492,-0.06147 -0.12652,-0.09262c-0.01353,-0.0123 -0.0271,-0.02457 -0.04068,-0.03686c-0.02468,-0.02268 -0.04907,-0.04568 -0.07316,-0.06897c0.00143,-0.01397 -0.00941,-0.02481 -0.00941,-0.02481l-0.02222,-0.02222c-0.04,-0.03915 -0.07884,-0.0799 -0.11771,-0.12086c-0.00045,-0.00116 -0.00078,-0.0018 -0.00078,-0.0018l-0.0168,-0.03012c-0.06946,-0.06797 -0.15767,-0.20243 -0.24099,-0.261c-0.01003,-0.01326 -0.01996,-0.0266 -0.02982,-0.04c-0.0573,-0.09517 -0.12274,-0.2023 -0.19427,-0.29004c-0.10061,-0.1656 -0.18937,-0.3392 -0.26512,-0.5196c-0.04864,-0.1478 -0.08699,-0.29914 -0.15469,-0.4402c-0.00033,-0.00114 -0.00065,-0.00228 -0.00098,-0.00342c-0.00086,-0.00541 -0.00167,-0.01083 -0.00244,-0.01623c0,0 -0.00114,-0.00796 -0.00634,-0.01511c-0.00566,-0.02053 -0.01117,-0.04113 -0.0165,-0.06178c0,-0.00024 0.00001,-0.00049 0.00001,-0.00073c0,0 0,-0.00831 -0.00435,-0.01624c-0.00355,-0.01399 -0.00702,-0.02801 -0.01042,-0.04206c-0.0038,-0.02797 -0.00718,-0.05559 -0.01018,-0.08258c-0.01278,-0.04488 -0.02489,-0.09015 -0.03608,-0.13572c-0.02382,-0.13061 -0.0412,-0.26345 -0.05182,-0.3982c-0.00033,-0.02937 -0.00044,-0.05875 -0.00044,-0.08812c0,0 0,-0.01096 -0.00659,-0.01971c-0.00118,-0.02298 -0.00217,-0.046 -0.00296,-0.06908c0,-0.21328 0,-0.42655 0,-0.63983c0,-0.20189 0,-0.40379 0,-0.60568c0,0 0,-0.01494 -0.01048,-0.02385l-0.00115,-0.15278c0.0003,-0.01522 0.00048,-0.03043 0.00052,-0.04563c0,0 0,-0.00293 -0.00091,-0.00697l-0.07288,-9.68919c0.00559,-0.26123 0.03645,-0.51602 0.0902,-0.76207c0.0285,-0.09134 0.05232,-0.18349 0.07033,-0.27411c0.04132,-0.13986 0.09015,-0.27643 0.14603,-0.40927c0.05936,-0.10266 0.11321,-0.20612 0.15015,-0.31657c0.6728,-1.26904 2.01639,-2.12358 3.5499,-2.10011h0.05828l10.80569,-0.0947c2.16962,-0.00205 3.93363,1.74841 3.94832,3.91798v0.05949l0.08257,11.07765c-0.03594,1.32109 -0.71768,2.47359 -1.73553,3.16215c-0.3452,0.12861 -1.07959,0.37349 -1.29485,0.51355c-0.01646,0.01071 -0.03507,0.02742 -0.0553,0.04903c-0.02006,0.01011 -0.03979,0.02075 -0.05918,0.03193c-0.28292,0.0582 -0.57665,0.08602 -0.87753,0.07998h-0.05828z" fill="none" stroke="#000000" stroke-width="2.5" stroke-linecap="butt"/><path d="M43.83631,29.93414c0.00108,0.00038 0.00217,0.00077 0.00326,0.00116c-0.00032,0.00036 -0.00062,0.00073 -0.00093,0.00111c-0.00076,-0.00076 -0.00154,-0.00151 -0.00233,-0.00227z" fill="#ffffff" stroke="none" stroke-width="0" stroke-linecap="butt"/><path d="M45.13169,25.74711l11.37212,-0.05644" fill="none" stroke="#000000" stroke-width="3" stroke-linecap="round"/><path d="M44.95531,25.43881l5.3439,-11.20862" fill="none" stroke="#000000" stroke-width="3" stroke-linecap="round"/><path d="M41.31103,14.49112c7.45378,1.25361 13.20091,7.53609 13.63235,15.23835" fill="none" stroke="#000000" stroke-width="2.5" stroke-linecap="butt"/></g><path d="M170.00838,212.92543c-0.06344,7.74537 -6.20542,14.15177 -14.02741,14.4599c-0.1304,0.00513 -0.26046,0.00855 -0.39017,0.01026l-130.17763,-0.07331c-7.7404,0.2849 -14.41649,-5.5628 -15.07602,-13.36302c-0.011,-0.13003 -0.02025,-0.25981 -0.02778,-0.38931l-0.11651,-2.44291c0.06706,-7.74535 6.21203,-14.14887 14.03416,-14.45334c0.13039,-0.00508 0.26046,-0.00843 0.39017,-0.01007l130.17759,0.1341c7.74052,-0.28128 14.41388,5.56954 15.06977,13.37007c0.01094,0.13003 0.02013,0.25982 0.0276,0.38932z" fill-opacity="0.89804" fill="#e1eaf7" stroke-opacity="0.89804" stroke="#e1eaf7" stroke-width="1.5" stroke-linecap="butt"/><path d="M9.37037,212.64106v-25.09758h161.47119v25.09758z" fill-opacity="0.89804" fill="#e1eaf7" stroke="none" stroke-width="0" stroke-linecap="butt"/><g fill="none" stroke="#000000" stroke-linecap="butt"><path d="M32.64172,205.93904c0.01808,-0.00029 0.03618,-0.00039 0.05433,-0.00032c1.47676,0.00642 2.66882,1.2292 2.66253,2.73117c-0.00005,0.0119 -0.00017,0.02378 -0.00038,0.03565l0.02179,5.09943c0,0.01838 -0.0002,0.03679 -0.00055,0.05524c-0.02964,1.50169 -1.2506,2.69461 -2.7271,2.66445c-0.0117,-0.00024 -0.02337,-0.00055 -0.03504,-0.00094l-5.23265,0.00086c-0.01808,0.00007 -0.03618,-0.00004 -0.05433,-0.00034c-1.47659,-0.02419 -2.65434,-1.26122 -2.63057,-2.76303c0.0002,-0.01189 0.00045,-0.02377 0.00079,-0.03564l0.03756,-5.09935c0.00022,-0.01838 0.00061,-0.03679 0.0012,-0.05524c0.0471,-1.50123 1.28187,-2.67937 2.75791,-2.63145c0.0117,0.00038 0.02337,0.00084 0.03503,0.00137z" stroke-width="1.5"/><path d="M28.64984,208.09107c0.00387,-0.00006 0.00776,-0.00009 0.01164,-0.00006c0.31655,0.00138 0.57207,0.26348 0.57072,0.58544c-0.00001,0.00254 -0.00004,0.0051 -0.00009,0.00764l0.00467,1.09307c0,0.00394 -0.00004,0.0079 -0.00011,0.01184c-0.00636,0.32189 -0.26808,0.57759 -0.58455,0.57114c-0.00251,-0.00005 -0.00501,-0.00011 -0.00752,-0.00021l-1.12164,0.00018c-0.00387,0.00001 -0.00776,-0.00001 -0.01164,-0.00007c-0.3165,-0.00519 -0.56895,-0.27034 -0.56386,-0.59226c0.00004,-0.00254 0.0001,-0.0051 0.00016,-0.00764l0.00804,-1.09305c0.00004,-0.00394 0.00013,-0.0079 0.00026,-0.01183c0.0101,-0.3218 0.27478,-0.57432 0.59116,-0.56405c0.00251,0.00009 0.00501,0.00017 0.00752,0.00029z" stroke-width="1"/><path d="M32.56664,208.09826c0.00387,-0.00006 0.00776,-0.00009 0.01164,-0.00006c0.31654,0.00138 0.57207,0.26348 0.57072,0.58544c-0.00001,0.00254 -0.00004,0.0051 -0.00009,0.00764l0.00467,1.09307c0,0.00395 -0.00004,0.0079 -0.00012,0.01184c-0.00636,0.32189 -0.26807,0.57758 -0.58455,0.57114c-0.00251,-0.00005 -0.00501,-0.00011 -0.00752,-0.0002l-1.12162,0.00018c-0.00387,0.00001 -0.00776,-0.00001 -0.01164,-0.00007c-0.31652,-0.00519 -0.56896,-0.27034 -0.56387,-0.59226c0.00004,-0.00254 0.0001,-0.0051 0.00016,-0.00764l0.00804,-1.09305c0.00005,-0.00395 0.00012,-0.0079 0.00024,-0.01184c0.0101,-0.3218 0.27478,-0.57432 0.59116,-0.56405c0.00251,0.00009 0.00501,0.00018 0.00752,0.00029z" stroke-width="1"/><path d="M28.61665,211.96735c0.00387,-0.00006 0.00776,-0.00009 0.01164,-0.00006c0.31654,0.00138 0.57207,0.26348 0.57072,0.58544c-0.00001,0.00254 -0.00004,0.0051 -0.00009,0.00764l0.00467,1.09307c0,0.00395 -0.00004,0.0079 -0.00012,0.01184c-0.00636,0.32189 -0.26807,0.57758 -0.58455,0.57114c-0.00251,-0.00005 -0.00501,-0.00011 -0.00752,-0.0002l-1.12162,0.00018c-0.00387,0.00001 -0.00776,-0.00001 -0.01164,-0.00007c-0.31652,-0.00518 -0.56895,-0.27034 -0.56386,-0.59226c0.00004,-0.00254 0.0001,-0.0051 0.00016,-0.00764l0.00804,-1.09305c0.00005,-0.00395 0.00012,-0.0079 0.00024,-0.01183c0.0101,-0.3218 0.27478,-0.57432 0.59116,-0.56405c0.00251,0.00009 0.00501,0.00018 0.00752,0.00029z" stroke-width="1"/><path d="M32.581,212.02216c0.00387,-0.00006 0.00776,-0.00009 0.01164,-0.00006c0.31654,0.00138 0.57207,0.26348 0.57072,0.58544c-0.00001,0.00254 -0.00004,0.0051 -0.00009,0.00764l0.00467,1.09307c0,0.00395 -0.00004,0.0079 -0.00011,0.01183c-0.00636,0.32189 -0.26807,0.57758 -0.58455,0.57114c-0.00251,-0.00005 -0.00501,-0.00011 -0.00752,-0.0002l-1.12164,0.00018c-0.00387,0.00001 -0.00776,-0.00001 -0.01164,-0.00007c-0.31652,-0.00519 -0.56895,-0.27034 -0.56386,-0.59226c0.00004,-0.00254 0.0001,-0.0051 0.00016,-0.00764l0.00804,-1.09305c0.00005,-0.00395 0.00013,-0.0079 0.00026,-0.01184c0.0101,-0.3218 0.27478,-0.57432 0.59116,-0.56405c0.00251,0.00009 0.00501,0.00018 0.00752,0.00029z" stroke-width="1"/></g><path d="M27.59818,195.45395c-0.3,0 -0.5,-0.1 -0.7,-0.2c-0.2,-0.1 -0.4,-0.2 -0.6,-0.4c-0.2,-0.2 -0.3,-0.4 -0.4,-0.6c-0.1,-0.2 -0.1,-0.5 -0.1,-0.7v-3.6l-0.9,0.9c-0.1,0.1 -0.2,0.1 -0.3,0.1c-0.1,0 -0.2,0 -0.3,-0.1c-0.1,-0.1 -0.1,-0.2 -0.1,-0.3c0,-0.1 0,-0.2 0.1,-0.3l1.5,-1.5c0.1,-0.1 0.2,-0.1 0.3,-0.1h2.9c-0.3,0.3 -0.6,0.6 -1,0.8h-1.6v4.1c0,0.2 0,0.3 0.1,0.4c0.1,0.1 0.1,0.3 0.2,0.4c0.1,0.1 0.2,0.2 0.4,0.2c0.2,0 0.3,0.1 0.4,0.1h5.2c0.2,0 0.3,0 0.4,-0.1c0.1,-0.1 0.3,-0.1 0.4,-0.2c0.1,-0.1 0.2,-0.2 0.2,-0.4c0,-0.2 0.1,-0.3 0.1,-0.4v-4.1h-2.5c0.1,-0.1 0.1,-0.2 0.2,-0.4c0.1,-0.2 0.1,-0.3 0.1,-0.4h2.8c0.1,0 0.2,0 0.3,0.1l1.5,1.5c0.1,0.1 0.1,0.2 0.1,0.3c0,0.1 0,0.2 -0.1,0.3c-0.1,0.1 -0.2,0.1 -0.3,0.1c-0.1,0 -0.2,0 -0.3,-0.1l-0.9,-0.9v3.6c0,0.2 0,0.5 -0.1,0.7c-0.1,0.2 -0.2,0.4 -0.4,0.6c-0.2,0.2 -0.4,0.3 -0.6,0.4c-0.2,0.1 -0.5,0.1 -0.7,0.1h-5.3zM24.39819,185.35397c0,-0.1 0,-0.1 0.1,-0.2c0.1,-0.1 0.1,-0.1 0.2,-0.1c0.1,0 0.1,0 0.2,0c0.1,0 0.1,-0.1 0.1,-0.1c0.1,-0.1 0.1,-0.1 0.1,-0.2c0,-0.1 0,-0.1 0.1,-0.2c0.1,-0.1 0,-0.1 0.1,-0.1c0.1,0 0.1,-0.1 0.2,-0.1c0.1,0 0.1,0 0.2,0.1c0.1,0.1 0.1,0.1 0.1,0.2c0,0.1 0,0.1 0,0.2c0,0.1 0.1,0.1 0.1,0.1c0.1,0.1 0.1,0.1 0.2,0.1c0.1,0 0.1,0 0.2,0.1c0.1,0.1 0.1,0 0.1,0.1c0,0.1 0.1,0.1 0.1,0.2c0,0.1 0,0.1 -0.1,0.2c-0.1,0.1 -0.1,0.1 -0.2,0.1c-0.1,0 -0.1,0 -0.2,0c-0.1,0 -0.1,0.1 -0.1,0.1c-0.1,0.1 -0.1,0.1 -0.1,0.2c0,0.1 0,0.1 -0.1,0.2c-0.1,0.1 0,0.1 -0.1,0.1c-0.1,0 -0.1,0.1 -0.2,0.1c-0.1,0 -0.1,0 -0.2,-0.1c-0.1,-0.1 -0.1,-0.1 -0.1,-0.2c0,-0.1 0,-0.1 0,-0.2c0,-0.1 -0.1,-0.1 -0.1,-0.2c0,-0.1 -0.1,-0.1 -0.2,-0.1c-0.1,0 -0.1,0 -0.2,0c-0.1,0 -0.1,0 -0.2,-0.1c-0.1,-0.1 0,-0.2 0,-0.2zM27.99819,190.55395c0,-0.1 0,-0.2 0.1,-0.2c0.1,0 0.1,-0.1 0.2,-0.1c0.3,-0.1 0.5,-0.3 0.8,-0.4c0.3,-0.1 0.5,-0.4 0.7,-0.6c0.2,-0.2 0.3,-0.5 0.4,-0.7c0.1,-0.2 0.2,-0.6 0.2,-0.9c0,-0.2 0,-0.4 -0.1,-0.6c-0.1,-0.2 -0.1,-0.4 -0.2,-0.6c-0.1,-0.2 -0.2,-0.3 -0.4,-0.5c-0.2,-0.2 -0.4,-0.2 -0.6,-0.2c-0.1,0 -0.3,0 -0.4,0c-0.1,0 -0.2,0.1 -0.3,0.1c-0.1,0 -0.2,0.2 -0.2,0.3c0,0.1 -0.1,0.2 -0.1,0.4c0,0.1 0,0.1 0,0.2c0,0.1 0.1,0.1 0.1,0.2c0,0.1 0.1,0.1 0.2,0.2c0.1,0.1 0.1,0.1 0.2,0.1c0.1,0 0.2,0 0.3,-0.1c0.1,-0.1 0.1,-0.1 0.2,-0.1c0.1,0 0.1,-0.1 0.1,-0.1c0,0 0.1,-0.1 0.2,-0.1c0.1,0 0.2,0 0.3,0.1c0.1,0.1 0.1,0.2 0.1,0.3v0.1c0,0 0,0.1 -0.1,0.1c-0.1,0.2 -0.3,0.3 -0.5,0.4c-0.2,0.1 -0.4,0.1 -0.6,0.1c-0.2,0 -0.3,0 -0.5,-0.1c-0.2,-0.1 -0.3,-0.2 -0.4,-0.3c-0.1,-0.1 -0.2,-0.3 -0.3,-0.4c-0.1,-0.1 -0.1,-0.3 -0.1,-0.5c0,-0.3 0,-0.5 0.1,-0.7c0.1,-0.2 0.2,-0.4 0.4,-0.5c0.2,-0.1 0.3,-0.2 0.6,-0.3c0.3,-0.1 0.5,-0.1 0.7,-0.1c0.2,0 0.4,0 0.6,0.1c0.2,0.1 0.4,0.2 0.5,0.3c0.1,0.1 0.3,0.3 0.4,0.4c0.1,0.1 0.2,0.3 0.3,0.5c0.1,0.2 0.1,0.4 0.1,0.6c0,0.2 0,0.4 0,0.6c0,0.3 0,0.6 -0.1,0.9c-0.1,0.3 -0.2,0.6 -0.4,0.8c-0.1,0.2 -0.3,0.4 -0.5,0.6c-0.2,0.2 -0.4,0.3 -0.6,0.5c0,0 -0.1,0.1 -0.2,0.1c-0.1,0 -0.2,0.1 -0.3,0.2c-0.1,0.1 -0.2,0.1 -0.3,0.2c-0.1,0.1 -0.2,0.1 -0.2,0.1c-0.1,0 -0.2,0 -0.3,-0.1c-0.1,-0.1 -0.1,-0.2 -0.1,-0.3zM30.99819,185.35397c0,-0.1 0,-0.2 0.1,-0.3c0.1,-0.1 0.1,-0.1 0.2,-0.2c0.1,-0.1 0.2,-0.1 0.2,-0.1c0,0 0.2,-0.1 0.3,-0.1c0.1,0 0.2,-0.1 0.3,-0.2c0.1,-0.1 0.2,-0.2 0.2,-0.4l0.1,-0.3c0,-0.1 0.1,-0.2 0.2,-0.2c0.1,0 0.2,-0.1 0.3,-0.1c0.1,0 0.2,0 0.3,0.1c0.1,0.1 0.2,0.1 0.2,0.2l0.1,0.3c0.1,0.1 0.1,0.3 0.2,0.3c0.1,0 0.2,0.2 0.3,0.2c0.1,0 0.2,0.1 0.3,0.1c0.1,0 0.2,0.1 0.3,0.1c0.1,0 0.1,0.1 0.2,0.2c0.1,0.1 0.1,0.2 0.1,0.3c0,0.1 0,0.2 -0.1,0.3c-0.1,0.1 -0.1,0.2 -0.2,0.2l-0.3,0.1c-0.1,0.1 -0.3,0.1 -0.3,0.2c0,0.1 -0.2,0.2 -0.2,0.3c0,0.1 -0.1,0.2 -0.1,0.3c0,0.1 -0.1,0.2 -0.1,0.2c0,0 -0.1,0.1 -0.2,0.2c-0.1,0.1 -0.2,0.1 -0.3,0.1c-0.1,0 -0.2,0 -0.3,-0.1c-0.1,-0.1 -0.2,-0.1 -0.2,-0.2c0,-0.1 -0.1,-0.2 -0.1,-0.3c0,-0.1 -0.1,-0.2 -0.1,-0.3c0,-0.1 -0.1,-0.1 -0.2,-0.2c-0.1,-0.1 -0.2,-0.1 -0.3,-0.2c-0.1,0 -0.1,-0.1 -0.2,-0.1c-0.1,0 -0.1,-0.1 -0.2,-0.1c-0.1,0 -0.1,-0.1 -0.1,-0.2c0,-0.1 -0.4,0 -0.4,-0.1zM33.69812,185.35397c-0.2,-0.1 -0.3,-0.2 -0.5,-0.3c-0.2,-0.1 -0.2,-0.3 -0.3,-0.5c-0.2,0.3 -0.4,0.6 -0.8,0.8c0.2,0.1 0.3,0.2 0.5,0.3c0.2,0.1 0.2,0.3 0.3,0.5c0.1,-0.2 0.2,-0.3 0.3,-0.5c0.1,-0.2 0.3,-0.3 0.5,-0.3zM34.09818,187.55395c0,-0.1 0,-0.1 0.1,-0.2c0.1,-0.1 0.1,-0.1 0.2,-0.1c0.1,0 0.1,0 0.2,0c0.1,0 0.1,-0.1 0.1,-0.1c0.1,-0.1 0.1,-0.1 0.1,-0.2c0,-0.1 0,-0.1 0.1,-0.2c0.1,-0.1 0,-0.1 0.1,-0.1c0.1,0 0.1,-0.1 0.2,-0.1c0.1,0 0.1,0 0.2,0.1c0.1,0.1 0.1,0.1 0.1,0.2c0,0.1 0,0.1 0,0.2c0,0.1 0.1,0.1 0.1,0.1c0.1,0.1 0.1,0.1 0.2,0.1c0.1,0 0.1,0 0.2,0.1c0.1,0.1 0.1,0 0.1,0.1c0,0.1 0.1,0.1 0.1,0.2c0,0.1 0,0.1 -0.1,0.2c-0.1,0.1 -0.1,0.1 -0.2,0.1c-0.1,0 -0.1,0 -0.2,0c-0.1,0 -0.1,0.1 -0.1,0.1c-0.1,0.1 -0.1,0.1 -0.1,0.2c0,0.1 0,0.1 -0.1,0.2c-0.1,0.1 0,0.1 -0.1,0.1c-0.1,0 -0.1,0.1 -0.2,0.1c-0.1,0 -0.1,0 -0.2,-0.1c-0.1,-0.1 -0.1,-0.1 -0.1,-0.2c0,-0.1 0,-0.1 0,-0.2c0,-0.1 -0.1,-0.1 -0.1,-0.2c0,-0.1 -0.1,-0.1 -0.2,-0.1c-0.1,0 -0.1,0 -0.2,0c-0.1,0 -0.1,0 -0.2,-0.1c-0.1,-0.1 0,-0.1 0,-0.2z" fill="#231815" stroke="#000000" stroke-width="0.5" stroke-linecap="butt"/><text transform="translate(42.81169,74.70288) scale(0.30221,0.30221)" font-size="40" xml:space="preserve" fill="#000000" stroke="none" stroke-width="1" stroke-linecap="butt" font-family="Sans Serif" font-weight="normal" text-anchor="start"><tspan x="0" dy="0">绘图</tspan></text><text transform="translate(42.62191,99.56685) scale(0.30221,0.30221)" font-size="40" xml:space="preserve" fill="#000000" stroke="none" stroke-width="1" stroke-linecap="butt" font-family="Sans Serif" font-weight="normal" text-anchor="start"><tspan x="0" dy="0">设置</tspan></text><text transform="translate(43.14185,125.14048) scale(0.30221,0.30221)" font-size="40" xml:space="preserve" fill="#000000" stroke="none" stroke-width="1" stroke-linecap="butt" font-family="Sans Serif" font-weight="normal" text-anchor="start"><tspan x="0" dy="0">文件</tspan></text><text transform="translate(42.42785,193.87357) scale(0.30221,0.30221)" font-size="40" xml:space="preserve" fill="#000000" stroke="none" stroke-width="1" stroke-linecap="butt" font-family="Sans Serif" font-weight="normal" text-anchor="start"><tspan x="0" dy="0">灵感市集</tspan></text><text transform="translate(42.15338,215.13649) scale(0.30221,0.30221)" font-size="40" xml:space="preserve" fill="#000000" stroke="none" stroke-width="1" stroke-linecap="butt" font-family="Sans Serif" font-weight="normal" text-anchor="start"><tspan x="0" dy="0">关于</tspan></text><text transform="translate(68.70938,24.70056) scale(0.36373,0.36373)" font-size="40" xml:space="preserve" fill="#000000" stroke="none" stroke-width="1" stroke-linecap="butt" font-family="Sans Serif" font-weight="normal" text-anchor="start"><tspan x="0" dy="0">Arch</tspan></text><path d="M295.69471,101.45863c-0.03469,5.2517 -4.19227,9.60204 -9.49551,9.81938c-0.08841,0.00362 -0.17658,0.00608 -0.26453,0.00738l-88.26493,0.09024c-5.24795,0.20149 -9.78084,-3.75627 -10.23641,-9.04438c-0.0076,-0.08815 -0.01401,-0.17614 -0.01926,-0.26393l0.25199,-44.1671c0.03714,-5.25168 4.19676,-9.60009 9.5001,-9.81494c0.0884,-0.00358 0.17659,-0.00599 0.26454,-0.00725l88.26497,-0.04902c5.24803,-0.19904 9.77909,3.76083 10.23219,9.04915c0.00756,0.08815 0.01393,0.17614 0.01913,0.26394z" fill="url(#color-1)" stroke="none" stroke-width="0" stroke-linecap="butt"/><text transform="translate(211.12032,25.18507) scale(0.32076,0.32076)" font-size="40" xml:space="preserve" fill="#000000" stroke="none" stroke-width="1" stroke-linecap="butt" font-family="Sans Serif" font-weight="normal" text-anchor="start"><tspan x="0" dy="0">灵感市集</tspan></text><path d="M192.06918,27.54056c-0.40205,0 -0.67009,-0.13402 -0.93813,-0.26804c-0.26804,-0.13402 -0.53607,-0.26804 -0.80411,-0.53607c-0.26804,-0.26804 -0.40205,-0.53607 -0.53607,-0.80411c-0.13402,-0.26804 -0.13402,-0.67009 -0.13402,-0.93813v-4.82465l-1.20616,1.20616c-0.13402,0.13402 -0.26804,0.13402 -0.40205,0.13402c-0.13402,0 -0.26804,0 -0.40205,-0.13402c-0.13402,-0.13402 -0.13402,-0.26804 -0.13402,-0.40205c0,-0.13402 0,-0.26804 0.13402,-0.40205l2.01027,-2.01027c0.13402,-0.13402 0.26804,-0.13402 0.40205,-0.13402h3.88652c-0.40205,0.40205 -0.80411,0.80411 -1.34018,1.07214h-2.14429v5.49474c0,0.26804 0,0.40205 0.13402,0.53607c0.13402,0.13402 0.13402,0.40205 0.26804,0.53607c0.13402,0.13402 0.26804,0.26804 0.53607,0.26804c0.26804,0 0.40205,0.13402 0.53607,0.13402h6.96893c0.26804,0 0.40205,0 0.53607,-0.13402c0.13402,-0.13402 0.40205,-0.13402 0.53607,-0.26804c0.13402,-0.13402 0.26804,-0.26804 0.26804,-0.53607c0,-0.26804 0.13402,-0.40205 0.13402,-0.53607v-5.49474h-3.35045c0.13402,-0.13402 0.13402,-0.26804 0.26804,-0.53607c0.13402,-0.26804 0.13402,-0.40205 0.13402,-0.53607h3.7525c0.13402,0 0.26804,0 0.40205,0.13402l2.01027,2.01027c0.13402,0.13402 0.13402,0.26804 0.13402,0.40205c0,0.13402 0,0.26804 -0.13402,0.40205c-0.13402,0.13402 -0.26804,0.13402 -0.40205,0.13402c-0.13402,0 -0.26804,0 -0.40205,-0.13402l-1.20616,-1.20616v4.82465c0,0.26804 0,0.67009 -0.13402,0.93813c-0.13402,0.26804 -0.26804,0.53607 -0.53607,0.80411c-0.26804,0.26804 -0.53607,0.40205 -0.80411,0.53607c-0.26804,0.13402 -0.67009,0.13402 -0.93813,0.13402h-7.10295zM187.78058,14.00473c0,-0.13402 0,-0.13402 0.13402,-0.26804c0.13402,-0.13402 0.13402,-0.13402 0.26804,-0.13402c0.13402,0 0.13402,0 0.26804,0c0.13402,0 0.13402,-0.13402 0.13402,-0.13402c0.13402,-0.13402 0.13402,-0.13402 0.13402,-0.26804c0,-0.13402 0,-0.13402 0.13402,-0.26804c0.13402,-0.13402 0,-0.13402 0.13402,-0.13402c0.13402,0 0.13402,-0.13402 0.26804,-0.13402c0.13402,0 0.13402,0 0.26804,0.13402c0.13402,0.13402 0.13402,0.13402 0.13402,0.26804c0,0.13402 0,0.13402 0,0.26804c0,0.13402 0.13402,0.13402 0.13402,0.13402c0.13402,0.13402 0.13402,0.13402 0.26804,0.13402c0.13402,0 0.13402,0 0.26804,0.13402c0.13402,0.13402 0.13402,0 0.13402,0.13402c0,0.13402 0.13402,0.13402 0.13402,0.26804c0,0.13402 0,0.13402 -0.13402,0.26804c-0.13402,0.13402 -0.13402,0.13402 -0.26804,0.13402c-0.13402,0 -0.13402,0 -0.26804,0c-0.13402,0 -0.13402,0.13402 -0.13402,0.13402c-0.13402,0.13402 -0.13402,0.13402 -0.13402,0.26804c0,0.13402 0,0.13402 -0.13402,0.26804c-0.13402,0.13402 0,0.13402 -0.13402,0.13402c-0.13402,0 -0.13402,0.13402 -0.26804,0.13402c-0.13402,0 -0.13402,0 -0.26804,-0.13402c-0.13402,-0.13402 -0.13402,-0.13402 -0.13402,-0.26804c0,-0.13402 0,-0.13402 0,-0.26804c0,-0.13402 -0.13402,-0.13402 -0.13402,-0.26804c0,-0.13402 -0.13402,-0.13402 -0.26804,-0.13402c-0.13402,0 -0.13402,0 -0.26804,0c-0.13402,0 -0.13402,0 -0.26804,-0.13402c-0.13402,-0.13402 0,-0.26804 0,-0.26804zM192.60526,20.97369c0,-0.13402 0,-0.26804 0.13402,-0.26804c0.13402,0 0.13402,-0.13402 0.26804,-0.13402c0.40205,-0.13402 0.67009,-0.40205 1.07214,-0.53607c0.40205,-0.13402 0.67009,-0.53607 0.93813,-0.80411c0.26804,-0.26804 0.40205,-0.67009 0.53607,-0.93813c0.13402,-0.26804 0.26804,-0.80411 0.26804,-1.20616c0,-0.26804 0,-0.53607 -0.13402,-0.80411c-0.13402,-0.26804 -0.13402,-0.53607 -0.26804,-0.80411c-0.13402,-0.26804 -0.26804,-0.40205 -0.53607,-0.67009c-0.26804,-0.26804 -0.53607,-0.26804 -0.80411,-0.26804c-0.13402,0 -0.40205,0 -0.53607,0c-0.13402,0 -0.26804,0.13402 -0.40205,0.13402c-0.13402,0 -0.26804,0.26804 -0.26804,0.40205c0,0.13402 -0.13402,0.26804 -0.13402,0.53607c0,0.13402 0,0.13402 0,0.26804c0,0.13402 0.13402,0.13402 0.13402,0.26804c0,0.13402 0.13402,0.13402 0.26804,0.26804c0.13402,0.13402 0.13402,0.13402 0.26804,0.13402c0.13402,0 0.26804,0 0.40205,-0.13402c0.13402,-0.13402 0.13402,-0.13402 0.26804,-0.13402c0.13402,0 0.13402,-0.13402 0.13402,-0.13402c0,0 0.13402,-0.13402 0.26804,-0.13402c0.13402,0 0.26804,0 0.40205,0.13402c0.13402,0.13402 0.13402,0.26804 0.13402,0.40205v0.13402c0,0 0,0.13402 -0.13402,0.13402c-0.13402,0.26804 -0.40205,0.40205 -0.67009,0.53607c-0.26804,0.13402 -0.53607,0.13402 -0.80411,0.13402c-0.26804,0 -0.40205,0 -0.67009,-0.13402c-0.26804,-0.13402 -0.40205,-0.26804 -0.53607,-0.40205c-0.13402,-0.13402 -0.26804,-0.40205 -0.40205,-0.53607c-0.13402,-0.13402 -0.13402,-0.40205 -0.13402,-0.67009c0,-0.40205 0,-0.67009 0.13402,-0.93813c0.13402,-0.26804 0.26804,-0.53607 0.53607,-0.67009c0.26804,-0.13402 0.40205,-0.26804 0.80411,-0.40205c0.40205,-0.13402 0.67009,-0.13402 0.93813,-0.13402c0.26804,0 0.53607,0 0.80411,0.13402c0.26804,0.13402 0.53607,0.26804 0.67009,0.40205c0.13402,0.13402 0.40205,0.40205 0.53607,0.53607c0.13402,0.13402 0.26804,0.40205 0.40205,0.67009c0.13402,0.26804 0.13402,0.53607 0.13402,0.80411c0,0.26804 0,0.53607 0,0.80411c0,0.40205 0,0.80411 -0.13402,1.20616c-0.13402,0.40205 -0.26804,0.80411 -0.53607,1.07214c-0.13402,0.26804 -0.40205,0.53607 -0.67009,0.80411c-0.26804,0.26804 -0.53607,0.40205 -0.80411,0.67009c0,0 -0.13402,0.13402 -0.26804,0.13402c-0.13402,0 -0.26804,0.13402 -0.40205,0.26804c-0.13402,0.13402 -0.26804,0.13402 -0.40205,0.26804c-0.13402,0.13402 -0.26804,0.13402 -0.26804,0.13402c-0.13402,0 -0.26804,0 -0.40205,-0.13402c-0.13402,-0.13402 -0.13402,-0.26804 -0.13402,-0.40205zM196.62577,14.00473c0,-0.13402 0,-0.26804 0.13402,-0.40205c0.13402,-0.13402 0.13402,-0.13402 0.26804,-0.26804c0.13402,-0.13402 0.26804,-0.13402 0.26804,-0.13402c0,0 0.26804,-0.13402 0.40205,-0.13402c0.13402,0 0.26804,-0.13402 0.40205,-0.26804c0.13402,-0.13402 0.26804,-0.26804 0.26804,-0.53607l0.13402,-0.40205c0,-0.13402 0.13402,-0.26804 0.26804,-0.26804c0.13402,0 0.26804,-0.13402 0.40205,-0.13402c0.13402,0 0.26804,0 0.40205,0.13402c0.13402,0.13402 0.26804,0.13402 0.26804,0.26804l0.13402,0.40205c0.13402,0.13402 0.13402,0.40205 0.26804,0.40205c0.13402,0 0.26804,0.26804 0.40205,0.26804c0.13402,0 0.26804,0.13402 0.40205,0.13402c0.13402,0 0.26804,0.13402 0.40205,0.13402c0.13402,0 0.13402,0.13402 0.26804,0.26804c0.13402,0.13402 0.13402,0.26804 0.13402,0.40205c0,0.13402 0,0.26804 -0.13402,0.40205c-0.13402,0.13402 -0.13402,0.26804 -0.26804,0.26804l-0.40205,0.13402c-0.13402,0.13402 -0.40205,0.13402 -0.40205,0.26804c0,0.13402 -0.26804,0.26804 -0.26804,0.40205c0,0.13402 -0.13402,0.26804 -0.13402,0.40205c0,0.13402 -0.13402,0.26804 -0.13402,0.26804c0,0 -0.13402,0.13402 -0.26804,0.26804c-0.13402,0.13402 -0.26804,0.13402 -0.40205,0.13402c-0.13402,0 -0.26804,0 -0.40205,-0.13402c-0.13402,-0.13402 -0.26804,-0.13402 -0.26804,-0.26804c0,-0.13402 -0.13402,-0.26804 -0.13402,-0.40205c0,-0.13402 -0.13402,-0.26804 -0.13402,-0.40205c0,-0.13402 -0.13402,-0.13402 -0.26804,-0.26804c-0.13402,-0.13402 -0.26804,-0.13402 -0.40205,-0.26804c-0.13402,0 -0.13402,-0.13402 -0.26804,-0.13402c-0.13402,0 -0.13402,-0.13402 -0.26804,-0.13402c-0.13402,0 -0.13402,-0.13402 -0.13402,-0.26804c0,-0.13402 -0.53607,0 -0.53607,-0.13402zM200.24432,14.00473c-0.26804,-0.13402 -0.40205,-0.26804 -0.67009,-0.40205c-0.26804,-0.13402 -0.26804,-0.40205 -0.40205,-0.67009c-0.26804,0.40205 -0.53607,0.80411 -1.07214,1.07214c0.26804,0.13402 0.40205,0.26804 0.67009,0.40205c0.26804,0.13402 0.26804,0.40205 0.40205,0.67009c0.13402,-0.26804 0.26804,-0.40205 0.40205,-0.67009c0.13402,-0.26804 0.40205,-0.40205 0.67009,-0.40205zM200.78033,16.95315c0,-0.13402 0,-0.13402 0.13402,-0.26804c0.13402,-0.13402 0.13402,-0.13402 0.26804,-0.13402c0.13402,0 0.13402,0 0.26804,0c0.13402,0 0.13402,-0.13402 0.13402,-0.13402c0.13402,-0.13402 0.13402,-0.13402 0.13402,-0.26804c0,-0.13402 0,-0.13402 0.13402,-0.26804c0.13402,-0.13402 0,-0.13402 0.13402,-0.13402c0.13402,0 0.13402,-0.13402 0.26804,-0.13402c0.13402,0 0.13402,0 0.26804,0.13402c0.13402,0.13402 0.13402,0.13402 0.13402,0.26804c0,0.13402 0,0.13402 0,0.26804c0,0.13402 0.13402,0.13402 0.13402,0.13402c0.13402,0.13402 0.13402,0.13402 0.26804,0.13402c0.13402,0 0.13402,0 0.26804,0.13402c0.13402,0.13402 0.13402,0 0.13402,0.13402c0,0.13402 0.13402,0.13402 0.13402,0.26804c0,0.13402 0,0.13402 -0.13402,0.26804c-0.13402,0.13402 -0.13402,0.13402 -0.26804,0.13402c-0.13402,0 -0.13402,0 -0.26804,0c-0.13402,0 -0.13402,0.13402 -0.13402,0.13402c-0.13402,0.13402 -0.13402,0.13402 -0.13402,0.26804c0,0.13402 0,0.13402 -0.13402,0.26804c-0.13402,0.13402 0,0.13402 -0.13402,0.13402c-0.13402,0 -0.13402,0.13402 -0.26804,0.13402c-0.13402,0 -0.13402,0 -0.26804,-0.13402c-0.13402,-0.13402 -0.13402,-0.13402 -0.13402,-0.26804c0,-0.13402 0,-0.13402 0,-0.26804c0,-0.13402 -0.13402,-0.13402 -0.13402,-0.26804c0,-0.13402 -0.13402,-0.13402 -0.26804,-0.13402c-0.13402,0 -0.13402,0 -0.26804,0c-0.13402,0 -0.13402,0 -0.26804,-0.13402c-0.13402,-0.13402 0,-0.13402 0,-0.26804z" fill="#231815" stroke="#000000" stroke-width="0.5" stroke-linecap="butt"/><text transform="translate(198.44042,66.20221) scale(0.24336,0.24336)" font-size="40" xml:space="preserve" fill="#ffffff" stroke="none" stroke-width="1" stroke-linecap="butt" font-family="Sans Serif" font-weight="normal" text-anchor="start"><tspan x="0" dy="0">最大值和最小值</tspan></text><path d="M199.2342,76.0572c0,-1.53401 1.24356,-2.77757 2.77757,-2.77757c1.53401,0 2.77757,1.24356 2.77757,2.77757c0,1.53401 -1.24356,2.77757 -2.77757,2.77757c-1.53401,0 -2.77757,-1.24356 -2.77757,-2.77757z" fill="#ffdbc8" stroke="none" stroke-width="0" stroke-linecap="butt"/><text transform="translate(208.99557,77.61934) scale(0.11884,0.11884)" font-size="40" xml:space="preserve" fill="#ffffff" stroke="none" stroke-width="1" stroke-linecap="butt" font-family="Sans Serif" font-weight="normal" text-anchor="start"><tspan x="0" dy="0">两个自定义函数</tspan></text><path d="M281.76334,97.46896h-14.19964" fill="none" stroke="#b2e2ff" stroke-width="17.5" stroke-linecap="round"/><text transform="translate(269.17641,99.29044) scale(0.13831,0.13831)" font-size="40" xml:space="preserve" fill="#000000" stroke="none" stroke-width="1" stroke-linecap="butt" font-family="Sans Serif" font-weight="normal" text-anchor="start"><tspan x="0" dy="0">添加</tspan></text><path d="M418.893,101.55074c-0.03469,5.2517 -4.19227,9.60205 -9.49551,9.81938c-0.08841,0.00362 -0.17659,0.00608 -0.26453,0.00738l-88.26493,0.09024c-5.24795,0.20149 -9.78084,-3.75627 -10.23641,-9.04438c-0.0076,-0.08816 -0.01401,-0.17614 -0.01926,-0.26393l0.25199,-44.16709c0.03714,-5.25167 4.19676,-9.6001 9.5001,-9.81495c0.08841,-0.00358 0.17659,-0.00599 0.26454,-0.00725l88.26497,-0.04902c5.24804,-0.19904 9.77909,3.76084 10.23219,9.04915c0.00756,0.08816 0.01392,0.17614 0.01913,0.26394z" fill="url(#color-2)" stroke="none" stroke-width="0" stroke-linecap="butt"/><text transform="translate(321.63865,66.29431) scale(0.24336,0.24336)" font-size="40" xml:space="preserve" fill="#ffffff" stroke="none" stroke-width="1" stroke-linecap="butt" font-family="Sans Serif" font-weight="normal" text-anchor="start"><tspan x="0" dy="0">正态分布</tspan></text><path d="M322.43245,76.14929c0,-1.53401 1.24356,-2.77757 2.77757,-2.77757c1.53401,0 2.77757,1.24356 2.77757,2.77757c0,1.53401 -1.24356,2.77757 -2.77757,2.77757c-1.53401,0 -2.77757,-1.24356 -2.77757,-2.77757z" fill="#ffdbc8" stroke="none" stroke-width="0" stroke-linecap="butt"/><text transform="translate(332.1938,77.71146) scale(0.11884,0.11884)" font-size="40" xml:space="preserve" fill="#ffffff" stroke="none" stroke-width="1" stroke-linecap="butt" font-family="Sans Serif" font-weight="normal" text-anchor="start"><tspan x="0" dy="0">一个自定义函数</tspan></text><path d="M390.76196,97.56108h14.19964" fill="none" stroke="#b2e2ff" stroke-width="17.5" stroke-linecap="round"/><text transform="translate(392.37465,99.38255) scale(0.13832,0.13832)" font-size="40" xml:space="preserve" fill="#000000" stroke="none" stroke-width="1" stroke-linecap="butt" font-family="Sans Serif" font-weight="normal" text-anchor="start"><tspan x="0" dy="0">添加</tspan></text><path d="M295.95847,173.55588c-0.03469,5.2517 -4.19227,9.60204 -9.49552,9.81939c-0.08841,0.00362 -0.17658,0.00608 -0.26453,0.00737l-88.26493,0.09024c-5.24795,0.2015 -9.78084,-3.75627 -10.23641,-9.04438c-0.0076,-0.08815 -0.01401,-0.17614 -0.01926,-0.26393l0.25199,-44.1671c0.03714,-5.25167 4.19676,-9.60009 9.5001,-9.81494c0.0884,-0.00358 0.17659,-0.00598 0.26454,-0.00724l88.26497,-0.04902c5.24804,-0.19904 9.77909,3.76083 10.23219,9.04915c0.00756,0.08816 0.01393,0.17614 0.01913,0.26395z" fill="url(#color-3)" stroke="none" stroke-width="0" stroke-linecap="butt"/><text transform="translate(198.70411,138.29945) scale(0.24336,0.24336)" font-size="40" xml:space="preserve" fill="#ffffff" stroke="none" stroke-width="1" stroke-linecap="butt" font-family="Sans Serif" font-weight="normal" text-anchor="start"><tspan x="0" dy="0">T分布</tspan></text><path d="M199.4979,148.15444c0,-1.53401 1.24356,-2.77757 2.77757,-2.77757c1.53401,0 2.77757,1.24356 2.77757,2.77757c0,1.53401 -1.24356,2.77757 -2.77757,2.77757c-1.53401,0 -2.77757,-1.24356 -2.77757,-2.77757z" fill="#ffdbc8" stroke="none" stroke-width="0" stroke-linecap="butt"/><text transform="translate(209.25927,149.71659) scale(0.11884,0.11884)" font-size="40" xml:space="preserve" fill="#ffffff" stroke="none" stroke-width="1" stroke-linecap="butt" font-family="Sans Serif" font-weight="normal" text-anchor="start"><tspan x="0" dy="0">一个自定义函数</tspan></text><path d="M267.8274,169.56621h14.19964" fill="none" stroke="#b2e2ff" stroke-width="17.5" stroke-linecap="round"/><text transform="translate(269.44012,171.38768) scale(0.13832,0.13832)" font-size="40" xml:space="preserve" fill="#000000" stroke="none" stroke-width="1" stroke-linecap="butt" font-family="Sans Serif" font-weight="normal" text-anchor="start"><tspan x="0" dy="0">添加</tspan></text><path d="M419.1567,173.93236c-0.03469,5.2517 -4.19227,9.60205 -9.49551,9.81939c-0.08841,0.00362 -0.17659,0.00608 -0.26453,0.00737l-88.26493,0.09024c-5.24795,0.20149 -9.78084,-3.75627 -10.23641,-9.04438c-0.0076,-0.08816 -0.01401,-0.17614 -0.01926,-0.26393l0.25199,-44.16709c0.03714,-5.25168 4.19676,-9.6001 9.5001,-9.81495c0.08841,-0.00358 0.17659,-0.00598 0.26454,-0.00724l88.26497,-0.04903c5.24804,-0.19904 9.77909,3.76084 10.23219,9.04915c0.00756,0.08816 0.01392,0.17614 0.01913,0.26395z" fill="url(#color-4)" stroke="none" stroke-width="0" stroke-linecap="butt"/><text transform="translate(321.90237,138.39156) scale(0.24336,0.24336)" font-size="40" xml:space="preserve" fill="#ffffff" stroke="none" stroke-width="1" stroke-linecap="butt" font-family="Sans Serif" font-weight="normal" text-anchor="start"><tspan x="0" dy="0">卡方分布</tspan></text><path d="M322.69615,148.24656c0,-1.53401 1.24356,-2.77757 2.77757,-2.77757c1.53401,0 2.77757,1.24356 2.77757,2.77757c0,1.53401 -1.24356,2.77757 -2.77757,2.77757c-1.53401,0 -2.77757,-1.24356 -2.77757,-2.77757z" fill="#ffdbc8" stroke="none" stroke-width="0" stroke-linecap="butt"/><text transform="translate(332.4575,149.8087) scale(0.11884,0.11884)" font-size="40" xml:space="preserve" fill="#ffffff" stroke="none" stroke-width="1" stroke-linecap="butt" font-family="Sans Serif" font-weight="normal" text-anchor="start"><tspan x="0" dy="0">一个自定义函数</tspan></text><path d="M391.02566,169.65833h14.19964" fill="none" stroke="#b2e2ff" stroke-width="17.5" stroke-linecap="round"/><text transform="translate(392.63838,171.4798) scale(0.13832,0.13832)" font-size="40" xml:space="preserve" fill="#000000" stroke="none" stroke-width="1" stroke-linecap="butt" font-family="Sans Serif" font-weight="normal" text-anchor="start"><tspan x="0" dy="0">添加</tspan></text><path d="M295.62891,247.00226c-0.03469,5.2517 -4.19227,9.60204 -9.49552,9.81938c-0.08841,0.00362 -0.17659,0.00608 -0.26453,0.00738l-88.26493,0.09024c-5.24795,0.2015 -9.78084,-3.75627 -10.23641,-9.04438c-0.0076,-0.08816 -0.01401,-0.17614 -0.01926,-0.26393l0.25199,-44.16709c0.03714,-5.25168 4.19676,-9.6001 9.5001,-9.81495c0.0884,-0.00358 0.17659,-0.00598 0.26453,-0.00724l88.26497,-0.04903c5.24804,-0.19904 9.77909,3.76084 10.23219,9.04916c0.00756,0.08816 0.01392,0.17614 0.01913,0.26394z" fill="url(#color-5)" stroke="none" stroke-width="0" stroke-linecap="butt"/><text transform="translate(198.3746,211.74584) scale(0.24336,0.24336)" font-size="40" xml:space="preserve" fill="#ffffff" stroke="none" stroke-width="1" stroke-linecap="butt" font-family="Sans Serif" font-weight="normal" text-anchor="start"><tspan x="0" dy="0">贝塔分布</tspan></text><path d="M199.16839,221.60083c0,-1.53401 1.24356,-2.77757 2.77757,-2.77757c1.53401,0 2.77757,1.24356 2.77757,2.77757c0,1.53401 -1.24356,2.77757 -2.77757,2.77757c-1.53401,0 -2.77757,-1.24356 -2.77757,-2.77757z" fill="#ffdbc8" stroke="none" stroke-width="0" stroke-linecap="butt"/><text transform="translate(208.92976,223.16298) scale(0.11884,0.11884)" font-size="40" xml:space="preserve" fill="#ffffff" stroke="none" stroke-width="1" stroke-linecap="butt" font-family="Sans Serif" font-weight="normal" text-anchor="start"><tspan x="0" dy="0">一个自定义函数</tspan></text><path d="M267.49788,243.01259h14.19964" fill="none" stroke="#b2e2ff" stroke-width="17.5" stroke-linecap="round"/><text transform="translate(269.1106,244.83406) scale(0.13832,0.13832)" font-size="40" xml:space="preserve" fill="#000000" stroke="none" stroke-width="1" stroke-linecap="butt" font-family="Sans Serif" font-weight="normal" text-anchor="start"><tspan x="0" dy="0">添加</tspan></text><path d="M418.82717,247.09438c-0.03469,5.2517 -4.19227,9.60205 -9.49552,9.81939c-0.08841,0.00362 -0.17658,0.00608 -0.26453,0.00738l-88.26493,0.09024c-5.24795,0.2015 -9.78084,-3.75627 -10.23641,-9.04438c-0.0076,-0.08816 -0.01401,-0.17614 -0.01926,-0.26393l0.25199,-44.16709c0.03714,-5.25168 4.19676,-9.6001 9.5001,-9.81494c0.08841,-0.00358 0.17659,-0.00599 0.26453,-0.00725l88.26497,-0.04903c5.24804,-0.19904 9.77909,3.76083 10.23219,9.04915c0.00756,0.08816 0.01393,0.17614 0.01913,0.26395z" fill="url(#color-6)" stroke="none" stroke-width="0" stroke-linecap="butt"/><text transform="translate(321.57285,211.83795) scale(0.24336,0.24336)" font-size="40" xml:space="preserve" fill="#ffffff" stroke="none" stroke-width="1" stroke-linecap="butt" font-family="Sans Serif" font-weight="normal" text-anchor="start"><tspan x="0" dy="0">伽马分布</tspan></text><path d="M322.36663,221.69294c0,-1.53401 1.24356,-2.77757 2.77757,-2.77757c1.53401,0 2.77757,1.24356 2.77757,2.77757c0,1.53401 -1.24356,2.77757 -2.77757,2.77757c-1.53401,0 -2.77757,-1.24356 -2.77757,-2.77757z" fill="#ffdbc8" stroke="none" stroke-width="0" stroke-linecap="butt"/><text transform="translate(332.12798,223.2551) scale(0.11884,0.11884)" font-size="40" xml:space="preserve" fill="#ffffff" stroke="none" stroke-width="1" stroke-linecap="butt" font-family="Sans Serif" font-weight="normal" text-anchor="start"><tspan x="0" dy="0">一个自定义函数</tspan></text><path d="M390.69614,243.10471h14.19964" fill="none" stroke="#b2e2ff" stroke-width="17.5" stroke-linecap="round"/><text transform="translate(392.30885,244.92618) scale(0.13832,0.13832)" font-size="40" xml:space="preserve" fill="#000000" stroke="none" stroke-width="1" stroke-linecap="butt" font-family="Sans Serif" font-weight="normal" text-anchor="start"><tspan x="0" dy="0">添加</tspan></text><path d="M294.92265,319.25492c-0.03469,5.2517 -4.19227,9.60205 -9.49552,9.81939c-0.08841,0.00362 -0.17658,0.00608 -0.26453,0.00737l-88.26493,0.09024c-5.24795,0.20149 -9.78084,-3.75627 -10.23641,-9.04438c-0.0076,-0.08816 -0.01401,-0.17614 -0.01926,-0.26393l0.25199,-44.16709c0.03714,-5.25168 4.19676,-9.6001 9.5001,-9.81495c0.0884,-0.00358 0.17659,-0.00599 0.26454,-0.00725l88.26497,-0.04903c5.24803,-0.19904 9.77909,3.76084 10.23219,9.04916c0.00756,0.08815 0.01393,0.17614 0.01913,0.26394z" fill="url(#color-7)" stroke="none" stroke-width="0" stroke-linecap="butt"/><text transform="translate(197.66838,283.99848) scale(0.24336,0.24336)" font-size="40" xml:space="preserve" fill="#ffffff" stroke="none" stroke-width="1" stroke-linecap="butt" font-family="Sans Serif" font-weight="normal" text-anchor="start"><tspan x="0" dy="0">对数正态分布</tspan></text><path d="M198.46217,293.85348c0,-1.53401 1.24356,-2.77757 2.77757,-2.77757c1.53401,0 2.77757,1.24356 2.77757,2.77757c0,1.53401 -1.24356,2.77757 -2.77757,2.77757c-1.53401,0 -2.77757,-1.24356 -2.77757,-2.77757z" fill="#ffdbc8" stroke="none" stroke-width="0" stroke-linecap="butt"/><text transform="translate(208.22347,295.41564) scale(0.11884,0.11884)" font-size="40" xml:space="preserve" fill="#ffffff" stroke="none" stroke-width="1" stroke-linecap="butt" font-family="Sans Serif" font-weight="normal" text-anchor="start"><tspan x="0" dy="0">一个自定义函数</tspan></text><path d="M266.79164,315.26525h14.19964" fill="none" stroke="#b2e2ff" stroke-width="17.5" stroke-linecap="round"/><text transform="translate(268.40435,317.08673) scale(0.13832,0.13832)" font-size="40" xml:space="preserve" fill="#000000" stroke="none" stroke-width="1" stroke-linecap="butt" font-family="Sans Serif" font-weight="normal" text-anchor="start"><tspan x="0" dy="0">添加</tspan></text><path d="M18.46063,195.71112v-9.8761" fill="none" stroke="#0085ff" stroke-width="6" stroke-linecap="round"/></g></g></svg>