<svg version="1.1" xmlns="http://www.w3.org/2000/svg" xmlns:xlink="http://www.w3.org/1999/xlink" width="54.7411" height="22.91421" viewBox="0,0,54.7411,22.91421"><g transform="translate(-209.6965,-144.19261)"><g data-paper-data="{&quot;isPaintingLayer&quot;:true}" fill-rule="nonzero" stroke-linejoin="miter" stroke-miterlimit="10" stroke-dasharray="" stroke-dashoffset="0" style="mix-blend-mode: normal"><path d="M214.6965,149.22743v12.79306" fill="none" stroke="#d9d9d9" stroke-width="10" stroke-linecap="round"/><path d="M214.38823,167.10682v-22.91421h45.16758v22.91421z" fill="#d9d9d9" stroke="none" stroke-width="0" stroke-linecap="butt"/><path d="M259.4376,162.04011v-12.79306" fill="none" stroke="#d9d9d9" stroke-width="10" stroke-linecap="round"/><path d="M216.11569,150.45877v9.8761" fill="none" stroke="#808080" stroke-width="6" stroke-linecap="round"/><path d="M253.82186,151.85763c0,0.07591 -0.01687,0.12653 -0.04218,0.17713c-0.02531,0.05061 -0.06748,0.07591 -0.10965,0.09278c-0.04217,0.01687 -0.10122,0.03375 -0.15184,0.04218c-0.05061,0.00843 -0.10966,0.00843 -0.17713,0.00843c-0.03374,0 -0.06748,0 -0.10121,0c-0.03374,0 -0.05905,0 -0.09279,0l-0.8182,7.10235c-0.01687,0.16027 -0.06748,0.30366 -0.13496,0.43863c-0.06748,0.13496 -0.1687,0.25306 -0.27836,0.35428c-0.10965,0.10122 -0.24462,0.17713 -0.38801,0.23618c-0.14339,0.05904 -0.29523,0.08435 -0.4555,0.08435h-4.00667c-0.16027,0 -0.3121,-0.02531 -0.45549,-0.08435c-0.14339,-0.05904 -0.26992,-0.13496 -0.38802,-0.23618c-0.11809,-0.10122 -0.20243,-0.21931 -0.27836,-0.35428c-0.07592,-0.13496 -0.1181,-0.2868 -0.13496,-0.43863l-0.81821,-7.10235c-0.03374,0 -0.06748,0 -0.10122,0c-0.03374,0 -0.06748,0 -0.10122,0c-0.05904,0 -0.10965,0 -0.1687,-0.00843c-0.05904,-0.00843 -0.10965,-0.02531 -0.15184,-0.04218c-0.04217,-0.01687 -0.08436,-0.05904 -0.10966,-0.10121c-0.02531,-0.04217 -0.04218,-0.10122 -0.04218,-0.1687c0,-0.08435 0.03375,-0.16027 0.09279,-0.21931c0.05904,-0.05904 0.13495,-0.09279 0.21931,-0.09279h2.87637c0.03374,-0.17713 0.10122,-0.34584 0.19401,-0.50611c0.09279,-0.16027 0.21931,-0.28679 0.35428,-0.40488c0.13496,-0.1181 0.29523,-0.20244 0.46393,-0.26149c0.1687,-0.05904 0.34584,-0.09279 0.5314,-0.09279c0.18558,0 0.36271,0.03374 0.53141,0.09279c0.1687,0.05904 0.32896,0.15184 0.46392,0.26149c0.13496,0.10965 0.26149,0.24462 0.35428,0.40488c0.09279,0.16027 0.16027,0.32053 0.19401,0.50611h2.87637c0.08436,0 0.16027,0.03374 0.21931,0.09279c0.05904,0.05904 0.13496,0.13496 0.13496,0.21931zM252.51438,152.17819h-6.88304l0.80977,7.03487c0.01687,0.1687 0.08436,0.29523 0.20244,0.40488c0.11809,0.10965 0.26149,0.15183 0.42175,0.15183h4.00667c0.07592,0 0.15184,-0.01687 0.22775,-0.04217c0.07592,-0.02531 0.13496,-0.06748 0.19401,-0.1181c0.05904,-0.05061 0.10122,-0.10966 0.13496,-0.17713c0.03374,-0.06748 0.05904,-0.14339 0.06748,-0.21931zM247.80762,157.55131v-3.16316c0,-0.08435 0.03374,-0.16027 0.09279,-0.21931c0.05904,-0.05904 0.13496,-0.09279 0.21931,-0.09279c0.08436,0 0.16027,0.03374 0.21931,0.09279c0.05904,0.05904 0.09279,0.13496 0.09279,0.21931v3.16316c0,0.08435 -0.03374,0.16027 -0.09279,0.21931c-0.05904,0.05904 -0.13496,0.09279 -0.21931,0.09279c-0.08436,0 -0.16027,-0.03375 -0.21931,-0.09279c-0.05904,-0.05904 -0.09279,-0.13496 -0.09279,-0.21931zM248.17877,151.54556h1.78824c-0.03374,-0.09278 -0.07592,-0.18557 -0.13496,-0.26149c-0.05904,-0.07591 -0.12652,-0.14339 -0.21088,-0.20244c-0.08436,-0.05904 -0.1687,-0.10122 -0.25306,-0.12653c-0.08436,-0.02531 -0.18557,-0.04217 -0.29523,-0.04217c-0.10965,0 -0.20244,0.01687 -0.29523,0.04217c-0.09279,0.02531 -0.17713,0.07591 -0.25306,0.12653c-0.07592,0.05061 -0.15184,0.12652 -0.21088,0.20244c-0.05904,0.07591 -0.10122,0.16027 -0.13496,0.26149zM249.70553,157.55131v-3.16316c0,-0.08435 0.03374,-0.16027 0.09279,-0.21931c0.05904,-0.05904 0.13496,-0.09279 0.21931,-0.09279c0.08436,0 0.16027,0.03374 0.21931,0.09279c0.05904,0.05904 0.09279,0.13496 0.09279,0.21931v3.16316c0,0.08435 -0.03375,0.16027 -0.09279,0.21931c-0.05904,0.05904 -0.13495,0.09279 -0.21931,0.09279c-0.08436,0 -0.16027,-0.03375 -0.21931,-0.09279c-0.05904,-0.05904 -0.09279,-0.13496 -0.09279,-0.21931z" fill="#000000" stroke="#000000" stroke-width="0.5" stroke-linecap="butt"/><path d="M234.21292,150.57039c0.23111,-0.02813 0.46712,-0.01605 0.67909,0.04993c0.21198,0.06598 0.41756,0.16333 0.58785,0.30577c0.17029,0.14243 0.32171,0.29737 0.43782,0.49738c0.11612,0.20001 0.18321,0.41618 0.21133,0.64729c0.02812,0.23111 0.01483,0.45707 -0.05116,0.66905c-0.06599,0.21197 -0.16333,0.41756 -0.31459,0.59912l-4.55163,5.83603c-0.13239,0.16907 -0.29098,0.29033 -0.49588,0.36626l-2.2515,0.85522c-0.0201,0.00244 -0.02892,0.01372 -0.03897,0.01494c-0.01005,0.00122 -0.03015,0.00367 -0.05024,0.00611c-0.10048,0.01223 -0.19582,-0.01697 -0.27471,-0.07874c-0.0789,-0.06178 -0.13009,-0.14733 -0.14232,-0.24781c-0.00245,-0.02009 -0.00489,-0.04019 -0.00611,-0.05024c-0.00122,-0.01005 -0.00367,-0.03015 0.00516,-0.04141l0.31163,-2.38329c0.00909,-0.09288 0.03706,-0.19826 0.07629,-0.2948c0.03924,-0.09655 0.08975,-0.18427 0.15153,-0.26317l4.55163,-5.83603c0.14121,-0.18034 0.30741,-0.32293 0.50742,-0.43905c0.20001,-0.11612 0.43629,-0.18565 0.65736,-0.21256zM234.30462,151.324c-0.12058,0.01467 -0.24877,0.05067 -0.35318,0.11436c-0.10442,0.06369 -0.20639,0.14748 -0.28583,0.24892l-4.55041,5.84608c-0.04412,0.05636 -0.06694,0.12031 -0.07969,0.18305l-0.22544,1.75077l1.66693,-0.63112c0.06789,-0.02865 0.11447,-0.06492 0.16864,-0.1225l4.55284,-5.82598c0.07943,-0.10144 0.13754,-0.21048 0.17311,-0.33717c0.03557,-0.12669 0.04099,-0.24973 0.02632,-0.3703c-0.0159,-0.13063 -0.05066,-0.24876 -0.11558,-0.36324c-0.06492,-0.11447 -0.14748,-0.20639 -0.23765,-0.277c-0.09017,-0.07061 -0.20927,-0.12749 -0.32714,-0.17433c-0.11787,-0.04684 -0.28231,-0.05742 -0.41294,-0.04153z" fill="#000000" stroke="#000000" stroke-width="0.6" stroke-linecap="butt"/></g></g></svg>