<svg version="1.1" xmlns="http://www.w3.org/2000/svg" xmlns:xlink="http://www.w3.org/1999/xlink" width="69.0542" height="107.22274" viewBox="0,0,69.0542,107.22274"><g transform="translate(-227.85436,-114.30117)"><g stroke-miterlimit="10"><g><path d="M240.35436,126.84181c12.04325,0.05742 24.13441,4.18571 34.04969,12.57081c20.64146,17.45596 24.65684,47.27453 10.36849,69.39247" fill="none" stroke="#0285ff" stroke-width="25"/><path d="M231.21761,118.69634c4.42412,-5.23146 12.25151,-5.88595 17.48298,-1.46183c5.23146,4.42412 5.88594,12.25151 1.46183,17.48297c-4.42412,5.23146 -12.25151,5.88594 -17.48298,1.46183c-5.23147,-4.42412 -5.88594,-12.25151 -1.46183,-17.48297z" fill="#0285ff" stroke="none" stroke-width="0"/><path d="M275.03042,201.10761c4.42411,-5.23147 12.25151,-5.88594 17.48298,-1.46183c5.23147,4.42412 5.88594,12.25151 1.46183,17.48298c-4.42411,5.23146 -12.25151,5.88594 -17.48297,1.46183c-5.23147,-4.42412 -5.88595,-12.25151 -1.46184,-17.48298z" fill="#0285ff" stroke="none" stroke-width="0"/></g></g></g></svg>