<svg version="1.1" xmlns="http://www.w3.org/2000/svg" xmlns:xlink="http://www.w3.org/1999/xlink" width="22.53581" height="209.91157" viewBox="0,0,22.53581,209.91157"><g transform="translate(-228.27746,-169.18673)"><g stroke-miterlimit="10"><path d="M229.18673,180c0,-5.972 4.84127,-10.81327 10.81327,-10.81327c5.972,0 10.81327,4.84127 10.81327,10.81327c0,5.972 -4.84127,10.81327 -10.81327,10.81327c-5.972,0 -10.81327,-4.84127 -10.81327,-10.81327z" fill="#d9d9d9" stroke="none" stroke-width="0" stroke-linecap="butt"/><g fill="none" stroke="#000000" stroke-width="2" stroke-linecap="round"><path d="M238.86168,176.52665l-3.47335,3.47335"/><path d="M238.86168,183.47335l-3.47335,-3.29523"/></g><path d="M236.38718,180.06124l7.22565,-0.12247" fill="none" stroke="#000000" stroke-width="2" stroke-linecap="round"/><g stroke-linecap="butt"><path d="M228.27746,368.28503c0,-5.972 4.84127,-10.81327 10.81327,-10.81327c5.972,0 10.81327,4.84127 10.81327,10.81327c0,5.972 -4.84127,10.81327 -10.81327,10.81327c-5.972,0 -10.81327,-4.84127 -10.81327,-10.81327z" fill="#d9d9d9" stroke="none" stroke-width="0"/><path d="M244.66497,365.50737c0.23111,-0.02813 0.46712,-0.01605 0.67909,0.04993c0.21198,0.06598 0.41756,0.16333 0.58785,0.30577c0.17029,0.14243 0.32171,0.29737 0.43782,0.49738c0.11612,0.20001 0.18321,0.41618 0.21133,0.64729c0.02812,0.23111 0.01483,0.45707 -0.05116,0.66905c-0.06599,0.21197 -0.16333,0.41756 -0.31459,0.59912l-4.55163,5.83603c-0.13239,0.16907 -0.29098,0.29033 -0.49588,0.36626l-2.2515,0.85522c-0.0201,0.00244 -0.02892,0.01372 -0.03897,0.01494c-0.01005,0.00122 -0.03015,0.00367 -0.05024,0.00611c-0.10048,0.01223 -0.19582,-0.01697 -0.27471,-0.07874c-0.0789,-0.06178 -0.13009,-0.14733 -0.14232,-0.24781c-0.00245,-0.02009 -0.00489,-0.04019 -0.00611,-0.05024c-0.00122,-0.01005 -0.00367,-0.03015 0.00516,-0.04141l0.31163,-2.38329c0.00909,-0.09288 0.03706,-0.19826 0.07629,-0.2948c0.03924,-0.09655 0.08975,-0.18427 0.15153,-0.26317l4.55163,-5.83603c0.14121,-0.18034 0.30741,-0.32293 0.50742,-0.43905c0.20001,-0.11612 0.43629,-0.18565 0.65736,-0.21256zM244.75667,366.26098c-0.12058,0.01467 -0.24877,0.05067 -0.35318,0.11436c-0.10442,0.06369 -0.20639,0.14748 -0.28583,0.24892l-4.55041,5.84608c-0.04412,0.05636 -0.06694,0.12031 -0.07969,0.18305l-0.22544,1.75077l1.66693,-0.63112c0.06789,-0.02865 0.11447,-0.06492 0.16864,-0.1225l4.55284,-5.82598c0.07943,-0.10144 0.13754,-0.21048 0.17311,-0.33717c0.03557,-0.12669 0.04099,-0.24973 0.02632,-0.3703c-0.0159,-0.13063 -0.05066,-0.24876 -0.11558,-0.36324c-0.06492,-0.11447 -0.14748,-0.20639 -0.23765,-0.277c-0.09017,-0.07061 -0.20927,-0.12749 -0.32714,-0.17433c-0.11787,-0.04684 -0.28231,-0.05742 -0.41294,-0.04153z" fill="#000000" stroke="#000000" stroke-width="0.6"/><path d="M240.01077,361.90468c-0.13435,4.33629 -1.68116,7.75668 -3.56956,7.75668c-1.8884,0 -3.43522,-3.42039 -3.56956,-7.75668" fill="none" stroke="#000000" stroke-width="1"/><path d="M237.46472,368.04263c0,-0.54286 0.44008,-0.98294 0.98294,-0.98294c0.54286,0 0.98294,0.44008 0.98294,0.98294c0,0.54286 -0.44008,0.98294 -0.98294,0.98294c-0.54286,0 -0.98294,-0.44008 -0.98294,-0.98294z" fill="#000000" stroke="#000000" stroke-width="1"/></g></g></g></svg>