<svg version="1.1" xmlns="http://www.w3.org/2000/svg" xmlns:xlink="http://www.w3.org/1999/xlink" width="540.46276" height="443.93003" viewBox="0,0,540.46276,443.93003"><defs><linearGradient x1="664.25848" y1="220.47173" x2="344.58426" y2="547.55918" gradientUnits="userSpaceOnUse" id="color-1"><stop offset="0" stop-color="#ffeeee"/><stop offset="1" stop-color="#ffd6ef"/></linearGradient><linearGradient x1="-113.73378" y1="9.70542" x2="109.69719" y2="9.70542" gradientUnits="userSpaceOnUse" id="color-2"><stop offset="0" stop-color="#bbcaff"/><stop offset="1" stop-color="#bfdfff"/></linearGradient><linearGradient x1="-69.69988" y1="48.7718" x2="329.77225" y2="451.55302" gradientUnits="userSpaceOnUse" id="color-3"><stop offset="0" stop-color="#baeeff" stop-opacity="0.44314"/><stop offset="1" stop-color="#d7e0ff" stop-opacity="0.59608"/></linearGradient><linearGradient x1="182.35111" y1="371.87399" x2="768.45937" y2="371.87399" gradientUnits="userSpaceOnUse" id="color-4"><stop offset="0" stop-color="#ffc1ba" stop-opacity="0.78039"/><stop offset="1" stop-color="#ffd6f7" stop-opacity="0.59608"/></linearGradient><linearGradient x1="-27.49613" y1="69.87595" x2="516.13414" y2="298.39965" gradientUnits="userSpaceOnUse" id="color-5"><stop offset="0" stop-color="#ffebeb" stop-opacity="0.09804"/><stop offset="1" stop-color="#efecff"/></linearGradient><linearGradient x1="216.84262" y1="201.43235" x2="263.26303" y2="158.57907" gradientUnits="userSpaceOnUse" id="color-6"><stop offset="0" stop-color="#003e6d"/><stop offset="1" stop-color="#462355"/></linearGradient><linearGradient x1="232.77707" y1="201.55763" x2="249.40595" y2="186.20658" gradientUnits="userSpaceOnUse" id="color-7"><stop offset="0" stop-color="#003e6d"/><stop offset="1" stop-color="#462355"/></linearGradient><linearGradient x1="221.04113" y1="188.52184" x2="244.00421" y2="167.32333" gradientUnits="userSpaceOnUse" id="color-8"><stop offset="0" stop-color="#003e6d"/><stop offset="1" stop-color="#462355"/></linearGradient><linearGradient x1="233.44962" y1="184.45705" x2="240.9641" y2="177.52001" gradientUnits="userSpaceOnUse" id="color-9"><stop offset="0" stop-color="#003e6d"/><stop offset="1" stop-color="#462355"/></linearGradient></defs><g transform="translate(27.0183,45.22524)"><g stroke-miterlimit="10"><path d="M-0.27248,368.63949v-368.28412h487.50692v368.28412z" fill="#ffffff" stroke="none" stroke-width="0" stroke-linecap="butt"/><path d="M276.34337,367.36766c3.76907,-51.9956 25.2431,-102.987 64.53425,-143.18931c40.77733,-41.72296 93.61219,-64.52685 147.56684,-68.28631" fill="none" stroke="url(#color-1)" stroke-width="50" stroke-linecap="butt"/><path d="M109.63732,6.01307c0.03981,1.2259 0.05987,2.45678 0.05987,3.69236c0,61.69876 -50.01672,111.71548 -111.71548,111.71548c-0.41993,0 -0.83931,-0.00232 -1.25815,-0.00694" fill="none" stroke="url(#color-2)" stroke-width="50" stroke-linecap="butt"/><path d="M215.91988,-20.22524c42.30936,13.39948 82.08746,36.95526 115.50693,70.65157c87.01869,87.73951 104.93196,218.02157 54.01851,323.27846" fill="none" stroke="url(#color-3)" stroke-width="50" stroke-linecap="butt"/><path d="M182.35386,373.15636c-0.00183,-0.42724 -0.00275,-0.8547 -0.00275,-1.28237c0,-161.84932 131.2048,-293.05413 293.05413,-293.05413c5.80192,0 11.56446,0.16861 17.28299,0.50118" fill="none" stroke="url(#color-4)" stroke-width="30" stroke-linecap="butt"/><path d="M2.87161,369.67657l-0.90037,-369.89995l483.79516,-1.1776l0.90037,369.89995z" fill="url(#color-5)" stroke="none" stroke-width="0" stroke-linecap="butt"/><path d="M222.24837,205.31683c0.00294,0.00104 0.00588,0.00207 0.00883,0.00312c-0.00087,0.00098 -0.0017,0.00199 -0.00254,0.00303c-0.00206,-0.00206 -0.00416,-0.0041 -0.00629,-0.00615z" fill="#ffffff" stroke="none" stroke-width="0" stroke-linecap="butt"/><g fill="none"><path d="M225.18258,205.52094c-0.56549,-0.00474 -1.12039,-0.05339 -1.6615,-0.14266c-0.3,-0.08086 -0.64137,-0.18367 -0.94365,-0.20002c-0.05999,-0.0156 -0.11976,-0.03169 -0.17934,-0.04831c-0.15421,-0.05856 -0.30219,-0.11402 -0.43678,-0.155c-0.06445,-0.01962 -0.12865,-0.04008 -0.19247,-0.06165l-0.03076,-0.0104c0,0 -0.02754,-0.00931 -0.05539,-0.00047c-0.01286,-0.00948 -0.02859,-0.0153 -0.04566,-0.01593c-0.03015,-0.01091 -0.06024,-0.02197 -0.09028,-0.03313l-0.01832,-0.00924c-0.38009,-0.17069 -0.80432,-0.38485 -1.19847,-0.53295c-0.04219,-0.02206 -0.08422,-0.04441 -0.12609,-0.06701c-0.00756,-0.01683 -0.01821,-0.02758 -0.01821,-0.02758l-0.05853,-0.04238c-0.18492,-0.04672 -0.28255,-0.16784 -0.44019,-0.26041c0,0 -0.03251,-0.01875 -0.06626,-0.00893c-0.38843,-0.24274 -0.76009,-0.50976 -1.11288,-0.79892c0.00565,-0.04841 -0.04092,-0.07662 -0.04092,-0.07662c-0.12279,-0.07434 -0.22913,-0.16728 -0.34134,-0.25204c-0.03649,-0.03345 -0.07307,-0.06681 -0.10967,-0.10019c-0.06653,-0.06165 -0.13228,-0.12416 -0.19722,-0.18747c0.00401,-0.03779 -0.02519,-0.06723 -0.02519,-0.06723l-0.0599,-0.0604c-0.1078,-0.10637 -0.21246,-0.21711 -0.31719,-0.32836c-0.00121,-0.00312 -0.00208,-0.00488 -0.00208,-0.00488l-0.04513,-0.08168c-0.18722,-0.18472 -0.42444,-0.54958 -0.64926,-0.70898c-0.02698,-0.03601 -0.05371,-0.07221 -0.08026,-0.10856c-0.154,-0.25819 -0.32991,-0.54883 -0.52252,-0.78707c-0.27043,-0.44926 -0.50873,-0.92001 -0.71171,-1.40905c-0.13,-0.40052 -0.23211,-0.8105 -0.41374,-1.19298c-0.00087,-0.00308 -0.00173,-0.00619 -0.0026,-0.00927c-0.00225,-0.01467 -0.0044,-0.02933 -0.00644,-0.04397c0,0 -0.00299,-0.02155 -0.01699,-0.04094c-0.01509,-0.05562 -0.02975,-0.11141 -0.04397,-0.16738c0,-0.00065 0.00002,-0.00131 0.00004,-0.00197c0,0 0.00009,-0.0225 -0.01159,-0.04399c-0.00944,-0.0379 -0.01869,-0.07589 -0.02772,-0.11395c-0.00999,-0.07574 -0.01881,-0.15052 -0.02663,-0.2236c-0.03408,-0.1216 -0.06635,-0.24422 -0.09613,-0.36767c-0.063,-0.35371 -0.10858,-0.71341 -0.13582,-1.07818c-0.00056,-0.07949 -0.00054,-0.15899 -0.00021,-0.23847c0,0 0.00012,-0.02965 -0.0176,-0.0534c-0.00296,-0.06219 -0.00537,-0.12452 -0.00724,-0.18697c0.00236,-0.57718 0.00472,-1.15433 0.00709,-1.73151c0.00224,-0.54636 0.00447,-1.09271 0.00671,-1.63906c0,0 0.00017,-0.04042 -0.0281,-0.06467l-0.00142,-0.41346c0.00099,-0.0412 0.00163,-0.08235 0.0019,-0.12348c0,0 0.00003,-0.00792 -0.00238,-0.01887l-0.08991,-26.22143c0.01803,-0.70687 0.10436,-1.39602 0.25255,-2.06128c0.07814,-0.24688 0.14361,-0.49597 0.19334,-0.741c0.11336,-0.37803 0.24704,-0.74709 0.39973,-1.10593c0.16178,-0.27716 0.30866,-0.55653 0.40984,-0.85503c1.83477,-3.42678 5.48021,-5.72444 9.62988,-5.64394l0.15772,0.00065l29.24311,-0.13661c5.87138,0.01848 10.62574,4.77504 10.64146,10.64644l-0.00066,0.161l0.10075,29.97896c-0.11189,3.57469 -1.96954,6.68602 -4.73166,8.5381c-0.93561,0.34421 -2.92568,0.99878 -3.50978,1.37542c-0.04466,0.02881 -0.09521,0.0738 -0.15019,0.13205c-0.05439,0.02713 -0.10791,0.05573 -0.16051,0.08575c-0.76628,0.15436 -1.56146,0.2264 -2.37562,0.20672l-0.15772,-0.00065z" stroke="url(#color-6)" stroke-width="4" stroke-linecap="butt"/><path d="M256.47929,193.86871l-30.77556,0.02679" stroke="url(#color-7)" stroke-width="5" stroke-linecap="round"/><path d="M239.81551,162.78596l-14.58567,30.27327" stroke="url(#color-8)" stroke-width="5" stroke-linecap="round"/><path d="M215.48922,163.3926c20.15733,3.47505 35.64049,20.54015 36.72274,41.38858" stroke="url(#color-9)" stroke-width="4" stroke-linecap="butt"/></g></g></g></svg>