<svg version="1.1" xmlns="http://www.w3.org/2000/svg" xmlns:xlink="http://www.w3.org/1999/xlink" width="83.54376" height="100.73101" viewBox="0,0,83.54376,100.73101"><g transform="translate(-176.3943,-114.15771)"><g stroke-miterlimit="10"><g><path d="M192.14425,202.38872c-5.11405,-10.90365 -6.57133,-23.59677 -3.24995,-36.1503c6.91438,-26.13373 32.12799,-42.55154 58.23673,-39.13188" fill="none" stroke="#0285ff" stroke-width="25"/><path d="M188.70538,214.1362c-6.62345,-1.75242 -10.5722,-8.54238 -8.8198,-15.16584c1.75242,-6.62344 8.54239,-10.57219 15.16583,-8.81979c6.62345,1.75242 10.5722,8.5424 8.8198,15.16585c-1.75241,6.62346 -8.5424,10.57218 -15.16583,8.81978z" fill="#0285ff" stroke="none" stroke-width="0"/><path d="M244.35652,139.2087c-6.62345,-1.75241 -10.57219,-8.54239 -8.8198,-15.16585c1.75242,-6.62345 8.54239,-10.5722 15.16584,-8.81981c6.62344,1.7524 10.5722,8.5424 8.8198,15.16584c-1.75242,6.62345 -8.54238,10.57221 -15.16584,8.8198z" fill="#0285ff" stroke="none" stroke-width="0"/></g></g></g></svg>