<svg version="1.1" xmlns="http://www.w3.org/2000/svg" xmlns:xlink="http://www.w3.org/1999/xlink" width="482.15534" height="169.74323" viewBox="0,0,482.15534,169.74323"><g transform="translate(0.41309,-183.10037)"><g stroke-miterlimit="10"><path d="M-0.41309,231.63924v-48.53887h482.15534v48.53887z" fill-opacity="0.74902" fill="#f0f0f0" stroke="none" stroke-width="0" stroke-linecap="butt"/><path d="M425.96086,197.48223c0,-6.2134 5.03696,-11.25035 11.25036,-11.25035c6.2134,0 11.25036,5.03695 11.25036,11.25035c0,6.2134 -5.03695,11.25036 -11.25036,11.25036c-6.2134,0 -11.25036,-5.03696 -11.25036,-11.25036z" fill="#e0e0e0" stroke="none" stroke-width="0" stroke-linecap="butt"/><g fill="none" stroke="#000000" stroke-width="2" stroke-linecap="round"><path d="M437.55945,199.51949l-3.39119,-3.55361"/><path d="M441.11306,196.12831l-3.37554,3.39535"/></g><path d="M398.91824,197.68659c0,-6.2134 5.03696,-11.25036 11.25036,-11.25036c6.2134,0 11.25036,5.03696 11.25036,11.25036c0,6.2134 -5.03695,11.25035 -11.25035,11.25035c-6.2134,0 -11.25036,-5.03695 -11.25036,-11.25035z" fill="#e0e0e0" stroke="none" stroke-width="0" stroke-linecap="butt"/><path d="M405.77813,201.93241c-0.20328,0 -0.39613,-0.0417 -0.58377,-0.12509c-0.18764,-0.08339 -0.34922,-0.19807 -0.48995,-0.33358c-0.14073,-0.13552 -0.25019,-0.30231 -0.33358,-0.48995c-0.08339,-0.18764 -0.1251,-0.38049 -0.1251,-0.58378v-5.5354c0,-0.20328 0.0417,-0.39613 0.1251,-0.58377c0.08339,-0.18764 0.19807,-0.34922 0.33358,-0.48995c0.13552,-0.14073 0.30231,-0.25019 0.48995,-0.33358c0.18764,-0.08339 0.38049,-0.1251 0.58377,-0.1251h9.44459c0.20328,0 0.39614,0.0417 0.58378,0.1251c0.18764,0.08339 0.34922,0.19807 0.48995,0.33358c0.14073,0.13552 0.25019,0.30231 0.33358,0.48995c0.08339,0.18764 0.1251,0.38049 0.1251,0.58377v5.5354c0,0.20328 -0.0417,0.39614 -0.1251,0.58378c-0.08339,0.18764 -0.19807,0.34922 -0.33358,0.48995c-0.13552,0.14073 -0.30231,0.25019 -0.48995,0.33358c-0.18764,0.08339 -0.38049,0.12509 -0.58378,0.12509zM415.19143,201.15057c0.10946,0 0.21371,-0.02085 0.30752,-0.06255c0.09382,-0.0417 0.17721,-0.09903 0.24498,-0.16679c0.07297,-0.07297 0.12509,-0.15116 0.16679,-0.24498c0.0417,-0.09382 0.06255,-0.19807 0.06255,-0.30752v-5.47286c0,-0.10424 -0.02085,-0.20849 -0.06255,-0.30231c-0.0417,-0.09382 -0.09903,-0.17721 -0.16679,-0.25018c-0.07297,-0.07297 -0.15637,-0.1251 -0.25019,-0.1668c-0.09382,-0.0417 -0.19807,-0.06255 -0.30231,-0.06255h-9.38204c-0.10946,0 -0.21371,0.02085 -0.30753,0.06255c-0.09382,0.0417 -0.17721,0.09904 -0.24497,0.1668c-0.07297,0.07297 -0.12509,0.15115 -0.16679,0.24497c-0.0417,0.09382 -0.06255,0.19807 -0.06255,0.30752v5.47286c0,0.10945 0.02085,0.2137 0.06255,0.30752c0.0417,0.09382 0.09382,0.17722 0.16679,0.24498c0.06776,0.06776 0.15115,0.12509 0.24497,0.16679c0.09382,0.0417 0.19807,0.06255 0.30753,0.06255zM406.20032,195.87578c0,-0.16158 0.05734,-0.30231 0.17201,-0.41698c0.11467,-0.11467 0.25019,-0.17201 0.41698,-0.17201c0.16158,0 0.30231,0.05734 0.41698,0.17201c0.11467,0.11467 0.17201,0.25019 0.17201,0.41698c0,0.16158 -0.05734,0.30231 -0.17201,0.41698c-0.11467,0.11467 -0.25019,0.172 -0.41698,0.172c-0.16158,0 -0.30231,-0.05733 -0.41698,-0.172c-0.11467,-0.11467 -0.17201,-0.2554 -0.17201,-0.41698zM406.98216,200.36874c-0.10424,0 -0.19806,-0.03648 -0.27625,-0.11467c-0.07819,-0.07818 -0.11467,-0.1668 -0.11467,-0.27625c0,-0.10424 0.03648,-0.19807 0.11467,-0.27625c0.07819,-0.07818 0.16679,-0.11467 0.27625,-0.11467h7.03653c0.10424,0 0.19806,0.03648 0.27625,0.11467c0.07819,0.07818 0.11467,0.1668 0.11467,0.27625c0,0.10424 -0.03648,0.19807 -0.11467,0.27625c-0.07819,0.07818 -0.16679,0.11467 -0.27625,0.11467zM407.764,198.22129c0,-0.16158 0.05733,-0.30231 0.172,-0.41698c0.11467,-0.11467 0.25019,-0.17201 0.41698,-0.17201c0.16158,0 0.30231,0.05734 0.41698,0.17201c0.11467,0.11467 0.172,0.25019 0.172,0.41698c0,0.16158 -0.05733,0.30231 -0.172,0.41698c-0.11467,0.11467 -0.25019,0.17201 -0.41698,0.17201c-0.16158,0 -0.30231,-0.05734 -0.41698,-0.17201c-0.11467,-0.11467 -0.172,-0.2554 -0.172,-0.41698zM408.54583,195.87578c0,-0.16158 0.05734,-0.30231 0.17201,-0.41698c0.11467,-0.11467 0.25019,-0.17201 0.41698,-0.17201c0.16158,0 0.30231,0.05734 0.41698,0.17201c0.11467,0.11467 0.17201,0.25019 0.17201,0.41698c0,0.16158 -0.05734,0.30231 -0.17201,0.41698c-0.11467,0.11467 -0.25019,0.172 -0.41698,0.172c-0.16158,0 -0.30231,-0.05733 -0.41698,-0.172c-0.11467,-0.11467 -0.17201,-0.2554 -0.17201,-0.41698zM410.1095,198.22129c0,-0.16158 0.05734,-0.30231 0.17201,-0.41698c0.11467,-0.11467 0.25019,-0.17201 0.41698,-0.17201c0.16158,0 0.30231,0.05734 0.41698,0.17201c0.11467,0.11467 0.172,0.25019 0.172,0.41698c0,0.16158 -0.05733,0.30231 -0.172,0.41698c-0.11467,0.11467 -0.25019,0.17201 -0.41698,0.17201c-0.16158,0 -0.30231,-0.05734 -0.41698,-0.17201c-0.11467,-0.11467 -0.17201,-0.2554 -0.17201,-0.41698zM410.89135,195.87578c0,-0.16158 0.05734,-0.30231 0.17201,-0.41698c0.11467,-0.11467 0.25019,-0.17201 0.41698,-0.17201c0.16158,0 0.30231,0.05734 0.41698,0.17201c0.11467,0.11467 0.17201,0.25019 0.17201,0.41698c0,0.16158 -0.05734,0.30231 -0.17201,0.41698c-0.11467,0.11467 -0.25019,0.172 -0.41698,0.172c-0.16158,0 -0.30231,-0.05733 -0.41698,-0.172c-0.11467,-0.11467 -0.17201,-0.2554 -0.17201,-0.41698zM412.45502,198.22129c0,-0.16158 0.05734,-0.30231 0.17201,-0.41698c0.11467,-0.11467 0.25019,-0.17201 0.41698,-0.17201c0.16158,0 0.30231,0.05734 0.41698,0.17201c0.11467,0.11467 0.17201,0.25019 0.17201,0.41698c0,0.16158 -0.05734,0.30231 -0.17201,0.41698c-0.11467,0.11467 -0.25019,0.17201 -0.41698,0.17201c-0.16158,0 -0.30231,-0.05734 -0.41698,-0.17201c-0.11467,-0.11467 -0.17201,-0.2554 -0.17201,-0.41698zM413.23686,195.87578c0,-0.16158 0.05734,-0.30231 0.17201,-0.41698c0.11467,-0.11467 0.25019,-0.17201 0.41698,-0.17201c0.16158,0 0.30231,0.05734 0.41698,0.17201c0.11467,0.11467 0.17201,0.25019 0.17201,0.41698c0,0.16158 -0.05734,0.30231 -0.17201,0.41698c-0.11467,0.11467 -0.25019,0.172 -0.41698,0.172c-0.16158,0 -0.30231,-0.05733 -0.41698,-0.172c-0.11467,-0.11467 -0.17201,-0.2554 -0.17201,-0.41698z" fill="#000000" stroke="#000000" stroke-width="0.25" stroke-linecap="butt"/><path d="M33.30273,197.52427c0,-6.2134 5.03695,-11.25036 11.25036,-11.25036c6.2134,0 11.25036,5.03696 11.25036,11.25036c0,6.2134 -5.03695,11.25036 -11.25035,11.25036c-6.2134,0 -11.25035,-5.03696 -11.25035,-11.25036z" fill="#e0e0e0" stroke="none" stroke-width="0" stroke-linecap="butt"/><path d="M59.6901,197.6206c0,-6.2134 5.03695,-11.25035 11.25036,-11.25035c6.2134,0 11.25036,5.03695 11.25036,11.25035c0,6.2134 -5.03696,11.25036 -11.25036,11.25036c-6.2134,0 -11.25035,-5.03696 -11.25035,-11.25036z" fill="#e0e0e0" stroke="none" stroke-width="0" stroke-linecap="butt"/><path d="M87.03159,197.513c0,-6.2134 5.03696,-11.25036 11.25036,-11.25036c6.2134,0 11.25036,5.03696 11.25036,11.25036c0,6.2134 -5.03695,11.25035 -11.25035,11.25035c-6.2134,0 -11.25036,-5.03695 -11.25036,-11.25035z" fill="#e0e0e0" stroke="none" stroke-width="0" stroke-linecap="butt"/><text transform="translate(41.33116,200.27176) scale(0.26443,0.26443)" font-size="40" xml:space="preserve" fill="#000000" stroke="none" stroke-width="1" stroke-linecap="butt" font-family="Sans Serif" font-weight="normal" text-anchor="start"><tspan x="0" dy="0">1</tspan></text><path d="M140.93957,197.7111c0,-6.2134 5.03696,-11.25036 11.25036,-11.25036c6.2134,0 11.25036,5.03696 11.25036,11.25036c0,6.2134 -5.03695,11.25035 -11.25035,11.25035c-6.2134,0 -11.25036,-5.03695 -11.25036,-11.25035z" fill="#a8a8a8" stroke="none" stroke-width="0" stroke-linecap="butt"/><text transform="translate(68.20733,200.57838) scale(0.26443,0.26443)" font-size="40" xml:space="preserve" fill="#000000" stroke="none" stroke-width="1" stroke-linecap="butt" font-family="Sans Serif" font-weight="normal" text-anchor="start"><tspan x="0" dy="0">2</tspan></text><text transform="translate(95.82088,200.67167) scale(0.26443,0.26443)" font-size="40" xml:space="preserve" fill="#000000" stroke="none" stroke-width="1" stroke-linecap="butt" font-family="Sans Serif" font-weight="normal" text-anchor="start"><tspan x="0" dy="0">3</tspan></text><g fill="none" stroke="#000000" stroke-width="1.25"><path d="M148.32862,194.92857c-0.00276,-0.04281 -0.00417,-0.08599 -0.00417,-0.12948c0,-1.09332 0.8863,-1.97962 1.97962,-1.97962c0.17474,0 0.34418,0.02265 0.50557,0.06516" stroke-linecap="butt"/><path d="M151.12709,192.99739l-0.40037,-0.13345" stroke-linecap="round"/><path d="M148.32448,194.91031v6.76186" stroke-linecap="round"/><path d="M146.98989,196.20039h2.75814" stroke-linecap="round"/><path d="M157.11417,197.56709c0.45871,0.50218 0.73851,1.17059 0.73851,1.90435c0,0.75037 -0.29262,1.43242 -0.76997,1.93824" stroke-linecap="butt"/><path d="M151.9271,201.30759c-0.44256,-0.49864 -0.71133,-1.15499 -0.71133,-1.87415c0,-0.70173 0.25589,-1.34369 0.67945,-1.83763" stroke-linecap="butt"/><path d="M152.18041,201.60381l-0.30399,-0.34199" stroke-linecap="round"/><path d="M151.83846,197.65196l0.30398,-0.37999" stroke-linecap="round"/><path d="M156.85422,197.23398l0.26598,0.30399" stroke-linecap="round"/><path d="M157.19619,201.26182l-0.41798,0.41798" stroke-linecap="round"/><path d="M153.55174,198.23997l2.20256,2.31455" stroke-linecap="round"/><path d="M155.64233,198.35195l-2.12792,2.20256" stroke-linecap="round"/></g><path d="M113.98415,197.7407c0,-6.2134 5.03696,-11.25036 11.25036,-11.25036c6.2134,0 11.25036,5.03696 11.25036,11.25036c0,6.2134 -5.03695,11.25035 -11.25035,11.25035c-6.2134,0 -11.25036,-5.03695 -11.25036,-11.25035z" fill="#e0e0e0" stroke="none" stroke-width="0" stroke-linecap="butt"/><text transform="translate(122.77344,200.89937) scale(0.26443,0.26443)" font-size="40" xml:space="preserve" fill="#000000" stroke="none" stroke-width="1" stroke-linecap="butt" font-family="Sans Serif" font-weight="normal" text-anchor="start"><tspan x="0" dy="0">4</tspan></text><path d="M440.16696,289.21182h22.34284" fill="none" stroke="#ff0000" stroke-width="22" stroke-linecap="round"/><path d="M462.86212,315.76013h-22.34284" fill="none" stroke="#ff0000" stroke-width="22" stroke-linecap="round"/><path d="M444.20971,289.53688c0,-0.11145 0,-0.33434 0.11145,-0.44579c0.11145,-0.11145 0.11145,-0.22289 0.2229,-0.44579l3.12049,-3.45483c0.22289,-0.22289 0.44579,-0.33434 0.66868,-0.55723c0.22289,-0.22289 0.55723,-0.22289 0.89157,-0.22289h6.01808c0.22289,0 0.55723,0 0.78012,0.11145c0.22289,0.11145 0.44579,0.22289 0.66868,0.44579c0.22289,0.22289 0.33434,0.44579 0.44579,0.66868c0.11145,0.22289 0.11145,0.55723 0.11145,0.78012v5.90664c0,0.22289 0,0.55723 -0.11145,0.78012c-0.11145,0.22289 -0.22289,0.44579 -0.44579,0.66868c-0.22289,0.22289 -0.44579,0.33434 -0.66868,0.44579c-0.22289,0.11145 -0.55723,0.11145 -0.78012,0.11145h-6.01808c-0.33434,0 -0.55723,-0.11145 -0.89157,-0.22289c-0.33434,-0.11145 -0.55723,-0.33434 -0.66868,-0.55723l-3.12049,-3.45482c-0.11145,-0.11145 -0.2229,-0.22289 -0.2229,-0.44579c-0.11145,0.22289 -0.11145,0 -0.11145,-0.11145zM455.24288,293.66038c0.22289,0 0.33434,0 0.44579,-0.11145c0.11145,-0.11145 0.33434,-0.11145 0.44579,-0.22289c0.11145,-0.11145 0.22289,-0.22289 0.22289,-0.44579c0,-0.22289 0.11145,-0.33434 0.11145,-0.44579v-5.90664c0,-0.22289 0,-0.33434 -0.11145,-0.44579c-0.11145,-0.11145 -0.11145,-0.33434 -0.22289,-0.44579c-0.11145,-0.11145 -0.22289,-0.22289 -0.44579,-0.22289c-0.22289,0 -0.33434,-0.11145 -0.44579,-0.11145h-5.90664c-0.22289,0 -0.33434,0 -0.55723,0.11145c-0.22289,0.11145 -0.33434,0.22289 -0.44579,0.33434l-3.12049,3.45483c-0.11145,0.11145 -0.11145,0.22289 -0.11145,0.33434c0,0.11145 0,0.22289 0.11145,0.33434l3.12049,3.45483c0.11145,0.11145 0.22289,0.22289 0.44579,0.33434c0.22289,0.11145 0.33434,0.11145 0.55723,0.11145h5.90664zM452.23384,290.09411l-1.78314,1.78313c-0.11145,0.11145 -0.22289,0.11145 -0.33434,0.11145c-0.11145,0 -0.22289,0 -0.33434,-0.11145c-0.11145,-0.11145 -0.11145,-0.22289 -0.11145,-0.33434c0,-0.11145 0,-0.22289 0.11145,-0.33433l1.78314,-1.78314l-1.78314,-1.78314c-0.11145,-0.11145 -0.11145,-0.22289 -0.11145,-0.33434c0,-0.11145 0,-0.22289 0.11145,-0.33434c0.11145,-0.11145 0.22289,-0.11145 0.33434,-0.11145c0.11145,0 0.22289,0 0.33434,0.11145l1.78314,1.78314l1.78314,-1.78314c0.11145,-0.11145 0.22289,-0.11145 0.33434,-0.11145c0.11145,0 0.22289,0 0.33433,0.11145c0.11145,0.11145 0.11145,0.22289 0.11145,0.33434c0,0.11145 0,0.22289 -0.11145,0.33434l-1.78313,1.78314l1.78313,1.78314c0.11145,0.11145 0.11145,0.22289 0.11145,0.33433c0,0.11145 0,0.22289 -0.11145,0.33434c-0.11145,0.11145 -0.22289,0.11145 -0.33433,0.11145c-0.11145,0 -0.22289,0 -0.33434,-0.11145z" fill="#ffffff" stroke="#ffffff" stroke-width="0.5" stroke-linecap="butt"/><path d="M456.61925,310.82495v4.34272c0,0.34285 -0.11428,0.57141 -0.22856,0.79998c-0.11428,0.22856 -0.22856,0.45713 -0.45713,0.68569c-0.22856,0.22856 -0.45713,0.34285 -0.68569,0.45713c-0.22856,0.11428 -0.57141,0.11428 -0.79998,0.11428h-8.3426l2.74277,2.74277c0.11428,0.11428 0.11428,0.22856 0.11428,0.34285c0,0.11428 0,0.22856 -0.11428,0.34285c-0.11428,0.11428 -0.22856,0.11428 -0.34285,0.11428c-0.11428,0 -0.22856,0 -0.34285,-0.11428l-3.42847,-3.42847c-0.11428,-0.11428 -0.11428,-0.22856 -0.11428,-0.34285c0,-0.11428 0,-0.22856 0.11428,-0.34285l3.42847,-3.42847c0.11428,-0.11428 0.22856,-0.11428 0.34285,-0.11428c0.11428,0 0.22856,0 0.34285,0.11428c0.11428,0.11428 0.11428,0.22856 0.11428,0.34285c0,0.11428 0,0.22856 -0.11428,0.34285l-2.74277,2.74277h8.3426c0.22856,0 0.34285,0 0.45713,-0.11428c0.11428,-0.11428 0.34285,-0.11428 0.45713,-0.22856c0.11428,-0.11428 0.22856,-0.22856 0.22856,-0.45713c0,-0.22856 0.11428,-0.34285 0.11428,-0.45713v-4.34272c0,-0.11428 0,-0.22856 0.11428,-0.34285c0.11428,-0.11428 0.22856,-0.11428 0.34285,-0.11428c0.11428,0 0.22856,0 0.34285,0.11428c0.11428,0.11428 0.11428,0.11428 0.11428,0.22856z" fill="#ffffff" stroke="#ffffff" stroke-width="0.5" stroke-linecap="butt"/><path d="M440.6725,341.8436h22.34284" fill="none" stroke="#e0e0e0" stroke-width="22" stroke-linecap="round"/><path d="M6.71904,290.49389c0,-6.2134 5.03695,-11.25035 11.25036,-11.25035c6.2134,0 11.25036,5.03695 11.25036,11.25035c0,6.2134 -5.03696,11.25036 -11.25036,11.25036c-6.2134,0 -11.25035,-5.03696 -11.25035,-11.25036z" fill="#e0e0e0" stroke="none" stroke-width="0" stroke-linecap="butt"/><path d="M6.44291,317.55772c0,-6.2134 5.03695,-11.25035 11.25036,-11.25035c6.2134,0 11.25036,5.03695 11.25036,11.25035c0,6.2134 -5.03696,11.25036 -11.25036,11.25036c-6.2134,0 -11.25035,-5.03696 -11.25035,-11.25036z" fill="#e0e0e0" stroke="none" stroke-width="0" stroke-linecap="butt"/><g fill="none" stroke="#000000" stroke-width="2" stroke-linecap="round"><path d="M14.43831,316.58519l3.39119,3.55361"/><path d="M21.38311,316.74762l-3.37554,3.39535"/></g><g fill="none" stroke="#000000" stroke-width="2" stroke-linecap="round"><path d="M21.57592,291.58831l-3.36986,-3.57384"/><path d="M18.02802,288.00924l-3.3958,3.37509"/></g><text transform="translate(451.22185,344.35114) scale(0.20882,0.20882)" font-size="40" xml:space="preserve" fill="#000000" stroke="none" stroke-width="1" stroke-linecap="butt" font-family="Sans Serif" font-weight="normal" text-anchor="start"><tspan x="0" dy="0">,</tspan></text></g></g></svg>